%TF.GenerationSoftware,KiCad,Pcbnew,9.0.7*%
%TF.CreationDate,2026-01-22T10:29:23+01:00*%
%TF.ProjectId,xt-isa-umb,78742d69-7361-42d7-956d-622e6b696361,0.1*%
%TF.SameCoordinates,Original*%
%TF.FileFunction,Copper,L2,Bot*%
%TF.FilePolarity,Positive*%
%FSLAX46Y46*%
G04 Gerber Fmt 4.6, Leading zero omitted, Abs format (unit mm)*
G04 Created by KiCad (PCBNEW 9.0.7) date 2026-01-22 10:29:23*
%MOMM*%
%LPD*%
G01*
G04 APERTURE LIST*
G04 Aperture macros list*
%AMRoundRect*
0 Rectangle with rounded corners*
0 $1 Rounding radius*
0 $2 $3 $4 $5 $6 $7 $8 $9 X,Y pos of 4 corners*
0 Add a 4 corners polygon primitive as box body*
4,1,4,$2,$3,$4,$5,$6,$7,$8,$9,$2,$3,0*
0 Add four circle primitives for the rounded corners*
1,1,$1+$1,$2,$3*
1,1,$1+$1,$4,$5*
1,1,$1+$1,$6,$7*
1,1,$1+$1,$8,$9*
0 Add four rect primitives between the rounded corners*
20,1,$1+$1,$2,$3,$4,$5,0*
20,1,$1+$1,$4,$5,$6,$7,0*
20,1,$1+$1,$6,$7,$8,$9,0*
20,1,$1+$1,$8,$9,$2,$3,0*%
G04 Aperture macros list end*
%TA.AperFunction,ComponentPad*%
%ADD10C,1.400000*%
%TD*%
%TA.AperFunction,ComponentPad*%
%ADD11C,1.600000*%
%TD*%
%TA.AperFunction,ComponentPad*%
%ADD12RoundRect,0.250000X-0.350000X-0.350000X0.350000X-0.350000X0.350000X0.350000X-0.350000X0.350000X0*%
%TD*%
%TA.AperFunction,ComponentPad*%
%ADD13C,1.200000*%
%TD*%
%TA.AperFunction,ComponentPad*%
%ADD14RoundRect,0.250000X-0.550000X0.550000X-0.550000X-0.550000X0.550000X-0.550000X0.550000X0.550000X0*%
%TD*%
%TA.AperFunction,ComponentPad*%
%ADD15R,1.700000X1.700000*%
%TD*%
%TA.AperFunction,ComponentPad*%
%ADD16C,1.700000*%
%TD*%
%TA.AperFunction,ComponentPad*%
%ADD17RoundRect,0.250000X0.550000X-0.550000X0.550000X0.550000X-0.550000X0.550000X-0.550000X-0.550000X0*%
%TD*%
%TA.AperFunction,ConnectorPad*%
%ADD18RoundRect,0.444500X-0.444500X-3.619500X0.444500X-3.619500X0.444500X3.619500X-0.444500X3.619500X0*%
%TD*%
%TA.AperFunction,ViaPad*%
%ADD19C,1.000000*%
%TD*%
%TA.AperFunction,Conductor*%
%ADD20C,1.524000*%
%TD*%
%TA.AperFunction,Conductor*%
%ADD21C,1.500000*%
%TD*%
%TA.AperFunction,Conductor*%
%ADD22C,0.200000*%
%TD*%
%TA.AperFunction,Conductor*%
%ADD23C,0.254000*%
%TD*%
%TA.AperFunction,Conductor*%
%ADD24C,0.508000*%
%TD*%
G04 APERTURE END LIST*
D10*
%TO.P,R2,1*%
%TO.N,VCC*%
X116840000Y-99060000D03*
%TO.P,R2,2*%
%TO.N,Net-(JP1-B)*%
X116840000Y-91440000D03*
%TD*%
D11*
%TO.P,C1,1*%
%TO.N,VCC*%
X144780000Y-90932000D03*
%TO.P,C1,2*%
%TO.N,GND*%
X144780000Y-95932000D03*
%TD*%
D12*
%TO.P,C6,1*%
%TO.N,VCC*%
X175768000Y-128524000D03*
D13*
%TO.P,C6,2*%
%TO.N,GND*%
X177768000Y-128524000D03*
%TD*%
D11*
%TO.P,C4,1*%
%TO.N,VCC*%
X174498000Y-117308000D03*
%TO.P,C4,2*%
%TO.N,GND*%
X174498000Y-112308000D03*
%TD*%
D14*
%TO.P,U4,1,A->B*%
%TO.N,{slash}MEMW*%
X171450000Y-109601000D03*
D11*
%TO.P,U4,2,A0*%
%TO.N,Net-(U3-DQ7)*%
X168910000Y-109601000D03*
%TO.P,U4,3,A1*%
%TO.N,Net-(U3-DQ6)*%
X166370000Y-109601000D03*
%TO.P,U4,4,A2*%
%TO.N,Net-(U3-DQ5)*%
X163830000Y-109601000D03*
%TO.P,U4,5,A3*%
%TO.N,Net-(U3-DQ4)*%
X161290000Y-109601000D03*
%TO.P,U4,6,A4*%
%TO.N,Net-(U3-DQ3)*%
X158750000Y-109601000D03*
%TO.P,U4,7,A5*%
%TO.N,Net-(U3-DQ2)*%
X156210000Y-109601000D03*
%TO.P,U4,8,A6*%
%TO.N,Net-(U3-DQ1)*%
X153670000Y-109601000D03*
%TO.P,U4,9,A7*%
%TO.N,Net-(U3-DQ0)*%
X151130000Y-109601000D03*
%TO.P,U4,10,GND*%
%TO.N,GND*%
X148590000Y-109601000D03*
%TO.P,U4,11,B7*%
%TO.N,/D0*%
X148590000Y-117221000D03*
%TO.P,U4,12,B6*%
%TO.N,/D1*%
X151130000Y-117221000D03*
%TO.P,U4,13,B5*%
%TO.N,/D2*%
X153670000Y-117221000D03*
%TO.P,U4,14,B4*%
%TO.N,/D3*%
X156210000Y-117221000D03*
%TO.P,U4,15,B3*%
%TO.N,/D4*%
X158750000Y-117221000D03*
%TO.P,U4,16,B2*%
%TO.N,/D5*%
X161290000Y-117221000D03*
%TO.P,U4,17,B1*%
%TO.N,/D6*%
X163830000Y-117221000D03*
%TO.P,U4,18,B0*%
%TO.N,/D7*%
X166370000Y-117221000D03*
%TO.P,U4,19,CE*%
%TO.N,Net-(U3-~{CE})*%
X168910000Y-117221000D03*
%TO.P,U4,20,VCC*%
%TO.N,VCC*%
X171450000Y-117221000D03*
%TD*%
D15*
%TO.P,JP1,1,A*%
%TO.N,Net-(JP1-A)*%
X134493000Y-88900000D03*
D16*
%TO.P,JP1,2,B*%
%TO.N,Net-(JP1-B)*%
X131953000Y-88900000D03*
%TD*%
D15*
%TO.P,JP2,1,A*%
%TO.N,Net-(JP2-A)*%
X134371000Y-93980000D03*
D16*
%TO.P,JP2,2,B*%
%TO.N,Net-(JP2-B)*%
X131831000Y-93980000D03*
%TD*%
D11*
%TO.P,C3,1*%
%TO.N,VCC*%
X133350000Y-122515000D03*
%TO.P,C3,2*%
%TO.N,GND*%
X133350000Y-117515000D03*
%TD*%
D14*
%TO.P,U3,1,NC*%
%TO.N,unconnected-(U3-NC-Pad1)*%
X129539999Y-107188001D03*
D11*
%TO.P,U3,2,A16*%
%TO.N,/A16*%
X126999999Y-107188001D03*
%TO.P,U3,3,A14*%
%TO.N,/A14*%
X124459999Y-107188001D03*
%TO.P,U3,4,A12*%
%TO.N,/A13*%
X121919999Y-107188001D03*
%TO.P,U3,5,A7*%
%TO.N,/A11*%
X119379999Y-107188001D03*
%TO.P,U3,6,A6*%
%TO.N,/A9*%
X116839999Y-107188001D03*
%TO.P,U3,7,A5*%
%TO.N,/A7*%
X114299999Y-107188001D03*
%TO.P,U3,8,A4*%
%TO.N,/A5*%
X111759999Y-107188001D03*
%TO.P,U3,9,A3*%
%TO.N,/A4*%
X109219999Y-107188001D03*
%TO.P,U3,10,A2*%
%TO.N,/A2*%
X106679999Y-107188001D03*
%TO.P,U3,11,A1*%
%TO.N,/A1*%
X104139999Y-107188001D03*
%TO.P,U3,12,A0*%
%TO.N,/A0*%
X101599999Y-107188001D03*
%TO.P,U3,13,DQ0*%
%TO.N,Net-(U3-DQ0)*%
X99059999Y-107188001D03*
%TO.P,U3,14,DQ1*%
%TO.N,Net-(U3-DQ1)*%
X96519999Y-107188001D03*
%TO.P,U3,15,DQ2*%
%TO.N,Net-(U3-DQ2)*%
X93979999Y-107188001D03*
%TO.P,U3,16,GND*%
%TO.N,GND*%
X91439999Y-107188001D03*
%TO.P,U3,17,DQ3*%
%TO.N,Net-(U3-DQ3)*%
X91439999Y-122428001D03*
%TO.P,U3,18,DQ4*%
%TO.N,Net-(U3-DQ4)*%
X93979999Y-122428001D03*
%TO.P,U3,19,DQ5*%
%TO.N,Net-(U3-DQ5)*%
X96519999Y-122428001D03*
%TO.P,U3,20,DQ6*%
%TO.N,Net-(U3-DQ6)*%
X99059999Y-122428001D03*
%TO.P,U3,21,DQ7*%
%TO.N,Net-(U3-DQ7)*%
X101599999Y-122428001D03*
%TO.P,U3,22,~{CE}*%
%TO.N,Net-(U3-~{CE})*%
X104139999Y-122428001D03*
%TO.P,U3,23,A10*%
%TO.N,/A3*%
X106679999Y-122428001D03*
%TO.P,U3,24,~{OE}*%
%TO.N,{slash}MEMR*%
X109219999Y-122428001D03*
%TO.P,U3,25,A11*%
%TO.N,/A6*%
X111759999Y-122428001D03*
%TO.P,U3,26,A9*%
%TO.N,/A8*%
X114299999Y-122428001D03*
%TO.P,U3,27,A8*%
%TO.N,/A10*%
X116839999Y-122428001D03*
%TO.P,U3,28,A13*%
%TO.N,/A12*%
X119379999Y-122428001D03*
%TO.P,U3,29,~{WE}*%
%TO.N,{slash}MEMW*%
X121919999Y-122428001D03*
%TO.P,U3,30,CE*%
%TO.N,VCC*%
X124459999Y-122428001D03*
%TO.P,U3,31,A15*%
%TO.N,/A15*%
X126999999Y-122428001D03*
%TO.P,U3,32,VCC*%
%TO.N,VCC*%
X129539999Y-122428001D03*
%TD*%
%TO.P,C2,1*%
%TO.N,VCC*%
X110490000Y-99020000D03*
%TO.P,C2,2*%
%TO.N,GND*%
X110490000Y-94020000D03*
%TD*%
D10*
%TO.P,R1,1*%
%TO.N,VCC*%
X123190000Y-99060000D03*
%TO.P,R1,2*%
%TO.N,Net-(JP2-B)*%
X123190000Y-91440000D03*
%TD*%
D17*
%TO.P,U1,1,A0*%
%TO.N,/A16*%
X148590000Y-98552000D03*
D11*
%TO.P,U1,2,A1*%
%TO.N,/A17*%
X151130000Y-98552000D03*
%TO.P,U1,3,A2*%
%TO.N,/A18*%
X153670000Y-98552000D03*
%TO.P,U1,4,E1*%
%TO.N,Net-(U1-E1)*%
X156210000Y-98552000D03*
%TO.P,U1,5,E2*%
%TO.N,Net-(J1-AEN)*%
X158750000Y-98552000D03*
%TO.P,U1,6,E3*%
%TO.N,/A19*%
X161290000Y-98552000D03*
%TO.P,U1,7,O7*%
%TO.N,unconnected-(U1-O7-Pad7)*%
X163830000Y-98552000D03*
%TO.P,U1,8,GND*%
%TO.N,GND*%
X166370000Y-98552000D03*
%TO.P,U1,9,O6*%
%TO.N,Net-(JP2-A)*%
X166370000Y-90932000D03*
%TO.P,U1,10,O5*%
%TO.N,Net-(JP1-A)*%
X163830000Y-90932000D03*
%TO.P,U1,11,O4*%
%TO.N,unconnected-(U1-O4-Pad11)*%
X161290000Y-90932000D03*
%TO.P,U1,12,O3*%
%TO.N,unconnected-(U1-O3-Pad12)*%
X158750000Y-90932000D03*
%TO.P,U1,13,O2*%
%TO.N,unconnected-(U1-O2-Pad13)*%
X156210000Y-90932000D03*
%TO.P,U1,14,O1*%
%TO.N,unconnected-(U1-O1-Pad14)*%
X153670000Y-90932000D03*
%TO.P,U1,15,O0*%
%TO.N,unconnected-(U1-O0-Pad15)*%
X151130000Y-90932000D03*
%TO.P,U1,16,VCC*%
%TO.N,VCC*%
X148590000Y-90932000D03*
%TD*%
D18*
%TO.P,J1,1,GND*%
%TO.N,GND*%
X177799999Y-140208001D03*
%TO.P,J1,2,RESET*%
%TO.N,unconnected-(J1-RESET-Pad2)*%
X175259999Y-140208001D03*
%TO.P,J1,3,VCC*%
%TO.N,VCC*%
X172719999Y-140208001D03*
%TO.P,J1,4,IRQ2*%
%TO.N,unconnected-(J1-IRQ2-Pad4)*%
X170179999Y-140208001D03*
%TO.P,J1,5,-5V*%
%TO.N,unconnected-(J1--5V-Pad5)*%
X167639999Y-140208001D03*
%TO.P,J1,6,DRQ2*%
%TO.N,unconnected-(J1-DRQ2-Pad6)*%
X165099999Y-140208001D03*
%TO.P,J1,7,-12V*%
%TO.N,unconnected-(J1--12V-Pad7)*%
X162559999Y-140208001D03*
%TO.P,J1,8,UNUSED*%
%TO.N,unconnected-(J1-UNUSED-Pad8)*%
X160019999Y-140208001D03*
%TO.P,J1,9,+12V*%
%TO.N,unconnected-(J1-+12V-Pad9)*%
X157479999Y-140208001D03*
%TO.P,J1,10,GND*%
%TO.N,GND*%
X154939999Y-140208001D03*
%TO.P,J1,11,~{SMEMW}*%
%TO.N,{slash}MEMW*%
X152399999Y-140208001D03*
%TO.P,J1,12,~{SMEMR}*%
%TO.N,{slash}MEMR*%
X149859999Y-140208001D03*
%TO.P,J1,13,~{IOW}*%
%TO.N,unconnected-(J1-~{IOW}-Pad13)*%
X147319999Y-140208001D03*
%TO.P,J1,14,~{IOR}*%
%TO.N,unconnected-(J1-~{IOR}-Pad14)*%
X144779999Y-140208001D03*
%TO.P,J1,15,~{DACK3}*%
%TO.N,unconnected-(J1-~{DACK3}-Pad15)*%
X142239999Y-140208001D03*
%TO.P,J1,16,DRQ3*%
%TO.N,unconnected-(J1-DRQ3-Pad16)*%
X139699999Y-140208001D03*
%TO.P,J1,17,~{DACK1}*%
%TO.N,unconnected-(J1-~{DACK1}-Pad17)*%
X137159999Y-140208001D03*
%TO.P,J1,18,DRQ1*%
%TO.N,unconnected-(J1-DRQ1-Pad18)*%
X134619999Y-140208001D03*
%TO.P,J1,19,~{DACK0}*%
%TO.N,unconnected-(J1-~{DACK0}-Pad19)*%
X132079999Y-140208001D03*
%TO.P,J1,20,CLK*%
%TO.N,unconnected-(J1-CLK-Pad20)*%
X129539999Y-140208001D03*
%TO.P,J1,21,IRQ7*%
%TO.N,unconnected-(J1-IRQ7-Pad21)*%
X126999999Y-140208001D03*
%TO.P,J1,22,IRQ6*%
%TO.N,unconnected-(J1-IRQ6-Pad22)*%
X124459999Y-140208001D03*
%TO.P,J1,23,IRQ5*%
%TO.N,unconnected-(J1-IRQ5-Pad23)*%
X121919999Y-140208001D03*
%TO.P,J1,24,IRQ4*%
%TO.N,unconnected-(J1-IRQ4-Pad24)*%
X119379999Y-140208001D03*
%TO.P,J1,25,IRQ3*%
%TO.N,unconnected-(J1-IRQ3-Pad25)*%
X116839999Y-140208001D03*
%TO.P,J1,26,~{DACK2}*%
%TO.N,unconnected-(J1-~{DACK2}-Pad26)*%
X114299999Y-140208001D03*
%TO.P,J1,27,TC*%
%TO.N,unconnected-(J1-TC-Pad27)*%
X111759999Y-140208001D03*
%TO.P,J1,28,ALE*%
%TO.N,unconnected-(J1-ALE-Pad28)*%
X109219999Y-140208001D03*
%TO.P,J1,29,VCC*%
%TO.N,unconnected-(J1-VCC-Pad29)*%
X106679999Y-140208001D03*
%TO.P,J1,30,OSC*%
%TO.N,unconnected-(J1-OSC-Pad30)*%
X104139999Y-140208001D03*
%TO.P,J1,31,GND*%
%TO.N,GND*%
X101599999Y-140208001D03*
%TD*%
D14*
%TO.P,U2,1*%
%TO.N,{slash}MEMR*%
X106680000Y-91440000D03*
D11*
%TO.P,U2,2*%
%TO.N,{slash}MEMW*%
X104140000Y-91440000D03*
%TO.P,U2,3*%
%TO.N,Net-(U1-E1)*%
X101600000Y-91440000D03*
%TO.P,U2,4*%
%TO.N,VCC*%
X99060000Y-91440000D03*
%TO.P,U2,5*%
X96520000Y-91440000D03*
%TO.P,U2,6*%
%TO.N,unconnected-(U2-Pad6)*%
X93980000Y-91440000D03*
%TO.P,U2,7,GND*%
%TO.N,GND*%
X91440000Y-91440000D03*
%TO.P,U2,8*%
%TO.N,Net-(U3-~{CE})*%
X91440000Y-99060000D03*
%TO.P,U2,9*%
%TO.N,Net-(JP1-B)*%
X93980000Y-99060000D03*
%TO.P,U2,10*%
%TO.N,Net-(JP2-B)*%
X96520000Y-99060000D03*
%TO.P,U2,11*%
%TO.N,unconnected-(U2-Pad11)*%
X99060000Y-99060000D03*
%TO.P,U2,12*%
%TO.N,VCC*%
X101600000Y-99060000D03*
%TO.P,U2,13*%
X104140000Y-99060000D03*
%TO.P,U2,14,VCC*%
X106680000Y-99060000D03*
%TD*%
D19*
%TO.N,GND*%
X170307000Y-122682000D03*
X172847000Y-122682000D03*
X172847000Y-125222000D03*
X170307000Y-125222000D03*
X128524000Y-117602000D03*
X90170000Y-133604000D03*
X136525000Y-100203000D03*
X170180000Y-102362000D03*
X97790000Y-131064000D03*
X95250000Y-133604000D03*
X120777000Y-96520000D03*
X97790000Y-125984000D03*
X113157000Y-104140000D03*
X90170000Y-128524000D03*
X145792602Y-117631629D03*
X90170000Y-125984000D03*
X92710000Y-125984000D03*
X165100000Y-104902000D03*
X90170000Y-131064000D03*
X172466000Y-94107000D03*
X135890000Y-124460000D03*
X97790000Y-128524000D03*
X118237000Y-104140000D03*
X92710000Y-128524000D03*
X167640000Y-102362000D03*
X115697000Y-101600000D03*
X118237000Y-101600000D03*
X130937000Y-104140000D03*
X95250000Y-125984000D03*
X115697000Y-104140000D03*
X133350000Y-106553000D03*
X95250000Y-131064000D03*
X137922000Y-102108000D03*
X146050000Y-121920000D03*
X92710000Y-133604000D03*
X136398000Y-128524000D03*
X95250000Y-128524000D03*
X172466000Y-91567000D03*
X154940000Y-133985000D03*
X139319000Y-100203000D03*
X113157000Y-101600000D03*
X167640000Y-104902000D03*
X165100000Y-102362000D03*
X175006000Y-91567000D03*
X169926000Y-91567000D03*
X175006000Y-94107000D03*
X127127000Y-93853000D03*
X169926000Y-94107000D03*
X170180000Y-104902000D03*
X92710000Y-131064000D03*
X97790000Y-133604000D03*
X133350000Y-108966000D03*
%TO.N,VCC*%
X131953000Y-100457000D03*
X135890000Y-104394000D03*
X133096000Y-101600000D03*
X135890000Y-106680000D03*
X134493000Y-102997000D03*
%TD*%
D20*
%TO.N,GND*%
X166370000Y-98552000D02*
X166370000Y-97155000D01*
X166370000Y-97155000D02*
X165100000Y-95885000D01*
X100457000Y-133477000D02*
X92329000Y-133477000D01*
D21*
X88773000Y-104140000D02*
X88773000Y-101346000D01*
D20*
X92329000Y-133477000D02*
X88773000Y-129921000D01*
X177800000Y-112268000D02*
X177800000Y-98552000D01*
D21*
X110450000Y-93980000D02*
X110490000Y-94020000D01*
X91440000Y-104140000D02*
X88773000Y-104140000D01*
X177768000Y-128524000D02*
X177800000Y-128492000D01*
D20*
X130937000Y-104140000D02*
X91440000Y-104140000D01*
X101599999Y-134619999D02*
X100457000Y-133477000D01*
D21*
X91439999Y-107188001D02*
X91439999Y-104140001D01*
D20*
X177800000Y-112268000D02*
X177799999Y-140208001D01*
X133350000Y-106553000D02*
X133350000Y-108966000D01*
X88773001Y-101345999D02*
X88773001Y-96520000D01*
D22*
X91439999Y-107188001D02*
X91440000Y-107188000D01*
D20*
X177800000Y-98552000D02*
X177800000Y-90678000D01*
X88773000Y-101346000D02*
X88773001Y-101345999D01*
X177800000Y-90678000D02*
X173482000Y-86360000D01*
X177800000Y-98552000D02*
X166370000Y-98552000D01*
X165100000Y-95885000D02*
X144827000Y-95885000D01*
D21*
X91440000Y-91440000D02*
X91440000Y-93853001D01*
D20*
X88773000Y-129921000D02*
X88773000Y-101346000D01*
X154939999Y-140208001D02*
X154940000Y-133858000D01*
D21*
X88772999Y-96520000D02*
X88773001Y-96520000D01*
D20*
X94107000Y-86360000D02*
X91440000Y-89027000D01*
X133350000Y-106553000D02*
X130937000Y-104140000D01*
X91313001Y-93980000D02*
X110450000Y-93980000D01*
D21*
X144827000Y-95885000D02*
X144780000Y-95932000D01*
X91439999Y-104140001D02*
X91440000Y-104140000D01*
D20*
X173482000Y-86360000D02*
X94107000Y-86360000D01*
X177760000Y-112308000D02*
X177800000Y-112268000D01*
X88773001Y-96520000D02*
X91313001Y-93980000D01*
X91440000Y-89027000D02*
X91440000Y-91440000D01*
X174498000Y-112308000D02*
X177760000Y-112308000D01*
X101599999Y-140208001D02*
X101599999Y-134619999D01*
D23*
%TO.N,{slash}MEMW*%
X171450000Y-113665000D02*
X171450000Y-109601000D01*
X152400000Y-120650000D02*
X152273000Y-120523000D01*
X170180000Y-114935000D02*
X171450000Y-113665000D01*
X123825000Y-120523000D02*
X121919999Y-122428001D01*
X170180000Y-119380000D02*
X170180000Y-114935000D01*
X152273000Y-120523000D02*
X123825000Y-120523000D01*
X152019000Y-120523000D02*
X169037000Y-120523000D01*
D24*
X152400000Y-120650000D02*
X152399999Y-120650001D01*
X152399999Y-120650001D02*
X152399999Y-140208001D01*
D23*
X169037000Y-120523000D02*
X170180000Y-119380000D01*
%TO.N,{slash}MEMR*%
X109219999Y-122428001D02*
X109219999Y-123951999D01*
X109219999Y-123951999D02*
X116205000Y-130937000D01*
X116205000Y-130937000D02*
X147447000Y-130937000D01*
X147447000Y-130937000D02*
X149859999Y-133349999D01*
X149859999Y-133349999D02*
X149859999Y-140208001D01*
%TO.N,VCC*%
X129539999Y-123825001D02*
X129539999Y-122428001D01*
X128270000Y-125095000D02*
X129539999Y-123825001D01*
X125730000Y-125095000D02*
X128270000Y-125095000D01*
D20*
X172719999Y-131445001D02*
X172719999Y-140208001D01*
D23*
X124459999Y-123824999D02*
X125730000Y-125095000D01*
X124459999Y-122428001D02*
X124459999Y-123824999D01*
D20*
X135890000Y-104394000D02*
X130556000Y-99060000D01*
X130556000Y-99060000D02*
X106680000Y-99060000D01*
X135890000Y-106680000D02*
X135890000Y-104394000D01*
X175768000Y-128397000D02*
X172719999Y-131445001D01*
D23*
%TO.N,Net-(U3-~{CE})*%
X168148000Y-119380000D02*
X106045000Y-119380000D01*
X168910000Y-118618000D02*
X168148000Y-119380000D01*
X104139999Y-121285001D02*
X104139999Y-122428001D01*
X168910000Y-118110000D02*
X168910000Y-118618000D01*
X106045000Y-119380000D02*
X104139999Y-121285001D01*
%TO.N,Net-(U3-DQ1)*%
X99060000Y-111125000D02*
X153035000Y-111125000D01*
X153035000Y-111125000D02*
X153670000Y-110490000D01*
X96519999Y-108584999D02*
X99060000Y-111125000D01*
X96519999Y-107188001D02*
X96519999Y-108584999D01*
X153670000Y-110490000D02*
X153670000Y-109601000D01*
%TO.N,Net-(U3-DQ7)*%
X168910000Y-111887000D02*
X168910000Y-110109000D01*
X165100000Y-115697000D02*
X168910000Y-111887000D01*
X106680000Y-115697000D02*
X165100000Y-115697000D01*
X101599999Y-122428001D02*
X101599999Y-120777001D01*
X101599999Y-120777001D02*
X106680000Y-115697000D01*
%TO.N,Net-(U3-DQ5)*%
X163830000Y-111887000D02*
X163830000Y-109601000D01*
X161544000Y-114173000D02*
X163830000Y-111887000D01*
X96519999Y-122428001D02*
X96519999Y-119380001D01*
X101727000Y-114173000D02*
X161544000Y-114173000D01*
X96519999Y-119380001D02*
X101727000Y-114173000D01*
%TO.N,Net-(U3-DQ0)*%
X151130000Y-108839000D02*
X151130000Y-109601000D01*
X100838000Y-110363000D02*
X143764000Y-110363000D01*
X146177000Y-107950000D02*
X150241000Y-107950000D01*
X150241000Y-107950000D02*
X151130000Y-108839000D01*
X99059999Y-107188001D02*
X99059999Y-108584999D01*
X143764000Y-110363000D02*
X146177000Y-107950000D01*
X99059999Y-108584999D02*
X100838000Y-110363000D01*
%TO.N,Net-(U3-DQ6)*%
X99059999Y-120142001D02*
X104267000Y-114935000D01*
X163195000Y-114935000D02*
X166370000Y-111760000D01*
X99059999Y-122428001D02*
X99059999Y-120142001D01*
X166370000Y-111760000D02*
X166370000Y-109601000D01*
X104267000Y-114935000D02*
X163195000Y-114935000D01*
%TO.N,Net-(U3-DQ2)*%
X156210000Y-111252000D02*
X156210000Y-109601000D01*
X97282000Y-111887000D02*
X155575000Y-111887000D01*
X93979999Y-108584999D02*
X97282000Y-111887000D01*
X155575000Y-111887000D02*
X156210000Y-111252000D01*
X93979999Y-107188001D02*
X93979999Y-108584999D01*
%TO.N,Net-(U3-DQ4)*%
X99949000Y-113411000D02*
X159639000Y-113411000D01*
X93979999Y-122428001D02*
X93979999Y-119380001D01*
X159639000Y-113411000D02*
X161290000Y-111760000D01*
X93979999Y-119380001D02*
X99949000Y-113411000D01*
X161290000Y-111760000D02*
X161290000Y-109601000D01*
%TO.N,Net-(U3-DQ3)*%
X157734000Y-112649000D02*
X158750000Y-111633000D01*
X91439999Y-119380001D02*
X98171000Y-112649000D01*
X91439999Y-122428001D02*
X91439999Y-119380001D01*
X158750000Y-111633000D02*
X158750000Y-109601000D01*
X98171000Y-112649000D02*
X157734000Y-112649000D01*
%TO.N,Net-(JP1-A)*%
X134493000Y-88900000D02*
X138430000Y-88900000D01*
X142240000Y-92710000D02*
X163449000Y-92710000D01*
X163449000Y-92710000D02*
X163830000Y-92329000D01*
X163830000Y-92329000D02*
X163830000Y-90932000D01*
X138430000Y-88900000D02*
X142240000Y-92710000D01*
%TO.N,Net-(JP1-B)*%
X131953000Y-88900000D02*
X132080000Y-89027000D01*
X112522000Y-95631000D02*
X119253000Y-88900000D01*
X93980000Y-99060000D02*
X93980000Y-97790000D01*
X119253000Y-88900000D02*
X131953000Y-88900000D01*
X96139000Y-95631000D02*
X112522000Y-95631000D01*
X93980000Y-97790000D02*
X96139000Y-95631000D01*
D22*
%TO.N,Net-(JP2-A)*%
X165100000Y-93980000D02*
X134371000Y-93980000D01*
X166370000Y-90932000D02*
X166370000Y-92710000D01*
X166370000Y-92710000D02*
X165100000Y-93980000D01*
D23*
%TO.N,Net-(JP2-B)*%
X117475000Y-97155000D02*
X123190000Y-91440000D01*
X96901000Y-97155000D02*
X117475000Y-97155000D01*
X131831000Y-93980000D02*
X132080000Y-94229000D01*
D22*
X96519999Y-99314001D02*
X96520000Y-99314000D01*
D23*
X130810000Y-91440000D02*
X131831000Y-92461000D01*
X123190000Y-91440000D02*
X130810000Y-91440000D01*
X96520000Y-97536000D02*
X96901000Y-97155000D01*
X131831000Y-92461000D02*
X131831000Y-93980000D01*
X96520000Y-99314000D02*
X96520000Y-97536000D01*
%TD*%
%TA.AperFunction,Conductor*%
%TO.N,GND*%
G36*
X178505039Y-85617685D02*
G01*
X178550794Y-85670489D01*
X178562000Y-85722000D01*
X178562000Y-135766000D01*
X178542315Y-135833039D01*
X178489511Y-135878794D01*
X178438000Y-135890000D01*
X178435000Y-135890000D01*
X176387392Y-135890000D01*
X176320353Y-135870315D01*
X176309032Y-135862102D01*
X176227212Y-135795387D01*
X176227208Y-135795385D01*
X176227207Y-135795384D01*
X176056854Y-135706399D01*
X176056848Y-135706397D01*
X175872072Y-135653526D01*
X175801865Y-135647284D01*
X175759308Y-135643501D01*
X175759303Y-135643501D01*
X174760698Y-135643501D01*
X174760692Y-135643501D01*
X174760691Y-135643502D01*
X174749688Y-135644480D01*
X174647925Y-135653526D01*
X174463147Y-135706397D01*
X174292785Y-135795387D01*
X174210966Y-135862102D01*
X174188265Y-135871658D01*
X174167541Y-135884977D01*
X174150966Y-135887360D01*
X174146570Y-135889211D01*
X174132606Y-135890000D01*
X174106499Y-135890000D01*
X174039460Y-135870315D01*
X173993705Y-135817511D01*
X173982499Y-135766000D01*
X173982499Y-132019307D01*
X174002184Y-131952268D01*
X174018818Y-131931626D01*
X175167138Y-130783306D01*
X176348201Y-129602242D01*
X176396872Y-129572221D01*
X176437334Y-129558814D01*
X176586656Y-129466712D01*
X176710712Y-129342656D01*
X176802814Y-129193334D01*
X176843807Y-129069621D01*
X176851025Y-129052338D01*
X176938005Y-128881632D01*
X176999413Y-128692637D01*
X177030500Y-128496366D01*
X177030500Y-128297634D01*
X177012414Y-128183453D01*
X176999413Y-128101364D01*
X176938005Y-127912368D01*
X176847786Y-127735306D01*
X176832862Y-127714765D01*
X176730986Y-127574543D01*
X176730982Y-127574538D01*
X176590461Y-127434017D01*
X176590456Y-127434013D01*
X176429697Y-127317216D01*
X176429696Y-127317215D01*
X176429694Y-127317214D01*
X176252632Y-127226995D01*
X176252628Y-127226993D01*
X176252623Y-127226991D01*
X176063637Y-127165587D01*
X175867365Y-127134500D01*
X175867360Y-127134500D01*
X175668639Y-127134500D01*
X175668634Y-127134500D01*
X175472362Y-127165586D01*
X175283370Y-127226994D01*
X175106301Y-127317216D01*
X174945542Y-127434013D01*
X174945537Y-127434017D01*
X171757020Y-130622534D01*
X171640212Y-130783306D01*
X171549993Y-130960368D01*
X171549992Y-130960371D01*
X171488586Y-131149363D01*
X171457499Y-131345640D01*
X171457499Y-135766000D01*
X171454948Y-135774685D01*
X171456237Y-135783647D01*
X171445258Y-135807687D01*
X171437814Y-135833039D01*
X171430973Y-135838966D01*
X171427212Y-135847203D01*
X171404977Y-135861492D01*
X171385010Y-135878794D01*
X171374495Y-135881081D01*
X171368434Y-135884977D01*
X171333499Y-135890000D01*
X171307392Y-135890000D01*
X171240353Y-135870315D01*
X171229032Y-135862102D01*
X171147212Y-135795387D01*
X171147208Y-135795385D01*
X171147207Y-135795384D01*
X170976854Y-135706399D01*
X170976848Y-135706397D01*
X170792072Y-135653526D01*
X170721865Y-135647284D01*
X170679308Y-135643501D01*
X170679303Y-135643501D01*
X169680698Y-135643501D01*
X169680692Y-135643501D01*
X169680691Y-135643502D01*
X169669688Y-135644480D01*
X169567925Y-135653526D01*
X169383147Y-135706397D01*
X169212785Y-135795387D01*
X169130966Y-135862102D01*
X169066570Y-135889211D01*
X169052606Y-135890000D01*
X168767392Y-135890000D01*
X168700353Y-135870315D01*
X168689032Y-135862102D01*
X168607212Y-135795387D01*
X168607208Y-135795385D01*
X168607207Y-135795384D01*
X168436854Y-135706399D01*
X168436848Y-135706397D01*
X168252072Y-135653526D01*
X168181865Y-135647284D01*
X168139308Y-135643501D01*
X168139303Y-135643501D01*
X167140698Y-135643501D01*
X167140692Y-135643501D01*
X167140691Y-135643502D01*
X167129688Y-135644480D01*
X167027925Y-135653526D01*
X166843147Y-135706397D01*
X166672785Y-135795387D01*
X166590966Y-135862102D01*
X166526570Y-135889211D01*
X166512606Y-135890000D01*
X166227392Y-135890000D01*
X166160353Y-135870315D01*
X166149032Y-135862102D01*
X166067212Y-135795387D01*
X166067208Y-135795385D01*
X166067207Y-135795384D01*
X165896854Y-135706399D01*
X165896848Y-135706397D01*
X165712072Y-135653526D01*
X165641865Y-135647284D01*
X165599308Y-135643501D01*
X165599303Y-135643501D01*
X164600698Y-135643501D01*
X164600692Y-135643501D01*
X164600691Y-135643502D01*
X164589688Y-135644480D01*
X164487925Y-135653526D01*
X164303147Y-135706397D01*
X164132785Y-135795387D01*
X164050966Y-135862102D01*
X163986570Y-135889211D01*
X163972606Y-135890000D01*
X163687392Y-135890000D01*
X163620353Y-135870315D01*
X163609032Y-135862102D01*
X163527212Y-135795387D01*
X163527208Y-135795385D01*
X163527207Y-135795384D01*
X163356854Y-135706399D01*
X163356848Y-135706397D01*
X163172072Y-135653526D01*
X163101865Y-135647284D01*
X163059308Y-135643501D01*
X163059303Y-135643501D01*
X162060698Y-135643501D01*
X162060692Y-135643501D01*
X162060691Y-135643502D01*
X162049688Y-135644480D01*
X161947925Y-135653526D01*
X161763147Y-135706397D01*
X161592785Y-135795387D01*
X161510966Y-135862102D01*
X161446570Y-135889211D01*
X161432606Y-135890000D01*
X161147392Y-135890000D01*
X161080353Y-135870315D01*
X161069032Y-135862102D01*
X160987212Y-135795387D01*
X160987208Y-135795385D01*
X160987207Y-135795384D01*
X160816854Y-135706399D01*
X160816848Y-135706397D01*
X160632072Y-135653526D01*
X160561865Y-135647284D01*
X160519308Y-135643501D01*
X160519303Y-135643501D01*
X159520698Y-135643501D01*
X159520692Y-135643501D01*
X159520691Y-135643502D01*
X159509688Y-135644480D01*
X159407925Y-135653526D01*
X159223147Y-135706397D01*
X159052785Y-135795387D01*
X158970966Y-135862102D01*
X158906570Y-135889211D01*
X158892606Y-135890000D01*
X158607392Y-135890000D01*
X158540353Y-135870315D01*
X158529032Y-135862102D01*
X158447212Y-135795387D01*
X158447208Y-135795385D01*
X158447207Y-135795384D01*
X158276854Y-135706399D01*
X158276848Y-135706397D01*
X158092072Y-135653526D01*
X158021865Y-135647284D01*
X157979308Y-135643501D01*
X157979303Y-135643501D01*
X156980698Y-135643501D01*
X156980692Y-135643501D01*
X156980691Y-135643502D01*
X156969688Y-135644480D01*
X156867925Y-135653526D01*
X156683147Y-135706397D01*
X156512785Y-135795387D01*
X156430966Y-135862102D01*
X156366570Y-135889211D01*
X156352606Y-135890000D01*
X153527392Y-135890000D01*
X153460353Y-135870315D01*
X153449032Y-135862102D01*
X153367212Y-135795387D01*
X153367204Y-135795382D01*
X153221087Y-135719056D01*
X153170780Y-135670569D01*
X153154499Y-135609148D01*
X153154499Y-121274500D01*
X153174184Y-121207461D01*
X153226988Y-121161706D01*
X153278499Y-121150500D01*
X169098804Y-121150500D01*
X169098805Y-121150499D01*
X169220035Y-121126386D01*
X169300784Y-121092937D01*
X169334233Y-121079083D01*
X169437008Y-121010411D01*
X169524411Y-120923008D01*
X170667411Y-119780008D01*
X170675994Y-119767161D01*
X170692812Y-119741994D01*
X170736076Y-119677243D01*
X170736083Y-119677233D01*
X170783385Y-119563035D01*
X170807500Y-119441803D01*
X170807500Y-118550336D01*
X170827185Y-118483297D01*
X170879989Y-118437542D01*
X170949147Y-118427598D01*
X170969810Y-118432402D01*
X171079031Y-118467891D01*
X171145465Y-118489477D01*
X171246557Y-118505488D01*
X171347648Y-118521500D01*
X171347649Y-118521500D01*
X171552351Y-118521500D01*
X171552352Y-118521500D01*
X171754534Y-118489477D01*
X171949219Y-118426220D01*
X172131610Y-118333287D01*
X172224590Y-118265732D01*
X172297213Y-118212971D01*
X172297215Y-118212968D01*
X172297219Y-118212966D01*
X172441966Y-118068219D01*
X172441968Y-118068215D01*
X172441971Y-118068213D01*
X172499078Y-117989610D01*
X172562287Y-117902610D01*
X172655220Y-117720219D01*
X172718477Y-117525534D01*
X172750500Y-117323352D01*
X172750500Y-117205648D01*
X173197500Y-117205648D01*
X173197500Y-117410351D01*
X173229522Y-117612534D01*
X173292781Y-117807223D01*
X173385715Y-117989613D01*
X173506028Y-118155213D01*
X173650786Y-118299971D01*
X173805749Y-118412556D01*
X173816390Y-118420287D01*
X173909818Y-118467891D01*
X173998776Y-118513218D01*
X173998778Y-118513218D01*
X173998781Y-118513220D01*
X174103137Y-118547127D01*
X174193465Y-118576477D01*
X174294557Y-118592488D01*
X174395648Y-118608500D01*
X174395649Y-118608500D01*
X174600351Y-118608500D01*
X174600352Y-118608500D01*
X174802534Y-118576477D01*
X174997219Y-118513220D01*
X175179610Y-118420287D01*
X175294959Y-118336482D01*
X175345213Y-118299971D01*
X175345215Y-118299968D01*
X175345219Y-118299966D01*
X175489966Y-118155219D01*
X175489968Y-118155215D01*
X175489971Y-118155213D01*
X175553179Y-118068213D01*
X175610287Y-117989610D01*
X175703220Y-117807219D01*
X175766477Y-117612534D01*
X175798500Y-117410352D01*
X175798500Y-117205648D01*
X175766477Y-117003466D01*
X175703220Y-116808781D01*
X175703218Y-116808778D01*
X175703218Y-116808776D01*
X175658891Y-116721781D01*
X175610287Y-116626390D01*
X175602556Y-116615749D01*
X175489971Y-116460786D01*
X175345213Y-116316028D01*
X175179613Y-116195715D01*
X175179612Y-116195714D01*
X175179610Y-116195713D01*
X175122653Y-116166691D01*
X174997223Y-116102781D01*
X174802534Y-116039522D01*
X174613566Y-116009593D01*
X174600352Y-116007500D01*
X174395648Y-116007500D01*
X174382434Y-116009593D01*
X174193465Y-116039522D01*
X173998776Y-116102781D01*
X173816386Y-116195715D01*
X173650786Y-116316028D01*
X173506028Y-116460786D01*
X173385715Y-116626386D01*
X173292781Y-116808776D01*
X173229522Y-117003465D01*
X173197500Y-117205648D01*
X172750500Y-117205648D01*
X172750500Y-117118648D01*
X172718477Y-116916466D01*
X172655220Y-116721781D01*
X172655218Y-116721778D01*
X172655218Y-116721776D01*
X172606614Y-116626386D01*
X172562287Y-116539390D01*
X172518607Y-116479269D01*
X172441971Y-116373786D01*
X172297213Y-116229028D01*
X172131613Y-116108715D01*
X172131612Y-116108714D01*
X172131610Y-116108713D01*
X172074653Y-116079691D01*
X171949223Y-116015781D01*
X171754534Y-115952522D01*
X171579995Y-115924878D01*
X171552352Y-115920500D01*
X171347648Y-115920500D01*
X171280254Y-115931174D01*
X171145464Y-115952523D01*
X171145461Y-115952523D01*
X170969818Y-116009593D01*
X170899976Y-116011588D01*
X170840144Y-115975507D01*
X170809316Y-115912806D01*
X170807500Y-115891662D01*
X170807500Y-115246281D01*
X170827185Y-115179242D01*
X170843819Y-115158600D01*
X171937408Y-114065011D01*
X171937411Y-114065008D01*
X171955123Y-114038500D01*
X172006083Y-113962233D01*
X172053385Y-113848035D01*
X172077500Y-113726803D01*
X172077500Y-111005491D01*
X172097185Y-110938452D01*
X172149989Y-110892697D01*
X172162496Y-110887785D01*
X172319334Y-110835814D01*
X172468656Y-110743712D01*
X172592712Y-110619656D01*
X172684814Y-110470334D01*
X172739999Y-110303797D01*
X172750500Y-110201009D01*
X172750499Y-109000992D01*
X172739999Y-108898203D01*
X172684814Y-108731666D01*
X172592712Y-108582344D01*
X172468656Y-108458288D01*
X172363162Y-108393219D01*
X172319336Y-108366187D01*
X172319331Y-108366185D01*
X172317862Y-108365698D01*
X172152797Y-108311001D01*
X172152795Y-108311000D01*
X172050010Y-108300500D01*
X170849998Y-108300500D01*
X170849981Y-108300501D01*
X170747203Y-108311000D01*
X170747200Y-108311001D01*
X170580668Y-108366185D01*
X170580663Y-108366187D01*
X170431342Y-108458289D01*
X170307289Y-108582342D01*
X170215187Y-108731663D01*
X170215186Y-108731666D01*
X170188045Y-108813571D01*
X170148271Y-108871016D01*
X170083755Y-108897838D01*
X170014979Y-108885522D01*
X169970021Y-108847452D01*
X169901966Y-108753781D01*
X169757219Y-108609034D01*
X169757213Y-108609028D01*
X169591613Y-108488715D01*
X169591612Y-108488714D01*
X169591610Y-108488713D01*
X169528345Y-108456478D01*
X169409223Y-108395781D01*
X169214534Y-108332522D01*
X169024739Y-108302462D01*
X169012352Y-108300500D01*
X168807648Y-108300500D01*
X168795261Y-108302462D01*
X168605465Y-108332522D01*
X168410776Y-108395781D01*
X168228386Y-108488715D01*
X168062786Y-108609028D01*
X167918028Y-108753786D01*
X167797715Y-108919386D01*
X167750485Y-109012080D01*
X167702510Y-109062876D01*
X167634689Y-109079671D01*
X167568554Y-109057134D01*
X167529515Y-109012080D01*
X167523860Y-109000981D01*
X167482287Y-108919390D01*
X167455291Y-108882233D01*
X167361971Y-108753786D01*
X167217213Y-108609028D01*
X167051613Y-108488715D01*
X167051612Y-108488714D01*
X167051610Y-108488713D01*
X166988345Y-108456478D01*
X166869223Y-108395781D01*
X166674534Y-108332522D01*
X166484739Y-108302462D01*
X166472352Y-108300500D01*
X166267648Y-108300500D01*
X166255261Y-108302462D01*
X166065465Y-108332522D01*
X165870776Y-108395781D01*
X165688386Y-108488715D01*
X165522786Y-108609028D01*
X165378028Y-108753786D01*
X165257715Y-108919386D01*
X165210485Y-109012080D01*
X165162510Y-109062876D01*
X165094689Y-109079671D01*
X165028554Y-109057134D01*
X164989515Y-109012080D01*
X164983860Y-109000981D01*
X164942287Y-108919390D01*
X164915291Y-108882233D01*
X164821971Y-108753786D01*
X164677213Y-108609028D01*
X164511613Y-108488715D01*
X164511612Y-108488714D01*
X164511610Y-108488713D01*
X164448345Y-108456478D01*
X164329223Y-108395781D01*
X164134534Y-108332522D01*
X163944739Y-108302462D01*
X163932352Y-108300500D01*
X163727648Y-108300500D01*
X163715261Y-108302462D01*
X163525465Y-108332522D01*
X163330776Y-108395781D01*
X163148386Y-108488715D01*
X162982786Y-108609028D01*
X162838028Y-108753786D01*
X162717715Y-108919386D01*
X162670485Y-109012080D01*
X162622510Y-109062876D01*
X162554689Y-109079671D01*
X162488554Y-109057134D01*
X162449515Y-109012080D01*
X162443860Y-109000981D01*
X162402287Y-108919390D01*
X162375291Y-108882233D01*
X162281971Y-108753786D01*
X162137213Y-108609028D01*
X161971613Y-108488715D01*
X161971612Y-108488714D01*
X161971610Y-108488713D01*
X161908345Y-108456478D01*
X161789223Y-108395781D01*
X161594534Y-108332522D01*
X161404739Y-108302462D01*
X161392352Y-108300500D01*
X161187648Y-108300500D01*
X161175261Y-108302462D01*
X160985465Y-108332522D01*
X160790776Y-108395781D01*
X160608386Y-108488715D01*
X160442786Y-108609028D01*
X160298028Y-108753786D01*
X160177715Y-108919386D01*
X160130485Y-109012080D01*
X160082510Y-109062876D01*
X160014689Y-109079671D01*
X159948554Y-109057134D01*
X159909515Y-109012080D01*
X159903860Y-109000981D01*
X159862287Y-108919390D01*
X159835291Y-108882233D01*
X159741971Y-108753786D01*
X159597213Y-108609028D01*
X159431613Y-108488715D01*
X159431612Y-108488714D01*
X159431610Y-108488713D01*
X159368345Y-108456478D01*
X159249223Y-108395781D01*
X159054534Y-108332522D01*
X158864739Y-108302462D01*
X158852352Y-108300500D01*
X158647648Y-108300500D01*
X158635261Y-108302462D01*
X158445465Y-108332522D01*
X158250776Y-108395781D01*
X158068386Y-108488715D01*
X157902786Y-108609028D01*
X157758028Y-108753786D01*
X157637715Y-108919386D01*
X157590485Y-109012080D01*
X157542510Y-109062876D01*
X157474689Y-109079671D01*
X157408554Y-109057134D01*
X157369515Y-109012080D01*
X157363860Y-109000981D01*
X157322287Y-108919390D01*
X157295291Y-108882233D01*
X157201971Y-108753786D01*
X157057213Y-108609028D01*
X156891613Y-108488715D01*
X156891612Y-108488714D01*
X156891610Y-108488713D01*
X156828345Y-108456478D01*
X156709223Y-108395781D01*
X156514534Y-108332522D01*
X156324739Y-108302462D01*
X156312352Y-108300500D01*
X156107648Y-108300500D01*
X156095261Y-108302462D01*
X155905465Y-108332522D01*
X155710776Y-108395781D01*
X155528386Y-108488715D01*
X155362786Y-108609028D01*
X155218028Y-108753786D01*
X155097715Y-108919386D01*
X155050485Y-109012080D01*
X155002510Y-109062876D01*
X154934689Y-109079671D01*
X154868554Y-109057134D01*
X154829515Y-109012080D01*
X154823860Y-109000981D01*
X154782287Y-108919390D01*
X154755291Y-108882233D01*
X154661971Y-108753786D01*
X154517213Y-108609028D01*
X154351613Y-108488715D01*
X154351612Y-108488714D01*
X154351610Y-108488713D01*
X154288345Y-108456478D01*
X154169223Y-108395781D01*
X153974534Y-108332522D01*
X153784739Y-108302462D01*
X153772352Y-108300500D01*
X153567648Y-108300500D01*
X153555261Y-108302462D01*
X153365465Y-108332522D01*
X153170776Y-108395781D01*
X152988386Y-108488715D01*
X152822786Y-108609028D01*
X152678028Y-108753786D01*
X152557715Y-108919386D01*
X152510485Y-109012080D01*
X152462510Y-109062876D01*
X152394689Y-109079671D01*
X152328554Y-109057134D01*
X152289515Y-109012080D01*
X152283860Y-109000981D01*
X152242287Y-108919390D01*
X152215291Y-108882233D01*
X152121971Y-108753786D01*
X151977213Y-108609028D01*
X151811613Y-108488715D01*
X151811612Y-108488714D01*
X151811610Y-108488713D01*
X151727238Y-108445723D01*
X151629224Y-108395782D01*
X151629221Y-108395781D01*
X151629219Y-108395780D01*
X151576025Y-108378496D01*
X151526666Y-108348247D01*
X150641013Y-107462593D01*
X150641010Y-107462590D01*
X150592983Y-107430500D01*
X150538233Y-107393917D01*
X150538229Y-107393915D01*
X150538227Y-107393914D01*
X150538228Y-107393914D01*
X150504785Y-107380062D01*
X150424035Y-107346614D01*
X150424027Y-107346612D01*
X150302807Y-107322500D01*
X150302803Y-107322500D01*
X146238803Y-107322500D01*
X146115197Y-107322500D01*
X146115195Y-107322500D01*
X145993970Y-107346613D01*
X145993960Y-107346616D01*
X145879773Y-107393913D01*
X145879760Y-107393920D01*
X145776992Y-107462588D01*
X145776988Y-107462591D01*
X143540400Y-109699181D01*
X143479077Y-109732666D01*
X143452719Y-109735500D01*
X101149281Y-109735500D01*
X101082242Y-109715815D01*
X101061600Y-109699181D01*
X99798571Y-108436152D01*
X99765086Y-108374829D01*
X99770070Y-108305137D01*
X99811942Y-108249204D01*
X99813326Y-108248182D01*
X99907218Y-108179967D01*
X100051965Y-108035220D01*
X100051967Y-108035216D01*
X100051970Y-108035214D01*
X100172283Y-107869615D01*
X100172284Y-107869614D01*
X100172286Y-107869611D01*
X100219515Y-107776918D01*
X100267488Y-107726124D01*
X100335309Y-107709329D01*
X100401444Y-107731866D01*
X100440482Y-107776918D01*
X100446138Y-107788017D01*
X100487714Y-107869615D01*
X100608027Y-108035214D01*
X100752785Y-108179972D01*
X100846629Y-108248152D01*
X100918389Y-108300288D01*
X101012514Y-108348247D01*
X101100775Y-108393219D01*
X101100777Y-108393219D01*
X101100780Y-108393221D01*
X101130203Y-108402781D01*
X101295464Y-108456478D01*
X101396556Y-108472489D01*
X101497647Y-108488501D01*
X101497648Y-108488501D01*
X101702350Y-108488501D01*
X101702351Y-108488501D01*
X101904533Y-108456478D01*
X102099218Y-108393221D01*
X102281609Y-108300288D01*
X102410481Y-108206658D01*
X102447212Y-108179972D01*
X102447214Y-108179969D01*
X102447218Y-108179967D01*
X102591965Y-108035220D01*
X102591967Y-108035216D01*
X102591970Y-108035214D01*
X102712283Y-107869615D01*
X102712284Y-107869614D01*
X102712286Y-107869611D01*
X102759515Y-107776918D01*
X102807488Y-107726124D01*
X102875309Y-107709329D01*
X102941444Y-107731866D01*
X102980482Y-107776918D01*
X102986138Y-107788017D01*
X103027714Y-107869615D01*
X103148027Y-108035214D01*
X103292785Y-108179972D01*
X103386629Y-108248152D01*
X103458389Y-108300288D01*
X103552514Y-108348247D01*
X103640775Y-108393219D01*
X103640777Y-108393219D01*
X103640780Y-108393221D01*
X103670203Y-108402781D01*
X103835464Y-108456478D01*
X103936556Y-108472489D01*
X104037647Y-108488501D01*
X104037648Y-108488501D01*
X104242350Y-108488501D01*
X104242351Y-108488501D01*
X104444533Y-108456478D01*
X104639218Y-108393221D01*
X104821609Y-108300288D01*
X104950481Y-108206658D01*
X104987212Y-108179972D01*
X104987214Y-108179969D01*
X104987218Y-108179967D01*
X105131965Y-108035220D01*
X105131967Y-108035216D01*
X105131970Y-108035214D01*
X105252283Y-107869615D01*
X105252284Y-107869614D01*
X105252286Y-107869611D01*
X105299515Y-107776918D01*
X105347488Y-107726124D01*
X105415309Y-107709329D01*
X105481444Y-107731866D01*
X105520482Y-107776918D01*
X105526138Y-107788017D01*
X105567714Y-107869615D01*
X105688027Y-108035214D01*
X105832785Y-108179972D01*
X105926629Y-108248152D01*
X105998389Y-108300288D01*
X106092514Y-108348247D01*
X106180775Y-108393219D01*
X106180777Y-108393219D01*
X106180780Y-108393221D01*
X106210203Y-108402781D01*
X106375464Y-108456478D01*
X106476556Y-108472489D01*
X106577647Y-108488501D01*
X106577648Y-108488501D01*
X106782350Y-108488501D01*
X106782351Y-108488501D01*
X106984533Y-108456478D01*
X107179218Y-108393221D01*
X107361609Y-108300288D01*
X107490481Y-108206658D01*
X107527212Y-108179972D01*
X107527214Y-108179969D01*
X107527218Y-108179967D01*
X107671965Y-108035220D01*
X107671967Y-108035216D01*
X107671970Y-108035214D01*
X107792283Y-107869615D01*
X107792284Y-107869614D01*
X107792286Y-107869611D01*
X107839515Y-107776918D01*
X107887488Y-107726124D01*
X107955309Y-107709329D01*
X108021444Y-107731866D01*
X108060482Y-107776918D01*
X108066138Y-107788017D01*
X108107714Y-107869615D01*
X108228027Y-108035214D01*
X108372785Y-108179972D01*
X108466629Y-108248152D01*
X108538389Y-108300288D01*
X108632514Y-108348247D01*
X108720775Y-108393219D01*
X108720777Y-108393219D01*
X108720780Y-108393221D01*
X108750203Y-108402781D01*
X108915464Y-108456478D01*
X109016556Y-108472489D01*
X109117647Y-108488501D01*
X109117648Y-108488501D01*
X109322350Y-108488501D01*
X109322351Y-108488501D01*
X109524533Y-108456478D01*
X109719218Y-108393221D01*
X109901609Y-108300288D01*
X110030481Y-108206658D01*
X110067212Y-108179972D01*
X110067214Y-108179969D01*
X110067218Y-108179967D01*
X110211965Y-108035220D01*
X110211967Y-108035216D01*
X110211970Y-108035214D01*
X110332283Y-107869615D01*
X110332284Y-107869614D01*
X110332286Y-107869611D01*
X110379515Y-107776918D01*
X110427488Y-107726124D01*
X110495309Y-107709329D01*
X110561444Y-107731866D01*
X110600482Y-107776918D01*
X110606138Y-107788017D01*
X110647714Y-107869615D01*
X110768027Y-108035214D01*
X110912785Y-108179972D01*
X111006629Y-108248152D01*
X111078389Y-108300288D01*
X111172514Y-108348247D01*
X111260775Y-108393219D01*
X111260777Y-108393219D01*
X111260780Y-108393221D01*
X111290203Y-108402781D01*
X111455464Y-108456478D01*
X111556556Y-108472489D01*
X111657647Y-108488501D01*
X111657648Y-108488501D01*
X111862350Y-108488501D01*
X111862351Y-108488501D01*
X112064533Y-108456478D01*
X112259218Y-108393221D01*
X112441609Y-108300288D01*
X112570481Y-108206658D01*
X112607212Y-108179972D01*
X112607214Y-108179969D01*
X112607218Y-108179967D01*
X112751965Y-108035220D01*
X112751967Y-108035216D01*
X112751970Y-108035214D01*
X112872283Y-107869615D01*
X112872284Y-107869614D01*
X112872286Y-107869611D01*
X112919515Y-107776918D01*
X112967488Y-107726124D01*
X113035309Y-107709329D01*
X113101444Y-107731866D01*
X113140482Y-107776918D01*
X113146138Y-107788017D01*
X113187714Y-107869615D01*
X113308027Y-108035214D01*
X113452785Y-108179972D01*
X113546629Y-108248152D01*
X113618389Y-108300288D01*
X113712514Y-108348247D01*
X113800775Y-108393219D01*
X113800777Y-108393219D01*
X113800780Y-108393221D01*
X113830203Y-108402781D01*
X113995464Y-108456478D01*
X114096556Y-108472489D01*
X114197647Y-108488501D01*
X114197648Y-108488501D01*
X114402350Y-108488501D01*
X114402351Y-108488501D01*
X114604533Y-108456478D01*
X114799218Y-108393221D01*
X114981609Y-108300288D01*
X115110481Y-108206658D01*
X115147212Y-108179972D01*
X115147214Y-108179969D01*
X115147218Y-108179967D01*
X115291965Y-108035220D01*
X115291967Y-108035216D01*
X115291970Y-108035214D01*
X115412283Y-107869615D01*
X115412284Y-107869614D01*
X115412286Y-107869611D01*
X115459515Y-107776918D01*
X115507488Y-107726124D01*
X115575309Y-107709329D01*
X115641444Y-107731866D01*
X115680482Y-107776918D01*
X115686138Y-107788017D01*
X115727714Y-107869615D01*
X115848027Y-108035214D01*
X115992785Y-108179972D01*
X116086629Y-108248152D01*
X116158389Y-108300288D01*
X116252514Y-108348247D01*
X116340775Y-108393219D01*
X116340777Y-108393219D01*
X116340780Y-108393221D01*
X116370203Y-108402781D01*
X116535464Y-108456478D01*
X116636556Y-108472489D01*
X116737647Y-108488501D01*
X116737648Y-108488501D01*
X116942350Y-108488501D01*
X116942351Y-108488501D01*
X117144533Y-108456478D01*
X117339218Y-108393221D01*
X117521609Y-108300288D01*
X117650481Y-108206658D01*
X117687212Y-108179972D01*
X117687214Y-108179969D01*
X117687218Y-108179967D01*
X117831965Y-108035220D01*
X117831967Y-108035216D01*
X117831970Y-108035214D01*
X117952283Y-107869615D01*
X117952284Y-107869614D01*
X117952286Y-107869611D01*
X117999515Y-107776918D01*
X118047488Y-107726124D01*
X118115309Y-107709329D01*
X118181444Y-107731866D01*
X118220482Y-107776918D01*
X118226138Y-107788017D01*
X118267714Y-107869615D01*
X118388027Y-108035214D01*
X118532785Y-108179972D01*
X118626629Y-108248152D01*
X118698389Y-108300288D01*
X118792514Y-108348247D01*
X118880775Y-108393219D01*
X118880777Y-108393219D01*
X118880780Y-108393221D01*
X118910203Y-108402781D01*
X119075464Y-108456478D01*
X119176556Y-108472489D01*
X119277647Y-108488501D01*
X119277648Y-108488501D01*
X119482350Y-108488501D01*
X119482351Y-108488501D01*
X119684533Y-108456478D01*
X119879218Y-108393221D01*
X120061609Y-108300288D01*
X120190481Y-108206658D01*
X120227212Y-108179972D01*
X120227214Y-108179969D01*
X120227218Y-108179967D01*
X120371965Y-108035220D01*
X120371967Y-108035216D01*
X120371970Y-108035214D01*
X120492283Y-107869615D01*
X120492284Y-107869614D01*
X120492286Y-107869611D01*
X120539515Y-107776918D01*
X120587488Y-107726124D01*
X120655309Y-107709329D01*
X120721444Y-107731866D01*
X120760482Y-107776918D01*
X120766138Y-107788017D01*
X120807714Y-107869615D01*
X120928027Y-108035214D01*
X121072785Y-108179972D01*
X121166629Y-108248152D01*
X121238389Y-108300288D01*
X121332514Y-108348247D01*
X121420775Y-108393219D01*
X121420777Y-108393219D01*
X121420780Y-108393221D01*
X121450203Y-108402781D01*
X121615464Y-108456478D01*
X121716556Y-108472489D01*
X121817647Y-108488501D01*
X121817648Y-108488501D01*
X122022350Y-108488501D01*
X122022351Y-108488501D01*
X122224533Y-108456478D01*
X122419218Y-108393221D01*
X122601609Y-108300288D01*
X122730481Y-108206658D01*
X122767212Y-108179972D01*
X122767214Y-108179969D01*
X122767218Y-108179967D01*
X122911965Y-108035220D01*
X122911967Y-108035216D01*
X122911970Y-108035214D01*
X123032283Y-107869615D01*
X123032284Y-107869614D01*
X123032286Y-107869611D01*
X123079515Y-107776918D01*
X123127488Y-107726124D01*
X123195309Y-107709329D01*
X123261444Y-107731866D01*
X123300482Y-107776918D01*
X123306138Y-107788017D01*
X123347714Y-107869615D01*
X123468027Y-108035214D01*
X123612785Y-108179972D01*
X123706629Y-108248152D01*
X123778389Y-108300288D01*
X123872514Y-108348247D01*
X123960775Y-108393219D01*
X123960777Y-108393219D01*
X123960780Y-108393221D01*
X123990203Y-108402781D01*
X124155464Y-108456478D01*
X124256556Y-108472489D01*
X124357647Y-108488501D01*
X124357648Y-108488501D01*
X124562350Y-108488501D01*
X124562351Y-108488501D01*
X124764533Y-108456478D01*
X124959218Y-108393221D01*
X125141609Y-108300288D01*
X125270481Y-108206658D01*
X125307212Y-108179972D01*
X125307214Y-108179969D01*
X125307218Y-108179967D01*
X125451965Y-108035220D01*
X125451967Y-108035216D01*
X125451970Y-108035214D01*
X125572283Y-107869615D01*
X125572284Y-107869614D01*
X125572286Y-107869611D01*
X125619515Y-107776918D01*
X125667488Y-107726124D01*
X125735309Y-107709329D01*
X125801444Y-107731866D01*
X125840482Y-107776918D01*
X125846138Y-107788017D01*
X125887714Y-107869615D01*
X126008027Y-108035214D01*
X126152785Y-108179972D01*
X126246629Y-108248152D01*
X126318389Y-108300288D01*
X126412514Y-108348247D01*
X126500775Y-108393219D01*
X126500777Y-108393219D01*
X126500780Y-108393221D01*
X126530203Y-108402781D01*
X126695464Y-108456478D01*
X126796556Y-108472489D01*
X126897647Y-108488501D01*
X126897648Y-108488501D01*
X127102350Y-108488501D01*
X127102351Y-108488501D01*
X127304533Y-108456478D01*
X127499218Y-108393221D01*
X127681609Y-108300288D01*
X127810481Y-108206658D01*
X127847212Y-108179972D01*
X127847214Y-108179969D01*
X127847218Y-108179967D01*
X127991965Y-108035220D01*
X128060020Y-107941548D01*
X128115348Y-107898883D01*
X128184962Y-107892903D01*
X128246757Y-107925508D01*
X128278043Y-107975428D01*
X128305185Y-108057335D01*
X128397287Y-108206657D01*
X128521343Y-108330713D01*
X128670665Y-108422815D01*
X128837202Y-108478000D01*
X128939990Y-108488501D01*
X130140007Y-108488500D01*
X130242796Y-108478000D01*
X130409333Y-108422815D01*
X130558655Y-108330713D01*
X130682711Y-108206657D01*
X130774813Y-108057335D01*
X130829998Y-107890798D01*
X130840499Y-107788010D01*
X130840498Y-106587993D01*
X130829998Y-106485204D01*
X130774813Y-106318667D01*
X130682711Y-106169345D01*
X130558655Y-106045289D01*
X130409333Y-105953187D01*
X130242796Y-105898002D01*
X130242794Y-105898001D01*
X130140009Y-105887501D01*
X128939997Y-105887501D01*
X128939980Y-105887502D01*
X128837202Y-105898001D01*
X128837199Y-105898002D01*
X128670667Y-105953186D01*
X128670662Y-105953188D01*
X128521341Y-106045290D01*
X128397288Y-106169343D01*
X128305186Y-106318664D01*
X128305185Y-106318667D01*
X128278044Y-106400572D01*
X128238270Y-106458017D01*
X128173754Y-106484839D01*
X128104978Y-106472523D01*
X128060020Y-106434453D01*
X127991965Y-106340782D01*
X127847218Y-106196035D01*
X127847212Y-106196029D01*
X127681612Y-106075716D01*
X127681611Y-106075715D01*
X127681609Y-106075714D01*
X127621897Y-106045289D01*
X127499222Y-105982782D01*
X127304533Y-105919523D01*
X127129994Y-105891879D01*
X127102351Y-105887501D01*
X126897647Y-105887501D01*
X126873328Y-105891352D01*
X126695464Y-105919523D01*
X126500775Y-105982782D01*
X126318385Y-106075716D01*
X126152785Y-106196029D01*
X126008027Y-106340787D01*
X125887714Y-106506387D01*
X125840484Y-106599081D01*
X125792509Y-106649877D01*
X125724688Y-106666672D01*
X125658553Y-106644135D01*
X125619514Y-106599081D01*
X125613859Y-106587982D01*
X125572286Y-106506391D01*
X125495405Y-106400572D01*
X125451970Y-106340787D01*
X125307212Y-106196029D01*
X125141612Y-106075716D01*
X125141611Y-106075715D01*
X125141609Y-106075714D01*
X125081897Y-106045289D01*
X124959222Y-105982782D01*
X124764533Y-105919523D01*
X124589994Y-105891879D01*
X124562351Y-105887501D01*
X124357647Y-105887501D01*
X124333328Y-105891352D01*
X124155464Y-105919523D01*
X123960775Y-105982782D01*
X123778385Y-106075716D01*
X123612785Y-106196029D01*
X123468027Y-106340787D01*
X123347714Y-106506387D01*
X123300484Y-106599081D01*
X123252509Y-106649877D01*
X123184688Y-106666672D01*
X123118553Y-106644135D01*
X123079514Y-106599081D01*
X123073859Y-106587982D01*
X123032286Y-106506391D01*
X122955405Y-106400572D01*
X122911970Y-106340787D01*
X122767212Y-106196029D01*
X122601612Y-106075716D01*
X122601611Y-106075715D01*
X122601609Y-106075714D01*
X122541897Y-106045289D01*
X122419222Y-105982782D01*
X122224533Y-105919523D01*
X122049994Y-105891879D01*
X122022351Y-105887501D01*
X121817647Y-105887501D01*
X121793328Y-105891352D01*
X121615464Y-105919523D01*
X121420775Y-105982782D01*
X121238385Y-106075716D01*
X121072785Y-106196029D01*
X120928027Y-106340787D01*
X120807714Y-106506387D01*
X120760484Y-106599081D01*
X120712509Y-106649877D01*
X120644688Y-106666672D01*
X120578553Y-106644135D01*
X120539514Y-106599081D01*
X120533859Y-106587982D01*
X120492286Y-106506391D01*
X120415405Y-106400572D01*
X120371970Y-106340787D01*
X120227212Y-106196029D01*
X120061612Y-106075716D01*
X120061611Y-106075715D01*
X120061609Y-106075714D01*
X120001897Y-106045289D01*
X119879222Y-105982782D01*
X119684533Y-105919523D01*
X119509994Y-105891879D01*
X119482351Y-105887501D01*
X119277647Y-105887501D01*
X119253328Y-105891352D01*
X119075464Y-105919523D01*
X118880775Y-105982782D01*
X118698385Y-106075716D01*
X118532785Y-106196029D01*
X118388027Y-106340787D01*
X118267714Y-106506387D01*
X118220484Y-106599081D01*
X118172509Y-106649877D01*
X118104688Y-106666672D01*
X118038553Y-106644135D01*
X117999514Y-106599081D01*
X117993859Y-106587982D01*
X117952286Y-106506391D01*
X117875405Y-106400572D01*
X117831970Y-106340787D01*
X117687212Y-106196029D01*
X117521612Y-106075716D01*
X117521611Y-106075715D01*
X117521609Y-106075714D01*
X117461897Y-106045289D01*
X117339222Y-105982782D01*
X117144533Y-105919523D01*
X116969994Y-105891879D01*
X116942351Y-105887501D01*
X116737647Y-105887501D01*
X116713328Y-105891352D01*
X116535464Y-105919523D01*
X116340775Y-105982782D01*
X116158385Y-106075716D01*
X115992785Y-106196029D01*
X115848027Y-106340787D01*
X115727714Y-106506387D01*
X115680484Y-106599081D01*
X115632509Y-106649877D01*
X115564688Y-106666672D01*
X115498553Y-106644135D01*
X115459514Y-106599081D01*
X115453859Y-106587982D01*
X115412286Y-106506391D01*
X115335405Y-106400572D01*
X115291970Y-106340787D01*
X115147212Y-106196029D01*
X114981612Y-106075716D01*
X114981611Y-106075715D01*
X114981609Y-106075714D01*
X114921897Y-106045289D01*
X114799222Y-105982782D01*
X114604533Y-105919523D01*
X114429994Y-105891879D01*
X114402351Y-105887501D01*
X114197647Y-105887501D01*
X114173328Y-105891352D01*
X113995464Y-105919523D01*
X113800775Y-105982782D01*
X113618385Y-106075716D01*
X113452785Y-106196029D01*
X113308027Y-106340787D01*
X113187714Y-106506387D01*
X113140484Y-106599081D01*
X113092509Y-106649877D01*
X113024688Y-106666672D01*
X112958553Y-106644135D01*
X112919514Y-106599081D01*
X112913859Y-106587982D01*
X112872286Y-106506391D01*
X112795405Y-106400572D01*
X112751970Y-106340787D01*
X112607212Y-106196029D01*
X112441612Y-106075716D01*
X112441611Y-106075715D01*
X112441609Y-106075714D01*
X112381897Y-106045289D01*
X112259222Y-105982782D01*
X112064533Y-105919523D01*
X111889994Y-105891879D01*
X111862351Y-105887501D01*
X111657647Y-105887501D01*
X111633328Y-105891352D01*
X111455464Y-105919523D01*
X111260775Y-105982782D01*
X111078385Y-106075716D01*
X110912785Y-106196029D01*
X110768027Y-106340787D01*
X110647714Y-106506387D01*
X110600484Y-106599081D01*
X110552509Y-106649877D01*
X110484688Y-106666672D01*
X110418553Y-106644135D01*
X110379514Y-106599081D01*
X110373859Y-106587982D01*
X110332286Y-106506391D01*
X110255405Y-106400572D01*
X110211970Y-106340787D01*
X110067212Y-106196029D01*
X109901612Y-106075716D01*
X109901611Y-106075715D01*
X109901609Y-106075714D01*
X109841897Y-106045289D01*
X109719222Y-105982782D01*
X109524533Y-105919523D01*
X109349994Y-105891879D01*
X109322351Y-105887501D01*
X109117647Y-105887501D01*
X109093328Y-105891352D01*
X108915464Y-105919523D01*
X108720775Y-105982782D01*
X108538385Y-106075716D01*
X108372785Y-106196029D01*
X108228027Y-106340787D01*
X108107714Y-106506387D01*
X108060484Y-106599081D01*
X108012509Y-106649877D01*
X107944688Y-106666672D01*
X107878553Y-106644135D01*
X107839514Y-106599081D01*
X107833859Y-106587982D01*
X107792286Y-106506391D01*
X107715405Y-106400572D01*
X107671970Y-106340787D01*
X107527212Y-106196029D01*
X107361612Y-106075716D01*
X107361611Y-106075715D01*
X107361609Y-106075714D01*
X107301897Y-106045289D01*
X107179222Y-105982782D01*
X106984533Y-105919523D01*
X106809994Y-105891879D01*
X106782351Y-105887501D01*
X106577647Y-105887501D01*
X106553328Y-105891352D01*
X106375464Y-105919523D01*
X106180775Y-105982782D01*
X105998385Y-106075716D01*
X105832785Y-106196029D01*
X105688027Y-106340787D01*
X105567714Y-106506387D01*
X105520484Y-106599081D01*
X105472509Y-106649877D01*
X105404688Y-106666672D01*
X105338553Y-106644135D01*
X105299514Y-106599081D01*
X105293859Y-106587982D01*
X105252286Y-106506391D01*
X105175405Y-106400572D01*
X105131970Y-106340787D01*
X104987212Y-106196029D01*
X104821612Y-106075716D01*
X104821611Y-106075715D01*
X104821609Y-106075714D01*
X104761897Y-106045289D01*
X104639222Y-105982782D01*
X104444533Y-105919523D01*
X104269994Y-105891879D01*
X104242351Y-105887501D01*
X104037647Y-105887501D01*
X104013328Y-105891352D01*
X103835464Y-105919523D01*
X103640775Y-105982782D01*
X103458385Y-106075716D01*
X103292785Y-106196029D01*
X103148027Y-106340787D01*
X103027714Y-106506387D01*
X102980484Y-106599081D01*
X102932509Y-106649877D01*
X102864688Y-106666672D01*
X102798553Y-106644135D01*
X102759514Y-106599081D01*
X102753859Y-106587982D01*
X102712286Y-106506391D01*
X102635405Y-106400572D01*
X102591970Y-106340787D01*
X102447212Y-106196029D01*
X102281612Y-106075716D01*
X102281611Y-106075715D01*
X102281609Y-106075714D01*
X102221897Y-106045289D01*
X102099222Y-105982782D01*
X101904533Y-105919523D01*
X101729994Y-105891879D01*
X101702351Y-105887501D01*
X101497647Y-105887501D01*
X101473328Y-105891352D01*
X101295464Y-105919523D01*
X101100775Y-105982782D01*
X100918385Y-106075716D01*
X100752785Y-106196029D01*
X100608027Y-106340787D01*
X100487714Y-106506387D01*
X100440484Y-106599081D01*
X100392509Y-106649877D01*
X100324688Y-106666672D01*
X100258553Y-106644135D01*
X100219514Y-106599081D01*
X100213859Y-106587982D01*
X100172286Y-106506391D01*
X100095405Y-106400572D01*
X100051970Y-106340787D01*
X99907212Y-106196029D01*
X99741612Y-106075716D01*
X99741611Y-106075715D01*
X99741609Y-106075714D01*
X99681897Y-106045289D01*
X99559222Y-105982782D01*
X99364533Y-105919523D01*
X99189994Y-105891879D01*
X99162351Y-105887501D01*
X98957647Y-105887501D01*
X98933328Y-105891352D01*
X98755464Y-105919523D01*
X98560775Y-105982782D01*
X98378385Y-106075716D01*
X98212785Y-106196029D01*
X98068027Y-106340787D01*
X97947714Y-106506387D01*
X97900484Y-106599081D01*
X97852509Y-106649877D01*
X97784688Y-106666672D01*
X97718553Y-106644135D01*
X97679514Y-106599081D01*
X97673859Y-106587982D01*
X97632286Y-106506391D01*
X97555405Y-106400572D01*
X97511970Y-106340787D01*
X97367212Y-106196029D01*
X97201612Y-106075716D01*
X97201611Y-106075715D01*
X97201609Y-106075714D01*
X97141897Y-106045289D01*
X97019222Y-105982782D01*
X96824533Y-105919523D01*
X96649994Y-105891879D01*
X96622351Y-105887501D01*
X96417647Y-105887501D01*
X96393328Y-105891352D01*
X96215464Y-105919523D01*
X96020775Y-105982782D01*
X95838385Y-106075716D01*
X95672785Y-106196029D01*
X95528027Y-106340787D01*
X95407714Y-106506387D01*
X95360484Y-106599081D01*
X95312509Y-106649877D01*
X95244688Y-106666672D01*
X95178553Y-106644135D01*
X95139514Y-106599081D01*
X95133859Y-106587982D01*
X95092286Y-106506391D01*
X95015405Y-106400572D01*
X94971970Y-106340787D01*
X94827212Y-106196029D01*
X94661612Y-106075716D01*
X94661611Y-106075715D01*
X94661609Y-106075714D01*
X94601897Y-106045289D01*
X94479222Y-105982782D01*
X94284533Y-105919523D01*
X94109994Y-105891879D01*
X94082351Y-105887501D01*
X93877647Y-105887501D01*
X93853328Y-105891352D01*
X93675464Y-105919523D01*
X93480775Y-105982782D01*
X93298385Y-106075716D01*
X93132785Y-106196029D01*
X92988027Y-106340787D01*
X92867714Y-106506387D01*
X92774780Y-106688777D01*
X92711521Y-106883466D01*
X92679499Y-107085649D01*
X92679499Y-107290352D01*
X92711521Y-107492535D01*
X92774780Y-107687224D01*
X92826134Y-107788010D01*
X92857722Y-107850005D01*
X92867714Y-107869614D01*
X92988027Y-108035214D01*
X93132783Y-108179970D01*
X93169517Y-108206658D01*
X93298389Y-108300288D01*
X93298394Y-108300290D01*
X93301383Y-108302462D01*
X93344050Y-108357792D01*
X93352499Y-108402781D01*
X93352499Y-108646806D01*
X93376611Y-108768026D01*
X93376613Y-108768034D01*
X93410061Y-108848784D01*
X93423916Y-108882233D01*
X93434585Y-108898200D01*
X93484899Y-108973500D01*
X93492588Y-108985007D01*
X96794589Y-112287008D01*
X96881992Y-112374411D01*
X96881994Y-112374413D01*
X96881996Y-112374414D01*
X96984756Y-112443076D01*
X96984758Y-112443077D01*
X96984767Y-112443083D01*
X97032070Y-112462676D01*
X97098966Y-112490386D01*
X97164170Y-112503355D01*
X97170454Y-112505316D01*
X97194266Y-112521189D01*
X97219630Y-112534457D01*
X97222971Y-112540325D01*
X97228590Y-112544071D01*
X97240041Y-112570302D01*
X97254204Y-112595173D01*
X97253842Y-112601915D01*
X97256545Y-112608105D01*
X97251996Y-112636364D01*
X97250465Y-112664943D01*
X97246344Y-112671482D01*
X97245442Y-112677087D01*
X97236587Y-112686965D01*
X97221209Y-112711371D01*
X94075917Y-115856664D01*
X91039992Y-118892589D01*
X91039991Y-118892590D01*
X91017348Y-118915233D01*
X90952585Y-118979995D01*
X90952584Y-118979997D01*
X90883232Y-119083790D01*
X90881585Y-119088394D01*
X90836613Y-119196965D01*
X90836611Y-119196973D01*
X90812499Y-119318192D01*
X90812499Y-121213219D01*
X90792814Y-121280258D01*
X90761384Y-121313537D01*
X90592786Y-121436029D01*
X90592781Y-121436033D01*
X90448027Y-121580787D01*
X90327714Y-121746387D01*
X90234780Y-121928777D01*
X90171521Y-122123466D01*
X90139499Y-122325649D01*
X90139499Y-122530352D01*
X90171521Y-122732535D01*
X90234780Y-122927224D01*
X90327714Y-123109614D01*
X90448027Y-123275214D01*
X90592785Y-123419972D01*
X90747748Y-123532557D01*
X90758389Y-123540288D01*
X90871247Y-123597792D01*
X90940775Y-123633219D01*
X90940777Y-123633219D01*
X90940780Y-123633221D01*
X90970203Y-123642781D01*
X91135464Y-123696478D01*
X91236556Y-123712489D01*
X91337647Y-123728501D01*
X91337648Y-123728501D01*
X91542350Y-123728501D01*
X91542351Y-123728501D01*
X91744533Y-123696478D01*
X91939218Y-123633221D01*
X92121609Y-123540288D01*
X92214589Y-123472733D01*
X92287212Y-123419972D01*
X92287214Y-123419969D01*
X92287218Y-123419967D01*
X92431965Y-123275220D01*
X92431967Y-123275216D01*
X92431970Y-123275214D01*
X92552283Y-123109615D01*
X92552284Y-123109614D01*
X92552286Y-123109611D01*
X92599515Y-123016918D01*
X92647488Y-122966124D01*
X92715309Y-122949329D01*
X92781444Y-122971866D01*
X92820484Y-123016920D01*
X92867714Y-123109615D01*
X92988027Y-123275214D01*
X93132785Y-123419972D01*
X93287748Y-123532557D01*
X93298389Y-123540288D01*
X93411247Y-123597792D01*
X93480775Y-123633219D01*
X93480777Y-123633219D01*
X93480780Y-123633221D01*
X93510203Y-123642781D01*
X93675464Y-123696478D01*
X93776556Y-123712489D01*
X93877647Y-123728501D01*
X93877648Y-123728501D01*
X94082350Y-123728501D01*
X94082351Y-123728501D01*
X94284533Y-123696478D01*
X94479218Y-123633221D01*
X94661609Y-123540288D01*
X94754589Y-123472733D01*
X94827212Y-123419972D01*
X94827214Y-123419969D01*
X94827218Y-123419967D01*
X94971965Y-123275220D01*
X94971967Y-123275216D01*
X94971970Y-123275214D01*
X95092283Y-123109615D01*
X95092284Y-123109614D01*
X95092286Y-123109611D01*
X95139515Y-123016918D01*
X95187488Y-122966124D01*
X95255309Y-122949329D01*
X95321444Y-122971866D01*
X95360484Y-123016920D01*
X95407714Y-123109615D01*
X95528027Y-123275214D01*
X95672785Y-123419972D01*
X95827748Y-123532557D01*
X95838389Y-123540288D01*
X95951247Y-123597792D01*
X96020775Y-123633219D01*
X96020777Y-123633219D01*
X96020780Y-123633221D01*
X96050203Y-123642781D01*
X96215464Y-123696478D01*
X96316556Y-123712489D01*
X96417647Y-123728501D01*
X96417648Y-123728501D01*
X96622350Y-123728501D01*
X96622351Y-123728501D01*
X96824533Y-123696478D01*
X97019218Y-123633221D01*
X97201609Y-123540288D01*
X97294589Y-123472733D01*
X97367212Y-123419972D01*
X97367214Y-123419969D01*
X97367218Y-123419967D01*
X97511965Y-123275220D01*
X97511967Y-123275216D01*
X97511970Y-123275214D01*
X97632283Y-123109615D01*
X97632284Y-123109614D01*
X97632286Y-123109611D01*
X97679515Y-123016918D01*
X97727488Y-122966124D01*
X97795309Y-122949329D01*
X97861444Y-122971866D01*
X97900484Y-123016920D01*
X97947714Y-123109615D01*
X98068027Y-123275214D01*
X98212785Y-123419972D01*
X98367748Y-123532557D01*
X98378389Y-123540288D01*
X98491247Y-123597792D01*
X98560775Y-123633219D01*
X98560777Y-123633219D01*
X98560780Y-123633221D01*
X98590203Y-123642781D01*
X98755464Y-123696478D01*
X98856556Y-123712489D01*
X98957647Y-123728501D01*
X98957648Y-123728501D01*
X99162350Y-123728501D01*
X99162351Y-123728501D01*
X99364533Y-123696478D01*
X99559218Y-123633221D01*
X99741609Y-123540288D01*
X99834589Y-123472733D01*
X99907212Y-123419972D01*
X99907214Y-123419969D01*
X99907218Y-123419967D01*
X100051965Y-123275220D01*
X100051967Y-123275216D01*
X100051970Y-123275214D01*
X100172283Y-123109615D01*
X100172284Y-123109614D01*
X100172286Y-123109611D01*
X100219515Y-123016918D01*
X100267488Y-122966124D01*
X100335309Y-122949329D01*
X100401444Y-122971866D01*
X100440484Y-123016920D01*
X100487714Y-123109615D01*
X100608027Y-123275214D01*
X100752785Y-123419972D01*
X100907748Y-123532557D01*
X100918389Y-123540288D01*
X101031247Y-123597792D01*
X101100775Y-123633219D01*
X101100777Y-123633219D01*
X101100780Y-123633221D01*
X101130203Y-123642781D01*
X101295464Y-123696478D01*
X101396556Y-123712489D01*
X101497647Y-123728501D01*
X101497648Y-123728501D01*
X101702350Y-123728501D01*
X101702351Y-123728501D01*
X101904533Y-123696478D01*
X102099218Y-123633221D01*
X102281609Y-123540288D01*
X102374589Y-123472733D01*
X102447212Y-123419972D01*
X102447214Y-123419969D01*
X102447218Y-123419967D01*
X102591965Y-123275220D01*
X102591967Y-123275216D01*
X102591970Y-123275214D01*
X102712283Y-123109615D01*
X102712284Y-123109614D01*
X102712286Y-123109611D01*
X102759515Y-123016918D01*
X102807488Y-122966124D01*
X102875309Y-122949329D01*
X102941444Y-122971866D01*
X102980484Y-123016920D01*
X103027714Y-123109615D01*
X103148027Y-123275214D01*
X103292785Y-123419972D01*
X103447748Y-123532557D01*
X103458389Y-123540288D01*
X103571247Y-123597792D01*
X103640775Y-123633219D01*
X103640777Y-123633219D01*
X103640780Y-123633221D01*
X103670203Y-123642781D01*
X103835464Y-123696478D01*
X103936556Y-123712489D01*
X104037647Y-123728501D01*
X104037648Y-123728501D01*
X104242350Y-123728501D01*
X104242351Y-123728501D01*
X104444533Y-123696478D01*
X104639218Y-123633221D01*
X104821609Y-123540288D01*
X104914589Y-123472733D01*
X104987212Y-123419972D01*
X104987214Y-123419969D01*
X104987218Y-123419967D01*
X105131965Y-123275220D01*
X105131967Y-123275216D01*
X105131970Y-123275214D01*
X105252283Y-123109615D01*
X105252284Y-123109614D01*
X105252286Y-123109611D01*
X105299515Y-123016918D01*
X105347488Y-122966124D01*
X105415309Y-122949329D01*
X105481444Y-122971866D01*
X105520484Y-123016920D01*
X105567714Y-123109615D01*
X105688027Y-123275214D01*
X105832785Y-123419972D01*
X105987748Y-123532557D01*
X105998389Y-123540288D01*
X106111247Y-123597792D01*
X106180775Y-123633219D01*
X106180777Y-123633219D01*
X106180780Y-123633221D01*
X106210203Y-123642781D01*
X106375464Y-123696478D01*
X106476556Y-123712489D01*
X106577647Y-123728501D01*
X106577648Y-123728501D01*
X106782350Y-123728501D01*
X106782351Y-123728501D01*
X106984533Y-123696478D01*
X107179218Y-123633221D01*
X107361609Y-123540288D01*
X107454589Y-123472733D01*
X107527212Y-123419972D01*
X107527214Y-123419969D01*
X107527218Y-123419967D01*
X107671965Y-123275220D01*
X107671967Y-123275216D01*
X107671970Y-123275214D01*
X107792283Y-123109615D01*
X107792284Y-123109614D01*
X107792286Y-123109611D01*
X107839515Y-123016918D01*
X107887488Y-122966124D01*
X107955309Y-122949329D01*
X108021444Y-122971866D01*
X108060484Y-123016920D01*
X108107714Y-123109615D01*
X108228027Y-123275214D01*
X108372783Y-123419970D01*
X108439571Y-123468493D01*
X108538389Y-123540288D01*
X108538394Y-123540290D01*
X108541383Y-123542462D01*
X108584050Y-123597792D01*
X108592499Y-123642781D01*
X108592499Y-124013806D01*
X108616611Y-124135026D01*
X108616612Y-124135031D01*
X108650061Y-124215784D01*
X108663914Y-124249228D01*
X108663919Y-124249238D01*
X108732587Y-124352006D01*
X108732590Y-124352010D01*
X115717589Y-131337008D01*
X115804992Y-131424411D01*
X115804993Y-131424412D01*
X115907760Y-131493079D01*
X115907773Y-131493086D01*
X116021960Y-131540383D01*
X116021965Y-131540385D01*
X116021969Y-131540385D01*
X116021970Y-131540386D01*
X116143194Y-131564500D01*
X116143197Y-131564500D01*
X147135719Y-131564500D01*
X147202758Y-131584185D01*
X147223400Y-131600819D01*
X149196180Y-133573599D01*
X149229665Y-133634922D01*
X149232499Y-133661280D01*
X149232499Y-135564444D01*
X149212814Y-135631483D01*
X149160010Y-135677238D01*
X149142612Y-135683659D01*
X149063149Y-135706396D01*
X148892785Y-135795387D01*
X148810966Y-135862102D01*
X148746570Y-135889211D01*
X148732606Y-135890000D01*
X148447392Y-135890000D01*
X148380353Y-135870315D01*
X148369032Y-135862102D01*
X148287212Y-135795387D01*
X148287208Y-135795385D01*
X148287207Y-135795384D01*
X148116854Y-135706399D01*
X148116848Y-135706397D01*
X147932072Y-135653526D01*
X147861865Y-135647284D01*
X147819308Y-135643501D01*
X147819303Y-135643501D01*
X146820698Y-135643501D01*
X146820692Y-135643501D01*
X146820691Y-135643502D01*
X146809688Y-135644480D01*
X146707925Y-135653526D01*
X146523147Y-135706397D01*
X146352785Y-135795387D01*
X146270966Y-135862102D01*
X146206570Y-135889211D01*
X146192606Y-135890000D01*
X145907392Y-135890000D01*
X145840353Y-135870315D01*
X145829032Y-135862102D01*
X145747212Y-135795387D01*
X145747208Y-135795385D01*
X145747207Y-135795384D01*
X145576854Y-135706399D01*
X145576848Y-135706397D01*
X145392072Y-135653526D01*
X145321865Y-135647284D01*
X145279308Y-135643501D01*
X145279303Y-135643501D01*
X144280698Y-135643501D01*
X144280692Y-135643501D01*
X144280691Y-135643502D01*
X144269688Y-135644480D01*
X144167925Y-135653526D01*
X143983147Y-135706397D01*
X143812785Y-135795387D01*
X143730966Y-135862102D01*
X143666570Y-135889211D01*
X143652606Y-135890000D01*
X143367392Y-135890000D01*
X143300353Y-135870315D01*
X143289032Y-135862102D01*
X143207212Y-135795387D01*
X143207208Y-135795385D01*
X143207207Y-135795384D01*
X143036854Y-135706399D01*
X143036848Y-135706397D01*
X142852072Y-135653526D01*
X142781865Y-135647284D01*
X142739308Y-135643501D01*
X142739303Y-135643501D01*
X141740698Y-135643501D01*
X141740692Y-135643501D01*
X141740691Y-135643502D01*
X141729688Y-135644480D01*
X141627925Y-135653526D01*
X141443147Y-135706397D01*
X141272785Y-135795387D01*
X141190966Y-135862102D01*
X141126570Y-135889211D01*
X141112606Y-135890000D01*
X140827392Y-135890000D01*
X140760353Y-135870315D01*
X140749032Y-135862102D01*
X140667212Y-135795387D01*
X140667208Y-135795385D01*
X140667207Y-135795384D01*
X140496854Y-135706399D01*
X140496848Y-135706397D01*
X140312072Y-135653526D01*
X140241865Y-135647284D01*
X140199308Y-135643501D01*
X140199303Y-135643501D01*
X139200698Y-135643501D01*
X139200692Y-135643501D01*
X139200691Y-135643502D01*
X139189688Y-135644480D01*
X139087925Y-135653526D01*
X138903147Y-135706397D01*
X138732785Y-135795387D01*
X138650966Y-135862102D01*
X138586570Y-135889211D01*
X138572606Y-135890000D01*
X138287392Y-135890000D01*
X138220353Y-135870315D01*
X138209032Y-135862102D01*
X138127212Y-135795387D01*
X138127208Y-135795385D01*
X138127207Y-135795384D01*
X137956854Y-135706399D01*
X137956848Y-135706397D01*
X137772072Y-135653526D01*
X137701865Y-135647284D01*
X137659308Y-135643501D01*
X137659303Y-135643501D01*
X136660698Y-135643501D01*
X136660692Y-135643501D01*
X136660691Y-135643502D01*
X136649688Y-135644480D01*
X136547925Y-135653526D01*
X136363147Y-135706397D01*
X136192785Y-135795387D01*
X136110966Y-135862102D01*
X136046570Y-135889211D01*
X136032606Y-135890000D01*
X135747392Y-135890000D01*
X135680353Y-135870315D01*
X135669032Y-135862102D01*
X135587212Y-135795387D01*
X135587208Y-135795385D01*
X135587207Y-135795384D01*
X135416854Y-135706399D01*
X135416848Y-135706397D01*
X135232072Y-135653526D01*
X135161865Y-135647284D01*
X135119308Y-135643501D01*
X135119303Y-135643501D01*
X134120698Y-135643501D01*
X134120692Y-135643501D01*
X134120691Y-135643502D01*
X134109688Y-135644480D01*
X134007925Y-135653526D01*
X133823147Y-135706397D01*
X133652785Y-135795387D01*
X133570966Y-135862102D01*
X133506570Y-135889211D01*
X133492606Y-135890000D01*
X133207392Y-135890000D01*
X133140353Y-135870315D01*
X133129032Y-135862102D01*
X133047212Y-135795387D01*
X133047208Y-135795385D01*
X133047207Y-135795384D01*
X132876854Y-135706399D01*
X132876848Y-135706397D01*
X132692072Y-135653526D01*
X132621865Y-135647284D01*
X132579308Y-135643501D01*
X132579303Y-135643501D01*
X131580698Y-135643501D01*
X131580692Y-135643501D01*
X131580691Y-135643502D01*
X131569688Y-135644480D01*
X131467925Y-135653526D01*
X131283147Y-135706397D01*
X131112785Y-135795387D01*
X131030966Y-135862102D01*
X130966570Y-135889211D01*
X130952606Y-135890000D01*
X130667392Y-135890000D01*
X130600353Y-135870315D01*
X130589032Y-135862102D01*
X130507212Y-135795387D01*
X130507208Y-135795385D01*
X130507207Y-135795384D01*
X130336854Y-135706399D01*
X130336848Y-135706397D01*
X130152072Y-135653526D01*
X130081865Y-135647284D01*
X130039308Y-135643501D01*
X130039303Y-135643501D01*
X129040698Y-135643501D01*
X129040692Y-135643501D01*
X129040691Y-135643502D01*
X129029688Y-135644480D01*
X128927925Y-135653526D01*
X128743147Y-135706397D01*
X128572785Y-135795387D01*
X128490966Y-135862102D01*
X128426570Y-135889211D01*
X128412606Y-135890000D01*
X128127392Y-135890000D01*
X128060353Y-135870315D01*
X128049032Y-135862102D01*
X127967212Y-135795387D01*
X127967208Y-135795385D01*
X127967207Y-135795384D01*
X127796854Y-135706399D01*
X127796848Y-135706397D01*
X127612072Y-135653526D01*
X127541865Y-135647284D01*
X127499308Y-135643501D01*
X127499303Y-135643501D01*
X126500698Y-135643501D01*
X126500692Y-135643501D01*
X126500691Y-135643502D01*
X126489688Y-135644480D01*
X126387925Y-135653526D01*
X126203147Y-135706397D01*
X126032785Y-135795387D01*
X125950966Y-135862102D01*
X125886570Y-135889211D01*
X125872606Y-135890000D01*
X125587392Y-135890000D01*
X125520353Y-135870315D01*
X125509032Y-135862102D01*
X125427212Y-135795387D01*
X125427208Y-135795385D01*
X125427207Y-135795384D01*
X125256854Y-135706399D01*
X125256848Y-135706397D01*
X125072072Y-135653526D01*
X125001865Y-135647284D01*
X124959308Y-135643501D01*
X124959303Y-135643501D01*
X123960698Y-135643501D01*
X123960692Y-135643501D01*
X123960691Y-135643502D01*
X123949688Y-135644480D01*
X123847925Y-135653526D01*
X123663147Y-135706397D01*
X123492785Y-135795387D01*
X123410966Y-135862102D01*
X123346570Y-135889211D01*
X123332606Y-135890000D01*
X123047392Y-135890000D01*
X122980353Y-135870315D01*
X122969032Y-135862102D01*
X122887212Y-135795387D01*
X122887208Y-135795385D01*
X122887207Y-135795384D01*
X122716854Y-135706399D01*
X122716848Y-135706397D01*
X122532072Y-135653526D01*
X122461865Y-135647284D01*
X122419308Y-135643501D01*
X122419303Y-135643501D01*
X121420698Y-135643501D01*
X121420692Y-135643501D01*
X121420691Y-135643502D01*
X121409688Y-135644480D01*
X121307925Y-135653526D01*
X121123147Y-135706397D01*
X120952785Y-135795387D01*
X120870966Y-135862102D01*
X120806570Y-135889211D01*
X120792606Y-135890000D01*
X120507392Y-135890000D01*
X120440353Y-135870315D01*
X120429032Y-135862102D01*
X120347212Y-135795387D01*
X120347208Y-135795385D01*
X120347207Y-135795384D01*
X120176854Y-135706399D01*
X120176848Y-135706397D01*
X119992072Y-135653526D01*
X119921865Y-135647284D01*
X119879308Y-135643501D01*
X119879303Y-135643501D01*
X118880698Y-135643501D01*
X118880692Y-135643501D01*
X118880691Y-135643502D01*
X118869688Y-135644480D01*
X118767925Y-135653526D01*
X118583147Y-135706397D01*
X118412785Y-135795387D01*
X118330966Y-135862102D01*
X118266570Y-135889211D01*
X118252606Y-135890000D01*
X117967392Y-135890000D01*
X117900353Y-135870315D01*
X117889032Y-135862102D01*
X117807212Y-135795387D01*
X117807208Y-135795385D01*
X117807207Y-135795384D01*
X117636854Y-135706399D01*
X117636848Y-135706397D01*
X117452072Y-135653526D01*
X117381865Y-135647284D01*
X117339308Y-135643501D01*
X117339303Y-135643501D01*
X116340698Y-135643501D01*
X116340692Y-135643501D01*
X116340691Y-135643502D01*
X116329688Y-135644480D01*
X116227925Y-135653526D01*
X116043147Y-135706397D01*
X115872785Y-135795387D01*
X115790966Y-135862102D01*
X115726570Y-135889211D01*
X115712606Y-135890000D01*
X115427392Y-135890000D01*
X115360353Y-135870315D01*
X115349032Y-135862102D01*
X115267212Y-135795387D01*
X115267208Y-135795385D01*
X115267207Y-135795384D01*
X115096854Y-135706399D01*
X115096848Y-135706397D01*
X114912072Y-135653526D01*
X114841865Y-135647284D01*
X114799308Y-135643501D01*
X114799303Y-135643501D01*
X113800698Y-135643501D01*
X113800692Y-135643501D01*
X113800691Y-135643502D01*
X113789688Y-135644480D01*
X113687925Y-135653526D01*
X113503147Y-135706397D01*
X113332785Y-135795387D01*
X113250966Y-135862102D01*
X113186570Y-135889211D01*
X113172606Y-135890000D01*
X112887392Y-135890000D01*
X112820353Y-135870315D01*
X112809032Y-135862102D01*
X112727212Y-135795387D01*
X112727208Y-135795385D01*
X112727207Y-135795384D01*
X112556854Y-135706399D01*
X112556848Y-135706397D01*
X112372072Y-135653526D01*
X112301865Y-135647284D01*
X112259308Y-135643501D01*
X112259303Y-135643501D01*
X111260698Y-135643501D01*
X111260692Y-135643501D01*
X111260691Y-135643502D01*
X111249688Y-135644480D01*
X111147925Y-135653526D01*
X110963147Y-135706397D01*
X110792785Y-135795387D01*
X110710966Y-135862102D01*
X110646570Y-135889211D01*
X110632606Y-135890000D01*
X110347392Y-135890000D01*
X110280353Y-135870315D01*
X110269032Y-135862102D01*
X110187212Y-135795387D01*
X110187208Y-135795385D01*
X110187207Y-135795384D01*
X110016854Y-135706399D01*
X110016848Y-135706397D01*
X109832072Y-135653526D01*
X109761865Y-135647284D01*
X109719308Y-135643501D01*
X109719303Y-135643501D01*
X108720698Y-135643501D01*
X108720692Y-135643501D01*
X108720691Y-135643502D01*
X108709688Y-135644480D01*
X108607925Y-135653526D01*
X108423147Y-135706397D01*
X108252785Y-135795387D01*
X108170966Y-135862102D01*
X108106570Y-135889211D01*
X108092606Y-135890000D01*
X107807392Y-135890000D01*
X107740353Y-135870315D01*
X107729032Y-135862102D01*
X107647212Y-135795387D01*
X107647208Y-135795385D01*
X107647207Y-135795384D01*
X107476854Y-135706399D01*
X107476848Y-135706397D01*
X107292072Y-135653526D01*
X107221865Y-135647284D01*
X107179308Y-135643501D01*
X107179303Y-135643501D01*
X106180698Y-135643501D01*
X106180692Y-135643501D01*
X106180691Y-135643502D01*
X106169688Y-135644480D01*
X106067925Y-135653526D01*
X105883147Y-135706397D01*
X105712785Y-135795387D01*
X105630966Y-135862102D01*
X105566570Y-135889211D01*
X105552606Y-135890000D01*
X105267392Y-135890000D01*
X105200353Y-135870315D01*
X105189032Y-135862102D01*
X105107212Y-135795387D01*
X105107208Y-135795385D01*
X105107207Y-135795384D01*
X104936854Y-135706399D01*
X104936848Y-135706397D01*
X104752072Y-135653526D01*
X104681865Y-135647284D01*
X104639308Y-135643501D01*
X104639303Y-135643501D01*
X103640698Y-135643501D01*
X103640692Y-135643501D01*
X103640691Y-135643502D01*
X103629688Y-135644480D01*
X103527925Y-135653526D01*
X103343147Y-135706397D01*
X103172785Y-135795387D01*
X103090966Y-135862102D01*
X103026570Y-135889211D01*
X103012606Y-135890000D01*
X88135000Y-135890000D01*
X88067961Y-135870315D01*
X88022206Y-135817511D01*
X88011000Y-135766000D01*
X88011000Y-98957648D01*
X90139500Y-98957648D01*
X90139500Y-99162351D01*
X90171522Y-99364534D01*
X90234781Y-99559223D01*
X90327715Y-99741613D01*
X90448028Y-99907213D01*
X90592786Y-100051971D01*
X90747749Y-100164556D01*
X90758390Y-100172287D01*
X90874607Y-100231503D01*
X90940776Y-100265218D01*
X90940778Y-100265218D01*
X90940781Y-100265220D01*
X91045137Y-100299127D01*
X91135465Y-100328477D01*
X91236557Y-100344488D01*
X91337648Y-100360500D01*
X91337649Y-100360500D01*
X91542351Y-100360500D01*
X91542352Y-100360500D01*
X91744534Y-100328477D01*
X91939219Y-100265220D01*
X92121610Y-100172287D01*
X92214590Y-100104732D01*
X92287213Y-100051971D01*
X92287215Y-100051968D01*
X92287219Y-100051966D01*
X92431966Y-99907219D01*
X92431968Y-99907215D01*
X92431971Y-99907213D01*
X92552284Y-99741614D01*
X92552285Y-99741613D01*
X92552287Y-99741610D01*
X92599516Y-99648917D01*
X92647489Y-99598123D01*
X92715310Y-99581328D01*
X92781445Y-99603865D01*
X92820483Y-99648917D01*
X92828315Y-99664287D01*
X92867715Y-99741614D01*
X92988028Y-99907213D01*
X93132786Y-100051971D01*
X93287749Y-100164556D01*
X93298390Y-100172287D01*
X93414607Y-100231503D01*
X93480776Y-100265218D01*
X93480778Y-100265218D01*
X93480781Y-100265220D01*
X93585137Y-100299127D01*
X93675465Y-100328477D01*
X93776557Y-100344488D01*
X93877648Y-100360500D01*
X93877649Y-100360500D01*
X94082351Y-100360500D01*
X94082352Y-100360500D01*
X94284534Y-100328477D01*
X94479219Y-100265220D01*
X94661610Y-100172287D01*
X94754590Y-100104732D01*
X94827213Y-100051971D01*
X94827215Y-100051968D01*
X94827219Y-100051966D01*
X94971966Y-99907219D01*
X94971968Y-99907215D01*
X94971971Y-99907213D01*
X95092284Y-99741614D01*
X95092285Y-99741613D01*
X95092287Y-99741610D01*
X95139516Y-99648917D01*
X95187489Y-99598123D01*
X95255310Y-99581328D01*
X95321445Y-99603865D01*
X95360483Y-99648917D01*
X95368315Y-99664287D01*
X95407715Y-99741614D01*
X95528028Y-99907213D01*
X95672786Y-100051971D01*
X95827749Y-100164556D01*
X95838390Y-100172287D01*
X95954607Y-100231503D01*
X96020776Y-100265218D01*
X96020778Y-100265218D01*
X96020781Y-100265220D01*
X96125137Y-100299127D01*
X96215465Y-100328477D01*
X96316557Y-100344488D01*
X96417648Y-100360500D01*
X96417649Y-100360500D01*
X96622351Y-100360500D01*
X96622352Y-100360500D01*
X96824534Y-100328477D01*
X97019219Y-100265220D01*
X97201610Y-100172287D01*
X97294590Y-100104732D01*
X97367213Y-100051971D01*
X97367215Y-100051968D01*
X97367219Y-100051966D01*
X97511966Y-99907219D01*
X97511968Y-99907215D01*
X97511971Y-99907213D01*
X97632284Y-99741614D01*
X97632285Y-99741613D01*
X97632287Y-99741610D01*
X97679516Y-99648917D01*
X97727489Y-99598123D01*
X97795310Y-99581328D01*
X97861445Y-99603865D01*
X97900483Y-99648917D01*
X97908315Y-99664287D01*
X97947715Y-99741614D01*
X98068028Y-99907213D01*
X98212786Y-100051971D01*
X98367749Y-100164556D01*
X98378390Y-100172287D01*
X98494607Y-100231503D01*
X98560776Y-100265218D01*
X98560778Y-100265218D01*
X98560781Y-100265220D01*
X98665137Y-100299127D01*
X98755465Y-100328477D01*
X98856557Y-100344488D01*
X98957648Y-100360500D01*
X98957649Y-100360500D01*
X99162351Y-100360500D01*
X99162352Y-100360500D01*
X99364534Y-100328477D01*
X99559219Y-100265220D01*
X99741610Y-100172287D01*
X99834590Y-100104732D01*
X99907213Y-100051971D01*
X99907215Y-100051968D01*
X99907219Y-100051966D01*
X100051966Y-99907219D01*
X100051968Y-99907215D01*
X100051971Y-99907213D01*
X100172284Y-99741614D01*
X100172285Y-99741613D01*
X100172287Y-99741610D01*
X100219516Y-99648917D01*
X100267489Y-99598123D01*
X100335310Y-99581328D01*
X100401445Y-99603865D01*
X100440483Y-99648917D01*
X100448315Y-99664287D01*
X100487715Y-99741614D01*
X100608028Y-99907213D01*
X100752786Y-100051971D01*
X100907749Y-100164556D01*
X100918390Y-100172287D01*
X101034607Y-100231503D01*
X101100776Y-100265218D01*
X101100778Y-100265218D01*
X101100781Y-100265220D01*
X101205137Y-100299127D01*
X101295465Y-100328477D01*
X101396557Y-100344488D01*
X101497648Y-100360500D01*
X101497649Y-100360500D01*
X101702351Y-100360500D01*
X101702352Y-100360500D01*
X101904534Y-100328477D01*
X102099219Y-100265220D01*
X102281610Y-100172287D01*
X102374590Y-100104732D01*
X102447213Y-100051971D01*
X102447215Y-100051968D01*
X102447219Y-100051966D01*
X102591966Y-99907219D01*
X102591968Y-99907215D01*
X102591971Y-99907213D01*
X102712284Y-99741614D01*
X102712285Y-99741613D01*
X102712287Y-99741610D01*
X102759516Y-99648917D01*
X102807489Y-99598123D01*
X102875310Y-99581328D01*
X102941445Y-99603865D01*
X102980483Y-99648917D01*
X102988315Y-99664287D01*
X103027715Y-99741614D01*
X103148028Y-99907213D01*
X103292786Y-100051971D01*
X103447749Y-100164556D01*
X103458390Y-100172287D01*
X103574607Y-100231503D01*
X103640776Y-100265218D01*
X103640778Y-100265218D01*
X103640781Y-100265220D01*
X103745137Y-100299127D01*
X103835465Y-100328477D01*
X103936557Y-100344488D01*
X104037648Y-100360500D01*
X104037649Y-100360500D01*
X104242351Y-100360500D01*
X104242352Y-100360500D01*
X104444534Y-100328477D01*
X104639219Y-100265220D01*
X104821610Y-100172287D01*
X104914590Y-100104732D01*
X104987213Y-100051971D01*
X104987215Y-100051968D01*
X104987219Y-100051966D01*
X105131966Y-99907219D01*
X105131968Y-99907215D01*
X105131971Y-99907213D01*
X105252284Y-99741614D01*
X105252285Y-99741613D01*
X105252287Y-99741610D01*
X105299516Y-99648917D01*
X105347489Y-99598123D01*
X105415310Y-99581328D01*
X105481445Y-99603865D01*
X105520483Y-99648917D01*
X105528315Y-99664287D01*
X105567715Y-99741614D01*
X105688028Y-99907213D01*
X105832786Y-100051971D01*
X105987749Y-100164556D01*
X105998390Y-100172287D01*
X106114607Y-100231503D01*
X106180776Y-100265218D01*
X106180778Y-100265218D01*
X106180781Y-100265220D01*
X106285137Y-100299127D01*
X106375465Y-100328477D01*
X106476557Y-100344488D01*
X106577648Y-100360500D01*
X106577649Y-100360500D01*
X106782351Y-100360500D01*
X106782352Y-100360500D01*
X106984534Y-100328477D01*
X106984545Y-100328473D01*
X106989269Y-100327340D01*
X106989369Y-100327757D01*
X107022568Y-100322500D01*
X129981694Y-100322500D01*
X130048733Y-100342185D01*
X130069375Y-100358819D01*
X134591181Y-104880625D01*
X134624666Y-104941948D01*
X134627500Y-104968306D01*
X134627500Y-106779360D01*
X134658587Y-106975637D01*
X134719993Y-107164629D01*
X134719994Y-107164632D01*
X134784053Y-107290352D01*
X134810213Y-107341694D01*
X134927019Y-107502464D01*
X135067536Y-107642981D01*
X135228306Y-107759787D01*
X135315149Y-107804035D01*
X135405367Y-107850005D01*
X135405370Y-107850006D01*
X135499866Y-107880709D01*
X135594364Y-107911413D01*
X135790639Y-107942500D01*
X135790640Y-107942500D01*
X135989360Y-107942500D01*
X135989361Y-107942500D01*
X136185636Y-107911413D01*
X136374632Y-107850005D01*
X136551694Y-107759787D01*
X136712464Y-107642981D01*
X136852981Y-107502464D01*
X136969787Y-107341694D01*
X137060005Y-107164632D01*
X137121413Y-106975636D01*
X137152500Y-106779361D01*
X137152500Y-104294639D01*
X137121413Y-104098364D01*
X137060005Y-103909368D01*
X137060005Y-103909367D01*
X136969786Y-103732305D01*
X136852981Y-103571536D01*
X136712464Y-103431019D01*
X136712463Y-103431018D01*
X131523320Y-98241876D01*
X131523312Y-98241867D01*
X131494226Y-98212781D01*
X131378464Y-98097019D01*
X131217694Y-97980213D01*
X131184069Y-97963080D01*
X131162290Y-97951983D01*
X147289500Y-97951983D01*
X147289500Y-99152001D01*
X147289501Y-99152018D01*
X147300000Y-99254796D01*
X147300001Y-99254799D01*
X147316818Y-99305548D01*
X147355186Y-99421334D01*
X147447288Y-99570656D01*
X147571344Y-99694712D01*
X147720666Y-99786814D01*
X147887203Y-99841999D01*
X147989991Y-99852500D01*
X149190008Y-99852499D01*
X149292797Y-99841999D01*
X149459334Y-99786814D01*
X149608656Y-99694712D01*
X149732712Y-99570656D01*
X149824814Y-99421334D01*
X149851955Y-99339427D01*
X149891726Y-99281984D01*
X149956242Y-99255161D01*
X150025018Y-99267476D01*
X150069977Y-99305547D01*
X150105848Y-99354918D01*
X150138034Y-99399219D01*
X150282786Y-99543971D01*
X150437749Y-99656556D01*
X150448390Y-99664287D01*
X150564607Y-99723503D01*
X150630776Y-99757218D01*
X150630778Y-99757218D01*
X150630781Y-99757220D01*
X150721856Y-99786812D01*
X150825465Y-99820477D01*
X150926557Y-99836488D01*
X151027648Y-99852500D01*
X151027649Y-99852500D01*
X151232351Y-99852500D01*
X151232352Y-99852500D01*
X151434534Y-99820477D01*
X151629219Y-99757220D01*
X151811610Y-99664287D01*
X151940482Y-99570657D01*
X151977213Y-99543971D01*
X151977215Y-99543968D01*
X151977219Y-99543966D01*
X152121966Y-99399219D01*
X152121968Y-99399215D01*
X152121971Y-99399213D01*
X152242284Y-99233614D01*
X152242285Y-99233613D01*
X152242287Y-99233610D01*
X152289516Y-99140917D01*
X152337489Y-99090123D01*
X152405310Y-99073328D01*
X152471445Y-99095865D01*
X152510483Y-99140917D01*
X152554348Y-99227006D01*
X152557715Y-99233614D01*
X152678028Y-99399213D01*
X152822786Y-99543971D01*
X152977749Y-99656556D01*
X152988390Y-99664287D01*
X153104607Y-99723503D01*
X153170776Y-99757218D01*
X153170778Y-99757218D01*
X153170781Y-99757220D01*
X153261856Y-99786812D01*
X153365465Y-99820477D01*
X153466557Y-99836488D01*
X153567648Y-99852500D01*
X153567649Y-99852500D01*
X153772351Y-99852500D01*
X153772352Y-99852500D01*
X153974534Y-99820477D01*
X154169219Y-99757220D01*
X154351610Y-99664287D01*
X154480482Y-99570657D01*
X154517213Y-99543971D01*
X154517215Y-99543968D01*
X154517219Y-99543966D01*
X154661966Y-99399219D01*
X154661968Y-99399215D01*
X154661971Y-99399213D01*
X154782284Y-99233614D01*
X154782285Y-99233613D01*
X154782287Y-99233610D01*
X154829516Y-99140917D01*
X154877489Y-99090123D01*
X154945310Y-99073328D01*
X155011445Y-99095865D01*
X155050483Y-99140917D01*
X155094348Y-99227006D01*
X155097715Y-99233614D01*
X155218028Y-99399213D01*
X155362786Y-99543971D01*
X155517749Y-99656556D01*
X155528390Y-99664287D01*
X155644607Y-99723503D01*
X155710776Y-99757218D01*
X155710778Y-99757218D01*
X155710781Y-99757220D01*
X155801856Y-99786812D01*
X155905465Y-99820477D01*
X156006557Y-99836488D01*
X156107648Y-99852500D01*
X156107649Y-99852500D01*
X156312351Y-99852500D01*
X156312352Y-99852500D01*
X156514534Y-99820477D01*
X156709219Y-99757220D01*
X156891610Y-99664287D01*
X157020482Y-99570657D01*
X157057213Y-99543971D01*
X157057215Y-99543968D01*
X157057219Y-99543966D01*
X157201966Y-99399219D01*
X157201968Y-99399215D01*
X157201971Y-99399213D01*
X157322284Y-99233614D01*
X157322285Y-99233613D01*
X157322287Y-99233610D01*
X157369516Y-99140917D01*
X157417489Y-99090123D01*
X157485310Y-99073328D01*
X157551445Y-99095865D01*
X157590483Y-99140917D01*
X157634348Y-99227006D01*
X157637715Y-99233614D01*
X157758028Y-99399213D01*
X157902786Y-99543971D01*
X158057749Y-99656556D01*
X158068390Y-99664287D01*
X158184607Y-99723503D01*
X158250776Y-99757218D01*
X158250778Y-99757218D01*
X158250781Y-99757220D01*
X158341856Y-99786812D01*
X158445465Y-99820477D01*
X158546557Y-99836488D01*
X158647648Y-99852500D01*
X158647649Y-99852500D01*
X158852351Y-99852500D01*
X158852352Y-99852500D01*
X159054534Y-99820477D01*
X159249219Y-99757220D01*
X159431610Y-99664287D01*
X159560482Y-99570657D01*
X159597213Y-99543971D01*
X159597215Y-99543968D01*
X159597219Y-99543966D01*
X159741966Y-99399219D01*
X159741968Y-99399215D01*
X159741971Y-99399213D01*
X159862284Y-99233614D01*
X159862285Y-99233613D01*
X159862287Y-99233610D01*
X159909516Y-99140917D01*
X159957489Y-99090123D01*
X160025310Y-99073328D01*
X160091445Y-99095865D01*
X160130483Y-99140917D01*
X160174348Y-99227006D01*
X160177715Y-99233614D01*
X160298028Y-99399213D01*
X160442786Y-99543971D01*
X160597749Y-99656556D01*
X160608390Y-99664287D01*
X160724607Y-99723503D01*
X160790776Y-99757218D01*
X160790778Y-99757218D01*
X160790781Y-99757220D01*
X160881856Y-99786812D01*
X160985465Y-99820477D01*
X161086557Y-99836488D01*
X161187648Y-99852500D01*
X161187649Y-99852500D01*
X161392351Y-99852500D01*
X161392352Y-99852500D01*
X161594534Y-99820477D01*
X161789219Y-99757220D01*
X161971610Y-99664287D01*
X162100482Y-99570657D01*
X162137213Y-99543971D01*
X162137215Y-99543968D01*
X162137219Y-99543966D01*
X162281966Y-99399219D01*
X162281968Y-99399215D01*
X162281971Y-99399213D01*
X162402284Y-99233614D01*
X162402285Y-99233613D01*
X162402287Y-99233610D01*
X162449516Y-99140917D01*
X162497489Y-99090123D01*
X162565310Y-99073328D01*
X162631445Y-99095865D01*
X162670483Y-99140917D01*
X162714348Y-99227006D01*
X162717715Y-99233614D01*
X162838028Y-99399213D01*
X162982786Y-99543971D01*
X163137749Y-99656556D01*
X163148390Y-99664287D01*
X163264607Y-99723503D01*
X163330776Y-99757218D01*
X163330778Y-99757218D01*
X163330781Y-99757220D01*
X163421856Y-99786812D01*
X163525465Y-99820477D01*
X163626557Y-99836488D01*
X163727648Y-99852500D01*
X163727649Y-99852500D01*
X163932351Y-99852500D01*
X163932352Y-99852500D01*
X164134534Y-99820477D01*
X164329219Y-99757220D01*
X164511610Y-99664287D01*
X164640482Y-99570657D01*
X164677213Y-99543971D01*
X164677215Y-99543968D01*
X164677219Y-99543966D01*
X164821966Y-99399219D01*
X164821968Y-99399215D01*
X164821971Y-99399213D01*
X164890021Y-99305548D01*
X164942287Y-99233610D01*
X165035220Y-99051219D01*
X165098477Y-98856534D01*
X165130500Y-98654352D01*
X165130500Y-98449648D01*
X165098477Y-98247466D01*
X165035220Y-98052781D01*
X165035218Y-98052778D01*
X165035218Y-98052776D01*
X164983865Y-97951991D01*
X164942287Y-97870390D01*
X164931098Y-97854989D01*
X164821971Y-97704786D01*
X164677213Y-97560028D01*
X164511613Y-97439715D01*
X164511612Y-97439714D01*
X164511610Y-97439713D01*
X164451896Y-97409287D01*
X164329223Y-97346781D01*
X164134534Y-97283522D01*
X163959995Y-97255878D01*
X163932352Y-97251500D01*
X163727648Y-97251500D01*
X163703329Y-97255351D01*
X163525465Y-97283522D01*
X163330776Y-97346781D01*
X163148386Y-97439715D01*
X162982786Y-97560028D01*
X162838028Y-97704786D01*
X162717715Y-97870386D01*
X162670485Y-97963080D01*
X162622510Y-98013876D01*
X162554689Y-98030671D01*
X162488554Y-98008134D01*
X162449515Y-97963080D01*
X162440576Y-97945536D01*
X162402287Y-97870390D01*
X162391098Y-97854989D01*
X162281971Y-97704786D01*
X162137213Y-97560028D01*
X161971613Y-97439715D01*
X161971612Y-97439714D01*
X161971610Y-97439713D01*
X161911896Y-97409287D01*
X161789223Y-97346781D01*
X161594534Y-97283522D01*
X161419995Y-97255878D01*
X161392352Y-97251500D01*
X161187648Y-97251500D01*
X161163329Y-97255351D01*
X160985465Y-97283522D01*
X160790776Y-97346781D01*
X160608386Y-97439715D01*
X160442786Y-97560028D01*
X160298028Y-97704786D01*
X160177715Y-97870386D01*
X160130485Y-97963080D01*
X160082510Y-98013876D01*
X160014689Y-98030671D01*
X159948554Y-98008134D01*
X159909515Y-97963080D01*
X159900576Y-97945536D01*
X159862287Y-97870390D01*
X159851098Y-97854989D01*
X159741971Y-97704786D01*
X159597213Y-97560028D01*
X159431613Y-97439715D01*
X159431612Y-97439714D01*
X159431610Y-97439713D01*
X159371896Y-97409287D01*
X159249223Y-97346781D01*
X159054534Y-97283522D01*
X158879995Y-97255878D01*
X158852352Y-97251500D01*
X158647648Y-97251500D01*
X158623329Y-97255351D01*
X158445465Y-97283522D01*
X158250776Y-97346781D01*
X158068386Y-97439715D01*
X157902786Y-97560028D01*
X157758028Y-97704786D01*
X157637715Y-97870386D01*
X157590485Y-97963080D01*
X157542510Y-98013876D01*
X157474689Y-98030671D01*
X157408554Y-98008134D01*
X157369515Y-97963080D01*
X157360576Y-97945536D01*
X157322287Y-97870390D01*
X157311098Y-97854989D01*
X157201971Y-97704786D01*
X157057213Y-97560028D01*
X156891613Y-97439715D01*
X156891612Y-97439714D01*
X156891610Y-97439713D01*
X156831896Y-97409287D01*
X156709223Y-97346781D01*
X156514534Y-97283522D01*
X156339995Y-97255878D01*
X156312352Y-97251500D01*
X156107648Y-97251500D01*
X156083329Y-97255351D01*
X155905465Y-97283522D01*
X155710776Y-97346781D01*
X155528386Y-97439715D01*
X155362786Y-97560028D01*
X155218028Y-97704786D01*
X155097715Y-97870386D01*
X155050485Y-97963080D01*
X155002510Y-98013876D01*
X154934689Y-98030671D01*
X154868554Y-98008134D01*
X154829515Y-97963080D01*
X154820576Y-97945536D01*
X154782287Y-97870390D01*
X154771098Y-97854989D01*
X154661971Y-97704786D01*
X154517213Y-97560028D01*
X154351613Y-97439715D01*
X154351612Y-97439714D01*
X154351610Y-97439713D01*
X154291896Y-97409287D01*
X154169223Y-97346781D01*
X153974534Y-97283522D01*
X153799995Y-97255878D01*
X153772352Y-97251500D01*
X153567648Y-97251500D01*
X153543329Y-97255351D01*
X153365465Y-97283522D01*
X153170776Y-97346781D01*
X152988386Y-97439715D01*
X152822786Y-97560028D01*
X152678028Y-97704786D01*
X152557715Y-97870386D01*
X152510485Y-97963080D01*
X152462510Y-98013876D01*
X152394689Y-98030671D01*
X152328554Y-98008134D01*
X152289515Y-97963080D01*
X152280576Y-97945536D01*
X152242287Y-97870390D01*
X152231098Y-97854989D01*
X152121971Y-97704786D01*
X151977213Y-97560028D01*
X151811613Y-97439715D01*
X151811612Y-97439714D01*
X151811610Y-97439713D01*
X151751896Y-97409287D01*
X151629223Y-97346781D01*
X151434534Y-97283522D01*
X151259995Y-97255878D01*
X151232352Y-97251500D01*
X151027648Y-97251500D01*
X151003329Y-97255351D01*
X150825465Y-97283522D01*
X150630776Y-97346781D01*
X150448386Y-97439715D01*
X150282786Y-97560028D01*
X150138032Y-97704782D01*
X150138028Y-97704787D01*
X150069978Y-97798451D01*
X150014648Y-97841117D01*
X149945035Y-97847096D01*
X149883240Y-97814490D01*
X149851954Y-97764570D01*
X149849905Y-97758386D01*
X149824814Y-97682666D01*
X149732712Y-97533344D01*
X149608656Y-97409288D01*
X149459334Y-97317186D01*
X149292797Y-97262001D01*
X149292795Y-97262000D01*
X149190010Y-97251500D01*
X147989998Y-97251500D01*
X147989981Y-97251501D01*
X147887203Y-97262000D01*
X147887200Y-97262001D01*
X147720668Y-97317185D01*
X147720663Y-97317187D01*
X147571342Y-97409289D01*
X147447289Y-97533342D01*
X147355187Y-97682663D01*
X147355185Y-97682668D01*
X147345732Y-97711197D01*
X147300001Y-97849203D01*
X147300001Y-97849204D01*
X147300000Y-97849204D01*
X147289500Y-97951983D01*
X131162290Y-97951983D01*
X131040632Y-97889994D01*
X131040629Y-97889993D01*
X130851637Y-97828587D01*
X130753498Y-97813043D01*
X130655361Y-97797500D01*
X130655360Y-97797500D01*
X118019281Y-97797500D01*
X117952242Y-97777815D01*
X117906487Y-97725011D01*
X117896543Y-97655853D01*
X117925568Y-97592297D01*
X117931600Y-97585819D01*
X117962411Y-97555008D01*
X119026238Y-96491181D01*
X122862132Y-92655285D01*
X122923453Y-92621802D01*
X122969209Y-92620495D01*
X123095514Y-92640500D01*
X123095519Y-92640500D01*
X123284486Y-92640500D01*
X123471118Y-92610940D01*
X123506477Y-92599451D01*
X123650832Y-92552547D01*
X123819199Y-92466760D01*
X123972073Y-92355690D01*
X124105690Y-92222073D01*
X124180858Y-92118612D01*
X124236187Y-92075949D01*
X124281175Y-92067500D01*
X130498719Y-92067500D01*
X130565758Y-92087185D01*
X130586400Y-92103819D01*
X131127294Y-92644713D01*
X131160779Y-92706036D01*
X131155795Y-92775728D01*
X131113923Y-92831661D01*
X131112498Y-92832712D01*
X130951213Y-92949890D01*
X130800890Y-93100213D01*
X130675951Y-93272179D01*
X130579444Y-93461585D01*
X130513753Y-93663760D01*
X130480500Y-93873713D01*
X130480500Y-94086287D01*
X130513754Y-94296243D01*
X130527486Y-94338507D01*
X130579444Y-94498414D01*
X130675951Y-94687820D01*
X130800890Y-94859786D01*
X130951213Y-95010109D01*
X131123179Y-95135048D01*
X131123181Y-95135049D01*
X131123184Y-95135051D01*
X131312588Y-95231557D01*
X131514757Y-95297246D01*
X131724713Y-95330500D01*
X131724714Y-95330500D01*
X131937286Y-95330500D01*
X131937287Y-95330500D01*
X132147243Y-95297246D01*
X132349412Y-95231557D01*
X132538816Y-95135051D01*
X132710792Y-95010104D01*
X132824329Y-94896566D01*
X132885648Y-94863084D01*
X132955340Y-94868068D01*
X133011274Y-94909939D01*
X133028189Y-94940917D01*
X133077202Y-95072328D01*
X133077206Y-95072335D01*
X133163452Y-95187544D01*
X133163455Y-95187547D01*
X133278664Y-95273793D01*
X133278671Y-95273797D01*
X133413517Y-95324091D01*
X133413516Y-95324091D01*
X133420444Y-95324835D01*
X133473127Y-95330500D01*
X135268872Y-95330499D01*
X135328483Y-95324091D01*
X135463331Y-95273796D01*
X135578546Y-95187546D01*
X135664796Y-95072331D01*
X135715091Y-94937483D01*
X135721500Y-94877873D01*
X135721500Y-94704500D01*
X135741185Y-94637461D01*
X135793989Y-94591706D01*
X135845500Y-94580500D01*
X165013331Y-94580500D01*
X165013347Y-94580501D01*
X165020943Y-94580501D01*
X165179054Y-94580501D01*
X165179057Y-94580501D01*
X165331785Y-94539577D01*
X165381904Y-94510639D01*
X165468716Y-94460520D01*
X165580520Y-94348716D01*
X165580520Y-94348714D01*
X165590728Y-94338507D01*
X165590730Y-94338504D01*
X166728506Y-93200728D01*
X166728511Y-93200724D01*
X166738714Y-93190520D01*
X166738716Y-93190520D01*
X166850520Y-93078716D01*
X166924894Y-92949896D01*
X166925748Y-92948417D01*
X166925751Y-92948412D01*
X166929575Y-92941788D01*
X166929577Y-92941785D01*
X166970500Y-92789058D01*
X166970500Y-92630943D01*
X166970500Y-92161601D01*
X166990185Y-92094562D01*
X167038206Y-92051116D01*
X167051610Y-92044287D01*
X167217219Y-91923966D01*
X167361966Y-91779219D01*
X167361968Y-91779215D01*
X167361971Y-91779213D01*
X167477317Y-91620450D01*
X167482287Y-91613610D01*
X167575220Y-91431219D01*
X167638477Y-91236534D01*
X167670500Y-91034352D01*
X167670500Y-90829648D01*
X167655858Y-90737203D01*
X167638477Y-90627465D01*
X167575218Y-90432776D01*
X167521553Y-90327454D01*
X167482287Y-90250390D01*
X167474375Y-90239500D01*
X167361971Y-90084786D01*
X167217213Y-89940028D01*
X167051613Y-89819715D01*
X167051612Y-89819714D01*
X167051610Y-89819713D01*
X166973249Y-89779786D01*
X166869223Y-89726781D01*
X166674534Y-89663522D01*
X166499995Y-89635878D01*
X166472352Y-89631500D01*
X166267648Y-89631500D01*
X166243329Y-89635351D01*
X166065465Y-89663522D01*
X165870776Y-89726781D01*
X165688386Y-89819715D01*
X165522786Y-89940028D01*
X165378028Y-90084786D01*
X165257715Y-90250386D01*
X165210485Y-90343080D01*
X165162510Y-90393876D01*
X165094689Y-90410671D01*
X165028554Y-90388134D01*
X164989515Y-90343080D01*
X164981553Y-90327454D01*
X164942287Y-90250390D01*
X164934375Y-90239500D01*
X164821971Y-90084786D01*
X164677213Y-89940028D01*
X164511613Y-89819715D01*
X164511612Y-89819714D01*
X164511610Y-89819713D01*
X164433249Y-89779786D01*
X164329223Y-89726781D01*
X164134534Y-89663522D01*
X163959995Y-89635878D01*
X163932352Y-89631500D01*
X163727648Y-89631500D01*
X163703329Y-89635351D01*
X163525465Y-89663522D01*
X163330776Y-89726781D01*
X163148386Y-89819715D01*
X162982786Y-89940028D01*
X162838028Y-90084786D01*
X162717715Y-90250386D01*
X162670485Y-90343080D01*
X162622510Y-90393876D01*
X162554689Y-90410671D01*
X162488554Y-90388134D01*
X162449515Y-90343080D01*
X162441553Y-90327454D01*
X162402287Y-90250390D01*
X162394375Y-90239500D01*
X162281971Y-90084786D01*
X162137213Y-89940028D01*
X161971613Y-89819715D01*
X161971612Y-89819714D01*
X161971610Y-89819713D01*
X161893249Y-89779786D01*
X161789223Y-89726781D01*
X161594534Y-89663522D01*
X161419995Y-89635878D01*
X161392352Y-89631500D01*
X161187648Y-89631500D01*
X161163329Y-89635351D01*
X160985465Y-89663522D01*
X160790776Y-89726781D01*
X160608386Y-89819715D01*
X160442786Y-89940028D01*
X160298028Y-90084786D01*
X160177715Y-90250386D01*
X160130485Y-90343080D01*
X160082510Y-90393876D01*
X160014689Y-90410671D01*
X159948554Y-90388134D01*
X159909515Y-90343080D01*
X159901553Y-90327454D01*
X159862287Y-90250390D01*
X159854375Y-90239500D01*
X159741971Y-90084786D01*
X159597213Y-89940028D01*
X159431613Y-89819715D01*
X159431612Y-89819714D01*
X159431610Y-89819713D01*
X159353249Y-89779786D01*
X159249223Y-89726781D01*
X159054534Y-89663522D01*
X158879995Y-89635878D01*
X158852352Y-89631500D01*
X158647648Y-89631500D01*
X158623329Y-89635351D01*
X158445465Y-89663522D01*
X158250776Y-89726781D01*
X158068386Y-89819715D01*
X157902786Y-89940028D01*
X157758028Y-90084786D01*
X157637715Y-90250386D01*
X157590485Y-90343080D01*
X157542510Y-90393876D01*
X157474689Y-90410671D01*
X157408554Y-90388134D01*
X157369515Y-90343080D01*
X157361553Y-90327454D01*
X157322287Y-90250390D01*
X157314375Y-90239500D01*
X157201971Y-90084786D01*
X157057213Y-89940028D01*
X156891613Y-89819715D01*
X156891612Y-89819714D01*
X156891610Y-89819713D01*
X156813249Y-89779786D01*
X156709223Y-89726781D01*
X156514534Y-89663522D01*
X156339995Y-89635878D01*
X156312352Y-89631500D01*
X156107648Y-89631500D01*
X156083329Y-89635351D01*
X155905465Y-89663522D01*
X155710776Y-89726781D01*
X155528386Y-89819715D01*
X155362786Y-89940028D01*
X155218028Y-90084786D01*
X155097715Y-90250386D01*
X155050485Y-90343080D01*
X155002510Y-90393876D01*
X154934689Y-90410671D01*
X154868554Y-90388134D01*
X154829515Y-90343080D01*
X154821553Y-90327454D01*
X154782287Y-90250390D01*
X154774375Y-90239500D01*
X154661971Y-90084786D01*
X154517213Y-89940028D01*
X154351613Y-89819715D01*
X154351612Y-89819714D01*
X154351610Y-89819713D01*
X154273249Y-89779786D01*
X154169223Y-89726781D01*
X153974534Y-89663522D01*
X153799995Y-89635878D01*
X153772352Y-89631500D01*
X153567648Y-89631500D01*
X153543329Y-89635351D01*
X153365465Y-89663522D01*
X153170776Y-89726781D01*
X152988386Y-89819715D01*
X152822786Y-89940028D01*
X152678028Y-90084786D01*
X152557715Y-90250386D01*
X152510485Y-90343080D01*
X152462510Y-90393876D01*
X152394689Y-90410671D01*
X152328554Y-90388134D01*
X152289515Y-90343080D01*
X152281553Y-90327454D01*
X152242287Y-90250390D01*
X152234375Y-90239500D01*
X152121971Y-90084786D01*
X151977213Y-89940028D01*
X151811613Y-89819715D01*
X151811612Y-89819714D01*
X151811610Y-89819713D01*
X151733249Y-89779786D01*
X151629223Y-89726781D01*
X151434534Y-89663522D01*
X151259995Y-89635878D01*
X151232352Y-89631500D01*
X151027648Y-89631500D01*
X151003329Y-89635351D01*
X150825465Y-89663522D01*
X150630776Y-89726781D01*
X150448386Y-89819715D01*
X150282786Y-89940028D01*
X150138028Y-90084786D01*
X150017715Y-90250386D01*
X149970485Y-90343080D01*
X149922510Y-90393876D01*
X149854689Y-90410671D01*
X149788554Y-90388134D01*
X149749515Y-90343080D01*
X149741553Y-90327454D01*
X149702287Y-90250390D01*
X149694375Y-90239500D01*
X149581971Y-90084786D01*
X149437213Y-89940028D01*
X149271613Y-89819715D01*
X149271612Y-89819714D01*
X149271610Y-89819713D01*
X149193249Y-89779786D01*
X149089223Y-89726781D01*
X148894534Y-89663522D01*
X148719995Y-89635878D01*
X148692352Y-89631500D01*
X148487648Y-89631500D01*
X148463329Y-89635351D01*
X148285465Y-89663522D01*
X148090776Y-89726781D01*
X147908386Y-89819715D01*
X147742786Y-89940028D01*
X147598028Y-90084786D01*
X147477715Y-90250386D01*
X147384781Y-90432776D01*
X147321522Y-90627465D01*
X147289500Y-90829648D01*
X147289500Y-91034351D01*
X147321522Y-91236534D01*
X147384781Y-91431223D01*
X147437395Y-91534481D01*
X147477685Y-91613556D01*
X147477715Y-91613613D01*
X147598028Y-91779213D01*
X147689634Y-91870819D01*
X147723119Y-91932142D01*
X147718135Y-92001834D01*
X147676263Y-92057767D01*
X147610799Y-92082184D01*
X147601953Y-92082500D01*
X145768047Y-92082500D01*
X145701008Y-92062815D01*
X145655253Y-92010011D01*
X145645309Y-91940853D01*
X145674334Y-91877297D01*
X145680366Y-91870819D01*
X145717472Y-91833713D01*
X145771966Y-91779219D01*
X145771968Y-91779215D01*
X145771971Y-91779213D01*
X145887317Y-91620450D01*
X145892287Y-91613610D01*
X145985220Y-91431219D01*
X146048477Y-91236534D01*
X146080500Y-91034352D01*
X146080500Y-90829648D01*
X146065858Y-90737203D01*
X146048477Y-90627465D01*
X145985218Y-90432776D01*
X145931553Y-90327454D01*
X145892287Y-90250390D01*
X145884375Y-90239500D01*
X145771971Y-90084786D01*
X145627213Y-89940028D01*
X145461613Y-89819715D01*
X145461612Y-89819714D01*
X145461610Y-89819713D01*
X145383249Y-89779786D01*
X145279223Y-89726781D01*
X145084534Y-89663522D01*
X144909995Y-89635878D01*
X144882352Y-89631500D01*
X144677648Y-89631500D01*
X144653329Y-89635351D01*
X144475465Y-89663522D01*
X144280776Y-89726781D01*
X144098386Y-89819715D01*
X143932786Y-89940028D01*
X143788028Y-90084786D01*
X143667715Y-90250386D01*
X143574781Y-90432776D01*
X143511522Y-90627465D01*
X143479500Y-90829648D01*
X143479500Y-91034351D01*
X143511522Y-91236534D01*
X143574781Y-91431223D01*
X143627395Y-91534481D01*
X143667685Y-91613556D01*
X143667715Y-91613613D01*
X143788028Y-91779213D01*
X143879634Y-91870819D01*
X143913119Y-91932142D01*
X143908135Y-92001834D01*
X143866263Y-92057767D01*
X143800799Y-92082184D01*
X143791953Y-92082500D01*
X142551281Y-92082500D01*
X142484242Y-92062815D01*
X142463600Y-92046181D01*
X138830011Y-88412591D01*
X138830007Y-88412588D01*
X138727239Y-88343920D01*
X138727226Y-88343913D01*
X138693785Y-88330062D01*
X138613035Y-88296614D01*
X138613027Y-88296612D01*
X138491807Y-88272500D01*
X138491803Y-88272500D01*
X135967499Y-88272500D01*
X135900460Y-88252815D01*
X135854705Y-88200011D01*
X135843499Y-88148500D01*
X135843499Y-88002129D01*
X135843498Y-88002123D01*
X135837091Y-87942516D01*
X135786797Y-87807671D01*
X135786793Y-87807664D01*
X135700547Y-87692455D01*
X135700544Y-87692452D01*
X135585335Y-87606206D01*
X135585328Y-87606202D01*
X135450482Y-87555908D01*
X135450483Y-87555908D01*
X135390883Y-87549501D01*
X135390881Y-87549500D01*
X135390873Y-87549500D01*
X135390864Y-87549500D01*
X133595129Y-87549500D01*
X133595123Y-87549501D01*
X133535516Y-87555908D01*
X133400671Y-87606202D01*
X133400664Y-87606206D01*
X133285455Y-87692452D01*
X133285452Y-87692455D01*
X133199206Y-87807664D01*
X133199203Y-87807669D01*
X133150189Y-87939083D01*
X133108317Y-87995016D01*
X133042853Y-88019433D01*
X132974580Y-88004581D01*
X132946326Y-87983430D01*
X132832786Y-87869890D01*
X132660820Y-87744951D01*
X132471414Y-87648444D01*
X132471413Y-87648443D01*
X132471412Y-87648443D01*
X132269243Y-87582754D01*
X132269241Y-87582753D01*
X132269240Y-87582753D01*
X132107957Y-87557208D01*
X132059287Y-87549500D01*
X131846713Y-87549500D01*
X131798042Y-87557208D01*
X131636760Y-87582753D01*
X131434585Y-87648444D01*
X131245179Y-87744951D01*
X131073213Y-87869890D01*
X130922890Y-88020213D01*
X130797949Y-88192181D01*
X130791525Y-88204792D01*
X130743552Y-88255589D01*
X130681039Y-88272500D01*
X119191194Y-88272500D01*
X119070032Y-88296600D01*
X119070033Y-88296601D01*
X119069970Y-88296613D01*
X119069957Y-88296617D01*
X118955771Y-88343914D01*
X118955769Y-88343915D01*
X118899389Y-88381588D01*
X118899388Y-88381589D01*
X118852988Y-88412591D01*
X117058232Y-90207347D01*
X116996909Y-90240832D01*
X116951157Y-90242140D01*
X116934485Y-90239500D01*
X116934481Y-90239500D01*
X116745519Y-90239500D01*
X116745514Y-90239500D01*
X116558881Y-90269059D01*
X116379163Y-90327454D01*
X116210800Y-90413240D01*
X116162911Y-90448034D01*
X116057927Y-90524310D01*
X116057925Y-90524312D01*
X116057924Y-90524312D01*
X115924312Y-90657924D01*
X115924312Y-90657925D01*
X115924310Y-90657927D01*
X115903586Y-90686451D01*
X115813240Y-90810800D01*
X115727454Y-90979163D01*
X115669059Y-91158881D01*
X115639500Y-91345513D01*
X115639500Y-91534485D01*
X115642140Y-91551157D01*
X115633183Y-91620450D01*
X115607347Y-91658232D01*
X112298400Y-94967181D01*
X112237077Y-95000666D01*
X112210719Y-95003500D01*
X96077195Y-95003500D01*
X95955970Y-95027613D01*
X95955960Y-95027616D01*
X95841773Y-95074913D01*
X95841760Y-95074920D01*
X95751770Y-95135051D01*
X95751768Y-95135052D01*
X95738993Y-95143587D01*
X95738988Y-95143591D01*
X93833992Y-97048589D01*
X93579992Y-97302589D01*
X93536289Y-97346292D01*
X93492586Y-97389994D01*
X93492585Y-97389996D01*
X93423837Y-97492885D01*
X93423741Y-97493191D01*
X93376614Y-97606965D01*
X93357158Y-97704781D01*
X93355882Y-97711190D01*
X93355881Y-97711197D01*
X93352500Y-97728196D01*
X93352500Y-97845218D01*
X93332815Y-97912257D01*
X93301385Y-97945536D01*
X93132787Y-98068028D01*
X93132782Y-98068032D01*
X92988028Y-98212786D01*
X92867715Y-98378386D01*
X92820485Y-98471080D01*
X92772510Y-98521876D01*
X92704689Y-98538671D01*
X92638554Y-98516134D01*
X92599515Y-98471080D01*
X92588595Y-98449648D01*
X92552287Y-98378390D01*
X92544556Y-98367749D01*
X92431971Y-98212786D01*
X92287213Y-98068028D01*
X92121613Y-97947715D01*
X92121612Y-97947714D01*
X92121610Y-97947713D01*
X92052024Y-97912257D01*
X91939223Y-97854781D01*
X91744534Y-97791522D01*
X91569995Y-97763878D01*
X91542352Y-97759500D01*
X91337648Y-97759500D01*
X91313329Y-97763351D01*
X91135465Y-97791522D01*
X90940776Y-97854781D01*
X90758386Y-97947715D01*
X90592786Y-98068028D01*
X90448028Y-98212786D01*
X90327715Y-98378386D01*
X90234781Y-98560776D01*
X90171522Y-98755465D01*
X90139500Y-98957648D01*
X88011000Y-98957648D01*
X88011000Y-91337648D01*
X92679500Y-91337648D01*
X92679500Y-91542351D01*
X92711522Y-91744534D01*
X92774781Y-91939223D01*
X92831794Y-92051115D01*
X92866186Y-92118614D01*
X92867715Y-92121613D01*
X92988028Y-92287213D01*
X93132786Y-92431971D01*
X93287749Y-92544556D01*
X93298390Y-92552287D01*
X93412345Y-92610350D01*
X93480776Y-92645218D01*
X93480778Y-92645218D01*
X93480781Y-92645220D01*
X93571856Y-92674812D01*
X93675465Y-92708477D01*
X93754020Y-92720919D01*
X93877648Y-92740500D01*
X93877649Y-92740500D01*
X94082351Y-92740500D01*
X94082352Y-92740500D01*
X94284534Y-92708477D01*
X94479219Y-92645220D01*
X94661610Y-92552287D01*
X94790482Y-92458657D01*
X94827213Y-92431971D01*
X94827215Y-92431968D01*
X94827219Y-92431966D01*
X94971966Y-92287219D01*
X94971968Y-92287215D01*
X94971971Y-92287213D01*
X95092284Y-92121614D01*
X95092285Y-92121613D01*
X95092287Y-92121610D01*
X95139516Y-92028917D01*
X95187489Y-91978123D01*
X95255310Y-91961328D01*
X95321445Y-91983865D01*
X95360483Y-92028917D01*
X95398648Y-92103819D01*
X95407715Y-92121614D01*
X95528028Y-92287213D01*
X95672786Y-92431971D01*
X95827749Y-92544556D01*
X95838390Y-92552287D01*
X95952345Y-92610350D01*
X96020776Y-92645218D01*
X96020778Y-92645218D01*
X96020781Y-92645220D01*
X96111856Y-92674812D01*
X96215465Y-92708477D01*
X96294020Y-92720919D01*
X96417648Y-92740500D01*
X96417649Y-92740500D01*
X96622351Y-92740500D01*
X96622352Y-92740500D01*
X96824534Y-92708477D01*
X97019219Y-92645220D01*
X97201610Y-92552287D01*
X97330482Y-92458657D01*
X97367213Y-92431971D01*
X97367215Y-92431968D01*
X97367219Y-92431966D01*
X97511966Y-92287219D01*
X97511968Y-92287215D01*
X97511971Y-92287213D01*
X97632284Y-92121614D01*
X97632285Y-92121613D01*
X97632287Y-92121610D01*
X97679516Y-92028917D01*
X97727489Y-91978123D01*
X97795310Y-91961328D01*
X97861445Y-91983865D01*
X97900483Y-92028917D01*
X97938648Y-92103819D01*
X97947715Y-92121614D01*
X98068028Y-92287213D01*
X98212786Y-92431971D01*
X98367749Y-92544556D01*
X98378390Y-92552287D01*
X98492345Y-92610350D01*
X98560776Y-92645218D01*
X98560778Y-92645218D01*
X98560781Y-92645220D01*
X98651856Y-92674812D01*
X98755465Y-92708477D01*
X98834020Y-92720919D01*
X98957648Y-92740500D01*
X98957649Y-92740500D01*
X99162351Y-92740500D01*
X99162352Y-92740500D01*
X99364534Y-92708477D01*
X99559219Y-92645220D01*
X99741610Y-92552287D01*
X99870482Y-92458657D01*
X99907213Y-92431971D01*
X99907215Y-92431968D01*
X99907219Y-92431966D01*
X100051966Y-92287219D01*
X100051968Y-92287215D01*
X100051971Y-92287213D01*
X100172284Y-92121614D01*
X100172285Y-92121613D01*
X100172287Y-92121610D01*
X100219516Y-92028917D01*
X100267489Y-91978123D01*
X100335310Y-91961328D01*
X100401445Y-91983865D01*
X100440483Y-92028917D01*
X100478648Y-92103819D01*
X100487715Y-92121614D01*
X100608028Y-92287213D01*
X100752786Y-92431971D01*
X100907749Y-92544556D01*
X100918390Y-92552287D01*
X101032345Y-92610350D01*
X101100776Y-92645218D01*
X101100778Y-92645218D01*
X101100781Y-92645220D01*
X101191856Y-92674812D01*
X101295465Y-92708477D01*
X101374020Y-92720919D01*
X101497648Y-92740500D01*
X101497649Y-92740500D01*
X101702351Y-92740500D01*
X101702352Y-92740500D01*
X101904534Y-92708477D01*
X102099219Y-92645220D01*
X102281610Y-92552287D01*
X102410482Y-92458657D01*
X102447213Y-92431971D01*
X102447215Y-92431968D01*
X102447219Y-92431966D01*
X102591966Y-92287219D01*
X102591968Y-92287215D01*
X102591971Y-92287213D01*
X102712284Y-92121614D01*
X102712285Y-92121613D01*
X102712287Y-92121610D01*
X102759516Y-92028917D01*
X102807489Y-91978123D01*
X102875310Y-91961328D01*
X102941445Y-91983865D01*
X102980483Y-92028917D01*
X103018648Y-92103819D01*
X103027715Y-92121614D01*
X103148028Y-92287213D01*
X103292786Y-92431971D01*
X103447749Y-92544556D01*
X103458390Y-92552287D01*
X103572345Y-92610350D01*
X103640776Y-92645218D01*
X103640778Y-92645218D01*
X103640781Y-92645220D01*
X103731856Y-92674812D01*
X103835465Y-92708477D01*
X103914020Y-92720919D01*
X104037648Y-92740500D01*
X104037649Y-92740500D01*
X104242351Y-92740500D01*
X104242352Y-92740500D01*
X104444534Y-92708477D01*
X104639219Y-92645220D01*
X104821610Y-92552287D01*
X104950482Y-92458657D01*
X104987213Y-92431971D01*
X104987215Y-92431968D01*
X104987219Y-92431966D01*
X105131966Y-92287219D01*
X105200021Y-92193547D01*
X105255349Y-92150882D01*
X105324963Y-92144902D01*
X105386758Y-92177507D01*
X105418044Y-92227427D01*
X105445186Y-92309334D01*
X105537288Y-92458656D01*
X105661344Y-92582712D01*
X105810666Y-92674814D01*
X105977203Y-92729999D01*
X106079991Y-92740500D01*
X107280008Y-92740499D01*
X107382797Y-92729999D01*
X107549334Y-92674814D01*
X107698656Y-92582712D01*
X107822712Y-92458656D01*
X107914814Y-92309334D01*
X107969999Y-92142797D01*
X107980500Y-92040009D01*
X107980499Y-90839992D01*
X107969999Y-90737203D01*
X107914814Y-90570666D01*
X107822712Y-90421344D01*
X107698656Y-90297288D01*
X107597314Y-90234780D01*
X107549336Y-90205187D01*
X107549331Y-90205185D01*
X107514952Y-90193793D01*
X107382797Y-90150001D01*
X107382795Y-90150000D01*
X107280010Y-90139500D01*
X106079998Y-90139500D01*
X106079981Y-90139501D01*
X105977203Y-90150000D01*
X105977200Y-90150001D01*
X105810668Y-90205185D01*
X105810663Y-90205187D01*
X105661342Y-90297289D01*
X105537289Y-90421342D01*
X105445187Y-90570663D01*
X105445186Y-90570666D01*
X105418045Y-90652571D01*
X105378271Y-90710016D01*
X105313755Y-90736838D01*
X105244979Y-90724522D01*
X105200021Y-90686452D01*
X105131966Y-90592781D01*
X104987219Y-90448034D01*
X104987213Y-90448028D01*
X104821613Y-90327715D01*
X104821612Y-90327714D01*
X104821610Y-90327713D01*
X104761898Y-90297288D01*
X104639223Y-90234781D01*
X104444534Y-90171522D01*
X104269995Y-90143878D01*
X104242352Y-90139500D01*
X104037648Y-90139500D01*
X104013329Y-90143351D01*
X103835465Y-90171522D01*
X103640776Y-90234781D01*
X103458386Y-90327715D01*
X103292786Y-90448028D01*
X103148028Y-90592786D01*
X103027715Y-90758386D01*
X102980485Y-90851080D01*
X102932510Y-90901876D01*
X102864689Y-90918671D01*
X102798554Y-90896134D01*
X102759515Y-90851080D01*
X102739857Y-90812500D01*
X102712287Y-90758390D01*
X102660021Y-90686451D01*
X102591971Y-90592786D01*
X102447213Y-90448028D01*
X102281613Y-90327715D01*
X102281612Y-90327714D01*
X102281610Y-90327713D01*
X102221898Y-90297288D01*
X102099223Y-90234781D01*
X101904534Y-90171522D01*
X101729995Y-90143878D01*
X101702352Y-90139500D01*
X101497648Y-90139500D01*
X101473329Y-90143351D01*
X101295465Y-90171522D01*
X101100776Y-90234781D01*
X100918386Y-90327715D01*
X100752786Y-90448028D01*
X100608028Y-90592786D01*
X100487715Y-90758386D01*
X100440485Y-90851080D01*
X100392510Y-90901876D01*
X100324689Y-90918671D01*
X100258554Y-90896134D01*
X100219515Y-90851080D01*
X100199857Y-90812500D01*
X100172287Y-90758390D01*
X100120021Y-90686451D01*
X100051971Y-90592786D01*
X99907213Y-90448028D01*
X99741613Y-90327715D01*
X99741612Y-90327714D01*
X99741610Y-90327713D01*
X99681898Y-90297288D01*
X99559223Y-90234781D01*
X99364534Y-90171522D01*
X99189995Y-90143878D01*
X99162352Y-90139500D01*
X98957648Y-90139500D01*
X98933329Y-90143351D01*
X98755465Y-90171522D01*
X98560776Y-90234781D01*
X98378386Y-90327715D01*
X98212786Y-90448028D01*
X98068028Y-90592786D01*
X97947715Y-90758386D01*
X97900485Y-90851080D01*
X97852510Y-90901876D01*
X97784689Y-90918671D01*
X97718554Y-90896134D01*
X97679515Y-90851080D01*
X97659857Y-90812500D01*
X97632287Y-90758390D01*
X97580021Y-90686451D01*
X97511971Y-90592786D01*
X97367213Y-90448028D01*
X97201613Y-90327715D01*
X97201612Y-90327714D01*
X97201610Y-90327713D01*
X97141898Y-90297288D01*
X97019223Y-90234781D01*
X96824534Y-90171522D01*
X96649995Y-90143878D01*
X96622352Y-90139500D01*
X96417648Y-90139500D01*
X96393329Y-90143351D01*
X96215465Y-90171522D01*
X96020776Y-90234781D01*
X95838386Y-90327715D01*
X95672786Y-90448028D01*
X95528028Y-90592786D01*
X95407715Y-90758386D01*
X95360485Y-90851080D01*
X95312510Y-90901876D01*
X95244689Y-90918671D01*
X95178554Y-90896134D01*
X95139515Y-90851080D01*
X95119857Y-90812500D01*
X95092287Y-90758390D01*
X95040021Y-90686451D01*
X94971971Y-90592786D01*
X94827213Y-90448028D01*
X94661613Y-90327715D01*
X94661612Y-90327714D01*
X94661610Y-90327713D01*
X94601898Y-90297288D01*
X94479223Y-90234781D01*
X94284534Y-90171522D01*
X94109995Y-90143878D01*
X94082352Y-90139500D01*
X93877648Y-90139500D01*
X93853329Y-90143351D01*
X93675465Y-90171522D01*
X93480776Y-90234781D01*
X93298386Y-90327715D01*
X93132786Y-90448028D01*
X92988028Y-90592786D01*
X92867715Y-90758386D01*
X92774781Y-90940776D01*
X92711522Y-91135465D01*
X92679500Y-91337648D01*
X88011000Y-91337648D01*
X88011000Y-85722000D01*
X88030685Y-85654961D01*
X88083489Y-85609206D01*
X88135000Y-85598000D01*
X178438000Y-85598000D01*
X178505039Y-85617685D01*
G37*
%TD.AperFunction*%
%TA.AperFunction,Conductor*%
G36*
X132653000Y-121152294D02*
G01*
X132659262Y-121151119D01*
X132686120Y-121162020D01*
X132713927Y-121170185D01*
X132718098Y-121174998D01*
X132724002Y-121177395D01*
X132740705Y-121201089D01*
X132759682Y-121222989D01*
X132760588Y-121229292D01*
X132764260Y-121234501D01*
X132765501Y-121263460D01*
X132769626Y-121292147D01*
X132766979Y-121297942D01*
X132767252Y-121304307D01*
X132752642Y-121329336D01*
X132740601Y-121355703D01*
X132734435Y-121360527D01*
X132732030Y-121364649D01*
X132703183Y-121384985D01*
X132668386Y-121402715D01*
X132502786Y-121523028D01*
X132358028Y-121667786D01*
X132237715Y-121833386D01*
X132144781Y-122015776D01*
X132081522Y-122210465D01*
X132049500Y-122412648D01*
X132049500Y-122617351D01*
X132081522Y-122819534D01*
X132144781Y-123014223D01*
X132237715Y-123196613D01*
X132358028Y-123362213D01*
X132502786Y-123506971D01*
X132648859Y-123613097D01*
X132668390Y-123627287D01*
X132748826Y-123668271D01*
X132850776Y-123720218D01*
X132850778Y-123720218D01*
X132850781Y-123720220D01*
X132955137Y-123754127D01*
X133045465Y-123783477D01*
X133146557Y-123799488D01*
X133247648Y-123815500D01*
X133247649Y-123815500D01*
X133452351Y-123815500D01*
X133452352Y-123815500D01*
X133654534Y-123783477D01*
X133849219Y-123720220D01*
X134031610Y-123627287D01*
X134144681Y-123545137D01*
X134197213Y-123506971D01*
X134197215Y-123506968D01*
X134197219Y-123506966D01*
X134341966Y-123362219D01*
X134341968Y-123362215D01*
X134341971Y-123362213D01*
X134405178Y-123275214D01*
X134462287Y-123196610D01*
X134555220Y-123014219D01*
X134618477Y-122819534D01*
X134650500Y-122617352D01*
X134650500Y-122412648D01*
X134618477Y-122210465D01*
X134589127Y-122120137D01*
X134555220Y-122015781D01*
X134555218Y-122015778D01*
X134555218Y-122015776D01*
X134499626Y-121906672D01*
X134462287Y-121833390D01*
X134454556Y-121822749D01*
X134341971Y-121667786D01*
X134197213Y-121523028D01*
X134031613Y-121402715D01*
X134031612Y-121402714D01*
X134031610Y-121402713D01*
X133996817Y-121384985D01*
X133946021Y-121337010D01*
X133929226Y-121269189D01*
X133951764Y-121203054D01*
X134006479Y-121159603D01*
X134053112Y-121150500D01*
X151521499Y-121150500D01*
X151588538Y-121170185D01*
X151634293Y-121222989D01*
X151645499Y-121274500D01*
X151645499Y-135609148D01*
X151625814Y-135676187D01*
X151578911Y-135719056D01*
X151432793Y-135795382D01*
X151432785Y-135795387D01*
X151350966Y-135862102D01*
X151286570Y-135889211D01*
X151272606Y-135890000D01*
X150987392Y-135890000D01*
X150920353Y-135870315D01*
X150909032Y-135862102D01*
X150827212Y-135795387D01*
X150827208Y-135795385D01*
X150827207Y-135795384D01*
X150656854Y-135706399D01*
X150656853Y-135706398D01*
X150656848Y-135706396D01*
X150577386Y-135683659D01*
X150518349Y-135646292D01*
X150488886Y-135582938D01*
X150487499Y-135564444D01*
X150487499Y-133288195D01*
X150487498Y-133288191D01*
X150463386Y-133166971D01*
X150463385Y-133166964D01*
X150418411Y-133058391D01*
X150416763Y-133053785D01*
X150347413Y-132949995D01*
X150347412Y-132949993D01*
X150347410Y-132949991D01*
X150260007Y-132862588D01*
X149329045Y-131931626D01*
X147847011Y-130449591D01*
X147847003Y-130449585D01*
X147744243Y-130380923D01*
X147744229Y-130380915D01*
X147706322Y-130365214D01*
X147706320Y-130365213D01*
X147630035Y-130333614D01*
X147630027Y-130333612D01*
X147508807Y-130309500D01*
X147508803Y-130309500D01*
X116516281Y-130309500D01*
X116449242Y-130289815D01*
X116428600Y-130273181D01*
X109885013Y-123729594D01*
X109851528Y-123668271D01*
X109856512Y-123598579D01*
X109898384Y-123542646D01*
X109899810Y-123541594D01*
X109901604Y-123540290D01*
X109901609Y-123540288D01*
X110067218Y-123419967D01*
X110211965Y-123275220D01*
X110211967Y-123275216D01*
X110211970Y-123275214D01*
X110332283Y-123109615D01*
X110332284Y-123109614D01*
X110332286Y-123109611D01*
X110379515Y-123016918D01*
X110427488Y-122966124D01*
X110495309Y-122949329D01*
X110561444Y-122971866D01*
X110600484Y-123016920D01*
X110647714Y-123109615D01*
X110768027Y-123275214D01*
X110912785Y-123419972D01*
X111067748Y-123532557D01*
X111078389Y-123540288D01*
X111191247Y-123597792D01*
X111260775Y-123633219D01*
X111260777Y-123633219D01*
X111260780Y-123633221D01*
X111290203Y-123642781D01*
X111455464Y-123696478D01*
X111556556Y-123712489D01*
X111657647Y-123728501D01*
X111657648Y-123728501D01*
X111862350Y-123728501D01*
X111862351Y-123728501D01*
X112064533Y-123696478D01*
X112259218Y-123633221D01*
X112441609Y-123540288D01*
X112534589Y-123472733D01*
X112607212Y-123419972D01*
X112607214Y-123419969D01*
X112607218Y-123419967D01*
X112751965Y-123275220D01*
X112751967Y-123275216D01*
X112751970Y-123275214D01*
X112872283Y-123109615D01*
X112872284Y-123109614D01*
X112872286Y-123109611D01*
X112919515Y-123016918D01*
X112967488Y-122966124D01*
X113035309Y-122949329D01*
X113101444Y-122971866D01*
X113140484Y-123016920D01*
X113187714Y-123109615D01*
X113308027Y-123275214D01*
X113452785Y-123419972D01*
X113607748Y-123532557D01*
X113618389Y-123540288D01*
X113731247Y-123597792D01*
X113800775Y-123633219D01*
X113800777Y-123633219D01*
X113800780Y-123633221D01*
X113830203Y-123642781D01*
X113995464Y-123696478D01*
X114096556Y-123712489D01*
X114197647Y-123728501D01*
X114197648Y-123728501D01*
X114402350Y-123728501D01*
X114402351Y-123728501D01*
X114604533Y-123696478D01*
X114799218Y-123633221D01*
X114981609Y-123540288D01*
X115074589Y-123472733D01*
X115147212Y-123419972D01*
X115147214Y-123419969D01*
X115147218Y-123419967D01*
X115291965Y-123275220D01*
X115291967Y-123275216D01*
X115291970Y-123275214D01*
X115412283Y-123109615D01*
X115412284Y-123109614D01*
X115412286Y-123109611D01*
X115459515Y-123016918D01*
X115507488Y-122966124D01*
X115575309Y-122949329D01*
X115641444Y-122971866D01*
X115680484Y-123016920D01*
X115727714Y-123109615D01*
X115848027Y-123275214D01*
X115992785Y-123419972D01*
X116147748Y-123532557D01*
X116158389Y-123540288D01*
X116271247Y-123597792D01*
X116340775Y-123633219D01*
X116340777Y-123633219D01*
X116340780Y-123633221D01*
X116370203Y-123642781D01*
X116535464Y-123696478D01*
X116636556Y-123712489D01*
X116737647Y-123728501D01*
X116737648Y-123728501D01*
X116942350Y-123728501D01*
X116942351Y-123728501D01*
X117144533Y-123696478D01*
X117339218Y-123633221D01*
X117521609Y-123540288D01*
X117614589Y-123472733D01*
X117687212Y-123419972D01*
X117687214Y-123419969D01*
X117687218Y-123419967D01*
X117831965Y-123275220D01*
X117831967Y-123275216D01*
X117831970Y-123275214D01*
X117952283Y-123109615D01*
X117952284Y-123109614D01*
X117952286Y-123109611D01*
X117999515Y-123016918D01*
X118047488Y-122966124D01*
X118115309Y-122949329D01*
X118181444Y-122971866D01*
X118220484Y-123016920D01*
X118267714Y-123109615D01*
X118388027Y-123275214D01*
X118532785Y-123419972D01*
X118687748Y-123532557D01*
X118698389Y-123540288D01*
X118811247Y-123597792D01*
X118880775Y-123633219D01*
X118880777Y-123633219D01*
X118880780Y-123633221D01*
X118910203Y-123642781D01*
X119075464Y-123696478D01*
X119176556Y-123712489D01*
X119277647Y-123728501D01*
X119277648Y-123728501D01*
X119482350Y-123728501D01*
X119482351Y-123728501D01*
X119684533Y-123696478D01*
X119879218Y-123633221D01*
X120061609Y-123540288D01*
X120154589Y-123472733D01*
X120227212Y-123419972D01*
X120227214Y-123419969D01*
X120227218Y-123419967D01*
X120371965Y-123275220D01*
X120371967Y-123275216D01*
X120371970Y-123275214D01*
X120492283Y-123109615D01*
X120492284Y-123109614D01*
X120492286Y-123109611D01*
X120539515Y-123016918D01*
X120587488Y-122966124D01*
X120655309Y-122949329D01*
X120721444Y-122971866D01*
X120760484Y-123016920D01*
X120807714Y-123109615D01*
X120928027Y-123275214D01*
X121072785Y-123419972D01*
X121227748Y-123532557D01*
X121238389Y-123540288D01*
X121351247Y-123597792D01*
X121420775Y-123633219D01*
X121420777Y-123633219D01*
X121420780Y-123633221D01*
X121450203Y-123642781D01*
X121615464Y-123696478D01*
X121716556Y-123712489D01*
X121817647Y-123728501D01*
X121817648Y-123728501D01*
X122022350Y-123728501D01*
X122022351Y-123728501D01*
X122224533Y-123696478D01*
X122419218Y-123633221D01*
X122601609Y-123540288D01*
X122694589Y-123472733D01*
X122767212Y-123419972D01*
X122767214Y-123419969D01*
X122767218Y-123419967D01*
X122911965Y-123275220D01*
X122911967Y-123275216D01*
X122911970Y-123275214D01*
X123032283Y-123109615D01*
X123032284Y-123109614D01*
X123032286Y-123109611D01*
X123079515Y-123016918D01*
X123127488Y-122966124D01*
X123195309Y-122949329D01*
X123261444Y-122971866D01*
X123300484Y-123016920D01*
X123347714Y-123109615D01*
X123468027Y-123275214D01*
X123612783Y-123419970D01*
X123679571Y-123468493D01*
X123778389Y-123540288D01*
X123778394Y-123540290D01*
X123781383Y-123542462D01*
X123824050Y-123597792D01*
X123832499Y-123642781D01*
X123832499Y-123886806D01*
X123856611Y-124008026D01*
X123856613Y-124008034D01*
X123890061Y-124088784D01*
X123903914Y-124122228D01*
X123903919Y-124122238D01*
X123972587Y-124225006D01*
X123972590Y-124225010D01*
X125242589Y-125495008D01*
X125329992Y-125582411D01*
X125329994Y-125582413D01*
X125329996Y-125582414D01*
X125432756Y-125651076D01*
X125432758Y-125651077D01*
X125432767Y-125651083D01*
X125457772Y-125661440D01*
X125480071Y-125670677D01*
X125522254Y-125688149D01*
X125546966Y-125698386D01*
X125668192Y-125722499D01*
X125668196Y-125722500D01*
X125668197Y-125722500D01*
X128331804Y-125722500D01*
X128331805Y-125722499D01*
X128453035Y-125698386D01*
X128533784Y-125664937D01*
X128567233Y-125651083D01*
X128670008Y-125582411D01*
X128757411Y-125495008D01*
X130027410Y-124225009D01*
X130087529Y-124135034D01*
X130096082Y-124122234D01*
X130140996Y-124013802D01*
X130143385Y-124008035D01*
X130167499Y-123886804D01*
X130167499Y-123763198D01*
X130167499Y-123763196D01*
X130167499Y-123642781D01*
X130187184Y-123575742D01*
X130218615Y-123542462D01*
X130221603Y-123540290D01*
X130221609Y-123540288D01*
X130387218Y-123419967D01*
X130531965Y-123275220D01*
X130531967Y-123275216D01*
X130531970Y-123275214D01*
X130589078Y-123196610D01*
X130652286Y-123109611D01*
X130745219Y-122927220D01*
X130808476Y-122732535D01*
X130840499Y-122530353D01*
X130840499Y-122325649D01*
X130808476Y-122123467D01*
X130745219Y-121928782D01*
X130745217Y-121928779D01*
X130745217Y-121928777D01*
X130696612Y-121833386D01*
X130652286Y-121746391D01*
X130595177Y-121667786D01*
X130531970Y-121580787D01*
X130387216Y-121436033D01*
X130387211Y-121436029D01*
X130302961Y-121374818D01*
X130260295Y-121319488D01*
X130254316Y-121249875D01*
X130286921Y-121188080D01*
X130347760Y-121153723D01*
X130375846Y-121150500D01*
X132646888Y-121150500D01*
X132653000Y-121152294D01*
G37*
%TD.AperFunction*%
%TA.AperFunction,Conductor*%
G36*
X147402556Y-116328047D02*
G01*
X147415102Y-116326970D01*
X147435447Y-116337705D01*
X147457515Y-116344185D01*
X147465758Y-116353699D01*
X147476897Y-116359576D01*
X147488209Y-116379608D01*
X147503270Y-116396989D01*
X147505061Y-116409449D01*
X147511254Y-116420415D01*
X147509940Y-116443380D01*
X147513214Y-116466147D01*
X147507887Y-116479269D01*
X147507264Y-116490171D01*
X147490793Y-116521386D01*
X147477715Y-116539385D01*
X147384781Y-116721776D01*
X147321522Y-116916465D01*
X147289500Y-117118648D01*
X147289500Y-117323351D01*
X147321522Y-117525534D01*
X147384781Y-117720223D01*
X147477715Y-117902613D01*
X147598028Y-118068213D01*
X147742786Y-118212971D01*
X147862527Y-118299966D01*
X147908390Y-118333287D01*
X148024607Y-118392503D01*
X148090776Y-118426218D01*
X148090778Y-118426218D01*
X148090781Y-118426220D01*
X148125627Y-118437542D01*
X148285465Y-118489477D01*
X148389957Y-118506027D01*
X148453092Y-118535956D01*
X148490023Y-118595268D01*
X148489025Y-118665130D01*
X148450415Y-118723363D01*
X148386451Y-118751477D01*
X148370559Y-118752500D01*
X105983195Y-118752500D01*
X105861970Y-118776613D01*
X105861960Y-118776616D01*
X105747773Y-118823913D01*
X105747760Y-118823920D01*
X105644992Y-118892588D01*
X105644990Y-118892590D01*
X104691791Y-119845790D01*
X103739991Y-120797590D01*
X103696288Y-120841292D01*
X103652586Y-120884994D01*
X103583919Y-120987761D01*
X103583912Y-120987774D01*
X103574537Y-121010410D01*
X103574537Y-121010411D01*
X103536613Y-121101965D01*
X103536611Y-121101973D01*
X103515902Y-121206079D01*
X103515903Y-121206080D01*
X103512498Y-121223201D01*
X103512313Y-121225079D01*
X103511941Y-121225998D01*
X103511311Y-121229170D01*
X103510709Y-121229050D01*
X103486150Y-121289865D01*
X103461796Y-121313237D01*
X103292786Y-121436029D01*
X103292781Y-121436033D01*
X103148027Y-121580787D01*
X103027714Y-121746387D01*
X102980484Y-121839081D01*
X102932509Y-121889877D01*
X102864688Y-121906672D01*
X102798553Y-121884135D01*
X102759514Y-121839081D01*
X102756612Y-121833386D01*
X102712286Y-121746391D01*
X102655177Y-121667786D01*
X102591970Y-121580787D01*
X102447216Y-121436033D01*
X102447211Y-121436029D01*
X102278614Y-121313537D01*
X102235948Y-121258208D01*
X102227499Y-121213219D01*
X102227499Y-121088282D01*
X102247184Y-121021243D01*
X102263818Y-121000601D01*
X106903600Y-116360819D01*
X106964923Y-116327334D01*
X106991281Y-116324500D01*
X147390476Y-116324500D01*
X147402556Y-116328047D01*
G37*
%TD.AperFunction*%
%TA.AperFunction,Conductor*%
G36*
X149996758Y-108597185D02*
G01*
X150017400Y-108613819D01*
X150071280Y-108667699D01*
X150104765Y-108729022D01*
X150099781Y-108798714D01*
X150083918Y-108828264D01*
X150017714Y-108919387D01*
X149924781Y-109101776D01*
X149861522Y-109296465D01*
X149829500Y-109498648D01*
X149829500Y-109703351D01*
X149861522Y-109905534D01*
X149924781Y-110100223D01*
X150017715Y-110282614D01*
X150030793Y-110300614D01*
X150054274Y-110366420D01*
X150038449Y-110434474D01*
X149988344Y-110483169D01*
X149930476Y-110497500D01*
X144816281Y-110497500D01*
X144749242Y-110477815D01*
X144703487Y-110425011D01*
X144693543Y-110355853D01*
X144722568Y-110292297D01*
X144728600Y-110285819D01*
X146400600Y-108613819D01*
X146461923Y-108580334D01*
X146488281Y-108577500D01*
X149929719Y-108577500D01*
X149996758Y-108597185D01*
G37*
%TD.AperFunction*%
%TD*%
M02*
