%TF.GenerationSoftware,KiCad,Pcbnew,9.0.7*%
%TF.CreationDate,2026-02-04T21:34:44+01:00*%
%TF.ProjectId,xt-isa-umb,78742d69-7361-42d7-956d-622e6b696361,0.1*%
%TF.SameCoordinates,Original*%
%TF.FileFunction,Copper,L1,Top*%
%TF.FilePolarity,Positive*%
%FSLAX46Y46*%
G04 Gerber Fmt 4.6, Leading zero omitted, Abs format (unit mm)*
G04 Created by KiCad (PCBNEW 9.0.7) date 2026-02-04 21:34:44*
%MOMM*%
%LPD*%
G01*
G04 APERTURE LIST*
G04 Aperture macros list*
%AMRoundRect*
0 Rectangle with rounded corners*
0 $1 Rounding radius*
0 $2 $3 $4 $5 $6 $7 $8 $9 X,Y pos of 4 corners*
0 Add a 4 corners polygon primitive as box body*
4,1,4,$2,$3,$4,$5,$6,$7,$8,$9,$2,$3,0*
0 Add four circle primitives for the rounded corners*
1,1,$1+$1,$2,$3*
1,1,$1+$1,$4,$5*
1,1,$1+$1,$6,$7*
1,1,$1+$1,$8,$9*
0 Add four rect primitives between the rounded corners*
20,1,$1+$1,$2,$3,$4,$5,0*
20,1,$1+$1,$4,$5,$6,$7,0*
20,1,$1+$1,$6,$7,$8,$9,0*
20,1,$1+$1,$8,$9,$2,$3,0*%
G04 Aperture macros list end*
%TA.AperFunction,ComponentPad*%
%ADD10C,1.400000*%
%TD*%
%TA.AperFunction,ComponentPad*%
%ADD11C,1.600000*%
%TD*%
%TA.AperFunction,ComponentPad*%
%ADD12RoundRect,0.250000X0.350000X-0.350000X0.350000X0.350000X-0.350000X0.350000X-0.350000X-0.350000X0*%
%TD*%
%TA.AperFunction,ComponentPad*%
%ADD13C,1.200000*%
%TD*%
%TA.AperFunction,ComponentPad*%
%ADD14RoundRect,0.250000X-0.550000X0.550000X-0.550000X-0.550000X0.550000X-0.550000X0.550000X0.550000X0*%
%TD*%
%TA.AperFunction,ComponentPad*%
%ADD15R,1.700000X1.700000*%
%TD*%
%TA.AperFunction,ComponentPad*%
%ADD16C,1.700000*%
%TD*%
%TA.AperFunction,ComponentPad*%
%ADD17RoundRect,0.250000X0.550000X-0.550000X0.550000X0.550000X-0.550000X0.550000X-0.550000X-0.550000X0*%
%TD*%
%TA.AperFunction,ConnectorPad*%
%ADD18RoundRect,0.444500X-0.444500X-3.619500X0.444500X-3.619500X0.444500X3.619500X-0.444500X3.619500X0*%
%TD*%
%TA.AperFunction,ViaPad*%
%ADD19C,1.000000*%
%TD*%
%TA.AperFunction,Conductor*%
%ADD20C,1.524000*%
%TD*%
%TA.AperFunction,Conductor*%
%ADD21C,0.254000*%
%TD*%
%TA.AperFunction,Conductor*%
%ADD22C,1.500000*%
%TD*%
G04 APERTURE END LIST*
D10*
%TO.P,R2,1*%
%TO.N,VCC*%
X116840000Y-99060000D03*
%TO.P,R2,2*%
%TO.N,Net-(JP1-B)*%
X116840000Y-91440000D03*
%TD*%
D11*
%TO.P,C1,1*%
%TO.N,VCC*%
X144780000Y-90932000D03*
%TO.P,C1,2*%
%TO.N,GND*%
X144780000Y-95932000D03*
%TD*%
D12*
%TO.P,C6,1*%
%TO.N,VCC*%
X175768000Y-128524000D03*
D13*
%TO.P,C6,2*%
%TO.N,GND*%
X175768000Y-126524000D03*
%TD*%
D11*
%TO.P,C4,1*%
%TO.N,VCC*%
X174498000Y-117308000D03*
%TO.P,C4,2*%
%TO.N,GND*%
X174498000Y-112308000D03*
%TD*%
D14*
%TO.P,U4,1,A->B*%
%TO.N,{slash}MEMW*%
X171450000Y-109601000D03*
D11*
%TO.P,U4,2,A0*%
%TO.N,Net-(U3-DQ7)*%
X168910000Y-109601000D03*
%TO.P,U4,3,A1*%
%TO.N,Net-(U3-DQ6)*%
X166370000Y-109601000D03*
%TO.P,U4,4,A2*%
%TO.N,Net-(U3-DQ5)*%
X163830000Y-109601000D03*
%TO.P,U4,5,A3*%
%TO.N,Net-(U3-DQ4)*%
X161290000Y-109601000D03*
%TO.P,U4,6,A4*%
%TO.N,Net-(U3-DQ3)*%
X158750000Y-109601000D03*
%TO.P,U4,7,A5*%
%TO.N,Net-(U3-DQ2)*%
X156210000Y-109601000D03*
%TO.P,U4,8,A6*%
%TO.N,Net-(U3-DQ1)*%
X153670000Y-109601000D03*
%TO.P,U4,9,A7*%
%TO.N,Net-(U3-DQ0)*%
X151130000Y-109601000D03*
%TO.P,U4,10,GND*%
%TO.N,GND*%
X148590000Y-109601000D03*
%TO.P,U4,11,B7*%
%TO.N,/D0*%
X148590000Y-117221000D03*
%TO.P,U4,12,B6*%
%TO.N,/D1*%
X151130000Y-117221000D03*
%TO.P,U4,13,B5*%
%TO.N,/D2*%
X153670000Y-117221000D03*
%TO.P,U4,14,B4*%
%TO.N,/D3*%
X156210000Y-117221000D03*
%TO.P,U4,15,B3*%
%TO.N,/D4*%
X158750000Y-117221000D03*
%TO.P,U4,16,B2*%
%TO.N,/D5*%
X161290000Y-117221000D03*
%TO.P,U4,17,B1*%
%TO.N,/D6*%
X163830000Y-117221000D03*
%TO.P,U4,18,B0*%
%TO.N,/D7*%
X166370000Y-117221000D03*
%TO.P,U4,19,CE*%
%TO.N,Net-(U3-~{CE})*%
X168910000Y-117221000D03*
%TO.P,U4,20,VCC*%
%TO.N,VCC*%
X171450000Y-117221000D03*
%TD*%
D15*
%TO.P,JP1,1,A*%
%TO.N,Net-(JP1-A)*%
X134493000Y-88900000D03*
D16*
%TO.P,JP1,2,B*%
%TO.N,Net-(JP1-B)*%
X131953000Y-88900000D03*
%TD*%
D15*
%TO.P,JP2,1,A*%
%TO.N,Net-(JP2-A)*%
X134371000Y-93980000D03*
D16*
%TO.P,JP2,2,B*%
%TO.N,Net-(JP2-B)*%
X131831000Y-93980000D03*
%TD*%
D11*
%TO.P,C3,1*%
%TO.N,VCC*%
X133350000Y-122515000D03*
%TO.P,C3,2*%
%TO.N,GND*%
X133350000Y-117515000D03*
%TD*%
D14*
%TO.P,U3,1,NC*%
%TO.N,unconnected-(U3-NC-Pad1)*%
X129539999Y-107188001D03*
D11*
%TO.P,U3,2,A16*%
%TO.N,/A16*%
X126999999Y-107188001D03*
%TO.P,U3,3,A14*%
%TO.N,/A14*%
X124459999Y-107188001D03*
%TO.P,U3,4,A12*%
%TO.N,/A13*%
X121919999Y-107188001D03*
%TO.P,U3,5,A7*%
%TO.N,/A11*%
X119379999Y-107188001D03*
%TO.P,U3,6,A6*%
%TO.N,/A9*%
X116839999Y-107188001D03*
%TO.P,U3,7,A5*%
%TO.N,/A7*%
X114299999Y-107188001D03*
%TO.P,U3,8,A4*%
%TO.N,/A5*%
X111759999Y-107188001D03*
%TO.P,U3,9,A3*%
%TO.N,/A4*%
X109219999Y-107188001D03*
%TO.P,U3,10,A2*%
%TO.N,/A2*%
X106679999Y-107188001D03*
%TO.P,U3,11,A1*%
%TO.N,/A1*%
X104139999Y-107188001D03*
%TO.P,U3,12,A0*%
%TO.N,/A0*%
X101599999Y-107188001D03*
%TO.P,U3,13,DQ0*%
%TO.N,Net-(U3-DQ0)*%
X99059999Y-107188001D03*
%TO.P,U3,14,DQ1*%
%TO.N,Net-(U3-DQ1)*%
X96519999Y-107188001D03*
%TO.P,U3,15,DQ2*%
%TO.N,Net-(U3-DQ2)*%
X93979999Y-107188001D03*
%TO.P,U3,16,GND*%
%TO.N,GND*%
X91439999Y-107188001D03*
%TO.P,U3,17,DQ3*%
%TO.N,Net-(U3-DQ3)*%
X91439999Y-122428001D03*
%TO.P,U3,18,DQ4*%
%TO.N,Net-(U3-DQ4)*%
X93979999Y-122428001D03*
%TO.P,U3,19,DQ5*%
%TO.N,Net-(U3-DQ5)*%
X96519999Y-122428001D03*
%TO.P,U3,20,DQ6*%
%TO.N,Net-(U3-DQ6)*%
X99059999Y-122428001D03*
%TO.P,U3,21,DQ7*%
%TO.N,Net-(U3-DQ7)*%
X101599999Y-122428001D03*
%TO.P,U3,22,~{CE}*%
%TO.N,Net-(U3-~{CE})*%
X104139999Y-122428001D03*
%TO.P,U3,23,A10*%
%TO.N,/A3*%
X106679999Y-122428001D03*
%TO.P,U3,24,~{OE}*%
%TO.N,{slash}MEMR*%
X109219999Y-122428001D03*
%TO.P,U3,25,A11*%
%TO.N,/A6*%
X111759999Y-122428001D03*
%TO.P,U3,26,A9*%
%TO.N,/A8*%
X114299999Y-122428001D03*
%TO.P,U3,27,A8*%
%TO.N,/A10*%
X116839999Y-122428001D03*
%TO.P,U3,28,A13*%
%TO.N,/A12*%
X119379999Y-122428001D03*
%TO.P,U3,29,~{WE}*%
%TO.N,{slash}MEMW*%
X121919999Y-122428001D03*
%TO.P,U3,30,CE*%
%TO.N,VCC*%
X124459999Y-122428001D03*
%TO.P,U3,31,A15*%
%TO.N,/A15*%
X126999999Y-122428001D03*
%TO.P,U3,32,VCC*%
%TO.N,VCC*%
X129539999Y-122428001D03*
%TD*%
%TO.P,C2,1*%
%TO.N,VCC*%
X110490000Y-99020000D03*
%TO.P,C2,2*%
%TO.N,GND*%
X110490000Y-94020000D03*
%TD*%
D10*
%TO.P,R1,1*%
%TO.N,VCC*%
X123190000Y-99060000D03*
%TO.P,R1,2*%
%TO.N,Net-(JP2-B)*%
X123190000Y-91440000D03*
%TD*%
D17*
%TO.P,U1,1,A0*%
%TO.N,/A16*%
X148590000Y-98552000D03*
D11*
%TO.P,U1,2,A1*%
%TO.N,/A17*%
X151130000Y-98552000D03*
%TO.P,U1,3,A2*%
%TO.N,/A18*%
X153670000Y-98552000D03*
%TO.P,U1,4,E1*%
%TO.N,Net-(U1-E1)*%
X156210000Y-98552000D03*
%TO.P,U1,5,E2*%
%TO.N,Net-(J1-AEN)*%
X158750000Y-98552000D03*
%TO.P,U1,6,E3*%
%TO.N,/A19*%
X161290000Y-98552000D03*
%TO.P,U1,7,O7*%
%TO.N,unconnected-(U1-O7-Pad7)*%
X163830000Y-98552000D03*
%TO.P,U1,8,GND*%
%TO.N,GND*%
X166370000Y-98552000D03*
%TO.P,U1,9,O6*%
%TO.N,Net-(JP2-A)*%
X166370000Y-90932000D03*
%TO.P,U1,10,O5*%
%TO.N,Net-(JP1-A)*%
X163830000Y-90932000D03*
%TO.P,U1,11,O4*%
%TO.N,unconnected-(U1-O4-Pad11)*%
X161290000Y-90932000D03*
%TO.P,U1,12,O3*%
%TO.N,unconnected-(U1-O3-Pad12)*%
X158750000Y-90932000D03*
%TO.P,U1,13,O2*%
%TO.N,unconnected-(U1-O2-Pad13)*%
X156210000Y-90932000D03*
%TO.P,U1,14,O1*%
%TO.N,unconnected-(U1-O1-Pad14)*%
X153670000Y-90932000D03*
%TO.P,U1,15,O0*%
%TO.N,unconnected-(U1-O0-Pad15)*%
X151130000Y-90932000D03*
%TO.P,U1,16,VCC*%
%TO.N,VCC*%
X148590000Y-90932000D03*
%TD*%
D18*
%TO.P,J1,32,IO*%
%TO.N,unconnected-(J1-IO-Pad32)*%
X177799999Y-140208001D03*
%TO.P,J1,33,DB7*%
%TO.N,/D7*%
X175259999Y-140208001D03*
%TO.P,J1,34,DB6*%
%TO.N,/D6*%
X172719999Y-140208001D03*
%TO.P,J1,35,DB5*%
%TO.N,/D5*%
X170179999Y-140208001D03*
%TO.P,J1,36,DB4*%
%TO.N,/D4*%
X167639999Y-140208001D03*
%TO.P,J1,37,DB3*%
%TO.N,/D3*%
X165099999Y-140208001D03*
%TO.P,J1,38,DB2*%
%TO.N,/D2*%
X162559999Y-140208001D03*
%TO.P,J1,39,DB1*%
%TO.N,/D1*%
X160019999Y-140208001D03*
%TO.P,J1,40,DB0*%
%TO.N,/D0*%
X157479999Y-140208001D03*
%TO.P,J1,41,IO_READY*%
%TO.N,unconnected-(J1-IO_READY-Pad41)*%
X154939999Y-140208001D03*
%TO.P,J1,42,AEN*%
%TO.N,Net-(J1-AEN)*%
X152399999Y-140208001D03*
%TO.P,J1,43,BA19*%
%TO.N,/A19*%
X149859999Y-140208001D03*
%TO.P,J1,44,BA18*%
%TO.N,/A18*%
X147319999Y-140208001D03*
%TO.P,J1,45,BA17*%
%TO.N,/A17*%
X144779999Y-140208001D03*
%TO.P,J1,46,BA16*%
%TO.N,/A16*%
X142239999Y-140208001D03*
%TO.P,J1,47,BA15*%
%TO.N,/A15*%
X139699999Y-140208001D03*
%TO.P,J1,48,BA14*%
%TO.N,/A14*%
X137159999Y-140208001D03*
%TO.P,J1,49,BA13*%
%TO.N,/A13*%
X134619999Y-140208001D03*
%TO.P,J1,50,BA12*%
%TO.N,/A12*%
X132079999Y-140208001D03*
%TO.P,J1,51,BA11*%
%TO.N,/A11*%
X129539999Y-140208001D03*
%TO.P,J1,52,BA10*%
%TO.N,/A10*%
X126999999Y-140208001D03*
%TO.P,J1,53,BA09*%
%TO.N,/A9*%
X124459999Y-140208001D03*
%TO.P,J1,54,BA08*%
%TO.N,/A8*%
X121919999Y-140208001D03*
%TO.P,J1,55,BA07*%
%TO.N,/A7*%
X119379999Y-140208001D03*
%TO.P,J1,56,BA06*%
%TO.N,/A6*%
X116839999Y-140208001D03*
%TO.P,J1,57,BA05*%
%TO.N,/A5*%
X114299999Y-140208001D03*
%TO.P,J1,58,BA04*%
%TO.N,/A4*%
X111759999Y-140208001D03*
%TO.P,J1,59,BA03*%
%TO.N,/A3*%
X109219999Y-140208001D03*
%TO.P,J1,60,BA02*%
%TO.N,/A2*%
X106679999Y-140208001D03*
%TO.P,J1,61,BA01*%
%TO.N,/A1*%
X104139999Y-140208001D03*
%TO.P,J1,62,BA00*%
%TO.N,/A0*%
X101599999Y-140208001D03*
%TD*%
D14*
%TO.P,U2,1*%
%TO.N,{slash}MEMR*%
X106680000Y-91440000D03*
D11*
%TO.P,U2,2*%
%TO.N,{slash}MEMW*%
X104140000Y-91440000D03*
%TO.P,U2,3*%
%TO.N,Net-(U1-E1)*%
X101600000Y-91440000D03*
%TO.P,U2,4*%
%TO.N,VCC*%
X99060000Y-91440000D03*
%TO.P,U2,5*%
X96520000Y-91440000D03*
%TO.P,U2,6*%
%TO.N,unconnected-(U2-Pad6)*%
X93980000Y-91440000D03*
%TO.P,U2,7,GND*%
%TO.N,GND*%
X91440000Y-91440000D03*
%TO.P,U2,8*%
%TO.N,Net-(U3-~{CE})*%
X91440000Y-99060000D03*
%TO.P,U2,9*%
%TO.N,Net-(JP1-B)*%
X93980000Y-99060000D03*
%TO.P,U2,10*%
%TO.N,Net-(JP2-B)*%
X96520000Y-99060000D03*
%TO.P,U2,11*%
%TO.N,unconnected-(U2-Pad11)*%
X99060000Y-99060000D03*
%TO.P,U2,12*%
%TO.N,VCC*%
X101600000Y-99060000D03*
%TO.P,U2,13*%
X104140000Y-99060000D03*
%TO.P,U2,14,VCC*%
X106680000Y-99060000D03*
%TD*%
D19*
%TO.N,GND*%
X128524000Y-117602000D03*
X90170000Y-133604000D03*
X136525000Y-100203000D03*
X170180000Y-102362000D03*
X97790000Y-131064000D03*
X95250000Y-133604000D03*
X120777000Y-96520000D03*
X97790000Y-125984000D03*
X113157000Y-104140000D03*
X172847000Y-122682000D03*
X90170000Y-128524000D03*
X145792602Y-117631629D03*
X90170000Y-125984000D03*
X92710000Y-125984000D03*
X165100000Y-104902000D03*
X90170000Y-131064000D03*
X172466000Y-94107000D03*
X135890000Y-124460000D03*
X97790000Y-128524000D03*
X118237000Y-104140000D03*
X92710000Y-128524000D03*
X167640000Y-102362000D03*
X115697000Y-101600000D03*
X118237000Y-101600000D03*
X130937000Y-104140000D03*
X95250000Y-125984000D03*
X115697000Y-104140000D03*
X133350000Y-106553000D03*
X95250000Y-131064000D03*
X170307000Y-122682000D03*
X172847000Y-125222000D03*
X137922000Y-102108000D03*
X146050000Y-121920000D03*
X92710000Y-133604000D03*
X136398000Y-128524000D03*
X95250000Y-128524000D03*
X172466000Y-91567000D03*
X154940000Y-133985000D03*
X139319000Y-100203000D03*
X113157000Y-101600000D03*
X170307000Y-125222000D03*
X167640000Y-104902000D03*
X165100000Y-102362000D03*
X175006000Y-91567000D03*
X169926000Y-91567000D03*
X175006000Y-94107000D03*
X127127000Y-93853000D03*
X169926000Y-94107000D03*
X170180000Y-104902000D03*
X92710000Y-131064000D03*
X97790000Y-133604000D03*
X133350000Y-108966000D03*
%TO.N,VCC*%
X131953000Y-100457000D03*
X135890000Y-104394000D03*
X133096000Y-101600000D03*
X135890000Y-106680000D03*
X134493000Y-102997000D03*
%TD*%
D20*
%TO.N,VCC*%
X177800000Y-128397000D02*
X177673000Y-128397000D01*
X177673000Y-128397000D02*
X177546000Y-128524000D01*
X177546000Y-128524000D02*
X175768000Y-128524000D01*
X177800000Y-128397000D02*
X177800000Y-117348000D01*
D21*
%TO.N,/D7*%
X166370000Y-117221000D02*
X166370000Y-124460000D01*
X175260000Y-133350000D02*
X175259999Y-140208001D01*
X166370000Y-124460000D02*
X175260000Y-133350000D01*
D20*
%TO.N,GND*%
X174498000Y-112308000D02*
X174411000Y-112395000D01*
X174585000Y-112395000D02*
X174498000Y-112308000D01*
D21*
%TO.N,{slash}MEMW*%
X104902000Y-89408000D02*
X109601000Y-89408000D01*
X104140000Y-90170000D02*
X104902000Y-89408000D01*
X120650000Y-100457000D02*
X120650000Y-118110000D01*
X104140000Y-91440000D02*
X104140000Y-90170000D01*
X120650000Y-118110000D02*
X121920000Y-119380000D01*
X109601000Y-89408000D02*
X120650000Y-100457000D01*
X121920000Y-119380000D02*
X121919999Y-122428001D01*
%TO.N,{slash}MEMR*%
X110490000Y-105410000D02*
X108585000Y-103505000D01*
X108585000Y-93345000D02*
X106680000Y-91440000D01*
X108585000Y-103505000D02*
X108585000Y-93345000D01*
X109219999Y-122428001D02*
X109219999Y-117983001D01*
X110490000Y-116713000D02*
X110490000Y-105410000D01*
X109219999Y-117983001D02*
X110490000Y-116713000D01*
%TO.N,Net-(J1-AEN)*%
X143510000Y-110490000D02*
X147447000Y-106553000D01*
X154559000Y-106553000D02*
X158750000Y-102362000D01*
X147447000Y-106553000D02*
X154559000Y-106553000D01*
X143510000Y-124523500D02*
X143510000Y-110490000D01*
X152399999Y-140208001D02*
X152399999Y-133413499D01*
X152399999Y-133413499D02*
X143510000Y-124523500D01*
X158750000Y-102362000D02*
X158750000Y-98928000D01*
%TO.N,/A14*%
X124459999Y-109219999D02*
X124459999Y-107188001D01*
X127254000Y-126619000D02*
X125729999Y-125094999D01*
X137159999Y-140208001D02*
X137159999Y-134619999D01*
X125729999Y-125094999D02*
X125729999Y-110489999D01*
X129159000Y-126619000D02*
X127254000Y-126619000D01*
X137159999Y-134619999D02*
X129159000Y-126619000D01*
X125729999Y-110489999D02*
X124459999Y-109219999D01*
%TO.N,/A6*%
X116839999Y-135381999D02*
X116839999Y-140208001D01*
X111759999Y-122428001D02*
X111759999Y-130301999D01*
X111759999Y-130301999D02*
X116839999Y-135381999D01*
%TO.N,/A16*%
X127000000Y-107188000D02*
X127000000Y-102235000D01*
X142494000Y-101727000D02*
X147320000Y-101727000D01*
X148590000Y-100457000D02*
X148590000Y-98552000D01*
X126999999Y-107188001D02*
X127000000Y-107188000D01*
X127000000Y-102235000D02*
X130683000Y-98552000D01*
X138303000Y-129413000D02*
X138303000Y-105918000D01*
X147320000Y-101727000D02*
X148590000Y-100457000D01*
X148590000Y-98933000D02*
X148590000Y-98552000D01*
X130683000Y-98552000D02*
X148590000Y-98552000D01*
X142239999Y-133349999D02*
X138303000Y-129413000D01*
X142239999Y-140208001D02*
X142239999Y-133349999D01*
X138303000Y-105918000D02*
X142494000Y-101727000D01*
%TO.N,/D5*%
X161290000Y-117221000D02*
X161290000Y-124523500D01*
X170179999Y-133413499D02*
X170179999Y-140208001D01*
X161290000Y-124523500D02*
X170179999Y-133413499D01*
%TO.N,/A3*%
X109219999Y-135127999D02*
X106680000Y-132588000D01*
X109219999Y-140208001D02*
X109219999Y-135127999D01*
X106680000Y-132588000D02*
X106679999Y-122428001D01*
%TO.N,/A19*%
X149859999Y-140208001D02*
X149859999Y-133349999D01*
X146050000Y-105537000D02*
X153162000Y-105537000D01*
X160528000Y-96520000D02*
X161290000Y-97282000D01*
X157480000Y-101219000D02*
X157480000Y-97663000D01*
X161290000Y-97282000D02*
X161290000Y-98552000D01*
X142240000Y-109347000D02*
X146050000Y-105537000D01*
X157480000Y-97663000D02*
X158623000Y-96520000D01*
X153162000Y-105537000D02*
X157480000Y-101219000D01*
X149859999Y-133349999D02*
X142240000Y-125730000D01*
X158623000Y-96520000D02*
X160528000Y-96520000D01*
X142240000Y-125730000D02*
X142240000Y-109347000D01*
%TO.N,/A13*%
X121920000Y-109220000D02*
X121919999Y-107188001D01*
X127762000Y-128397000D02*
X126618998Y-128397000D01*
X126618998Y-128397000D02*
X123189999Y-124968001D01*
X134619999Y-135254999D02*
X127762000Y-128397000D01*
X134619999Y-140208001D02*
X134619999Y-135254999D01*
X123189999Y-124968001D02*
X123189999Y-110489999D01*
X123189999Y-110489999D02*
X121920000Y-109220000D01*
%TO.N,/A12*%
X119379999Y-123951999D02*
X125476000Y-130048000D01*
X125476000Y-130048000D02*
X126619000Y-130048000D01*
X126619000Y-130048000D02*
X132079999Y-135508999D01*
X132079999Y-135508999D02*
X132079999Y-140208001D01*
X119379999Y-122428001D02*
X119379999Y-123951999D01*
%TO.N,/A18*%
X147319999Y-133349999D02*
X140970000Y-127000000D01*
X153670000Y-101473000D02*
X153670000Y-98552000D01*
X144653000Y-104521000D02*
X150622000Y-104521000D01*
X150622000Y-104521000D02*
X153670000Y-101473000D01*
X147319999Y-140208001D02*
X147319999Y-133349999D01*
X140970000Y-127000000D02*
X140970000Y-108204000D01*
X140970000Y-108204000D02*
X144653000Y-104521000D01*
%TO.N,/A10*%
X123825000Y-133223000D02*
X124460000Y-133223000D01*
X126999999Y-135762999D02*
X126999999Y-140208001D01*
X116839999Y-122428001D02*
X116839999Y-126237999D01*
X124460000Y-133223000D02*
X126999999Y-135762999D01*
X116839999Y-126237999D02*
X123825000Y-133223000D01*
%TO.N,/D2*%
X162559999Y-140208001D02*
X162559999Y-133349999D01*
X153670000Y-124460000D02*
X153670000Y-117221000D01*
X162559999Y-133349999D02*
X153670000Y-124460000D01*
%TO.N,/A4*%
X109220000Y-109220000D02*
X109220000Y-107188002D01*
X107950000Y-110490000D02*
X109220000Y-109220000D01*
X107950000Y-131318000D02*
X107950000Y-110490000D01*
X111759999Y-140208001D02*
X111759999Y-135127999D01*
X111759999Y-135127999D02*
X107950000Y-131318000D01*
%TO.N,/A15*%
X139699999Y-140208001D02*
X139699999Y-133984999D01*
X127000000Y-122936001D02*
X126999999Y-122936000D01*
X127000000Y-124206000D02*
X127000000Y-122936001D01*
X130810000Y-125095000D02*
X127889000Y-125095000D01*
X126999999Y-122936000D02*
X126999999Y-122428001D01*
X139699999Y-133984999D02*
X130810000Y-125095000D01*
X127889000Y-125095000D02*
X127000000Y-124206000D01*
%TO.N,/A8*%
X114299999Y-122428001D02*
X114299999Y-128142999D01*
X114299999Y-128142999D02*
X121919999Y-135762999D01*
X121919999Y-135762999D02*
X121919999Y-140208001D01*
%TO.N,/A5*%
X111759999Y-118110001D02*
X111759999Y-107188001D01*
X114299999Y-140208001D02*
X114299999Y-136144001D01*
X110490000Y-119380000D02*
X111759999Y-118110001D01*
X114299999Y-135254999D02*
X110490000Y-131445000D01*
X114299999Y-136144001D02*
X114299999Y-135254999D01*
X110490000Y-131445000D02*
X110490000Y-119380000D01*
%TO.N,/D0*%
X157479999Y-133476999D02*
X148590000Y-124587000D01*
X148590000Y-124587000D02*
X148590000Y-117221000D01*
X157479999Y-140208001D02*
X157479999Y-133476999D01*
%TO.N,/A17*%
X151130000Y-100965000D02*
X151130000Y-98552000D01*
X144779999Y-133349999D02*
X139700000Y-128270000D01*
X143256000Y-103505000D02*
X148590000Y-103505000D01*
X139700000Y-128270000D02*
X139700000Y-107061000D01*
X144779999Y-140208001D02*
X144779999Y-133349999D01*
X139700000Y-107061000D02*
X143256000Y-103505000D01*
X148590000Y-103505000D02*
X151130000Y-100965000D01*
%TO.N,/D6*%
X172719999Y-140208001D02*
X172719999Y-133349999D01*
X172719999Y-133349999D02*
X163830000Y-124460000D01*
X163830000Y-124460000D02*
X163830000Y-117221000D01*
%TO.N,/A7*%
X114300000Y-109220000D02*
X114300000Y-107188002D01*
X119379999Y-140208001D02*
X119379999Y-135508999D01*
X113030000Y-110490000D02*
X114300000Y-109220000D01*
X119379999Y-135508999D02*
X113030000Y-129159000D01*
X113030000Y-129159000D02*
X113030000Y-110490000D01*
%TO.N,/A9*%
X116839999Y-107188001D02*
X116839999Y-109220001D01*
X115570000Y-127000000D02*
X124459999Y-135889999D01*
X124459999Y-135889999D02*
X124459999Y-140208001D01*
X116839999Y-109220001D02*
X115570000Y-110490000D01*
X115570000Y-110490000D02*
X115570000Y-127000000D01*
%TO.N,/A11*%
X118110000Y-125222000D02*
X124587000Y-131699000D01*
X125603000Y-131699000D02*
X129539999Y-135635999D01*
X118110000Y-110553500D02*
X118110000Y-125222000D01*
X119379999Y-109283501D02*
X118110000Y-110553500D01*
X119379999Y-107188001D02*
X119379999Y-109283501D01*
X129539999Y-135635999D02*
X129539999Y-140208001D01*
X124587000Y-131699000D02*
X125603000Y-131699000D01*
%TO.N,/A1*%
X102870000Y-110553500D02*
X104139999Y-109283501D01*
X104139999Y-109283501D02*
X104139999Y-107188001D01*
X102870000Y-133731000D02*
X102870000Y-110553500D01*
X104139999Y-140208001D02*
X104140000Y-135001000D01*
X104140000Y-135001000D02*
X102870000Y-133731000D01*
%TO.N,/A2*%
X106679999Y-135000999D02*
X106679999Y-140208001D01*
X105410000Y-112395000D02*
X105410000Y-133731000D01*
X105410000Y-133731000D02*
X106679999Y-135000999D01*
X106679999Y-111125001D02*
X105410000Y-112395000D01*
X106679999Y-107188001D02*
X106679999Y-111125001D01*
%TO.N,/D1*%
X160019999Y-140208001D02*
X160019999Y-133222999D01*
X160019999Y-133222999D02*
X151130000Y-124333000D01*
X151130000Y-124333000D02*
X151130000Y-117221000D01*
%TO.N,/D3*%
X165099999Y-133349999D02*
X156210000Y-124460000D01*
X165099999Y-140208001D02*
X165099999Y-133349999D01*
X156210000Y-124460000D02*
X156210000Y-117221000D01*
%TO.N,/D4*%
X158750000Y-124460000D02*
X158750000Y-117221000D01*
X167639999Y-133349999D02*
X158750000Y-124460000D01*
X167639999Y-140208001D02*
X167639999Y-133349999D01*
%TO.N,/A0*%
X101599999Y-135254999D02*
X100330000Y-133985000D01*
X100330000Y-110490000D02*
X101599999Y-109220001D01*
X101599999Y-109220001D02*
X101599999Y-107188001D01*
X100330000Y-133985000D02*
X100330000Y-110490000D01*
X101599999Y-140208001D02*
X101599999Y-135254999D01*
D20*
%TO.N,VCC*%
X135890000Y-119975000D02*
X133350000Y-122515000D01*
X174498000Y-117308000D02*
X171537000Y-117308000D01*
X177800000Y-90678000D02*
X173482000Y-86360000D01*
X99060000Y-89027000D02*
X99060000Y-91440000D01*
X131953000Y-100457000D02*
X135890000Y-104394000D01*
X173482000Y-86360000D02*
X148590000Y-86360000D01*
D22*
X99060000Y-93853000D02*
X99060000Y-93726000D01*
D20*
X148590000Y-90932000D02*
X144780000Y-90932000D01*
X133350000Y-122515000D02*
X133263001Y-122428001D01*
X171537000Y-117308000D02*
X171450000Y-117221000D01*
X177760000Y-117308000D02*
X174498000Y-117308000D01*
X177800000Y-117348000D02*
X177800000Y-90678000D01*
X96520000Y-91440000D02*
X99060000Y-91440000D01*
X148590000Y-86360000D02*
X148590000Y-90932000D01*
X101600000Y-99060000D02*
X101600000Y-96266000D01*
X148590000Y-86360000D02*
X101727000Y-86360000D01*
X99060000Y-93726000D02*
X99060000Y-91440000D01*
X101727000Y-86360000D02*
X99060000Y-89027000D01*
X135890000Y-104394000D02*
X135890000Y-119975000D01*
X101473000Y-96266000D02*
X99060000Y-93853000D01*
X106680000Y-99060000D02*
X101600000Y-99060000D01*
X133263001Y-122428001D02*
X129539999Y-122428001D01*
X177800000Y-117348000D02*
X177760000Y-117308000D01*
D21*
%TO.N,Net-(U1-E1)*%
X101600000Y-90170000D02*
X103505000Y-88265000D01*
X140208000Y-96520000D02*
X142748000Y-93980000D01*
X153924000Y-93980000D02*
X156210000Y-96266000D01*
X101599999Y-91694001D02*
X101600000Y-90170000D01*
X124587000Y-96520000D02*
X140208000Y-96520000D01*
X116332000Y-88265000D02*
X124587000Y-96520000D01*
X156210000Y-96266000D02*
X156210000Y-98552000D01*
X103505000Y-88265000D02*
X116332000Y-88265000D01*
X142748000Y-93980000D02*
X153924000Y-93980000D01*
%TO.N,Net-(U3-~{CE})*%
X105410000Y-110236000D02*
X105410000Y-106045000D01*
X92837000Y-102235000D02*
X91439999Y-100837999D01*
X105410000Y-106045000D02*
X101600000Y-102235000D01*
X91439999Y-100837999D02*
X91439999Y-99314001D01*
X104139999Y-122428001D02*
X104139999Y-111506001D01*
X104139999Y-111506001D02*
X105410000Y-110236000D01*
X101600000Y-102235000D02*
X92837000Y-102235000D01*
%TD*%
%TA.AperFunction,Conductor*%
%TO.N,GND*%
G36*
X100471232Y-85617685D02*
G01*
X100516987Y-85670489D01*
X100526931Y-85739647D01*
X100497906Y-85803203D01*
X100491874Y-85809681D01*
X98097021Y-88204533D01*
X97980213Y-88365305D01*
X97889994Y-88542367D01*
X97889993Y-88542370D01*
X97828587Y-88731362D01*
X97797500Y-88927639D01*
X97797500Y-90053500D01*
X97777815Y-90120539D01*
X97725011Y-90166294D01*
X97673500Y-90177500D01*
X96862568Y-90177500D01*
X96829369Y-90172242D01*
X96829269Y-90172660D01*
X96824530Y-90171522D01*
X96683364Y-90149163D01*
X96622352Y-90139500D01*
X96417648Y-90139500D01*
X96393329Y-90143351D01*
X96215465Y-90171522D01*
X96020776Y-90234781D01*
X95838386Y-90327715D01*
X95672786Y-90448028D01*
X95528028Y-90592786D01*
X95407715Y-90758386D01*
X95360485Y-90851080D01*
X95312510Y-90901876D01*
X95244689Y-90918671D01*
X95178554Y-90896134D01*
X95139515Y-90851080D01*
X95128595Y-90829648D01*
X95092287Y-90758390D01*
X95076629Y-90736838D01*
X94971971Y-90592786D01*
X94827213Y-90448028D01*
X94661613Y-90327715D01*
X94661612Y-90327714D01*
X94661610Y-90327713D01*
X94592024Y-90292257D01*
X94479223Y-90234781D01*
X94284534Y-90171522D01*
X94108680Y-90143670D01*
X94082352Y-90139500D01*
X93877648Y-90139500D01*
X93853329Y-90143351D01*
X93675465Y-90171522D01*
X93480776Y-90234781D01*
X93298386Y-90327715D01*
X93132786Y-90448028D01*
X92988028Y-90592786D01*
X92867713Y-90758388D01*
X92820203Y-90851630D01*
X92772228Y-90902426D01*
X92704407Y-90919220D01*
X92638272Y-90896682D01*
X92599234Y-90851628D01*
X92551861Y-90758652D01*
X92519474Y-90714077D01*
X92519474Y-90714076D01*
X91840000Y-91393551D01*
X91840000Y-91387339D01*
X91812741Y-91285606D01*
X91760080Y-91194394D01*
X91685606Y-91119920D01*
X91594394Y-91067259D01*
X91492661Y-91040000D01*
X91486446Y-91040000D01*
X92165922Y-90360524D01*
X92165921Y-90360523D01*
X92121359Y-90328147D01*
X92121350Y-90328141D01*
X91939031Y-90235244D01*
X91744417Y-90172009D01*
X91542317Y-90140000D01*
X91337683Y-90140000D01*
X91135582Y-90172009D01*
X90940968Y-90235244D01*
X90758644Y-90328143D01*
X90714077Y-90360523D01*
X90714077Y-90360524D01*
X91393554Y-91040000D01*
X91387339Y-91040000D01*
X91285606Y-91067259D01*
X91194394Y-91119920D01*
X91119920Y-91194394D01*
X91067259Y-91285606D01*
X91040000Y-91387339D01*
X91040000Y-91393553D01*
X90360524Y-90714077D01*
X90360523Y-90714077D01*
X90328143Y-90758644D01*
X90235244Y-90940968D01*
X90172009Y-91135582D01*
X90140000Y-91337682D01*
X90140000Y-91542317D01*
X90172009Y-91744417D01*
X90235244Y-91939031D01*
X90328141Y-92121350D01*
X90328147Y-92121359D01*
X90360523Y-92165921D01*
X90360524Y-92165922D01*
X91040000Y-91486446D01*
X91040000Y-91492661D01*
X91067259Y-91594394D01*
X91119920Y-91685606D01*
X91194394Y-91760080D01*
X91285606Y-91812741D01*
X91387339Y-91840000D01*
X91393553Y-91840000D01*
X90714076Y-92519474D01*
X90758650Y-92551859D01*
X90940968Y-92644755D01*
X91135582Y-92707990D01*
X91337683Y-92740000D01*
X91542317Y-92740000D01*
X91744417Y-92707990D01*
X91939031Y-92644755D01*
X92121349Y-92551859D01*
X92165921Y-92519474D01*
X91486447Y-91840000D01*
X91492661Y-91840000D01*
X91594394Y-91812741D01*
X91685606Y-91760080D01*
X91760080Y-91685606D01*
X91812741Y-91594394D01*
X91840000Y-91492661D01*
X91840000Y-91486447D01*
X92519474Y-92165921D01*
X92551861Y-92121347D01*
X92551861Y-92121346D01*
X92599234Y-92028371D01*
X92647208Y-91977575D01*
X92715028Y-91960779D01*
X92781164Y-91983316D01*
X92820203Y-92028369D01*
X92867713Y-92121611D01*
X92988028Y-92287213D01*
X93132786Y-92431971D01*
X93253226Y-92519474D01*
X93298390Y-92552287D01*
X93413503Y-92610940D01*
X93480776Y-92645218D01*
X93480778Y-92645218D01*
X93480781Y-92645220D01*
X93571856Y-92674812D01*
X93675465Y-92708477D01*
X93776557Y-92724488D01*
X93877648Y-92740500D01*
X93877649Y-92740500D01*
X94082351Y-92740500D01*
X94082352Y-92740500D01*
X94284534Y-92708477D01*
X94479219Y-92645220D01*
X94661610Y-92552287D01*
X94790482Y-92458657D01*
X94827213Y-92431971D01*
X94827215Y-92431968D01*
X94827219Y-92431966D01*
X94971966Y-92287219D01*
X94971968Y-92287215D01*
X94971971Y-92287213D01*
X95092284Y-92121614D01*
X95092286Y-92121611D01*
X95092287Y-92121610D01*
X95139516Y-92028917D01*
X95187489Y-91978123D01*
X95255310Y-91961328D01*
X95321445Y-91983865D01*
X95360483Y-92028917D01*
X95368315Y-92044287D01*
X95407715Y-92121614D01*
X95528028Y-92287213D01*
X95672786Y-92431971D01*
X95793226Y-92519474D01*
X95838390Y-92552287D01*
X95953503Y-92610940D01*
X96020776Y-92645218D01*
X96020778Y-92645218D01*
X96020781Y-92645220D01*
X96111856Y-92674812D01*
X96215465Y-92708477D01*
X96316557Y-92724488D01*
X96417648Y-92740500D01*
X96417649Y-92740500D01*
X96622351Y-92740500D01*
X96622352Y-92740500D01*
X96824534Y-92708477D01*
X96824545Y-92708473D01*
X96829269Y-92707340D01*
X96829369Y-92707757D01*
X96862568Y-92702500D01*
X97673500Y-92702500D01*
X97740539Y-92722185D01*
X97786294Y-92774989D01*
X97797500Y-92826500D01*
X97797500Y-93952360D01*
X97828587Y-94148637D01*
X97889993Y-94337629D01*
X97889994Y-94337632D01*
X97971917Y-94498412D01*
X97980213Y-94514694D01*
X98097019Y-94675463D01*
X98097021Y-94675465D01*
X100301181Y-96879625D01*
X100334666Y-96940948D01*
X100337500Y-96967306D01*
X100337500Y-98224152D01*
X100317815Y-98291191D01*
X100265011Y-98336946D01*
X100195853Y-98346890D01*
X100132297Y-98317865D01*
X100113182Y-98297037D01*
X100051971Y-98212786D01*
X99907213Y-98068028D01*
X99741613Y-97947715D01*
X99741612Y-97947714D01*
X99741610Y-97947713D01*
X99663106Y-97907713D01*
X99559223Y-97854781D01*
X99364534Y-97791522D01*
X99189995Y-97763878D01*
X99162352Y-97759500D01*
X98957648Y-97759500D01*
X98933329Y-97763351D01*
X98755465Y-97791522D01*
X98560776Y-97854781D01*
X98378386Y-97947715D01*
X98212786Y-98068028D01*
X98068028Y-98212786D01*
X97947715Y-98378386D01*
X97900485Y-98471080D01*
X97852510Y-98521876D01*
X97784689Y-98538671D01*
X97718554Y-98516134D01*
X97679515Y-98471080D01*
X97668595Y-98449648D01*
X97632287Y-98378390D01*
X97603223Y-98338386D01*
X97511971Y-98212786D01*
X97367213Y-98068028D01*
X97201613Y-97947715D01*
X97201612Y-97947714D01*
X97201610Y-97947713D01*
X97123106Y-97907713D01*
X97019223Y-97854781D01*
X96824534Y-97791522D01*
X96649995Y-97763878D01*
X96622352Y-97759500D01*
X96417648Y-97759500D01*
X96393329Y-97763351D01*
X96215465Y-97791522D01*
X96020776Y-97854781D01*
X95838386Y-97947715D01*
X95672786Y-98068028D01*
X95528028Y-98212786D01*
X95407715Y-98378386D01*
X95360485Y-98471080D01*
X95312510Y-98521876D01*
X95244689Y-98538671D01*
X95178554Y-98516134D01*
X95139515Y-98471080D01*
X95128595Y-98449648D01*
X95092287Y-98378390D01*
X95063223Y-98338386D01*
X94971971Y-98212786D01*
X94827213Y-98068028D01*
X94661613Y-97947715D01*
X94661612Y-97947714D01*
X94661610Y-97947713D01*
X94583106Y-97907713D01*
X94479223Y-97854781D01*
X94284534Y-97791522D01*
X94109995Y-97763878D01*
X94082352Y-97759500D01*
X93877648Y-97759500D01*
X93853329Y-97763351D01*
X93675465Y-97791522D01*
X93480776Y-97854781D01*
X93298386Y-97947715D01*
X93132786Y-98068028D01*
X92988028Y-98212786D01*
X92867715Y-98378386D01*
X92820485Y-98471080D01*
X92772510Y-98521876D01*
X92704689Y-98538671D01*
X92638554Y-98516134D01*
X92599515Y-98471080D01*
X92588595Y-98449648D01*
X92552287Y-98378390D01*
X92523223Y-98338386D01*
X92431971Y-98212786D01*
X92287213Y-98068028D01*
X92121613Y-97947715D01*
X92121612Y-97947714D01*
X92121610Y-97947713D01*
X92043106Y-97907713D01*
X91939223Y-97854781D01*
X91744534Y-97791522D01*
X91569995Y-97763878D01*
X91542352Y-97759500D01*
X91337648Y-97759500D01*
X91313329Y-97763351D01*
X91135465Y-97791522D01*
X90940776Y-97854781D01*
X90758386Y-97947715D01*
X90592786Y-98068028D01*
X90448028Y-98212786D01*
X90327715Y-98378386D01*
X90234781Y-98560776D01*
X90171522Y-98755465D01*
X90139500Y-98957648D01*
X90139500Y-99162351D01*
X90171522Y-99364534D01*
X90234781Y-99559223D01*
X90298468Y-99684214D01*
X90307333Y-99701613D01*
X90327715Y-99741613D01*
X90448028Y-99907213D01*
X90448034Y-99907219D01*
X90592781Y-100051966D01*
X90758390Y-100172287D01*
X90758395Y-100172289D01*
X90761384Y-100174461D01*
X90804050Y-100229791D01*
X90812499Y-100274780D01*
X90812499Y-100899806D01*
X90836611Y-101021026D01*
X90836613Y-101021034D01*
X90862902Y-101084501D01*
X90883914Y-101135228D01*
X90883919Y-101135238D01*
X90952587Y-101238006D01*
X90952590Y-101238010D01*
X92349589Y-102635008D01*
X92419744Y-102705163D01*
X92436994Y-102722413D01*
X92436996Y-102722414D01*
X92539756Y-102791076D01*
X92539758Y-102791077D01*
X92539767Y-102791083D01*
X92564772Y-102801440D01*
X92587071Y-102810677D01*
X92629254Y-102828149D01*
X92653966Y-102838386D01*
X92668018Y-102841181D01*
X92775192Y-102862499D01*
X92775196Y-102862500D01*
X92775197Y-102862500D01*
X101288719Y-102862500D01*
X101355758Y-102882185D01*
X101376400Y-102898819D01*
X104153401Y-105675820D01*
X104186886Y-105737143D01*
X104181902Y-105806835D01*
X104140030Y-105862768D01*
X104074566Y-105887185D01*
X104065720Y-105887501D01*
X104037647Y-105887501D01*
X104013328Y-105891352D01*
X103835464Y-105919523D01*
X103640775Y-105982782D01*
X103458385Y-106075716D01*
X103292785Y-106196029D01*
X103148027Y-106340787D01*
X103027714Y-106506387D01*
X102980484Y-106599081D01*
X102932509Y-106649877D01*
X102864688Y-106666672D01*
X102798553Y-106644135D01*
X102759514Y-106599081D01*
X102712419Y-106506653D01*
X102712286Y-106506391D01*
X102680091Y-106462078D01*
X102591970Y-106340787D01*
X102447212Y-106196029D01*
X102281612Y-106075716D01*
X102281611Y-106075715D01*
X102281609Y-106075714D01*
X102212021Y-106040257D01*
X102099222Y-105982782D01*
X101904533Y-105919523D01*
X101729994Y-105891879D01*
X101702351Y-105887501D01*
X101497647Y-105887501D01*
X101473328Y-105891352D01*
X101295464Y-105919523D01*
X101100775Y-105982782D01*
X100918385Y-106075716D01*
X100752785Y-106196029D01*
X100608027Y-106340787D01*
X100487714Y-106506387D01*
X100440484Y-106599081D01*
X100392509Y-106649877D01*
X100324688Y-106666672D01*
X100258553Y-106644135D01*
X100219514Y-106599081D01*
X100172419Y-106506653D01*
X100172286Y-106506391D01*
X100140091Y-106462078D01*
X100051970Y-106340787D01*
X99907212Y-106196029D01*
X99741612Y-106075716D01*
X99741611Y-106075715D01*
X99741609Y-106075714D01*
X99672021Y-106040257D01*
X99559222Y-105982782D01*
X99364533Y-105919523D01*
X99189994Y-105891879D01*
X99162351Y-105887501D01*
X98957647Y-105887501D01*
X98933328Y-105891352D01*
X98755464Y-105919523D01*
X98560775Y-105982782D01*
X98378385Y-106075716D01*
X98212785Y-106196029D01*
X98068027Y-106340787D01*
X97947714Y-106506387D01*
X97900484Y-106599081D01*
X97852509Y-106649877D01*
X97784688Y-106666672D01*
X97718553Y-106644135D01*
X97679514Y-106599081D01*
X97632419Y-106506653D01*
X97632286Y-106506391D01*
X97600091Y-106462078D01*
X97511970Y-106340787D01*
X97367212Y-106196029D01*
X97201612Y-106075716D01*
X97201611Y-106075715D01*
X97201609Y-106075714D01*
X97132021Y-106040257D01*
X97019222Y-105982782D01*
X96824533Y-105919523D01*
X96649994Y-105891879D01*
X96622351Y-105887501D01*
X96417647Y-105887501D01*
X96393328Y-105891352D01*
X96215464Y-105919523D01*
X96020775Y-105982782D01*
X95838385Y-106075716D01*
X95672785Y-106196029D01*
X95528027Y-106340787D01*
X95407714Y-106506387D01*
X95360484Y-106599081D01*
X95312509Y-106649877D01*
X95244688Y-106666672D01*
X95178553Y-106644135D01*
X95139514Y-106599081D01*
X95092419Y-106506653D01*
X95092286Y-106506391D01*
X95060091Y-106462078D01*
X94971970Y-106340787D01*
X94827212Y-106196029D01*
X94661612Y-106075716D01*
X94661611Y-106075715D01*
X94661609Y-106075714D01*
X94592021Y-106040257D01*
X94479222Y-105982782D01*
X94284533Y-105919523D01*
X94109994Y-105891879D01*
X94082351Y-105887501D01*
X93877647Y-105887501D01*
X93853328Y-105891352D01*
X93675464Y-105919523D01*
X93480775Y-105982782D01*
X93298385Y-106075716D01*
X93132785Y-106196029D01*
X92988027Y-106340787D01*
X92867712Y-106506389D01*
X92820202Y-106599631D01*
X92772227Y-106650427D01*
X92704406Y-106667221D01*
X92638271Y-106644683D01*
X92599233Y-106599629D01*
X92551860Y-106506653D01*
X92519473Y-106462078D01*
X92519473Y-106462077D01*
X91839999Y-107141552D01*
X91839999Y-107135340D01*
X91812740Y-107033607D01*
X91760079Y-106942395D01*
X91685605Y-106867921D01*
X91594393Y-106815260D01*
X91492660Y-106788001D01*
X91486445Y-106788001D01*
X92165921Y-106108525D01*
X92165920Y-106108524D01*
X92121358Y-106076148D01*
X92121349Y-106076142D01*
X91939030Y-105983245D01*
X91744416Y-105920010D01*
X91542316Y-105888001D01*
X91337682Y-105888001D01*
X91135581Y-105920010D01*
X90940967Y-105983245D01*
X90758643Y-106076144D01*
X90714076Y-106108524D01*
X90714076Y-106108525D01*
X91393553Y-106788001D01*
X91387338Y-106788001D01*
X91285605Y-106815260D01*
X91194393Y-106867921D01*
X91119919Y-106942395D01*
X91067258Y-107033607D01*
X91039999Y-107135340D01*
X91039999Y-107141554D01*
X90360523Y-106462078D01*
X90360522Y-106462078D01*
X90328142Y-106506645D01*
X90235243Y-106688969D01*
X90172008Y-106883583D01*
X90139999Y-107085683D01*
X90139999Y-107290318D01*
X90172008Y-107492418D01*
X90235243Y-107687032D01*
X90328140Y-107869351D01*
X90328146Y-107869360D01*
X90360522Y-107913922D01*
X90360523Y-107913923D01*
X91039999Y-107234447D01*
X91039999Y-107240662D01*
X91067258Y-107342395D01*
X91119919Y-107433607D01*
X91194393Y-107508081D01*
X91285605Y-107560742D01*
X91387338Y-107588001D01*
X91393552Y-107588001D01*
X90714075Y-108267475D01*
X90758649Y-108299860D01*
X90940967Y-108392756D01*
X91135581Y-108455991D01*
X91337682Y-108488001D01*
X91542316Y-108488001D01*
X91744416Y-108455991D01*
X91939030Y-108392756D01*
X92121348Y-108299860D01*
X92165920Y-108267475D01*
X91486446Y-107588001D01*
X91492660Y-107588001D01*
X91594393Y-107560742D01*
X91685605Y-107508081D01*
X91760079Y-107433607D01*
X91812740Y-107342395D01*
X91839999Y-107240662D01*
X91839999Y-107234448D01*
X92519473Y-107913922D01*
X92551860Y-107869348D01*
X92551860Y-107869347D01*
X92599233Y-107776372D01*
X92647207Y-107725576D01*
X92715027Y-107708780D01*
X92781163Y-107731317D01*
X92820202Y-107776370D01*
X92867712Y-107869612D01*
X92988027Y-108035214D01*
X93132785Y-108179972D01*
X93253225Y-108267475D01*
X93298389Y-108300288D01*
X93411247Y-108357792D01*
X93480775Y-108393219D01*
X93480777Y-108393219D01*
X93480780Y-108393221D01*
X93571855Y-108422813D01*
X93675464Y-108456478D01*
X93776556Y-108472489D01*
X93877647Y-108488501D01*
X93877648Y-108488501D01*
X94082350Y-108488501D01*
X94082351Y-108488501D01*
X94284533Y-108456478D01*
X94479218Y-108393221D01*
X94661609Y-108300288D01*
X94790481Y-108206658D01*
X94827212Y-108179972D01*
X94827214Y-108179969D01*
X94827218Y-108179967D01*
X94971965Y-108035220D01*
X94971967Y-108035216D01*
X94971970Y-108035214D01*
X95092283Y-107869615D01*
X95092285Y-107869612D01*
X95092286Y-107869611D01*
X95139515Y-107776918D01*
X95187488Y-107726124D01*
X95255309Y-107709329D01*
X95321444Y-107731866D01*
X95360482Y-107776918D01*
X95404347Y-107863007D01*
X95407714Y-107869615D01*
X95528027Y-108035214D01*
X95672785Y-108179972D01*
X95793225Y-108267475D01*
X95838389Y-108300288D01*
X95951247Y-108357792D01*
X96020775Y-108393219D01*
X96020777Y-108393219D01*
X96020780Y-108393221D01*
X96111855Y-108422813D01*
X96215464Y-108456478D01*
X96316556Y-108472489D01*
X96417647Y-108488501D01*
X96417648Y-108488501D01*
X96622350Y-108488501D01*
X96622351Y-108488501D01*
X96824533Y-108456478D01*
X97019218Y-108393221D01*
X97201609Y-108300288D01*
X97330481Y-108206658D01*
X97367212Y-108179972D01*
X97367214Y-108179969D01*
X97367218Y-108179967D01*
X97511965Y-108035220D01*
X97511967Y-108035216D01*
X97511970Y-108035214D01*
X97632283Y-107869615D01*
X97632285Y-107869612D01*
X97632286Y-107869611D01*
X97679515Y-107776918D01*
X97727488Y-107726124D01*
X97795309Y-107709329D01*
X97861444Y-107731866D01*
X97900482Y-107776918D01*
X97944347Y-107863007D01*
X97947714Y-107869615D01*
X98068027Y-108035214D01*
X98212785Y-108179972D01*
X98333225Y-108267475D01*
X98378389Y-108300288D01*
X98491247Y-108357792D01*
X98560775Y-108393219D01*
X98560777Y-108393219D01*
X98560780Y-108393221D01*
X98651855Y-108422813D01*
X98755464Y-108456478D01*
X98856556Y-108472489D01*
X98957647Y-108488501D01*
X98957648Y-108488501D01*
X99162350Y-108488501D01*
X99162351Y-108488501D01*
X99364533Y-108456478D01*
X99559218Y-108393221D01*
X99741609Y-108300288D01*
X99870481Y-108206658D01*
X99907212Y-108179972D01*
X99907214Y-108179969D01*
X99907218Y-108179967D01*
X100051965Y-108035220D01*
X100051967Y-108035216D01*
X100051970Y-108035214D01*
X100172283Y-107869615D01*
X100172285Y-107869612D01*
X100172286Y-107869611D01*
X100219515Y-107776918D01*
X100267488Y-107726124D01*
X100335309Y-107709329D01*
X100401444Y-107731866D01*
X100440482Y-107776918D01*
X100484347Y-107863007D01*
X100487714Y-107869615D01*
X100608027Y-108035214D01*
X100752783Y-108179970D01*
X100789517Y-108206658D01*
X100918389Y-108300288D01*
X100918394Y-108300290D01*
X100921383Y-108302462D01*
X100964050Y-108357792D01*
X100972499Y-108402781D01*
X100972499Y-108908720D01*
X100952814Y-108975759D01*
X100936182Y-108996399D01*
X99929993Y-110002588D01*
X99929992Y-110002589D01*
X99899180Y-110033401D01*
X99842587Y-110089993D01*
X99773920Y-110192760D01*
X99773913Y-110192772D01*
X99772626Y-110195881D01*
X99772622Y-110195892D01*
X99770503Y-110201009D01*
X99726614Y-110306965D01*
X99708305Y-110399013D01*
X99707010Y-110405518D01*
X99707009Y-110405525D01*
X99702500Y-110428196D01*
X99702500Y-121098664D01*
X99682815Y-121165703D01*
X99630011Y-121211458D01*
X99560853Y-121221402D01*
X99540182Y-121216595D01*
X99364536Y-121159524D01*
X99212896Y-121135506D01*
X99162351Y-121127501D01*
X98957647Y-121127501D01*
X98947034Y-121129182D01*
X98755464Y-121159523D01*
X98560775Y-121222782D01*
X98378385Y-121315716D01*
X98212785Y-121436029D01*
X98068027Y-121580787D01*
X97947714Y-121746387D01*
X97900484Y-121839081D01*
X97852509Y-121889877D01*
X97784688Y-121906672D01*
X97718553Y-121884135D01*
X97679514Y-121839081D01*
X97678882Y-121837841D01*
X97632286Y-121746391D01*
X97624555Y-121735750D01*
X97511970Y-121580787D01*
X97367212Y-121436029D01*
X97201612Y-121315716D01*
X97201611Y-121315715D01*
X97201609Y-121315714D01*
X97132023Y-121280258D01*
X97019222Y-121222782D01*
X96824533Y-121159523D01*
X96632964Y-121129182D01*
X96622351Y-121127501D01*
X96417647Y-121127501D01*
X96407034Y-121129182D01*
X96215464Y-121159523D01*
X96020775Y-121222782D01*
X95838385Y-121315716D01*
X95672785Y-121436029D01*
X95528027Y-121580787D01*
X95407714Y-121746387D01*
X95360484Y-121839081D01*
X95312509Y-121889877D01*
X95244688Y-121906672D01*
X95178553Y-121884135D01*
X95139514Y-121839081D01*
X95138882Y-121837841D01*
X95092286Y-121746391D01*
X95084555Y-121735750D01*
X94971970Y-121580787D01*
X94827212Y-121436029D01*
X94661612Y-121315716D01*
X94661611Y-121315715D01*
X94661609Y-121315714D01*
X94592023Y-121280258D01*
X94479222Y-121222782D01*
X94284533Y-121159523D01*
X94092964Y-121129182D01*
X94082351Y-121127501D01*
X93877647Y-121127501D01*
X93867034Y-121129182D01*
X93675464Y-121159523D01*
X93480775Y-121222782D01*
X93298385Y-121315716D01*
X93132785Y-121436029D01*
X92988027Y-121580787D01*
X92867714Y-121746387D01*
X92820484Y-121839081D01*
X92772509Y-121889877D01*
X92704688Y-121906672D01*
X92638553Y-121884135D01*
X92599514Y-121839081D01*
X92598882Y-121837841D01*
X92552286Y-121746391D01*
X92544555Y-121735750D01*
X92431970Y-121580787D01*
X92287212Y-121436029D01*
X92121612Y-121315716D01*
X92121611Y-121315715D01*
X92121609Y-121315714D01*
X92052023Y-121280258D01*
X91939222Y-121222782D01*
X91744533Y-121159523D01*
X91552964Y-121129182D01*
X91542351Y-121127501D01*
X91337647Y-121127501D01*
X91327034Y-121129182D01*
X91135464Y-121159523D01*
X90940775Y-121222782D01*
X90758385Y-121315716D01*
X90592785Y-121436029D01*
X90448027Y-121580787D01*
X90327714Y-121746387D01*
X90234780Y-121928777D01*
X90171521Y-122123466D01*
X90139499Y-122325649D01*
X90139499Y-122530352D01*
X90171521Y-122732535D01*
X90234780Y-122927224D01*
X90327714Y-123109614D01*
X90448027Y-123275214D01*
X90592785Y-123419972D01*
X90747748Y-123532557D01*
X90758389Y-123540288D01*
X90872791Y-123598579D01*
X90940775Y-123633219D01*
X90940777Y-123633219D01*
X90940780Y-123633221D01*
X90970203Y-123642781D01*
X91135464Y-123696478D01*
X91183057Y-123704016D01*
X91337647Y-123728501D01*
X91337648Y-123728501D01*
X91542350Y-123728501D01*
X91542351Y-123728501D01*
X91744533Y-123696478D01*
X91939218Y-123633221D01*
X92121609Y-123540288D01*
X92214589Y-123472733D01*
X92287212Y-123419972D01*
X92287214Y-123419969D01*
X92287218Y-123419967D01*
X92431965Y-123275220D01*
X92431967Y-123275216D01*
X92431970Y-123275214D01*
X92552283Y-123109615D01*
X92552284Y-123109614D01*
X92552286Y-123109611D01*
X92599515Y-123016918D01*
X92647488Y-122966124D01*
X92715309Y-122949329D01*
X92781444Y-122971866D01*
X92820484Y-123016920D01*
X92867714Y-123109615D01*
X92988027Y-123275214D01*
X93132785Y-123419972D01*
X93287748Y-123532557D01*
X93298389Y-123540288D01*
X93412791Y-123598579D01*
X93480775Y-123633219D01*
X93480777Y-123633219D01*
X93480780Y-123633221D01*
X93510203Y-123642781D01*
X93675464Y-123696478D01*
X93723057Y-123704016D01*
X93877647Y-123728501D01*
X93877648Y-123728501D01*
X94082350Y-123728501D01*
X94082351Y-123728501D01*
X94284533Y-123696478D01*
X94479218Y-123633221D01*
X94661609Y-123540288D01*
X94754589Y-123472733D01*
X94827212Y-123419972D01*
X94827214Y-123419969D01*
X94827218Y-123419967D01*
X94971965Y-123275220D01*
X94971967Y-123275216D01*
X94971970Y-123275214D01*
X95092283Y-123109615D01*
X95092284Y-123109614D01*
X95092286Y-123109611D01*
X95139515Y-123016918D01*
X95187488Y-122966124D01*
X95255309Y-122949329D01*
X95321444Y-122971866D01*
X95360484Y-123016920D01*
X95407714Y-123109615D01*
X95528027Y-123275214D01*
X95672785Y-123419972D01*
X95827748Y-123532557D01*
X95838389Y-123540288D01*
X95952791Y-123598579D01*
X96020775Y-123633219D01*
X96020777Y-123633219D01*
X96020780Y-123633221D01*
X96050203Y-123642781D01*
X96215464Y-123696478D01*
X96263057Y-123704016D01*
X96417647Y-123728501D01*
X96417648Y-123728501D01*
X96622350Y-123728501D01*
X96622351Y-123728501D01*
X96824533Y-123696478D01*
X97019218Y-123633221D01*
X97201609Y-123540288D01*
X97294589Y-123472733D01*
X97367212Y-123419972D01*
X97367214Y-123419969D01*
X97367218Y-123419967D01*
X97511965Y-123275220D01*
X97511967Y-123275216D01*
X97511970Y-123275214D01*
X97632283Y-123109615D01*
X97632284Y-123109614D01*
X97632286Y-123109611D01*
X97679515Y-123016918D01*
X97727488Y-122966124D01*
X97795309Y-122949329D01*
X97861444Y-122971866D01*
X97900484Y-123016920D01*
X97947714Y-123109615D01*
X98068027Y-123275214D01*
X98212785Y-123419972D01*
X98367748Y-123532557D01*
X98378389Y-123540288D01*
X98492791Y-123598579D01*
X98560775Y-123633219D01*
X98560777Y-123633219D01*
X98560780Y-123633221D01*
X98590203Y-123642781D01*
X98755464Y-123696478D01*
X98803057Y-123704016D01*
X98957647Y-123728501D01*
X98957648Y-123728501D01*
X99162350Y-123728501D01*
X99162351Y-123728501D01*
X99364533Y-123696478D01*
X99540186Y-123639404D01*
X99610022Y-123637410D01*
X99669855Y-123673489D01*
X99700684Y-123736190D01*
X99702500Y-123757336D01*
X99702500Y-134046807D01*
X99726612Y-134168027D01*
X99726614Y-134168035D01*
X99760062Y-134248785D01*
X99773915Y-134282229D01*
X99773917Y-134282233D01*
X99808763Y-134334384D01*
X99808765Y-134334386D01*
X99842587Y-134385006D01*
X99842591Y-134385011D01*
X100934752Y-135477171D01*
X100968237Y-135538494D01*
X100963253Y-135608186D01*
X100921381Y-135664119D01*
X100881185Y-135684067D01*
X100803148Y-135706397D01*
X100632785Y-135795387D01*
X100550966Y-135862102D01*
X100486570Y-135889211D01*
X100472606Y-135890000D01*
X88135000Y-135890000D01*
X88067961Y-135870315D01*
X88022206Y-135817511D01*
X88011000Y-135766000D01*
X88011000Y-85722000D01*
X88030685Y-85654961D01*
X88083489Y-85609206D01*
X88135000Y-85598000D01*
X100404193Y-85598000D01*
X100471232Y-85617685D01*
G37*
%TD.AperFunction*%
%TA.AperFunction,Conductor*%
G36*
X147252548Y-99199185D02*
G01*
X147298303Y-99251989D01*
X147303214Y-99264494D01*
X147355186Y-99421334D01*
X147447288Y-99570656D01*
X147571344Y-99694712D01*
X147720666Y-99786814D01*
X147877504Y-99838785D01*
X147897536Y-99852655D01*
X147919703Y-99862778D01*
X147925751Y-99872190D01*
X147934949Y-99878558D01*
X147944302Y-99901056D01*
X147957477Y-99921556D01*
X147959935Y-99938657D01*
X147961772Y-99943074D01*
X147962500Y-99956491D01*
X147962500Y-100145719D01*
X147942815Y-100212758D01*
X147926181Y-100233400D01*
X147096400Y-101063181D01*
X147035077Y-101096666D01*
X147008719Y-101099500D01*
X142432192Y-101099500D01*
X142310972Y-101123612D01*
X142310964Y-101123614D01*
X142252008Y-101148035D01*
X142196770Y-101170915D01*
X142142017Y-101207500D01*
X142093989Y-101239590D01*
X142093986Y-101239593D01*
X138635762Y-104697819D01*
X137902992Y-105430589D01*
X137859289Y-105474292D01*
X137815586Y-105517994D01*
X137815585Y-105517996D01*
X137746842Y-105620877D01*
X137746752Y-105621164D01*
X137699614Y-105734965D01*
X137679869Y-105834232D01*
X137678601Y-105840607D01*
X137675500Y-105856196D01*
X137675500Y-129474807D01*
X137699612Y-129596028D01*
X137699614Y-129596035D01*
X137711405Y-129624500D01*
X137746917Y-129710233D01*
X137781764Y-129762385D01*
X137785718Y-129768302D01*
X137815587Y-129813006D01*
X137815591Y-129813011D01*
X141576180Y-133573599D01*
X141609665Y-133634922D01*
X141612499Y-133661280D01*
X141612499Y-135564444D01*
X141592814Y-135631483D01*
X141540010Y-135677238D01*
X141522612Y-135683659D01*
X141443149Y-135706396D01*
X141272785Y-135795387D01*
X141190966Y-135862102D01*
X141126570Y-135889211D01*
X141112606Y-135890000D01*
X140827392Y-135890000D01*
X140760353Y-135870315D01*
X140749032Y-135862102D01*
X140667212Y-135795387D01*
X140667208Y-135795385D01*
X140667207Y-135795384D01*
X140496854Y-135706399D01*
X140496853Y-135706398D01*
X140496848Y-135706396D01*
X140417386Y-135683659D01*
X140358349Y-135646292D01*
X140328886Y-135582938D01*
X140327499Y-135564444D01*
X140327499Y-133923193D01*
X140303385Y-133801969D01*
X140303384Y-133801968D01*
X140303384Y-133801964D01*
X140299591Y-133792807D01*
X140256085Y-133687772D01*
X140256078Y-133687759D01*
X140187411Y-133584992D01*
X140176018Y-133573599D01*
X140100007Y-133497588D01*
X135661113Y-129058694D01*
X131210011Y-124607591D01*
X131210010Y-124607590D01*
X131202275Y-124602422D01*
X131190419Y-124594500D01*
X131107233Y-124538917D01*
X131051991Y-124516035D01*
X131045126Y-124513191D01*
X131045122Y-124513189D01*
X130993035Y-124491614D01*
X130993027Y-124491612D01*
X130871807Y-124467500D01*
X130871803Y-124467500D01*
X128200281Y-124467500D01*
X128133242Y-124447815D01*
X128112600Y-124431181D01*
X127663819Y-123982400D01*
X127630334Y-123921077D01*
X127627500Y-123894719D01*
X127627500Y-123642781D01*
X127647185Y-123575742D01*
X127678615Y-123542462D01*
X127681603Y-123540290D01*
X127681609Y-123540288D01*
X127847218Y-123419967D01*
X127991965Y-123275220D01*
X127991967Y-123275216D01*
X127991970Y-123275214D01*
X128112283Y-123109615D01*
X128112284Y-123109614D01*
X128112286Y-123109611D01*
X128159515Y-123016918D01*
X128207488Y-122966124D01*
X128275309Y-122949329D01*
X128341444Y-122971866D01*
X128380484Y-123016920D01*
X128427714Y-123109615D01*
X128548027Y-123275214D01*
X128692785Y-123419972D01*
X128847748Y-123532557D01*
X128858389Y-123540288D01*
X128972791Y-123598579D01*
X129040775Y-123633219D01*
X129040777Y-123633219D01*
X129040780Y-123633221D01*
X129070203Y-123642781D01*
X129235464Y-123696478D01*
X129283057Y-123704016D01*
X129437647Y-123728501D01*
X129437648Y-123728501D01*
X129642350Y-123728501D01*
X129642351Y-123728501D01*
X129844533Y-123696478D01*
X129844544Y-123696474D01*
X129849268Y-123695341D01*
X129849368Y-123695758D01*
X129882567Y-123690501D01*
X132762684Y-123690501D01*
X132818979Y-123704016D01*
X132850776Y-123720218D01*
X132850778Y-123720218D01*
X132850781Y-123720220D01*
X132899932Y-123736190D01*
X133045465Y-123783477D01*
X133146557Y-123799488D01*
X133247648Y-123815500D01*
X133247649Y-123815500D01*
X133452351Y-123815500D01*
X133452352Y-123815500D01*
X133654534Y-123783477D01*
X133849219Y-123720220D01*
X134031610Y-123627287D01*
X134124590Y-123559732D01*
X134197213Y-123506971D01*
X134197215Y-123506968D01*
X134197219Y-123506966D01*
X134341966Y-123362219D01*
X134462287Y-123196610D01*
X134462288Y-123196606D01*
X134464826Y-123192466D01*
X134465193Y-123192691D01*
X134484953Y-123165489D01*
X136852981Y-120797464D01*
X136969786Y-120636695D01*
X137060005Y-120459632D01*
X137121413Y-120270637D01*
X137152500Y-120074366D01*
X137152500Y-104294639D01*
X137149254Y-104274147D01*
X137121413Y-104098364D01*
X137060005Y-103909368D01*
X137060005Y-103909367D01*
X137005417Y-103802233D01*
X136969787Y-103732306D01*
X136852981Y-103571536D01*
X136712464Y-103431019D01*
X136712463Y-103431018D01*
X136709352Y-103427907D01*
X136709337Y-103427893D01*
X132775465Y-99494021D01*
X132775463Y-99494019D01*
X132651311Y-99403817D01*
X132608647Y-99348488D01*
X132602668Y-99278874D01*
X132635274Y-99217079D01*
X132696113Y-99182722D01*
X132724198Y-99179500D01*
X147185509Y-99179500D01*
X147252548Y-99199185D01*
G37*
%TD.AperFunction*%
%TA.AperFunction,Conductor*%
G36*
X131099125Y-87642185D02*
G01*
X131144880Y-87694989D01*
X131154824Y-87764147D01*
X131125799Y-87827703D01*
X131104971Y-87846818D01*
X131073214Y-87869890D01*
X131073209Y-87869894D01*
X130922890Y-88020213D01*
X130797951Y-88192179D01*
X130701444Y-88381585D01*
X130635753Y-88583760D01*
X130602500Y-88793713D01*
X130602500Y-89006286D01*
X130635753Y-89216239D01*
X130701444Y-89418414D01*
X130797951Y-89607820D01*
X130922890Y-89779786D01*
X131073213Y-89930109D01*
X131245179Y-90055048D01*
X131245181Y-90055049D01*
X131245184Y-90055051D01*
X131434588Y-90151557D01*
X131636757Y-90217246D01*
X131846713Y-90250500D01*
X131846714Y-90250500D01*
X132059286Y-90250500D01*
X132059287Y-90250500D01*
X132269243Y-90217246D01*
X132471412Y-90151557D01*
X132660816Y-90055051D01*
X132754529Y-89986965D01*
X132832784Y-89930110D01*
X132832784Y-89930109D01*
X132832792Y-89930104D01*
X132946329Y-89816566D01*
X133007648Y-89783084D01*
X133077340Y-89788068D01*
X133133274Y-89829939D01*
X133150189Y-89860917D01*
X133199202Y-89992328D01*
X133199206Y-89992335D01*
X133285452Y-90107544D01*
X133285455Y-90107547D01*
X133400664Y-90193793D01*
X133400671Y-90193797D01*
X133535517Y-90244091D01*
X133535516Y-90244091D01*
X133542444Y-90244835D01*
X133595127Y-90250500D01*
X135390872Y-90250499D01*
X135450483Y-90244091D01*
X135585331Y-90193796D01*
X135700546Y-90107546D01*
X135786796Y-89992331D01*
X135837091Y-89857483D01*
X135843500Y-89797873D01*
X135843499Y-88002128D01*
X135837091Y-87942517D01*
X135786796Y-87807669D01*
X135786795Y-87807667D01*
X135785847Y-87805930D01*
X135785425Y-87803994D01*
X135783697Y-87799359D01*
X135784363Y-87799110D01*
X135770993Y-87737658D01*
X135795407Y-87672193D01*
X135851340Y-87630320D01*
X135894677Y-87622500D01*
X147203500Y-87622500D01*
X147270539Y-87642185D01*
X147316294Y-87694989D01*
X147327500Y-87746500D01*
X147327500Y-89545500D01*
X147307815Y-89612539D01*
X147255011Y-89658294D01*
X147203500Y-89669500D01*
X145122568Y-89669500D01*
X145089369Y-89664242D01*
X145089269Y-89664660D01*
X145084530Y-89663522D01*
X144943364Y-89641163D01*
X144882352Y-89631500D01*
X144677648Y-89631500D01*
X144653329Y-89635351D01*
X144475465Y-89663522D01*
X144280776Y-89726781D01*
X144098386Y-89819715D01*
X143932786Y-89940028D01*
X143788028Y-90084786D01*
X143667715Y-90250386D01*
X143574781Y-90432776D01*
X143511522Y-90627465D01*
X143479500Y-90829648D01*
X143479500Y-91034351D01*
X143511522Y-91236534D01*
X143574781Y-91431223D01*
X143667715Y-91613613D01*
X143788028Y-91779213D01*
X143932786Y-91923971D01*
X144087749Y-92036556D01*
X144098390Y-92044287D01*
X144214607Y-92103503D01*
X144280776Y-92137218D01*
X144280778Y-92137218D01*
X144280781Y-92137220D01*
X144360287Y-92163053D01*
X144475465Y-92200477D01*
X144528065Y-92208808D01*
X144677648Y-92232500D01*
X144677649Y-92232500D01*
X144882351Y-92232500D01*
X144882352Y-92232500D01*
X145084534Y-92200477D01*
X145084545Y-92200473D01*
X145089269Y-92199340D01*
X145089369Y-92199757D01*
X145122568Y-92194500D01*
X148247432Y-92194500D01*
X148280630Y-92199757D01*
X148280731Y-92199340D01*
X148285457Y-92200474D01*
X148285466Y-92200477D01*
X148487648Y-92232500D01*
X148487649Y-92232500D01*
X148692351Y-92232500D01*
X148692352Y-92232500D01*
X148894534Y-92200477D01*
X149089219Y-92137220D01*
X149271610Y-92044287D01*
X149386550Y-91960779D01*
X149437213Y-91923971D01*
X149437215Y-91923968D01*
X149437219Y-91923966D01*
X149581966Y-91779219D01*
X149581968Y-91779215D01*
X149581971Y-91779213D01*
X149702284Y-91613614D01*
X149702285Y-91613613D01*
X149702287Y-91613610D01*
X149749516Y-91520917D01*
X149797489Y-91470123D01*
X149865310Y-91453328D01*
X149931445Y-91475865D01*
X149970483Y-91520917D01*
X150007922Y-91594394D01*
X150017715Y-91613614D01*
X150138028Y-91779213D01*
X150282786Y-91923971D01*
X150437749Y-92036556D01*
X150448390Y-92044287D01*
X150564607Y-92103503D01*
X150630776Y-92137218D01*
X150630778Y-92137218D01*
X150630781Y-92137220D01*
X150710287Y-92163053D01*
X150825465Y-92200477D01*
X150878065Y-92208808D01*
X151027648Y-92232500D01*
X151027649Y-92232500D01*
X151232351Y-92232500D01*
X151232352Y-92232500D01*
X151434534Y-92200477D01*
X151629219Y-92137220D01*
X151811610Y-92044287D01*
X151926550Y-91960779D01*
X151977213Y-91923971D01*
X151977215Y-91923968D01*
X151977219Y-91923966D01*
X152121966Y-91779219D01*
X152121968Y-91779215D01*
X152121971Y-91779213D01*
X152242284Y-91613614D01*
X152242285Y-91613613D01*
X152242287Y-91613610D01*
X152289516Y-91520917D01*
X152337489Y-91470123D01*
X152405310Y-91453328D01*
X152471445Y-91475865D01*
X152510483Y-91520917D01*
X152547922Y-91594394D01*
X152557715Y-91613614D01*
X152678028Y-91779213D01*
X152822786Y-91923971D01*
X152977749Y-92036556D01*
X152988390Y-92044287D01*
X153104607Y-92103503D01*
X153170776Y-92137218D01*
X153170778Y-92137218D01*
X153170781Y-92137220D01*
X153250287Y-92163053D01*
X153365465Y-92200477D01*
X153418065Y-92208808D01*
X153567648Y-92232500D01*
X153567649Y-92232500D01*
X153772351Y-92232500D01*
X153772352Y-92232500D01*
X153974534Y-92200477D01*
X154169219Y-92137220D01*
X154351610Y-92044287D01*
X154466550Y-91960779D01*
X154517213Y-91923971D01*
X154517215Y-91923968D01*
X154517219Y-91923966D01*
X154661966Y-91779219D01*
X154661968Y-91779215D01*
X154661971Y-91779213D01*
X154782284Y-91613614D01*
X154782285Y-91613613D01*
X154782287Y-91613610D01*
X154829516Y-91520917D01*
X154877489Y-91470123D01*
X154945310Y-91453328D01*
X155011445Y-91475865D01*
X155050483Y-91520917D01*
X155087922Y-91594394D01*
X155097715Y-91613614D01*
X155218028Y-91779213D01*
X155362786Y-91923971D01*
X155517749Y-92036556D01*
X155528390Y-92044287D01*
X155644607Y-92103503D01*
X155710776Y-92137218D01*
X155710778Y-92137218D01*
X155710781Y-92137220D01*
X155790287Y-92163053D01*
X155905465Y-92200477D01*
X155958065Y-92208808D01*
X156107648Y-92232500D01*
X156107649Y-92232500D01*
X156312351Y-92232500D01*
X156312352Y-92232500D01*
X156514534Y-92200477D01*
X156709219Y-92137220D01*
X156891610Y-92044287D01*
X157006550Y-91960779D01*
X157057213Y-91923971D01*
X157057215Y-91923968D01*
X157057219Y-91923966D01*
X157201966Y-91779219D01*
X157201968Y-91779215D01*
X157201971Y-91779213D01*
X157322284Y-91613614D01*
X157322285Y-91613613D01*
X157322287Y-91613610D01*
X157369516Y-91520917D01*
X157417489Y-91470123D01*
X157485310Y-91453328D01*
X157551445Y-91475865D01*
X157590483Y-91520917D01*
X157627922Y-91594394D01*
X157637715Y-91613614D01*
X157758028Y-91779213D01*
X157902786Y-91923971D01*
X158057749Y-92036556D01*
X158068390Y-92044287D01*
X158184607Y-92103503D01*
X158250776Y-92137218D01*
X158250778Y-92137218D01*
X158250781Y-92137220D01*
X158330287Y-92163053D01*
X158445465Y-92200477D01*
X158498065Y-92208808D01*
X158647648Y-92232500D01*
X158647649Y-92232500D01*
X158852351Y-92232500D01*
X158852352Y-92232500D01*
X159054534Y-92200477D01*
X159249219Y-92137220D01*
X159431610Y-92044287D01*
X159546550Y-91960779D01*
X159597213Y-91923971D01*
X159597215Y-91923968D01*
X159597219Y-91923966D01*
X159741966Y-91779219D01*
X159741968Y-91779215D01*
X159741971Y-91779213D01*
X159862284Y-91613614D01*
X159862285Y-91613613D01*
X159862287Y-91613610D01*
X159909516Y-91520917D01*
X159957489Y-91470123D01*
X160025310Y-91453328D01*
X160091445Y-91475865D01*
X160130483Y-91520917D01*
X160167922Y-91594394D01*
X160177715Y-91613614D01*
X160298028Y-91779213D01*
X160442786Y-91923971D01*
X160597749Y-92036556D01*
X160608390Y-92044287D01*
X160724607Y-92103503D01*
X160790776Y-92137218D01*
X160790778Y-92137218D01*
X160790781Y-92137220D01*
X160870287Y-92163053D01*
X160985465Y-92200477D01*
X161038065Y-92208808D01*
X161187648Y-92232500D01*
X161187649Y-92232500D01*
X161392351Y-92232500D01*
X161392352Y-92232500D01*
X161594534Y-92200477D01*
X161789219Y-92137220D01*
X161971610Y-92044287D01*
X162086550Y-91960779D01*
X162137213Y-91923971D01*
X162137215Y-91923968D01*
X162137219Y-91923966D01*
X162281966Y-91779219D01*
X162281968Y-91779215D01*
X162281971Y-91779213D01*
X162402284Y-91613614D01*
X162402285Y-91613613D01*
X162402287Y-91613610D01*
X162449516Y-91520917D01*
X162497489Y-91470123D01*
X162565310Y-91453328D01*
X162631445Y-91475865D01*
X162670483Y-91520917D01*
X162707922Y-91594394D01*
X162717715Y-91613614D01*
X162838028Y-91779213D01*
X162982786Y-91923971D01*
X163137749Y-92036556D01*
X163148390Y-92044287D01*
X163264607Y-92103503D01*
X163330776Y-92137218D01*
X163330778Y-92137218D01*
X163330781Y-92137220D01*
X163410287Y-92163053D01*
X163525465Y-92200477D01*
X163578065Y-92208808D01*
X163727648Y-92232500D01*
X163727649Y-92232500D01*
X163932351Y-92232500D01*
X163932352Y-92232500D01*
X164134534Y-92200477D01*
X164329219Y-92137220D01*
X164511610Y-92044287D01*
X164626550Y-91960779D01*
X164677213Y-91923971D01*
X164677215Y-91923968D01*
X164677219Y-91923966D01*
X164821966Y-91779219D01*
X164821968Y-91779215D01*
X164821971Y-91779213D01*
X164942284Y-91613614D01*
X164942285Y-91613613D01*
X164942287Y-91613610D01*
X164989516Y-91520917D01*
X165037489Y-91470123D01*
X165105310Y-91453328D01*
X165171445Y-91475865D01*
X165210483Y-91520917D01*
X165247922Y-91594394D01*
X165257715Y-91613614D01*
X165378028Y-91779213D01*
X165522786Y-91923971D01*
X165677749Y-92036556D01*
X165688390Y-92044287D01*
X165804607Y-92103503D01*
X165870776Y-92137218D01*
X165870778Y-92137218D01*
X165870781Y-92137220D01*
X165950287Y-92163053D01*
X166065465Y-92200477D01*
X166118065Y-92208808D01*
X166267648Y-92232500D01*
X166267649Y-92232500D01*
X166472351Y-92232500D01*
X166472352Y-92232500D01*
X166674534Y-92200477D01*
X166869219Y-92137220D01*
X167051610Y-92044287D01*
X167166550Y-91960779D01*
X167217213Y-91923971D01*
X167217215Y-91923968D01*
X167217219Y-91923966D01*
X167361966Y-91779219D01*
X167361968Y-91779215D01*
X167361971Y-91779213D01*
X167429979Y-91685606D01*
X167482287Y-91613610D01*
X167575220Y-91431219D01*
X167638477Y-91236534D01*
X167670500Y-91034352D01*
X167670500Y-90829648D01*
X167655858Y-90737203D01*
X167638477Y-90627465D01*
X167580176Y-90448034D01*
X167575220Y-90432781D01*
X167575218Y-90432778D01*
X167575218Y-90432776D01*
X167521553Y-90327454D01*
X167482287Y-90250390D01*
X167471283Y-90235244D01*
X167361971Y-90084786D01*
X167217213Y-89940028D01*
X167051613Y-89819715D01*
X167051612Y-89819714D01*
X167051610Y-89819713D01*
X166973249Y-89779786D01*
X166869223Y-89726781D01*
X166674534Y-89663522D01*
X166499995Y-89635878D01*
X166472352Y-89631500D01*
X166267648Y-89631500D01*
X166243329Y-89635351D01*
X166065465Y-89663522D01*
X165870776Y-89726781D01*
X165688386Y-89819715D01*
X165522786Y-89940028D01*
X165378028Y-90084786D01*
X165257715Y-90250386D01*
X165210485Y-90343080D01*
X165162510Y-90393876D01*
X165094689Y-90410671D01*
X165028554Y-90388134D01*
X164989515Y-90343080D01*
X164981553Y-90327454D01*
X164942287Y-90250390D01*
X164931283Y-90235244D01*
X164821971Y-90084786D01*
X164677213Y-89940028D01*
X164511613Y-89819715D01*
X164511612Y-89819714D01*
X164511610Y-89819713D01*
X164433249Y-89779786D01*
X164329223Y-89726781D01*
X164134534Y-89663522D01*
X163959995Y-89635878D01*
X163932352Y-89631500D01*
X163727648Y-89631500D01*
X163703329Y-89635351D01*
X163525465Y-89663522D01*
X163330776Y-89726781D01*
X163148386Y-89819715D01*
X162982786Y-89940028D01*
X162838028Y-90084786D01*
X162717715Y-90250386D01*
X162670485Y-90343080D01*
X162622510Y-90393876D01*
X162554689Y-90410671D01*
X162488554Y-90388134D01*
X162449515Y-90343080D01*
X162441553Y-90327454D01*
X162402287Y-90250390D01*
X162391283Y-90235244D01*
X162281971Y-90084786D01*
X162137213Y-89940028D01*
X161971613Y-89819715D01*
X161971612Y-89819714D01*
X161971610Y-89819713D01*
X161893249Y-89779786D01*
X161789223Y-89726781D01*
X161594534Y-89663522D01*
X161419995Y-89635878D01*
X161392352Y-89631500D01*
X161187648Y-89631500D01*
X161163329Y-89635351D01*
X160985465Y-89663522D01*
X160790776Y-89726781D01*
X160608386Y-89819715D01*
X160442786Y-89940028D01*
X160298028Y-90084786D01*
X160177715Y-90250386D01*
X160130485Y-90343080D01*
X160082510Y-90393876D01*
X160014689Y-90410671D01*
X159948554Y-90388134D01*
X159909515Y-90343080D01*
X159901553Y-90327454D01*
X159862287Y-90250390D01*
X159851283Y-90235244D01*
X159741971Y-90084786D01*
X159597213Y-89940028D01*
X159431613Y-89819715D01*
X159431612Y-89819714D01*
X159431610Y-89819713D01*
X159353249Y-89779786D01*
X159249223Y-89726781D01*
X159054534Y-89663522D01*
X158879995Y-89635878D01*
X158852352Y-89631500D01*
X158647648Y-89631500D01*
X158623329Y-89635351D01*
X158445465Y-89663522D01*
X158250776Y-89726781D01*
X158068386Y-89819715D01*
X157902786Y-89940028D01*
X157758028Y-90084786D01*
X157637715Y-90250386D01*
X157590485Y-90343080D01*
X157542510Y-90393876D01*
X157474689Y-90410671D01*
X157408554Y-90388134D01*
X157369515Y-90343080D01*
X157361553Y-90327454D01*
X157322287Y-90250390D01*
X157311283Y-90235244D01*
X157201971Y-90084786D01*
X157057213Y-89940028D01*
X156891613Y-89819715D01*
X156891612Y-89819714D01*
X156891610Y-89819713D01*
X156813249Y-89779786D01*
X156709223Y-89726781D01*
X156514534Y-89663522D01*
X156339995Y-89635878D01*
X156312352Y-89631500D01*
X156107648Y-89631500D01*
X156083329Y-89635351D01*
X155905465Y-89663522D01*
X155710776Y-89726781D01*
X155528386Y-89819715D01*
X155362786Y-89940028D01*
X155218028Y-90084786D01*
X155097715Y-90250386D01*
X155050485Y-90343080D01*
X155002510Y-90393876D01*
X154934689Y-90410671D01*
X154868554Y-90388134D01*
X154829515Y-90343080D01*
X154821553Y-90327454D01*
X154782287Y-90250390D01*
X154771283Y-90235244D01*
X154661971Y-90084786D01*
X154517213Y-89940028D01*
X154351613Y-89819715D01*
X154351612Y-89819714D01*
X154351610Y-89819713D01*
X154273249Y-89779786D01*
X154169223Y-89726781D01*
X153974534Y-89663522D01*
X153799995Y-89635878D01*
X153772352Y-89631500D01*
X153567648Y-89631500D01*
X153543329Y-89635351D01*
X153365465Y-89663522D01*
X153170776Y-89726781D01*
X152988386Y-89819715D01*
X152822786Y-89940028D01*
X152678028Y-90084786D01*
X152557715Y-90250386D01*
X152510485Y-90343080D01*
X152462510Y-90393876D01*
X152394689Y-90410671D01*
X152328554Y-90388134D01*
X152289515Y-90343080D01*
X152281553Y-90327454D01*
X152242287Y-90250390D01*
X152231283Y-90235244D01*
X152121971Y-90084786D01*
X151977213Y-89940028D01*
X151811613Y-89819715D01*
X151811612Y-89819714D01*
X151811610Y-89819713D01*
X151733249Y-89779786D01*
X151629223Y-89726781D01*
X151434534Y-89663522D01*
X151259995Y-89635878D01*
X151232352Y-89631500D01*
X151027648Y-89631500D01*
X151003329Y-89635351D01*
X150825465Y-89663522D01*
X150630776Y-89726781D01*
X150448386Y-89819715D01*
X150282786Y-89940028D01*
X150138028Y-90084786D01*
X150076818Y-90169037D01*
X150021489Y-90211703D01*
X149951875Y-90217682D01*
X149890080Y-90185077D01*
X149855723Y-90124238D01*
X149852500Y-90096152D01*
X149852500Y-87746500D01*
X149872185Y-87679461D01*
X149924989Y-87633706D01*
X149976500Y-87622500D01*
X172907694Y-87622500D01*
X172974733Y-87642185D01*
X172995375Y-87658819D01*
X176501181Y-91164625D01*
X176534666Y-91225948D01*
X176537500Y-91252306D01*
X176537500Y-115921500D01*
X176517815Y-115988539D01*
X176465011Y-116034294D01*
X176413500Y-116045500D01*
X174840568Y-116045500D01*
X174807369Y-116040242D01*
X174807269Y-116040660D01*
X174802530Y-116039522D01*
X174652629Y-116015780D01*
X174600352Y-116007500D01*
X174395648Y-116007500D01*
X174348779Y-116014923D01*
X174193469Y-116039522D01*
X174188731Y-116040660D01*
X174188630Y-116040242D01*
X174155432Y-116045500D01*
X172037318Y-116045500D01*
X171981023Y-116031985D01*
X171949223Y-116015781D01*
X171754534Y-115952522D01*
X171579995Y-115924878D01*
X171552352Y-115920500D01*
X171347648Y-115920500D01*
X171323329Y-115924351D01*
X171145465Y-115952522D01*
X170950776Y-116015781D01*
X170768386Y-116108715D01*
X170602786Y-116229028D01*
X170458028Y-116373786D01*
X170337715Y-116539386D01*
X170290485Y-116632080D01*
X170242510Y-116682876D01*
X170174689Y-116699671D01*
X170108554Y-116677134D01*
X170069515Y-116632080D01*
X170068883Y-116630840D01*
X170022287Y-116539390D01*
X170014556Y-116528749D01*
X169901971Y-116373786D01*
X169757213Y-116229028D01*
X169591613Y-116108715D01*
X169591612Y-116108714D01*
X169591610Y-116108713D01*
X169534653Y-116079691D01*
X169409223Y-116015781D01*
X169214534Y-115952522D01*
X169039995Y-115924878D01*
X169012352Y-115920500D01*
X168807648Y-115920500D01*
X168783329Y-115924351D01*
X168605465Y-115952522D01*
X168410776Y-116015781D01*
X168228386Y-116108715D01*
X168062786Y-116229028D01*
X167918028Y-116373786D01*
X167797715Y-116539386D01*
X167750485Y-116632080D01*
X167702510Y-116682876D01*
X167634689Y-116699671D01*
X167568554Y-116677134D01*
X167529515Y-116632080D01*
X167528883Y-116630840D01*
X167482287Y-116539390D01*
X167474556Y-116528749D01*
X167361971Y-116373786D01*
X167217213Y-116229028D01*
X167051613Y-116108715D01*
X167051612Y-116108714D01*
X167051610Y-116108713D01*
X166994653Y-116079691D01*
X166869223Y-116015781D01*
X166674534Y-115952522D01*
X166499995Y-115924878D01*
X166472352Y-115920500D01*
X166267648Y-115920500D01*
X166243329Y-115924351D01*
X166065465Y-115952522D01*
X165870776Y-116015781D01*
X165688386Y-116108715D01*
X165522786Y-116229028D01*
X165378028Y-116373786D01*
X165257715Y-116539386D01*
X165210485Y-116632080D01*
X165162510Y-116682876D01*
X165094689Y-116699671D01*
X165028554Y-116677134D01*
X164989515Y-116632080D01*
X164988883Y-116630840D01*
X164942287Y-116539390D01*
X164934556Y-116528749D01*
X164821971Y-116373786D01*
X164677213Y-116229028D01*
X164511613Y-116108715D01*
X164511612Y-116108714D01*
X164511610Y-116108713D01*
X164454653Y-116079691D01*
X164329223Y-116015781D01*
X164134534Y-115952522D01*
X163959995Y-115924878D01*
X163932352Y-115920500D01*
X163727648Y-115920500D01*
X163703329Y-115924351D01*
X163525465Y-115952522D01*
X163330776Y-116015781D01*
X163148386Y-116108715D01*
X162982786Y-116229028D01*
X162838028Y-116373786D01*
X162717715Y-116539386D01*
X162670485Y-116632080D01*
X162622510Y-116682876D01*
X162554689Y-116699671D01*
X162488554Y-116677134D01*
X162449515Y-116632080D01*
X162448883Y-116630840D01*
X162402287Y-116539390D01*
X162394556Y-116528749D01*
X162281971Y-116373786D01*
X162137213Y-116229028D01*
X161971613Y-116108715D01*
X161971612Y-116108714D01*
X161971610Y-116108713D01*
X161914653Y-116079691D01*
X161789223Y-116015781D01*
X161594534Y-115952522D01*
X161419995Y-115924878D01*
X161392352Y-115920500D01*
X161187648Y-115920500D01*
X161163329Y-115924351D01*
X160985465Y-115952522D01*
X160790776Y-116015781D01*
X160608386Y-116108715D01*
X160442786Y-116229028D01*
X160298028Y-116373786D01*
X160177715Y-116539386D01*
X160130485Y-116632080D01*
X160082510Y-116682876D01*
X160014689Y-116699671D01*
X159948554Y-116677134D01*
X159909515Y-116632080D01*
X159908883Y-116630840D01*
X159862287Y-116539390D01*
X159854556Y-116528749D01*
X159741971Y-116373786D01*
X159597213Y-116229028D01*
X159431613Y-116108715D01*
X159431612Y-116108714D01*
X159431610Y-116108713D01*
X159374653Y-116079691D01*
X159249223Y-116015781D01*
X159054534Y-115952522D01*
X158879995Y-115924878D01*
X158852352Y-115920500D01*
X158647648Y-115920500D01*
X158623329Y-115924351D01*
X158445465Y-115952522D01*
X158250776Y-116015781D01*
X158068386Y-116108715D01*
X157902786Y-116229028D01*
X157758028Y-116373786D01*
X157637715Y-116539386D01*
X157590485Y-116632080D01*
X157542510Y-116682876D01*
X157474689Y-116699671D01*
X157408554Y-116677134D01*
X157369515Y-116632080D01*
X157368883Y-116630840D01*
X157322287Y-116539390D01*
X157314556Y-116528749D01*
X157201971Y-116373786D01*
X157057213Y-116229028D01*
X156891613Y-116108715D01*
X156891612Y-116108714D01*
X156891610Y-116108713D01*
X156834653Y-116079691D01*
X156709223Y-116015781D01*
X156514534Y-115952522D01*
X156339995Y-115924878D01*
X156312352Y-115920500D01*
X156107648Y-115920500D01*
X156083329Y-115924351D01*
X155905465Y-115952522D01*
X155710776Y-116015781D01*
X155528386Y-116108715D01*
X155362786Y-116229028D01*
X155218028Y-116373786D01*
X155097715Y-116539386D01*
X155050485Y-116632080D01*
X155002510Y-116682876D01*
X154934689Y-116699671D01*
X154868554Y-116677134D01*
X154829515Y-116632080D01*
X154828883Y-116630840D01*
X154782287Y-116539390D01*
X154774556Y-116528749D01*
X154661971Y-116373786D01*
X154517213Y-116229028D01*
X154351613Y-116108715D01*
X154351612Y-116108714D01*
X154351610Y-116108713D01*
X154294653Y-116079691D01*
X154169223Y-116015781D01*
X153974534Y-115952522D01*
X153799995Y-115924878D01*
X153772352Y-115920500D01*
X153567648Y-115920500D01*
X153543329Y-115924351D01*
X153365465Y-115952522D01*
X153170776Y-116015781D01*
X152988386Y-116108715D01*
X152822786Y-116229028D01*
X152678028Y-116373786D01*
X152557715Y-116539386D01*
X152510485Y-116632080D01*
X152462510Y-116682876D01*
X152394689Y-116699671D01*
X152328554Y-116677134D01*
X152289515Y-116632080D01*
X152288883Y-116630840D01*
X152242287Y-116539390D01*
X152234556Y-116528749D01*
X152121971Y-116373786D01*
X151977213Y-116229028D01*
X151811613Y-116108715D01*
X151811612Y-116108714D01*
X151811610Y-116108713D01*
X151754653Y-116079691D01*
X151629223Y-116015781D01*
X151434534Y-115952522D01*
X151259995Y-115924878D01*
X151232352Y-115920500D01*
X151027648Y-115920500D01*
X151003329Y-115924351D01*
X150825465Y-115952522D01*
X150630776Y-116015781D01*
X150448386Y-116108715D01*
X150282786Y-116229028D01*
X150138028Y-116373786D01*
X150017715Y-116539386D01*
X149970485Y-116632080D01*
X149922510Y-116682876D01*
X149854689Y-116699671D01*
X149788554Y-116677134D01*
X149749515Y-116632080D01*
X149748883Y-116630840D01*
X149702287Y-116539390D01*
X149694556Y-116528749D01*
X149581971Y-116373786D01*
X149437213Y-116229028D01*
X149271613Y-116108715D01*
X149271612Y-116108714D01*
X149271610Y-116108713D01*
X149214653Y-116079691D01*
X149089223Y-116015781D01*
X148894534Y-115952522D01*
X148719995Y-115924878D01*
X148692352Y-115920500D01*
X148487648Y-115920500D01*
X148463329Y-115924351D01*
X148285465Y-115952522D01*
X148090776Y-116015781D01*
X147908386Y-116108715D01*
X147742786Y-116229028D01*
X147598028Y-116373786D01*
X147477715Y-116539386D01*
X147384781Y-116721776D01*
X147321522Y-116916465D01*
X147289500Y-117118648D01*
X147289500Y-117323351D01*
X147321522Y-117525534D01*
X147384781Y-117720223D01*
X147435324Y-117819417D01*
X147467229Y-117882035D01*
X147477715Y-117902613D01*
X147598028Y-118068213D01*
X147742784Y-118212969D01*
X147781258Y-118240921D01*
X147908390Y-118333287D01*
X147908395Y-118333289D01*
X147911384Y-118335461D01*
X147954051Y-118390791D01*
X147962500Y-118435780D01*
X147962500Y-124648807D01*
X147986612Y-124770028D01*
X147986613Y-124770032D01*
X147986614Y-124770035D01*
X148008136Y-124821992D01*
X148033917Y-124884233D01*
X148052447Y-124911965D01*
X148056753Y-124918410D01*
X148056754Y-124918411D01*
X148102590Y-124987010D01*
X148102591Y-124987011D01*
X156816180Y-133700599D01*
X156849665Y-133761922D01*
X156852499Y-133788280D01*
X156852499Y-135564444D01*
X156832814Y-135631483D01*
X156780010Y-135677238D01*
X156762612Y-135683659D01*
X156683149Y-135706396D01*
X156512785Y-135795387D01*
X156430966Y-135862102D01*
X156366570Y-135889211D01*
X156352606Y-135890000D01*
X156067392Y-135890000D01*
X156000353Y-135870315D01*
X155989032Y-135862102D01*
X155907212Y-135795387D01*
X155907208Y-135795385D01*
X155907207Y-135795384D01*
X155736854Y-135706399D01*
X155736848Y-135706397D01*
X155552072Y-135653526D01*
X155481865Y-135647284D01*
X155439308Y-135643501D01*
X155439303Y-135643501D01*
X154440698Y-135643501D01*
X154440692Y-135643501D01*
X154440691Y-135643502D01*
X154429688Y-135644480D01*
X154327925Y-135653526D01*
X154143147Y-135706397D01*
X153972785Y-135795387D01*
X153890966Y-135862102D01*
X153826570Y-135889211D01*
X153812606Y-135890000D01*
X153527392Y-135890000D01*
X153460353Y-135870315D01*
X153449032Y-135862102D01*
X153367212Y-135795387D01*
X153367208Y-135795385D01*
X153367207Y-135795384D01*
X153196854Y-135706399D01*
X153196853Y-135706398D01*
X153196848Y-135706396D01*
X153117386Y-135683659D01*
X153058349Y-135646292D01*
X153028886Y-135582938D01*
X153027499Y-135564444D01*
X153027499Y-133351693D01*
X153003385Y-133230467D01*
X153003382Y-133230459D01*
X152956085Y-133116272D01*
X152956078Y-133116259D01*
X152887411Y-133013492D01*
X152861927Y-132988008D01*
X152800007Y-132926088D01*
X144173819Y-124299900D01*
X144140334Y-124238577D01*
X144137500Y-124212219D01*
X144137500Y-112205682D01*
X173198000Y-112205682D01*
X173198000Y-112410317D01*
X173230009Y-112612417D01*
X173293244Y-112807031D01*
X173386141Y-112989350D01*
X173386147Y-112989359D01*
X173418523Y-113033921D01*
X173418524Y-113033922D01*
X174098000Y-112354446D01*
X174098000Y-112360661D01*
X174125259Y-112462394D01*
X174177920Y-112553606D01*
X174252394Y-112628080D01*
X174343606Y-112680741D01*
X174445339Y-112708000D01*
X174451553Y-112708000D01*
X173772076Y-113387474D01*
X173816650Y-113419859D01*
X173998968Y-113512755D01*
X174193582Y-113575990D01*
X174395683Y-113608000D01*
X174600317Y-113608000D01*
X174802417Y-113575990D01*
X174997031Y-113512755D01*
X175179349Y-113419859D01*
X175223921Y-113387474D01*
X174544447Y-112708000D01*
X174550661Y-112708000D01*
X174652394Y-112680741D01*
X174743606Y-112628080D01*
X174818080Y-112553606D01*
X174870741Y-112462394D01*
X174898000Y-112360661D01*
X174898000Y-112354448D01*
X175577474Y-113033922D01*
X175577474Y-113033921D01*
X175609859Y-112989349D01*
X175702755Y-112807031D01*
X175765990Y-112612417D01*
X175798000Y-112410317D01*
X175798000Y-112205682D01*
X175765990Y-112003582D01*
X175702755Y-111808968D01*
X175609859Y-111626650D01*
X175577474Y-111582077D01*
X175577474Y-111582076D01*
X174898000Y-112261551D01*
X174898000Y-112255339D01*
X174870741Y-112153606D01*
X174818080Y-112062394D01*
X174743606Y-111987920D01*
X174652394Y-111935259D01*
X174550661Y-111908000D01*
X174544446Y-111908000D01*
X175223922Y-111228524D01*
X175223921Y-111228523D01*
X175179359Y-111196147D01*
X175179350Y-111196141D01*
X174997031Y-111103244D01*
X174802417Y-111040009D01*
X174600317Y-111008000D01*
X174395683Y-111008000D01*
X174193582Y-111040009D01*
X173998968Y-111103244D01*
X173816644Y-111196143D01*
X173772077Y-111228523D01*
X173772077Y-111228524D01*
X174451554Y-111908000D01*
X174445339Y-111908000D01*
X174343606Y-111935259D01*
X174252394Y-111987920D01*
X174177920Y-112062394D01*
X174125259Y-112153606D01*
X174098000Y-112255339D01*
X174098000Y-112261553D01*
X173418524Y-111582077D01*
X173418523Y-111582077D01*
X173386143Y-111626644D01*
X173293244Y-111808968D01*
X173230009Y-112003582D01*
X173198000Y-112205682D01*
X144137500Y-112205682D01*
X144137500Y-110801281D01*
X144146144Y-110771840D01*
X144152668Y-110741854D01*
X144156422Y-110736838D01*
X144157185Y-110734242D01*
X144173819Y-110713600D01*
X145388737Y-109498682D01*
X147290000Y-109498682D01*
X147290000Y-109703317D01*
X147322009Y-109905417D01*
X147385244Y-110100031D01*
X147478141Y-110282350D01*
X147478147Y-110282359D01*
X147510523Y-110326921D01*
X147510524Y-110326922D01*
X148190000Y-109647446D01*
X148190000Y-109653661D01*
X148217259Y-109755394D01*
X148269920Y-109846606D01*
X148344394Y-109921080D01*
X148435606Y-109973741D01*
X148537339Y-110001000D01*
X148543553Y-110001000D01*
X147864076Y-110680474D01*
X147908650Y-110712859D01*
X148090968Y-110805755D01*
X148285582Y-110868990D01*
X148487683Y-110901000D01*
X148692317Y-110901000D01*
X148894417Y-110868990D01*
X149089031Y-110805755D01*
X149271349Y-110712859D01*
X149315921Y-110680474D01*
X148636447Y-110001000D01*
X148642661Y-110001000D01*
X148744394Y-109973741D01*
X148835606Y-109921080D01*
X148910080Y-109846606D01*
X148962741Y-109755394D01*
X148990000Y-109653661D01*
X148990000Y-109647448D01*
X149669474Y-110326922D01*
X149669474Y-110326921D01*
X149701861Y-110282347D01*
X149701861Y-110282346D01*
X149749234Y-110189371D01*
X149797208Y-110138575D01*
X149865028Y-110121779D01*
X149931164Y-110144316D01*
X149970203Y-110189369D01*
X150017713Y-110282611D01*
X150138028Y-110448213D01*
X150282786Y-110592971D01*
X150373829Y-110659116D01*
X150448390Y-110713287D01*
X150562514Y-110771436D01*
X150630776Y-110806218D01*
X150630778Y-110806218D01*
X150630781Y-110806220D01*
X150721856Y-110835812D01*
X150825465Y-110869477D01*
X150926557Y-110885488D01*
X151027648Y-110901500D01*
X151027649Y-110901500D01*
X151232351Y-110901500D01*
X151232352Y-110901500D01*
X151434534Y-110869477D01*
X151629219Y-110806220D01*
X151811610Y-110713287D01*
X151940482Y-110619657D01*
X151977213Y-110592971D01*
X151977215Y-110592968D01*
X151977219Y-110592966D01*
X152121966Y-110448219D01*
X152121968Y-110448215D01*
X152121971Y-110448213D01*
X152242284Y-110282614D01*
X152242286Y-110282611D01*
X152242287Y-110282610D01*
X152289516Y-110189917D01*
X152337489Y-110139123D01*
X152405310Y-110122328D01*
X152471445Y-110144865D01*
X152510483Y-110189917D01*
X152544291Y-110256267D01*
X152557715Y-110282614D01*
X152678028Y-110448213D01*
X152822786Y-110592971D01*
X152913829Y-110659116D01*
X152988390Y-110713287D01*
X153102514Y-110771436D01*
X153170776Y-110806218D01*
X153170778Y-110806218D01*
X153170781Y-110806220D01*
X153261856Y-110835812D01*
X153365465Y-110869477D01*
X153466557Y-110885488D01*
X153567648Y-110901500D01*
X153567649Y-110901500D01*
X153772351Y-110901500D01*
X153772352Y-110901500D01*
X153974534Y-110869477D01*
X154169219Y-110806220D01*
X154351610Y-110713287D01*
X154480482Y-110619657D01*
X154517213Y-110592971D01*
X154517215Y-110592968D01*
X154517219Y-110592966D01*
X154661966Y-110448219D01*
X154661968Y-110448215D01*
X154661971Y-110448213D01*
X154782284Y-110282614D01*
X154782286Y-110282611D01*
X154782287Y-110282610D01*
X154829516Y-110189917D01*
X154877489Y-110139123D01*
X154945310Y-110122328D01*
X155011445Y-110144865D01*
X155050483Y-110189917D01*
X155084291Y-110256267D01*
X155097715Y-110282614D01*
X155218028Y-110448213D01*
X155362786Y-110592971D01*
X155453829Y-110659116D01*
X155528390Y-110713287D01*
X155642514Y-110771436D01*
X155710776Y-110806218D01*
X155710778Y-110806218D01*
X155710781Y-110806220D01*
X155801856Y-110835812D01*
X155905465Y-110869477D01*
X156006557Y-110885488D01*
X156107648Y-110901500D01*
X156107649Y-110901500D01*
X156312351Y-110901500D01*
X156312352Y-110901500D01*
X156514534Y-110869477D01*
X156709219Y-110806220D01*
X156891610Y-110713287D01*
X157020482Y-110619657D01*
X157057213Y-110592971D01*
X157057215Y-110592968D01*
X157057219Y-110592966D01*
X157201966Y-110448219D01*
X157201968Y-110448215D01*
X157201971Y-110448213D01*
X157322284Y-110282614D01*
X157322286Y-110282611D01*
X157322287Y-110282610D01*
X157369516Y-110189917D01*
X157417489Y-110139123D01*
X157485310Y-110122328D01*
X157551445Y-110144865D01*
X157590483Y-110189917D01*
X157624291Y-110256267D01*
X157637715Y-110282614D01*
X157758028Y-110448213D01*
X157902786Y-110592971D01*
X157993829Y-110659116D01*
X158068390Y-110713287D01*
X158182514Y-110771436D01*
X158250776Y-110806218D01*
X158250778Y-110806218D01*
X158250781Y-110806220D01*
X158341856Y-110835812D01*
X158445465Y-110869477D01*
X158546557Y-110885488D01*
X158647648Y-110901500D01*
X158647649Y-110901500D01*
X158852351Y-110901500D01*
X158852352Y-110901500D01*
X159054534Y-110869477D01*
X159249219Y-110806220D01*
X159431610Y-110713287D01*
X159560482Y-110619657D01*
X159597213Y-110592971D01*
X159597215Y-110592968D01*
X159597219Y-110592966D01*
X159741966Y-110448219D01*
X159741968Y-110448215D01*
X159741971Y-110448213D01*
X159862284Y-110282614D01*
X159862286Y-110282611D01*
X159862287Y-110282610D01*
X159909516Y-110189917D01*
X159957489Y-110139123D01*
X160025310Y-110122328D01*
X160091445Y-110144865D01*
X160130483Y-110189917D01*
X160164291Y-110256267D01*
X160177715Y-110282614D01*
X160298028Y-110448213D01*
X160442786Y-110592971D01*
X160533829Y-110659116D01*
X160608390Y-110713287D01*
X160722514Y-110771436D01*
X160790776Y-110806218D01*
X160790778Y-110806218D01*
X160790781Y-110806220D01*
X160881856Y-110835812D01*
X160985465Y-110869477D01*
X161086557Y-110885488D01*
X161187648Y-110901500D01*
X161187649Y-110901500D01*
X161392351Y-110901500D01*
X161392352Y-110901500D01*
X161594534Y-110869477D01*
X161789219Y-110806220D01*
X161971610Y-110713287D01*
X162100482Y-110619657D01*
X162137213Y-110592971D01*
X162137215Y-110592968D01*
X162137219Y-110592966D01*
X162281966Y-110448219D01*
X162281968Y-110448215D01*
X162281971Y-110448213D01*
X162402284Y-110282614D01*
X162402286Y-110282611D01*
X162402287Y-110282610D01*
X162449516Y-110189917D01*
X162497489Y-110139123D01*
X162565310Y-110122328D01*
X162631445Y-110144865D01*
X162670483Y-110189917D01*
X162704291Y-110256267D01*
X162717715Y-110282614D01*
X162838028Y-110448213D01*
X162982786Y-110592971D01*
X163073829Y-110659116D01*
X163148390Y-110713287D01*
X163262514Y-110771436D01*
X163330776Y-110806218D01*
X163330778Y-110806218D01*
X163330781Y-110806220D01*
X163421856Y-110835812D01*
X163525465Y-110869477D01*
X163626557Y-110885488D01*
X163727648Y-110901500D01*
X163727649Y-110901500D01*
X163932351Y-110901500D01*
X163932352Y-110901500D01*
X164134534Y-110869477D01*
X164329219Y-110806220D01*
X164511610Y-110713287D01*
X164640482Y-110619657D01*
X164677213Y-110592971D01*
X164677215Y-110592968D01*
X164677219Y-110592966D01*
X164821966Y-110448219D01*
X164821968Y-110448215D01*
X164821971Y-110448213D01*
X164942284Y-110282614D01*
X164942286Y-110282611D01*
X164942287Y-110282610D01*
X164989516Y-110189917D01*
X165037489Y-110139123D01*
X165105310Y-110122328D01*
X165171445Y-110144865D01*
X165210483Y-110189917D01*
X165244291Y-110256267D01*
X165257715Y-110282614D01*
X165378028Y-110448213D01*
X165522786Y-110592971D01*
X165613829Y-110659116D01*
X165688390Y-110713287D01*
X165802514Y-110771436D01*
X165870776Y-110806218D01*
X165870778Y-110806218D01*
X165870781Y-110806220D01*
X165961856Y-110835812D01*
X166065465Y-110869477D01*
X166166557Y-110885488D01*
X166267648Y-110901500D01*
X166267649Y-110901500D01*
X166472351Y-110901500D01*
X166472352Y-110901500D01*
X166674534Y-110869477D01*
X166869219Y-110806220D01*
X167051610Y-110713287D01*
X167180482Y-110619657D01*
X167217213Y-110592971D01*
X167217215Y-110592968D01*
X167217219Y-110592966D01*
X167361966Y-110448219D01*
X167361968Y-110448215D01*
X167361971Y-110448213D01*
X167482284Y-110282614D01*
X167482286Y-110282611D01*
X167482287Y-110282610D01*
X167529516Y-110189917D01*
X167577489Y-110139123D01*
X167645310Y-110122328D01*
X167711445Y-110144865D01*
X167750483Y-110189917D01*
X167784291Y-110256267D01*
X167797715Y-110282614D01*
X167918028Y-110448213D01*
X168062786Y-110592971D01*
X168153829Y-110659116D01*
X168228390Y-110713287D01*
X168342514Y-110771436D01*
X168410776Y-110806218D01*
X168410778Y-110806218D01*
X168410781Y-110806220D01*
X168501856Y-110835812D01*
X168605465Y-110869477D01*
X168706557Y-110885488D01*
X168807648Y-110901500D01*
X168807649Y-110901500D01*
X169012351Y-110901500D01*
X169012352Y-110901500D01*
X169214534Y-110869477D01*
X169409219Y-110806220D01*
X169591610Y-110713287D01*
X169720482Y-110619657D01*
X169757213Y-110592971D01*
X169757215Y-110592968D01*
X169757219Y-110592966D01*
X169901966Y-110448219D01*
X169970021Y-110354547D01*
X170025349Y-110311882D01*
X170094963Y-110305902D01*
X170156758Y-110338507D01*
X170188044Y-110388427D01*
X170207856Y-110448215D01*
X170215186Y-110470333D01*
X170215187Y-110470336D01*
X170228363Y-110491697D01*
X170307288Y-110619656D01*
X170431344Y-110743712D01*
X170580666Y-110835814D01*
X170747203Y-110890999D01*
X170849991Y-110901500D01*
X172050008Y-110901499D01*
X172050968Y-110901401D01*
X172067895Y-110899671D01*
X172152797Y-110890999D01*
X172319334Y-110835814D01*
X172468656Y-110743712D01*
X172592712Y-110619656D01*
X172684814Y-110470334D01*
X172739999Y-110303797D01*
X172750500Y-110201009D01*
X172750499Y-109000992D01*
X172747921Y-108975759D01*
X172739999Y-108898203D01*
X172739998Y-108898200D01*
X172727204Y-108859591D01*
X172684814Y-108731666D01*
X172592712Y-108582344D01*
X172468656Y-108458288D01*
X172319334Y-108366186D01*
X172152797Y-108311001D01*
X172152795Y-108311000D01*
X172050010Y-108300500D01*
X170849998Y-108300500D01*
X170849981Y-108300501D01*
X170747203Y-108311000D01*
X170747200Y-108311001D01*
X170580668Y-108366185D01*
X170580663Y-108366187D01*
X170431342Y-108458289D01*
X170307289Y-108582342D01*
X170215187Y-108731663D01*
X170215186Y-108731666D01*
X170188045Y-108813571D01*
X170148271Y-108871016D01*
X170083755Y-108897838D01*
X170014979Y-108885522D01*
X169970021Y-108847452D01*
X169901966Y-108753781D01*
X169757219Y-108609034D01*
X169757213Y-108609028D01*
X169591613Y-108488715D01*
X169591612Y-108488714D01*
X169591610Y-108488713D01*
X169527390Y-108455991D01*
X169409223Y-108395781D01*
X169214534Y-108332522D01*
X169039995Y-108304878D01*
X169012352Y-108300500D01*
X168807648Y-108300500D01*
X168783329Y-108304351D01*
X168605465Y-108332522D01*
X168410776Y-108395781D01*
X168228386Y-108488715D01*
X168062786Y-108609028D01*
X167918028Y-108753786D01*
X167797715Y-108919386D01*
X167750485Y-109012080D01*
X167702510Y-109062876D01*
X167634689Y-109079671D01*
X167568554Y-109057134D01*
X167529515Y-109012080D01*
X167521526Y-108996401D01*
X167482287Y-108919390D01*
X167466629Y-108897838D01*
X167361971Y-108753786D01*
X167217213Y-108609028D01*
X167051613Y-108488715D01*
X167051612Y-108488714D01*
X167051610Y-108488713D01*
X166987390Y-108455991D01*
X166869223Y-108395781D01*
X166674534Y-108332522D01*
X166499995Y-108304878D01*
X166472352Y-108300500D01*
X166267648Y-108300500D01*
X166243329Y-108304351D01*
X166065465Y-108332522D01*
X165870776Y-108395781D01*
X165688386Y-108488715D01*
X165522786Y-108609028D01*
X165378028Y-108753786D01*
X165257715Y-108919386D01*
X165210485Y-109012080D01*
X165162510Y-109062876D01*
X165094689Y-109079671D01*
X165028554Y-109057134D01*
X164989515Y-109012080D01*
X164981526Y-108996401D01*
X164942287Y-108919390D01*
X164926629Y-108897838D01*
X164821971Y-108753786D01*
X164677213Y-108609028D01*
X164511613Y-108488715D01*
X164511612Y-108488714D01*
X164511610Y-108488713D01*
X164447390Y-108455991D01*
X164329223Y-108395781D01*
X164134534Y-108332522D01*
X163959995Y-108304878D01*
X163932352Y-108300500D01*
X163727648Y-108300500D01*
X163703329Y-108304351D01*
X163525465Y-108332522D01*
X163330776Y-108395781D01*
X163148386Y-108488715D01*
X162982786Y-108609028D01*
X162838028Y-108753786D01*
X162717715Y-108919386D01*
X162670485Y-109012080D01*
X162622510Y-109062876D01*
X162554689Y-109079671D01*
X162488554Y-109057134D01*
X162449515Y-109012080D01*
X162441526Y-108996401D01*
X162402287Y-108919390D01*
X162386629Y-108897838D01*
X162281971Y-108753786D01*
X162137213Y-108609028D01*
X161971613Y-108488715D01*
X161971612Y-108488714D01*
X161971610Y-108488713D01*
X161907390Y-108455991D01*
X161789223Y-108395781D01*
X161594534Y-108332522D01*
X161419995Y-108304878D01*
X161392352Y-108300500D01*
X161187648Y-108300500D01*
X161163329Y-108304351D01*
X160985465Y-108332522D01*
X160790776Y-108395781D01*
X160608386Y-108488715D01*
X160442786Y-108609028D01*
X160298028Y-108753786D01*
X160177715Y-108919386D01*
X160130485Y-109012080D01*
X160082510Y-109062876D01*
X160014689Y-109079671D01*
X159948554Y-109057134D01*
X159909515Y-109012080D01*
X159901526Y-108996401D01*
X159862287Y-108919390D01*
X159846629Y-108897838D01*
X159741971Y-108753786D01*
X159597213Y-108609028D01*
X159431613Y-108488715D01*
X159431612Y-108488714D01*
X159431610Y-108488713D01*
X159367390Y-108455991D01*
X159249223Y-108395781D01*
X159054534Y-108332522D01*
X158879995Y-108304878D01*
X158852352Y-108300500D01*
X158647648Y-108300500D01*
X158623329Y-108304351D01*
X158445465Y-108332522D01*
X158250776Y-108395781D01*
X158068386Y-108488715D01*
X157902786Y-108609028D01*
X157758028Y-108753786D01*
X157637715Y-108919386D01*
X157590485Y-109012080D01*
X157542510Y-109062876D01*
X157474689Y-109079671D01*
X157408554Y-109057134D01*
X157369515Y-109012080D01*
X157361526Y-108996401D01*
X157322287Y-108919390D01*
X157306629Y-108897838D01*
X157201971Y-108753786D01*
X157057213Y-108609028D01*
X156891613Y-108488715D01*
X156891612Y-108488714D01*
X156891610Y-108488713D01*
X156827390Y-108455991D01*
X156709223Y-108395781D01*
X156514534Y-108332522D01*
X156339995Y-108304878D01*
X156312352Y-108300500D01*
X156107648Y-108300500D01*
X156083329Y-108304351D01*
X155905465Y-108332522D01*
X155710776Y-108395781D01*
X155528386Y-108488715D01*
X155362786Y-108609028D01*
X155218028Y-108753786D01*
X155097715Y-108919386D01*
X155050485Y-109012080D01*
X155002510Y-109062876D01*
X154934689Y-109079671D01*
X154868554Y-109057134D01*
X154829515Y-109012080D01*
X154821526Y-108996401D01*
X154782287Y-108919390D01*
X154766629Y-108897838D01*
X154661971Y-108753786D01*
X154517213Y-108609028D01*
X154351613Y-108488715D01*
X154351612Y-108488714D01*
X154351610Y-108488713D01*
X154287390Y-108455991D01*
X154169223Y-108395781D01*
X153974534Y-108332522D01*
X153799995Y-108304878D01*
X153772352Y-108300500D01*
X153567648Y-108300500D01*
X153543329Y-108304351D01*
X153365465Y-108332522D01*
X153170776Y-108395781D01*
X152988386Y-108488715D01*
X152822786Y-108609028D01*
X152678028Y-108753786D01*
X152557715Y-108919386D01*
X152510485Y-109012080D01*
X152462510Y-109062876D01*
X152394689Y-109079671D01*
X152328554Y-109057134D01*
X152289515Y-109012080D01*
X152281526Y-108996401D01*
X152242287Y-108919390D01*
X152226629Y-108897838D01*
X152121971Y-108753786D01*
X151977213Y-108609028D01*
X151811613Y-108488715D01*
X151811612Y-108488714D01*
X151811610Y-108488713D01*
X151747390Y-108455991D01*
X151629223Y-108395781D01*
X151434534Y-108332522D01*
X151259995Y-108304878D01*
X151232352Y-108300500D01*
X151027648Y-108300500D01*
X151003329Y-108304351D01*
X150825465Y-108332522D01*
X150630776Y-108395781D01*
X150448386Y-108488715D01*
X150282786Y-108609028D01*
X150138028Y-108753786D01*
X150017713Y-108919388D01*
X149970203Y-109012630D01*
X149922228Y-109063426D01*
X149854407Y-109080220D01*
X149788272Y-109057682D01*
X149749234Y-109012628D01*
X149701861Y-108919652D01*
X149669474Y-108875077D01*
X149669474Y-108875076D01*
X148990000Y-109554551D01*
X148990000Y-109548339D01*
X148962741Y-109446606D01*
X148910080Y-109355394D01*
X148835606Y-109280920D01*
X148744394Y-109228259D01*
X148642661Y-109201000D01*
X148636446Y-109201000D01*
X149315922Y-108521524D01*
X149315921Y-108521523D01*
X149271359Y-108489147D01*
X149271350Y-108489141D01*
X149089031Y-108396244D01*
X148894417Y-108333009D01*
X148692317Y-108301000D01*
X148487683Y-108301000D01*
X148285582Y-108333009D01*
X148090968Y-108396244D01*
X147908644Y-108489143D01*
X147864077Y-108521523D01*
X147864077Y-108521524D01*
X148543554Y-109201000D01*
X148537339Y-109201000D01*
X148435606Y-109228259D01*
X148344394Y-109280920D01*
X148269920Y-109355394D01*
X148217259Y-109446606D01*
X148190000Y-109548339D01*
X148190000Y-109554553D01*
X147510524Y-108875077D01*
X147510523Y-108875077D01*
X147478143Y-108919644D01*
X147385244Y-109101968D01*
X147322009Y-109296582D01*
X147290000Y-109498682D01*
X145388737Y-109498682D01*
X147670600Y-107216819D01*
X147731923Y-107183334D01*
X147758281Y-107180500D01*
X154620804Y-107180500D01*
X154620805Y-107180499D01*
X154742035Y-107156386D01*
X154823110Y-107122803D01*
X154856233Y-107109083D01*
X154959008Y-107040411D01*
X155046411Y-106953008D01*
X159237411Y-102762008D01*
X159275392Y-102705165D01*
X159306083Y-102659233D01*
X159330411Y-102600500D01*
X159353386Y-102545035D01*
X159377500Y-102423803D01*
X159377500Y-102300197D01*
X159377500Y-99766780D01*
X159397185Y-99699741D01*
X159428616Y-99666461D01*
X159431604Y-99664289D01*
X159431610Y-99664287D01*
X159597219Y-99543966D01*
X159741966Y-99399219D01*
X159741968Y-99399215D01*
X159741971Y-99399213D01*
X159862284Y-99233614D01*
X159862286Y-99233611D01*
X159862287Y-99233610D01*
X159909516Y-99140917D01*
X159957489Y-99090123D01*
X160025310Y-99073328D01*
X160091445Y-99095865D01*
X160130483Y-99140917D01*
X160160173Y-99199185D01*
X160177715Y-99233614D01*
X160298028Y-99399213D01*
X160442786Y-99543971D01*
X160597749Y-99656556D01*
X160608390Y-99664287D01*
X160721248Y-99721791D01*
X160790776Y-99757218D01*
X160790778Y-99757218D01*
X160790781Y-99757220D01*
X160861802Y-99780296D01*
X160985465Y-99820477D01*
X161086557Y-99836488D01*
X161187648Y-99852500D01*
X161187649Y-99852500D01*
X161392351Y-99852500D01*
X161392352Y-99852500D01*
X161594534Y-99820477D01*
X161789219Y-99757220D01*
X161971610Y-99664287D01*
X162100482Y-99570657D01*
X162137213Y-99543971D01*
X162137215Y-99543968D01*
X162137219Y-99543966D01*
X162281966Y-99399219D01*
X162281968Y-99399215D01*
X162281971Y-99399213D01*
X162402284Y-99233614D01*
X162402286Y-99233611D01*
X162402287Y-99233610D01*
X162449516Y-99140917D01*
X162497489Y-99090123D01*
X162565310Y-99073328D01*
X162631445Y-99095865D01*
X162670483Y-99140917D01*
X162700173Y-99199185D01*
X162717715Y-99233614D01*
X162838028Y-99399213D01*
X162982786Y-99543971D01*
X163137749Y-99656556D01*
X163148390Y-99664287D01*
X163261248Y-99721791D01*
X163330776Y-99757218D01*
X163330778Y-99757218D01*
X163330781Y-99757220D01*
X163401802Y-99780296D01*
X163525465Y-99820477D01*
X163626557Y-99836488D01*
X163727648Y-99852500D01*
X163727649Y-99852500D01*
X163932351Y-99852500D01*
X163932352Y-99852500D01*
X164134534Y-99820477D01*
X164329219Y-99757220D01*
X164511610Y-99664287D01*
X164640482Y-99570657D01*
X164677213Y-99543971D01*
X164677215Y-99543968D01*
X164677219Y-99543966D01*
X164821966Y-99399219D01*
X164821968Y-99399215D01*
X164821971Y-99399213D01*
X164942286Y-99233611D01*
X164942415Y-99233359D01*
X164989795Y-99140369D01*
X165037769Y-99089573D01*
X165105590Y-99072778D01*
X165171725Y-99095315D01*
X165210765Y-99140369D01*
X165258141Y-99233350D01*
X165258147Y-99233359D01*
X165290523Y-99277921D01*
X165290524Y-99277922D01*
X165970000Y-98598446D01*
X165970000Y-98604661D01*
X165997259Y-98706394D01*
X166049920Y-98797606D01*
X166124394Y-98872080D01*
X166215606Y-98924741D01*
X166317339Y-98952000D01*
X166323553Y-98952000D01*
X165644076Y-99631474D01*
X165688650Y-99663859D01*
X165870968Y-99756755D01*
X166065582Y-99819990D01*
X166267683Y-99852000D01*
X166472317Y-99852000D01*
X166674417Y-99819990D01*
X166869031Y-99756755D01*
X167051349Y-99663859D01*
X167095921Y-99631474D01*
X166416447Y-98952000D01*
X166422661Y-98952000D01*
X166524394Y-98924741D01*
X166615606Y-98872080D01*
X166690080Y-98797606D01*
X166742741Y-98706394D01*
X166770000Y-98604661D01*
X166770000Y-98598447D01*
X167449474Y-99277921D01*
X167481859Y-99233349D01*
X167574755Y-99051031D01*
X167637990Y-98856417D01*
X167670000Y-98654317D01*
X167670000Y-98449682D01*
X167637990Y-98247582D01*
X167574755Y-98052968D01*
X167481859Y-97870650D01*
X167449474Y-97826077D01*
X167449474Y-97826076D01*
X166770000Y-98505551D01*
X166770000Y-98499339D01*
X166742741Y-98397606D01*
X166690080Y-98306394D01*
X166615606Y-98231920D01*
X166524394Y-98179259D01*
X166422661Y-98152000D01*
X166416446Y-98152000D01*
X167095922Y-97472524D01*
X167095921Y-97472523D01*
X167051359Y-97440147D01*
X167051350Y-97440141D01*
X166869031Y-97347244D01*
X166674417Y-97284009D01*
X166472317Y-97252000D01*
X166267683Y-97252000D01*
X166065582Y-97284009D01*
X165870968Y-97347244D01*
X165688644Y-97440143D01*
X165644077Y-97472523D01*
X165644077Y-97472524D01*
X166323554Y-98152000D01*
X166317339Y-98152000D01*
X166215606Y-98179259D01*
X166124394Y-98231920D01*
X166049920Y-98306394D01*
X165997259Y-98397606D01*
X165970000Y-98499339D01*
X165970000Y-98505553D01*
X165290524Y-97826077D01*
X165290523Y-97826077D01*
X165258143Y-97870644D01*
X165210765Y-97963630D01*
X165162790Y-98014426D01*
X165094969Y-98031221D01*
X165028834Y-98008683D01*
X164989795Y-97963630D01*
X164982143Y-97948612D01*
X164942287Y-97870390D01*
X164942285Y-97870387D01*
X164942284Y-97870385D01*
X164821971Y-97704786D01*
X164677213Y-97560028D01*
X164511613Y-97439715D01*
X164511612Y-97439714D01*
X164511610Y-97439713D01*
X164442024Y-97404257D01*
X164329223Y-97346781D01*
X164134534Y-97283522D01*
X163959995Y-97255878D01*
X163932352Y-97251500D01*
X163727648Y-97251500D01*
X163703329Y-97255351D01*
X163525465Y-97283522D01*
X163330776Y-97346781D01*
X163148386Y-97439715D01*
X162982786Y-97560028D01*
X162838028Y-97704786D01*
X162717715Y-97870386D01*
X162670485Y-97963080D01*
X162622510Y-98013876D01*
X162554689Y-98030671D01*
X162488554Y-98008134D01*
X162449515Y-97963080D01*
X162441553Y-97947454D01*
X162402287Y-97870390D01*
X162394145Y-97859184D01*
X162281971Y-97704786D01*
X162137217Y-97560032D01*
X162137212Y-97560028D01*
X161968615Y-97437536D01*
X161967625Y-97436252D01*
X161966112Y-97435669D01*
X161946369Y-97408687D01*
X161925949Y-97382207D01*
X161925502Y-97380170D01*
X161924853Y-97379283D01*
X161923066Y-97369065D01*
X161917727Y-97344716D01*
X161917500Y-97340968D01*
X161917500Y-97220197D01*
X161908627Y-97175589D01*
X161893386Y-97098966D01*
X161848407Y-96990379D01*
X161846763Y-96985784D01*
X161777414Y-96881996D01*
X161777413Y-96881994D01*
X161756839Y-96861420D01*
X161690008Y-96794589D01*
X161326450Y-96431031D01*
X160928011Y-96032591D01*
X160928007Y-96032588D01*
X160825239Y-95963920D01*
X160825226Y-95963913D01*
X160791785Y-95950062D01*
X160711035Y-95916614D01*
X160711027Y-95916612D01*
X160589807Y-95892500D01*
X160589803Y-95892500D01*
X158561197Y-95892500D01*
X158561195Y-95892500D01*
X158439970Y-95916613D01*
X158439960Y-95916616D01*
X158325773Y-95963913D01*
X158325760Y-95963920D01*
X158222992Y-96032588D01*
X158222988Y-96032591D01*
X157079993Y-97175587D01*
X157079992Y-97175589D01*
X157062554Y-97193027D01*
X157049180Y-97206401D01*
X156987856Y-97239885D01*
X156918165Y-97234899D01*
X156862232Y-97193027D01*
X156837816Y-97127562D01*
X156837500Y-97118718D01*
X156837500Y-96204194D01*
X156813386Y-96082970D01*
X156813385Y-96082969D01*
X156813385Y-96082965D01*
X156813383Y-96082960D01*
X156766086Y-95968773D01*
X156766079Y-95968760D01*
X156697412Y-95865993D01*
X156661101Y-95829682D01*
X156610008Y-95778589D01*
X155475238Y-94643819D01*
X154324011Y-93492591D01*
X154324007Y-93492588D01*
X154221239Y-93423920D01*
X154221226Y-93423913D01*
X154179917Y-93406803D01*
X154107035Y-93376614D01*
X154107027Y-93376612D01*
X153985807Y-93352500D01*
X153985803Y-93352500D01*
X142809803Y-93352500D01*
X142686196Y-93352500D01*
X142686194Y-93352500D01*
X142564970Y-93376613D01*
X142564960Y-93376616D01*
X142450774Y-93423913D01*
X142450756Y-93423923D01*
X142347992Y-93492587D01*
X142347985Y-93492593D01*
X139984400Y-95856181D01*
X139923077Y-95889666D01*
X139896719Y-95892500D01*
X124898281Y-95892500D01*
X124831242Y-95872815D01*
X124810600Y-95856181D01*
X122910941Y-93956522D01*
X122828132Y-93873713D01*
X130480500Y-93873713D01*
X130480500Y-94086286D01*
X130508901Y-94265606D01*
X130513754Y-94296243D01*
X130553965Y-94420000D01*
X130579444Y-94498414D01*
X130675951Y-94687820D01*
X130800890Y-94859786D01*
X130951213Y-95010109D01*
X131123179Y-95135048D01*
X131123181Y-95135049D01*
X131123184Y-95135051D01*
X131312588Y-95231557D01*
X131514757Y-95297246D01*
X131724713Y-95330500D01*
X131724714Y-95330500D01*
X131937286Y-95330500D01*
X131937287Y-95330500D01*
X132147243Y-95297246D01*
X132349412Y-95231557D01*
X132538816Y-95135051D01*
X132710792Y-95010104D01*
X132824329Y-94896566D01*
X132885648Y-94863084D01*
X132955340Y-94868068D01*
X133011274Y-94909939D01*
X133028189Y-94940917D01*
X133077202Y-95072328D01*
X133077206Y-95072335D01*
X133163452Y-95187544D01*
X133163455Y-95187547D01*
X133278664Y-95273793D01*
X133278671Y-95273797D01*
X133413517Y-95324091D01*
X133413516Y-95324091D01*
X133420444Y-95324835D01*
X133473127Y-95330500D01*
X135268872Y-95330499D01*
X135328483Y-95324091D01*
X135463331Y-95273796D01*
X135578546Y-95187546D01*
X135664796Y-95072331D01*
X135715091Y-94937483D01*
X135721500Y-94877873D01*
X135721499Y-93082128D01*
X135715091Y-93022517D01*
X135713810Y-93019083D01*
X135664797Y-92887671D01*
X135664793Y-92887664D01*
X135578547Y-92772455D01*
X135578544Y-92772452D01*
X135463335Y-92686206D01*
X135463328Y-92686202D01*
X135328482Y-92635908D01*
X135328483Y-92635908D01*
X135268883Y-92629501D01*
X135268881Y-92629500D01*
X135268873Y-92629500D01*
X135268864Y-92629500D01*
X133473129Y-92629500D01*
X133473123Y-92629501D01*
X133413516Y-92635908D01*
X133278671Y-92686202D01*
X133278664Y-92686206D01*
X133163455Y-92772452D01*
X133163452Y-92772455D01*
X133077206Y-92887664D01*
X133077203Y-92887669D01*
X133028189Y-93019083D01*
X132986317Y-93075016D01*
X132920853Y-93099433D01*
X132852580Y-93084581D01*
X132824326Y-93063430D01*
X132710786Y-92949890D01*
X132538820Y-92824951D01*
X132349414Y-92728444D01*
X132349413Y-92728443D01*
X132349412Y-92728443D01*
X132147243Y-92662754D01*
X132147241Y-92662753D01*
X132147240Y-92662753D01*
X131985957Y-92637208D01*
X131937287Y-92629500D01*
X131724713Y-92629500D01*
X131676042Y-92637208D01*
X131514760Y-92662753D01*
X131312585Y-92728444D01*
X131123179Y-92824951D01*
X130951213Y-92949890D01*
X130800890Y-93100213D01*
X130675951Y-93272179D01*
X130579444Y-93461585D01*
X130513753Y-93663760D01*
X130480500Y-93873713D01*
X122828132Y-93873713D01*
X120382748Y-91428328D01*
X120299933Y-91345513D01*
X121989500Y-91345513D01*
X121989500Y-91534486D01*
X122019059Y-91721118D01*
X122077454Y-91900836D01*
X122119760Y-91983865D01*
X122163240Y-92069199D01*
X122274310Y-92222073D01*
X122407927Y-92355690D01*
X122560801Y-92466760D01*
X122640347Y-92507290D01*
X122729163Y-92552545D01*
X122729165Y-92552545D01*
X122729168Y-92552547D01*
X122822000Y-92582710D01*
X122908881Y-92610940D01*
X123095514Y-92640500D01*
X123095519Y-92640500D01*
X123284486Y-92640500D01*
X123471118Y-92610940D01*
X123650832Y-92552547D01*
X123819199Y-92466760D01*
X123972073Y-92355690D01*
X124105690Y-92222073D01*
X124216760Y-92069199D01*
X124302547Y-91900832D01*
X124360940Y-91721118D01*
X124390500Y-91534486D01*
X124390500Y-91345513D01*
X124360940Y-91158881D01*
X124314639Y-91016383D01*
X124302547Y-90979168D01*
X124302545Y-90979165D01*
X124302545Y-90979163D01*
X124237283Y-90851080D01*
X124216760Y-90810801D01*
X124105690Y-90657927D01*
X123972073Y-90524310D01*
X123819199Y-90413240D01*
X123769926Y-90388134D01*
X123650836Y-90327454D01*
X123471118Y-90269059D01*
X123284486Y-90239500D01*
X123284481Y-90239500D01*
X123095519Y-90239500D01*
X123095514Y-90239500D01*
X122908881Y-90269059D01*
X122729163Y-90327454D01*
X122560800Y-90413240D01*
X122512911Y-90448034D01*
X122407927Y-90524310D01*
X122407925Y-90524312D01*
X122407924Y-90524312D01*
X122274312Y-90657924D01*
X122274312Y-90657925D01*
X122274310Y-90657927D01*
X122229427Y-90719703D01*
X122163240Y-90810800D01*
X122077454Y-90979163D01*
X122019059Y-91158881D01*
X121989500Y-91345513D01*
X120299933Y-91345513D01*
X116788601Y-87834181D01*
X116755116Y-87772858D01*
X116760100Y-87703166D01*
X116801972Y-87647233D01*
X116867436Y-87622816D01*
X116876282Y-87622500D01*
X131032086Y-87622500D01*
X131099125Y-87642185D01*
G37*
%TD.AperFunction*%
%TA.AperFunction,Conductor*%
G36*
X170251445Y-117764865D02*
G01*
X170290483Y-117809917D01*
X170329454Y-117886400D01*
X170337715Y-117902614D01*
X170458028Y-118068213D01*
X170602786Y-118212971D01*
X170768385Y-118333284D01*
X170768387Y-118333285D01*
X170768390Y-118333287D01*
X170870778Y-118385456D01*
X170871231Y-118385710D01*
X170875302Y-118387784D01*
X170875306Y-118387787D01*
X170913473Y-118407234D01*
X171052367Y-118478005D01*
X171052370Y-118478006D01*
X171146866Y-118508709D01*
X171241364Y-118539413D01*
X171437640Y-118570501D01*
X171437641Y-118570501D01*
X171641472Y-118570501D01*
X171641496Y-118570500D01*
X174155432Y-118570500D01*
X174188630Y-118575757D01*
X174188731Y-118575340D01*
X174193457Y-118576474D01*
X174193466Y-118576477D01*
X174395648Y-118608500D01*
X174395649Y-118608500D01*
X174600351Y-118608500D01*
X174600352Y-118608500D01*
X174802534Y-118576477D01*
X174802545Y-118576473D01*
X174807269Y-118575340D01*
X174807369Y-118575757D01*
X174840568Y-118570500D01*
X176413500Y-118570500D01*
X176480539Y-118590185D01*
X176526294Y-118642989D01*
X176537500Y-118694500D01*
X176537500Y-125480036D01*
X176517815Y-125547075D01*
X176465011Y-125592830D01*
X176395853Y-125602774D01*
X176349571Y-125584288D01*
X176348681Y-125585742D01*
X176344533Y-125583200D01*
X176190257Y-125504591D01*
X176025584Y-125451085D01*
X175854571Y-125424000D01*
X175681429Y-125424000D01*
X175510415Y-125451085D01*
X175345740Y-125504592D01*
X175191480Y-125583193D01*
X175191463Y-125583203D01*
X175185261Y-125587708D01*
X175185261Y-125587709D01*
X175826697Y-126229145D01*
X175807496Y-126224000D01*
X175728504Y-126224000D01*
X175652204Y-126244444D01*
X175583795Y-126283940D01*
X175527940Y-126339795D01*
X175488444Y-126408204D01*
X175468000Y-126484504D01*
X175468000Y-126563496D01*
X175488444Y-126639796D01*
X175527940Y-126708205D01*
X175583795Y-126764060D01*
X175652204Y-126803556D01*
X175728504Y-126824000D01*
X175807496Y-126824000D01*
X175826696Y-126818855D01*
X175313953Y-127331599D01*
X175282567Y-127354403D01*
X175106305Y-127444213D01*
X174945533Y-127561021D01*
X174805021Y-127701533D01*
X174688213Y-127862305D01*
X174597994Y-128039367D01*
X174597993Y-128039370D01*
X174536587Y-128228362D01*
X174505500Y-128424639D01*
X174505500Y-128623360D01*
X174536587Y-128819637D01*
X174597993Y-129008629D01*
X174597994Y-129008632D01*
X174671596Y-129153081D01*
X174688213Y-129185694D01*
X174805019Y-129346464D01*
X174945536Y-129486981D01*
X175106306Y-129603787D01*
X175193149Y-129648035D01*
X175283367Y-129694005D01*
X175283370Y-129694006D01*
X175333313Y-129710233D01*
X175472364Y-129755413D01*
X175668639Y-129786500D01*
X175668640Y-129786500D01*
X177645360Y-129786500D01*
X177645361Y-129786500D01*
X177841636Y-129755413D01*
X178030632Y-129694005D01*
X178207694Y-129603787D01*
X178221140Y-129594017D01*
X178242161Y-129581701D01*
X178248775Y-129578654D01*
X178284632Y-129567005D01*
X178383904Y-129516423D01*
X178386130Y-129515398D01*
X178418359Y-129510659D01*
X178450373Y-129504647D01*
X178452734Y-129505605D01*
X178455256Y-129505235D01*
X178484930Y-129518672D01*
X178515114Y-129530923D01*
X178516582Y-129533005D01*
X178518904Y-129534057D01*
X178536597Y-129561397D01*
X178555372Y-129588029D01*
X178555901Y-129591226D01*
X178556865Y-129592715D01*
X178556879Y-129597123D01*
X178562000Y-129628028D01*
X178562000Y-135532221D01*
X178542315Y-135599260D01*
X178489511Y-135645015D01*
X178420353Y-135654959D01*
X178415356Y-135654136D01*
X178412078Y-135653527D01*
X178369787Y-135649767D01*
X178299308Y-135643501D01*
X178299303Y-135643501D01*
X177300698Y-135643501D01*
X177300692Y-135643501D01*
X177300691Y-135643502D01*
X177289688Y-135644480D01*
X177187925Y-135653526D01*
X177003147Y-135706397D01*
X176832785Y-135795387D01*
X176750966Y-135862102D01*
X176686570Y-135889211D01*
X176672606Y-135890000D01*
X176387392Y-135890000D01*
X176320353Y-135870315D01*
X176309032Y-135862102D01*
X176227212Y-135795387D01*
X176227208Y-135795385D01*
X176227207Y-135795384D01*
X176056854Y-135706399D01*
X176056853Y-135706398D01*
X176056848Y-135706396D01*
X175977386Y-135683659D01*
X175918349Y-135646292D01*
X175888886Y-135582938D01*
X175887499Y-135564444D01*
X175887499Y-134513588D01*
X175887500Y-133288197D01*
X175876016Y-133230464D01*
X175863386Y-133166966D01*
X175816679Y-133054208D01*
X175816319Y-133053119D01*
X175747414Y-132949996D01*
X175747413Y-132949994D01*
X175723178Y-132925759D01*
X175660008Y-132862589D01*
X175660007Y-132862588D01*
X169234847Y-126437428D01*
X174668000Y-126437428D01*
X174668000Y-126610571D01*
X174695085Y-126781584D01*
X174748592Y-126946259D01*
X174827196Y-127100525D01*
X174831709Y-127106736D01*
X174831709Y-127106737D01*
X175414446Y-126524001D01*
X175414446Y-126523999D01*
X174831709Y-125941261D01*
X174831708Y-125941261D01*
X174827203Y-125947463D01*
X174827193Y-125947480D01*
X174748592Y-126101740D01*
X174695085Y-126266415D01*
X174668000Y-126437428D01*
X169234847Y-126437428D01*
X167033819Y-124236400D01*
X167000334Y-124175077D01*
X166997500Y-124148719D01*
X166997500Y-118435780D01*
X167017185Y-118368741D01*
X167048616Y-118335461D01*
X167051604Y-118333289D01*
X167051610Y-118333287D01*
X167217219Y-118212966D01*
X167361966Y-118068219D01*
X167361968Y-118068215D01*
X167361971Y-118068213D01*
X167482284Y-117902614D01*
X167482285Y-117902613D01*
X167482287Y-117902610D01*
X167529516Y-117809917D01*
X167577489Y-117759123D01*
X167645310Y-117742328D01*
X167711445Y-117764865D01*
X167750483Y-117809917D01*
X167789454Y-117886400D01*
X167797715Y-117902614D01*
X167918028Y-118068213D01*
X168062786Y-118212971D01*
X168182527Y-118299966D01*
X168228390Y-118333287D01*
X168331276Y-118385710D01*
X168410776Y-118426218D01*
X168410778Y-118426218D01*
X168410781Y-118426220D01*
X168440204Y-118435780D01*
X168605465Y-118489477D01*
X168706557Y-118505488D01*
X168807648Y-118521500D01*
X168807649Y-118521500D01*
X169012351Y-118521500D01*
X169012352Y-118521500D01*
X169214534Y-118489477D01*
X169409219Y-118426220D01*
X169591610Y-118333287D01*
X169718742Y-118240921D01*
X169757213Y-118212971D01*
X169757215Y-118212968D01*
X169757219Y-118212966D01*
X169901966Y-118068219D01*
X169901968Y-118068215D01*
X169901971Y-118068213D01*
X170022284Y-117902614D01*
X170022285Y-117902613D01*
X170022287Y-117902610D01*
X170069516Y-117809917D01*
X170117489Y-117759123D01*
X170185310Y-117742328D01*
X170251445Y-117764865D01*
G37*
%TD.AperFunction*%
%TA.AperFunction,Conductor*%
G36*
X131248841Y-99199185D02*
G01*
X131294596Y-99251989D01*
X131304540Y-99321147D01*
X131275515Y-99384703D01*
X131254689Y-99403816D01*
X131130537Y-99494019D01*
X131130535Y-99494021D01*
X131130534Y-99494021D01*
X130990021Y-99634534D01*
X130990021Y-99634535D01*
X130990019Y-99634537D01*
X130946301Y-99694710D01*
X130873213Y-99795305D01*
X130782994Y-99972367D01*
X130782993Y-99972370D01*
X130721587Y-100161362D01*
X130690500Y-100357639D01*
X130690500Y-100556360D01*
X130721587Y-100752637D01*
X130782993Y-100941629D01*
X130782994Y-100941632D01*
X130855790Y-101084500D01*
X130873213Y-101118694D01*
X130990019Y-101279463D01*
X130990021Y-101279465D01*
X134591181Y-104880625D01*
X134624666Y-104941948D01*
X134627500Y-104968306D01*
X134627500Y-116680002D01*
X134607815Y-116747041D01*
X134555011Y-116792796D01*
X134485853Y-116802740D01*
X134461444Y-116791593D01*
X134429474Y-116789076D01*
X133750000Y-117468551D01*
X133750000Y-117462339D01*
X133722741Y-117360606D01*
X133670080Y-117269394D01*
X133595606Y-117194920D01*
X133504394Y-117142259D01*
X133402661Y-117115000D01*
X133396446Y-117115000D01*
X134075922Y-116435524D01*
X134075921Y-116435523D01*
X134031359Y-116403147D01*
X134031350Y-116403141D01*
X133849031Y-116310244D01*
X133654417Y-116247009D01*
X133452317Y-116215000D01*
X133247683Y-116215000D01*
X133045582Y-116247009D01*
X132850968Y-116310244D01*
X132668644Y-116403143D01*
X132624077Y-116435523D01*
X132624077Y-116435524D01*
X133303554Y-117115000D01*
X133297339Y-117115000D01*
X133195606Y-117142259D01*
X133104394Y-117194920D01*
X133029920Y-117269394D01*
X132977259Y-117360606D01*
X132950000Y-117462339D01*
X132950000Y-117468553D01*
X132270524Y-116789077D01*
X132270523Y-116789077D01*
X132238143Y-116833644D01*
X132145244Y-117015968D01*
X132082009Y-117210582D01*
X132050000Y-117412682D01*
X132050000Y-117617317D01*
X132082009Y-117819417D01*
X132145244Y-118014031D01*
X132238141Y-118196350D01*
X132238147Y-118196359D01*
X132270523Y-118240921D01*
X132270524Y-118240922D01*
X132950000Y-117561446D01*
X132950000Y-117567661D01*
X132977259Y-117669394D01*
X133029920Y-117760606D01*
X133104394Y-117835080D01*
X133195606Y-117887741D01*
X133297339Y-117915000D01*
X133303553Y-117915000D01*
X132624076Y-118594474D01*
X132668650Y-118626859D01*
X132850968Y-118719755D01*
X133045582Y-118782990D01*
X133247683Y-118815000D01*
X133452317Y-118815000D01*
X133654417Y-118782990D01*
X133849031Y-118719755D01*
X134031349Y-118626859D01*
X134075921Y-118594474D01*
X133396447Y-117915000D01*
X133402661Y-117915000D01*
X133504394Y-117887741D01*
X133595606Y-117835080D01*
X133670080Y-117760606D01*
X133722741Y-117669394D01*
X133750000Y-117567661D01*
X133750000Y-117561448D01*
X134429474Y-118240922D01*
X134452456Y-118239113D01*
X134458512Y-118234444D01*
X134528125Y-118228465D01*
X134589920Y-118261071D01*
X134624277Y-118321909D01*
X134627500Y-118349995D01*
X134627500Y-119400693D01*
X134607815Y-119467732D01*
X134591181Y-119488374D01*
X132950374Y-121129182D01*
X132889051Y-121162667D01*
X132862693Y-121165501D01*
X129882567Y-121165501D01*
X129849368Y-121160243D01*
X129849268Y-121160661D01*
X129844529Y-121159523D01*
X129703363Y-121137164D01*
X129642351Y-121127501D01*
X129437647Y-121127501D01*
X129427034Y-121129182D01*
X129235464Y-121159523D01*
X129040775Y-121222782D01*
X128858385Y-121315716D01*
X128692785Y-121436029D01*
X128548027Y-121580787D01*
X128427714Y-121746387D01*
X128380484Y-121839081D01*
X128332509Y-121889877D01*
X128264688Y-121906672D01*
X128198553Y-121884135D01*
X128159514Y-121839081D01*
X128158882Y-121837841D01*
X128112286Y-121746391D01*
X128104555Y-121735750D01*
X127991970Y-121580787D01*
X127847212Y-121436029D01*
X127681612Y-121315716D01*
X127681611Y-121315715D01*
X127681609Y-121315714D01*
X127612023Y-121280258D01*
X127499222Y-121222782D01*
X127304533Y-121159523D01*
X127112964Y-121129182D01*
X127102351Y-121127501D01*
X126897647Y-121127501D01*
X126830253Y-121138175D01*
X126695463Y-121159524D01*
X126695460Y-121159524D01*
X126519817Y-121216594D01*
X126449975Y-121218589D01*
X126390143Y-121182508D01*
X126359315Y-121119807D01*
X126357499Y-121098663D01*
X126357499Y-110428193D01*
X126333385Y-110306969D01*
X126333384Y-110306965D01*
X126333384Y-110306964D01*
X126332071Y-110303795D01*
X126286085Y-110192772D01*
X126286078Y-110192759D01*
X126217411Y-110089992D01*
X126189318Y-110061899D01*
X126130007Y-110002588D01*
X125123818Y-108996399D01*
X125090333Y-108935076D01*
X125087499Y-108908718D01*
X125087499Y-108402781D01*
X125107184Y-108335742D01*
X125138615Y-108302462D01*
X125141603Y-108300290D01*
X125141609Y-108300288D01*
X125307218Y-108179967D01*
X125451965Y-108035220D01*
X125451967Y-108035216D01*
X125451970Y-108035214D01*
X125572283Y-107869615D01*
X125572285Y-107869612D01*
X125572286Y-107869611D01*
X125619515Y-107776918D01*
X125667488Y-107726124D01*
X125735309Y-107709329D01*
X125801444Y-107731866D01*
X125840482Y-107776918D01*
X125884347Y-107863007D01*
X125887714Y-107869615D01*
X126008027Y-108035214D01*
X126152785Y-108179972D01*
X126273225Y-108267475D01*
X126318389Y-108300288D01*
X126431247Y-108357792D01*
X126500775Y-108393219D01*
X126500777Y-108393219D01*
X126500780Y-108393221D01*
X126591855Y-108422813D01*
X126695464Y-108456478D01*
X126796556Y-108472489D01*
X126897647Y-108488501D01*
X126897648Y-108488501D01*
X127102350Y-108488501D01*
X127102351Y-108488501D01*
X127304533Y-108456478D01*
X127499218Y-108393221D01*
X127681609Y-108300288D01*
X127810481Y-108206658D01*
X127847212Y-108179972D01*
X127847214Y-108179969D01*
X127847218Y-108179967D01*
X127991965Y-108035220D01*
X128060020Y-107941548D01*
X128115348Y-107898883D01*
X128184962Y-107892903D01*
X128246757Y-107925508D01*
X128278043Y-107975428D01*
X128305185Y-108057335D01*
X128397287Y-108206657D01*
X128521343Y-108330713D01*
X128670665Y-108422815D01*
X128837202Y-108478000D01*
X128939990Y-108488501D01*
X130140007Y-108488500D01*
X130242796Y-108478000D01*
X130409333Y-108422815D01*
X130558655Y-108330713D01*
X130682711Y-108206657D01*
X130774813Y-108057335D01*
X130829998Y-107890798D01*
X130840499Y-107788010D01*
X130840498Y-106587993D01*
X130829998Y-106485204D01*
X130774813Y-106318667D01*
X130682711Y-106169345D01*
X130558655Y-106045289D01*
X130455077Y-105981402D01*
X130409335Y-105953188D01*
X130409330Y-105953186D01*
X130377106Y-105942508D01*
X130242796Y-105898002D01*
X130242794Y-105898001D01*
X130140009Y-105887501D01*
X128939997Y-105887501D01*
X128939980Y-105887502D01*
X128837202Y-105898001D01*
X128837199Y-105898002D01*
X128670667Y-105953186D01*
X128670662Y-105953188D01*
X128521341Y-106045290D01*
X128397288Y-106169343D01*
X128305186Y-106318664D01*
X128305185Y-106318667D01*
X128278044Y-106400572D01*
X128238270Y-106458017D01*
X128173754Y-106484839D01*
X128104978Y-106472523D01*
X128060020Y-106434453D01*
X127991965Y-106340782D01*
X127847218Y-106196035D01*
X127847212Y-106196029D01*
X127678615Y-106073538D01*
X127635949Y-106018209D01*
X127627500Y-105973220D01*
X127627500Y-102546281D01*
X127647185Y-102479242D01*
X127663819Y-102458600D01*
X130906600Y-99215819D01*
X130967923Y-99182334D01*
X130994281Y-99179500D01*
X131181802Y-99179500D01*
X131248841Y-99199185D01*
G37*
%TD.AperFunction*%
%TA.AperFunction,Conductor*%
G36*
X109356758Y-90055185D02*
G01*
X109377400Y-90071819D01*
X116953400Y-97647819D01*
X116986885Y-97709142D01*
X116981901Y-97778834D01*
X116940029Y-97834767D01*
X116874565Y-97859184D01*
X116865719Y-97859500D01*
X116745514Y-97859500D01*
X116558881Y-97889059D01*
X116379163Y-97947454D01*
X116210800Y-98033240D01*
X116162911Y-98068034D01*
X116057927Y-98144310D01*
X116057925Y-98144312D01*
X116057924Y-98144312D01*
X115924312Y-98277924D01*
X115924312Y-98277925D01*
X115924310Y-98277927D01*
X115895293Y-98317865D01*
X115813240Y-98430800D01*
X115727454Y-98599163D01*
X115669059Y-98778881D01*
X115639500Y-98965513D01*
X115639500Y-99154486D01*
X115669059Y-99341118D01*
X115727454Y-99520836D01*
X115785387Y-99634534D01*
X115813240Y-99689199D01*
X115924310Y-99842073D01*
X116057927Y-99975690D01*
X116210801Y-100086760D01*
X116290347Y-100127290D01*
X116379163Y-100172545D01*
X116379165Y-100172545D01*
X116379168Y-100172547D01*
X116463216Y-100199856D01*
X116558881Y-100230940D01*
X116745514Y-100260500D01*
X116745519Y-100260500D01*
X116934486Y-100260500D01*
X117121118Y-100230940D01*
X117138728Y-100225218D01*
X117300832Y-100172547D01*
X117469199Y-100086760D01*
X117622073Y-99975690D01*
X117755690Y-99842073D01*
X117866760Y-99689199D01*
X117952547Y-99520832D01*
X118010940Y-99341118D01*
X118020306Y-99281984D01*
X118040500Y-99154486D01*
X118040500Y-99034281D01*
X118060185Y-98967242D01*
X118112989Y-98921487D01*
X118182147Y-98911543D01*
X118245703Y-98940568D01*
X118252181Y-98946600D01*
X119986181Y-100680600D01*
X120019666Y-100741923D01*
X120022500Y-100768281D01*
X120022500Y-105858664D01*
X120002815Y-105925703D01*
X119950011Y-105971458D01*
X119880853Y-105981402D01*
X119860182Y-105976595D01*
X119684536Y-105919524D01*
X119532896Y-105895506D01*
X119482351Y-105887501D01*
X119277647Y-105887501D01*
X119253328Y-105891352D01*
X119075464Y-105919523D01*
X118880775Y-105982782D01*
X118698385Y-106075716D01*
X118532785Y-106196029D01*
X118388027Y-106340787D01*
X118267714Y-106506387D01*
X118220484Y-106599081D01*
X118172509Y-106649877D01*
X118104688Y-106666672D01*
X118038553Y-106644135D01*
X117999514Y-106599081D01*
X117952419Y-106506653D01*
X117952286Y-106506391D01*
X117920091Y-106462078D01*
X117831970Y-106340787D01*
X117687212Y-106196029D01*
X117521612Y-106075716D01*
X117521611Y-106075715D01*
X117521609Y-106075714D01*
X117452021Y-106040257D01*
X117339222Y-105982782D01*
X117144533Y-105919523D01*
X116969994Y-105891879D01*
X116942351Y-105887501D01*
X116737647Y-105887501D01*
X116713328Y-105891352D01*
X116535464Y-105919523D01*
X116340775Y-105982782D01*
X116158385Y-106075716D01*
X115992785Y-106196029D01*
X115848027Y-106340787D01*
X115727714Y-106506387D01*
X115680484Y-106599081D01*
X115632509Y-106649877D01*
X115564688Y-106666672D01*
X115498553Y-106644135D01*
X115459514Y-106599081D01*
X115412419Y-106506653D01*
X115412286Y-106506391D01*
X115380091Y-106462078D01*
X115291970Y-106340787D01*
X115147212Y-106196029D01*
X114981612Y-106075716D01*
X114981611Y-106075715D01*
X114981609Y-106075714D01*
X114912021Y-106040257D01*
X114799222Y-105982782D01*
X114604533Y-105919523D01*
X114429994Y-105891879D01*
X114402351Y-105887501D01*
X114197647Y-105887501D01*
X114173328Y-105891352D01*
X113995464Y-105919523D01*
X113800775Y-105982782D01*
X113618385Y-106075716D01*
X113452785Y-106196029D01*
X113308027Y-106340787D01*
X113187714Y-106506387D01*
X113140484Y-106599081D01*
X113092509Y-106649877D01*
X113024688Y-106666672D01*
X112958553Y-106644135D01*
X112919514Y-106599081D01*
X112872419Y-106506653D01*
X112872286Y-106506391D01*
X112840091Y-106462078D01*
X112751970Y-106340787D01*
X112607212Y-106196029D01*
X112441612Y-106075716D01*
X112441611Y-106075715D01*
X112441609Y-106075714D01*
X112372021Y-106040257D01*
X112259222Y-105982782D01*
X112064533Y-105919523D01*
X111889994Y-105891879D01*
X111862351Y-105887501D01*
X111657647Y-105887501D01*
X111591354Y-105898001D01*
X111455463Y-105919524D01*
X111455460Y-105919524D01*
X111279818Y-105976594D01*
X111209977Y-105978589D01*
X111150144Y-105942508D01*
X111119316Y-105879807D01*
X111117500Y-105858663D01*
X111117500Y-105348195D01*
X111115484Y-105338066D01*
X111110820Y-105314615D01*
X111093386Y-105226966D01*
X111056117Y-105136992D01*
X111046083Y-105112767D01*
X110977414Y-105009996D01*
X110977413Y-105009994D01*
X110935725Y-104968306D01*
X110890008Y-104922589D01*
X109248819Y-103281400D01*
X109215334Y-103220077D01*
X109212500Y-103193719D01*
X109212500Y-99855847D01*
X109232185Y-99788808D01*
X109284989Y-99743053D01*
X109354147Y-99733109D01*
X109417703Y-99762134D01*
X109436819Y-99782963D01*
X109498030Y-99867215D01*
X109642786Y-100011971D01*
X109797749Y-100124556D01*
X109808390Y-100132287D01*
X109924607Y-100191503D01*
X109990776Y-100225218D01*
X109990778Y-100225218D01*
X109990781Y-100225220D01*
X110095137Y-100259127D01*
X110185465Y-100288477D01*
X110286557Y-100304488D01*
X110387648Y-100320500D01*
X110387649Y-100320500D01*
X110592351Y-100320500D01*
X110592352Y-100320500D01*
X110794534Y-100288477D01*
X110989219Y-100225220D01*
X111171610Y-100132287D01*
X111275246Y-100056992D01*
X111337213Y-100011971D01*
X111337215Y-100011968D01*
X111337219Y-100011966D01*
X111481966Y-99867219D01*
X111481968Y-99867215D01*
X111481971Y-99867213D01*
X111549463Y-99774317D01*
X111602287Y-99701610D01*
X111695220Y-99519219D01*
X111758477Y-99324534D01*
X111790500Y-99122352D01*
X111790500Y-98917648D01*
X111779297Y-98846918D01*
X111758477Y-98715465D01*
X111705364Y-98552001D01*
X111695220Y-98520781D01*
X111695218Y-98520778D01*
X111695218Y-98520776D01*
X111632459Y-98397606D01*
X111602287Y-98338390D01*
X111579041Y-98306394D01*
X111481971Y-98172786D01*
X111337213Y-98028028D01*
X111171613Y-97907715D01*
X111171612Y-97907714D01*
X111171610Y-97907713D01*
X111076367Y-97859184D01*
X110989223Y-97814781D01*
X110794534Y-97751522D01*
X110619995Y-97723878D01*
X110592352Y-97719500D01*
X110387648Y-97719500D01*
X110363329Y-97723351D01*
X110185465Y-97751522D01*
X109990776Y-97814781D01*
X109808386Y-97907715D01*
X109642786Y-98028028D01*
X109498028Y-98172786D01*
X109436818Y-98257037D01*
X109381489Y-98299703D01*
X109311875Y-98305682D01*
X109250080Y-98273077D01*
X109215723Y-98212238D01*
X109212500Y-98184152D01*
X109212500Y-94854999D01*
X109232185Y-94787960D01*
X109284989Y-94742205D01*
X109354147Y-94732261D01*
X109378550Y-94743405D01*
X109410524Y-94745922D01*
X110090000Y-94066446D01*
X110090000Y-94072661D01*
X110117259Y-94174394D01*
X110169920Y-94265606D01*
X110244394Y-94340080D01*
X110335606Y-94392741D01*
X110437339Y-94420000D01*
X110443553Y-94420000D01*
X109764076Y-95099474D01*
X109808650Y-95131859D01*
X109990968Y-95224755D01*
X110185582Y-95287990D01*
X110387683Y-95320000D01*
X110592317Y-95320000D01*
X110794417Y-95287990D01*
X110989031Y-95224755D01*
X111171349Y-95131859D01*
X111215921Y-95099474D01*
X110536447Y-94420000D01*
X110542661Y-94420000D01*
X110644394Y-94392741D01*
X110735606Y-94340080D01*
X110810080Y-94265606D01*
X110862741Y-94174394D01*
X110890000Y-94072661D01*
X110890000Y-94066448D01*
X111569474Y-94745922D01*
X111569474Y-94745921D01*
X111601859Y-94701349D01*
X111694755Y-94519031D01*
X111757990Y-94324417D01*
X111790000Y-94122317D01*
X111790000Y-93917682D01*
X111757990Y-93715582D01*
X111694755Y-93520968D01*
X111601859Y-93338650D01*
X111569474Y-93294077D01*
X111569474Y-93294076D01*
X110890000Y-93973551D01*
X110890000Y-93967339D01*
X110862741Y-93865606D01*
X110810080Y-93774394D01*
X110735606Y-93699920D01*
X110644394Y-93647259D01*
X110542661Y-93620000D01*
X110536446Y-93620000D01*
X111215922Y-92940524D01*
X111215921Y-92940523D01*
X111171359Y-92908147D01*
X111171350Y-92908141D01*
X110989031Y-92815244D01*
X110794417Y-92752009D01*
X110592317Y-92720000D01*
X110387683Y-92720000D01*
X110185582Y-92752009D01*
X109990968Y-92815244D01*
X109808644Y-92908143D01*
X109764077Y-92940523D01*
X109764077Y-92940524D01*
X110443554Y-93620000D01*
X110437339Y-93620000D01*
X110335606Y-93647259D01*
X110244394Y-93699920D01*
X110169920Y-93774394D01*
X110117259Y-93865606D01*
X110090000Y-93967339D01*
X110090000Y-93973553D01*
X109410524Y-93294077D01*
X109399273Y-93294963D01*
X109368059Y-93319033D01*
X109298446Y-93325011D01*
X109236651Y-93292405D01*
X109202294Y-93231566D01*
X109201455Y-93227672D01*
X109196520Y-93202861D01*
X109188386Y-93161966D01*
X109155315Y-93082127D01*
X109141083Y-93047767D01*
X109141079Y-93047762D01*
X109141079Y-93047760D01*
X109072414Y-92944996D01*
X109072413Y-92944994D01*
X109035560Y-92908141D01*
X108985008Y-92857589D01*
X108016818Y-91889399D01*
X107983333Y-91828076D01*
X107980499Y-91801718D01*
X107980499Y-90839998D01*
X107980498Y-90839981D01*
X107969999Y-90737203D01*
X107969998Y-90737200D01*
X107943728Y-90657924D01*
X107914814Y-90570666D01*
X107822712Y-90421344D01*
X107698656Y-90297288D01*
X107646370Y-90265037D01*
X107599647Y-90213091D01*
X107588424Y-90144128D01*
X107616268Y-90080046D01*
X107674336Y-90041190D01*
X107711468Y-90035500D01*
X109289719Y-90035500D01*
X109356758Y-90055185D01*
G37*
%TD.AperFunction*%
%TA.AperFunction,Conductor*%
G36*
X116087758Y-88912185D02*
G01*
X116108400Y-88928819D01*
X117241219Y-90061638D01*
X117274704Y-90122961D01*
X117269720Y-90192653D01*
X117227848Y-90248586D01*
X117162384Y-90273003D01*
X117124605Y-90269896D01*
X117121124Y-90269060D01*
X116934486Y-90239500D01*
X116934481Y-90239500D01*
X116745519Y-90239500D01*
X116745514Y-90239500D01*
X116558881Y-90269059D01*
X116379163Y-90327454D01*
X116210800Y-90413240D01*
X116162911Y-90448034D01*
X116057927Y-90524310D01*
X116057925Y-90524312D01*
X116057924Y-90524312D01*
X115924312Y-90657924D01*
X115924312Y-90657925D01*
X115924310Y-90657927D01*
X115879427Y-90719703D01*
X115813240Y-90810800D01*
X115727454Y-90979163D01*
X115669059Y-91158881D01*
X115639500Y-91345513D01*
X115639500Y-91534486D01*
X115669059Y-91721118D01*
X115727454Y-91900836D01*
X115769760Y-91983865D01*
X115813240Y-92069199D01*
X115924310Y-92222073D01*
X116057927Y-92355690D01*
X116210801Y-92466760D01*
X116290347Y-92507290D01*
X116379163Y-92552545D01*
X116379165Y-92552545D01*
X116379168Y-92552547D01*
X116472000Y-92582710D01*
X116558881Y-92610940D01*
X116745514Y-92640500D01*
X116745519Y-92640500D01*
X116934486Y-92640500D01*
X117121118Y-92610940D01*
X117300832Y-92552547D01*
X117469199Y-92466760D01*
X117622073Y-92355690D01*
X117755690Y-92222073D01*
X117866760Y-92069199D01*
X117952547Y-91900832D01*
X118010940Y-91721118D01*
X118040500Y-91534486D01*
X118040500Y-91345513D01*
X118016564Y-91194394D01*
X118010940Y-91158882D01*
X118010937Y-91158873D01*
X118010105Y-91155404D01*
X118013598Y-91085622D01*
X118054264Y-91028806D01*
X118119191Y-91002994D01*
X118187766Y-91016383D01*
X118218361Y-91038780D01*
X124099589Y-96920008D01*
X124146887Y-96967306D01*
X124186993Y-97007412D01*
X124289760Y-97076079D01*
X124289767Y-97076083D01*
X124319653Y-97088462D01*
X124319654Y-97088463D01*
X124345011Y-97098966D01*
X124403965Y-97123386D01*
X124525192Y-97147499D01*
X124525196Y-97147500D01*
X124525197Y-97147500D01*
X140269804Y-97147500D01*
X140269805Y-97147499D01*
X140391035Y-97123386D01*
X140475345Y-97088463D01*
X140505233Y-97076083D01*
X140608008Y-97007411D01*
X140695411Y-96920008D01*
X140738877Y-96876542D01*
X140743703Y-96871714D01*
X142409343Y-95206076D01*
X142971601Y-94643819D01*
X143032924Y-94610334D01*
X143059282Y-94607500D01*
X144009691Y-94607500D01*
X144076730Y-94627185D01*
X144122485Y-94679989D01*
X144132429Y-94749147D01*
X144103404Y-94812703D01*
X144082575Y-94831819D01*
X144054077Y-94852523D01*
X144054077Y-94852524D01*
X144733554Y-95532000D01*
X144727339Y-95532000D01*
X144625606Y-95559259D01*
X144534394Y-95611920D01*
X144459920Y-95686394D01*
X144407259Y-95777606D01*
X144380000Y-95879339D01*
X144380000Y-95885553D01*
X143700524Y-95206077D01*
X143700523Y-95206077D01*
X143668143Y-95250644D01*
X143575244Y-95432968D01*
X143512009Y-95627582D01*
X143480000Y-95829682D01*
X143480000Y-96034317D01*
X143512009Y-96236417D01*
X143575244Y-96431031D01*
X143668141Y-96613350D01*
X143668147Y-96613359D01*
X143700523Y-96657921D01*
X143700524Y-96657922D01*
X144380000Y-95978446D01*
X144380000Y-95984661D01*
X144407259Y-96086394D01*
X144459920Y-96177606D01*
X144534394Y-96252080D01*
X144625606Y-96304741D01*
X144727339Y-96332000D01*
X144733553Y-96332000D01*
X144054076Y-97011474D01*
X144098650Y-97043859D01*
X144280968Y-97136755D01*
X144475582Y-97199990D01*
X144677683Y-97232000D01*
X144882317Y-97232000D01*
X145084417Y-97199990D01*
X145279031Y-97136755D01*
X145461349Y-97043859D01*
X145505921Y-97011474D01*
X144826447Y-96332000D01*
X144832661Y-96332000D01*
X144934394Y-96304741D01*
X145025606Y-96252080D01*
X145100080Y-96177606D01*
X145152741Y-96086394D01*
X145180000Y-95984661D01*
X145180000Y-95978448D01*
X145859474Y-96657922D01*
X145859474Y-96657921D01*
X145891859Y-96613349D01*
X145984755Y-96431031D01*
X146047990Y-96236417D01*
X146080000Y-96034317D01*
X146080000Y-95829682D01*
X146047990Y-95627582D01*
X145984755Y-95432968D01*
X145891859Y-95250650D01*
X145859474Y-95206077D01*
X145859474Y-95206076D01*
X145180000Y-95885551D01*
X145180000Y-95879339D01*
X145152741Y-95777606D01*
X145100080Y-95686394D01*
X145025606Y-95611920D01*
X144934394Y-95559259D01*
X144832661Y-95532000D01*
X144826446Y-95532000D01*
X145505922Y-94852524D01*
X145505921Y-94852522D01*
X145477424Y-94831818D01*
X145434758Y-94776488D01*
X145428779Y-94706875D01*
X145461385Y-94645080D01*
X145522223Y-94610723D01*
X145550309Y-94607500D01*
X153612719Y-94607500D01*
X153679758Y-94627185D01*
X153700400Y-94643819D01*
X155546181Y-96489600D01*
X155579666Y-96550923D01*
X155582500Y-96577281D01*
X155582500Y-97337218D01*
X155562815Y-97404257D01*
X155531385Y-97437536D01*
X155362787Y-97560028D01*
X155362782Y-97560032D01*
X155218028Y-97704786D01*
X155097715Y-97870386D01*
X155050485Y-97963080D01*
X155002510Y-98013876D01*
X154934689Y-98030671D01*
X154868554Y-98008134D01*
X154829515Y-97963080D01*
X154821553Y-97947454D01*
X154782287Y-97870390D01*
X154774145Y-97859184D01*
X154661971Y-97704786D01*
X154517213Y-97560028D01*
X154351613Y-97439715D01*
X154351612Y-97439714D01*
X154351610Y-97439713D01*
X154282024Y-97404257D01*
X154169223Y-97346781D01*
X153974534Y-97283522D01*
X153799995Y-97255878D01*
X153772352Y-97251500D01*
X153567648Y-97251500D01*
X153543329Y-97255351D01*
X153365465Y-97283522D01*
X153170776Y-97346781D01*
X152988386Y-97439715D01*
X152822786Y-97560028D01*
X152678028Y-97704786D01*
X152557715Y-97870386D01*
X152510485Y-97963080D01*
X152462510Y-98013876D01*
X152394689Y-98030671D01*
X152328554Y-98008134D01*
X152289515Y-97963080D01*
X152281553Y-97947454D01*
X152242287Y-97870390D01*
X152234145Y-97859184D01*
X152121971Y-97704786D01*
X151977213Y-97560028D01*
X151811613Y-97439715D01*
X151811612Y-97439714D01*
X151811610Y-97439713D01*
X151742024Y-97404257D01*
X151629223Y-97346781D01*
X151434534Y-97283522D01*
X151259995Y-97255878D01*
X151232352Y-97251500D01*
X151027648Y-97251500D01*
X151003329Y-97255351D01*
X150825465Y-97283522D01*
X150630776Y-97346781D01*
X150448386Y-97439715D01*
X150282786Y-97560028D01*
X150138032Y-97704782D01*
X150138028Y-97704787D01*
X150069978Y-97798451D01*
X150014648Y-97841117D01*
X149945035Y-97847096D01*
X149883240Y-97814490D01*
X149851954Y-97764570D01*
X149847631Y-97751523D01*
X149824814Y-97682666D01*
X149732712Y-97533344D01*
X149608656Y-97409288D01*
X149459334Y-97317186D01*
X149292797Y-97262001D01*
X149292795Y-97262000D01*
X149190010Y-97251500D01*
X147989998Y-97251500D01*
X147989981Y-97251501D01*
X147887203Y-97262000D01*
X147887200Y-97262001D01*
X147720668Y-97317185D01*
X147720663Y-97317187D01*
X147571342Y-97409289D01*
X147447289Y-97533342D01*
X147355187Y-97682663D01*
X147355185Y-97682668D01*
X147303215Y-97839504D01*
X147263442Y-97896949D01*
X147198926Y-97923772D01*
X147185509Y-97924500D01*
X130621192Y-97924500D01*
X130499973Y-97948611D01*
X130499973Y-97948612D01*
X130499970Y-97948613D01*
X130499966Y-97948614D01*
X130433070Y-97976323D01*
X130433068Y-97976323D01*
X130385768Y-97995916D01*
X130385764Y-97995918D01*
X130300663Y-98052781D01*
X130282992Y-98064589D01*
X130282988Y-98064591D01*
X127490573Y-100857008D01*
X126599992Y-101747589D01*
X126577352Y-101770229D01*
X126512586Y-101834994D01*
X126512585Y-101834996D01*
X126443233Y-101938789D01*
X126441586Y-101943393D01*
X126396614Y-102051964D01*
X126396612Y-102051972D01*
X126372500Y-102173192D01*
X126372500Y-105973218D01*
X126352815Y-106040257D01*
X126321385Y-106073536D01*
X126152786Y-106196029D01*
X126152781Y-106196033D01*
X126008027Y-106340787D01*
X125887714Y-106506387D01*
X125840484Y-106599081D01*
X125792509Y-106649877D01*
X125724688Y-106666672D01*
X125658553Y-106644135D01*
X125619514Y-106599081D01*
X125572419Y-106506653D01*
X125572286Y-106506391D01*
X125540091Y-106462078D01*
X125451970Y-106340787D01*
X125307212Y-106196029D01*
X125141612Y-106075716D01*
X125141611Y-106075715D01*
X125141609Y-106075714D01*
X125072021Y-106040257D01*
X124959222Y-105982782D01*
X124764533Y-105919523D01*
X124589994Y-105891879D01*
X124562351Y-105887501D01*
X124357647Y-105887501D01*
X124333328Y-105891352D01*
X124155464Y-105919523D01*
X123960775Y-105982782D01*
X123778385Y-106075716D01*
X123612785Y-106196029D01*
X123468027Y-106340787D01*
X123347714Y-106506387D01*
X123300484Y-106599081D01*
X123252509Y-106649877D01*
X123184688Y-106666672D01*
X123118553Y-106644135D01*
X123079514Y-106599081D01*
X123032419Y-106506653D01*
X123032286Y-106506391D01*
X123000091Y-106462078D01*
X122911970Y-106340787D01*
X122767212Y-106196029D01*
X122601612Y-106075716D01*
X122601611Y-106075715D01*
X122601609Y-106075714D01*
X122532021Y-106040257D01*
X122419222Y-105982782D01*
X122224533Y-105919523D01*
X122049994Y-105891879D01*
X122022351Y-105887501D01*
X121817647Y-105887501D01*
X121751354Y-105898001D01*
X121615463Y-105919524D01*
X121615460Y-105919524D01*
X121439818Y-105976594D01*
X121369977Y-105978589D01*
X121310144Y-105942508D01*
X121279316Y-105879807D01*
X121277500Y-105858663D01*
X121277500Y-100395196D01*
X121277499Y-100395195D01*
X121268627Y-100350588D01*
X121253386Y-100273966D01*
X121225676Y-100207070D01*
X121206083Y-100159767D01*
X121196696Y-100145719D01*
X121137414Y-100056996D01*
X121137413Y-100056994D01*
X121132384Y-100051965D01*
X121050008Y-99969589D01*
X120045932Y-98965513D01*
X121989500Y-98965513D01*
X121989500Y-99154486D01*
X122019059Y-99341118D01*
X122077454Y-99520836D01*
X122135387Y-99634534D01*
X122163240Y-99689199D01*
X122274310Y-99842073D01*
X122407927Y-99975690D01*
X122560801Y-100086760D01*
X122640347Y-100127290D01*
X122729163Y-100172545D01*
X122729165Y-100172545D01*
X122729168Y-100172547D01*
X122813216Y-100199856D01*
X122908881Y-100230940D01*
X123095514Y-100260500D01*
X123095519Y-100260500D01*
X123284486Y-100260500D01*
X123471118Y-100230940D01*
X123488728Y-100225218D01*
X123650832Y-100172547D01*
X123819199Y-100086760D01*
X123972073Y-99975690D01*
X124105690Y-99842073D01*
X124216760Y-99689199D01*
X124302547Y-99520832D01*
X124360940Y-99341118D01*
X124370306Y-99281984D01*
X124390500Y-99154486D01*
X124390500Y-98965513D01*
X124360940Y-98778881D01*
X124320466Y-98654317D01*
X124302547Y-98599168D01*
X124302545Y-98599165D01*
X124302545Y-98599163D01*
X124216759Y-98430800D01*
X124192642Y-98397606D01*
X124105690Y-98277927D01*
X123972073Y-98144310D01*
X123819199Y-98033240D01*
X123650836Y-97947454D01*
X123471118Y-97889059D01*
X123284486Y-97859500D01*
X123284481Y-97859500D01*
X123095519Y-97859500D01*
X123095514Y-97859500D01*
X122908881Y-97889059D01*
X122729163Y-97947454D01*
X122560800Y-98033240D01*
X122512911Y-98068034D01*
X122407927Y-98144310D01*
X122407925Y-98144312D01*
X122407924Y-98144312D01*
X122274312Y-98277924D01*
X122274312Y-98277925D01*
X122274310Y-98277927D01*
X122245293Y-98317865D01*
X122163240Y-98430800D01*
X122077454Y-98599163D01*
X122019059Y-98778881D01*
X121989500Y-98965513D01*
X120045932Y-98965513D01*
X115166705Y-94086286D01*
X110184601Y-89104181D01*
X110151116Y-89042858D01*
X110156100Y-88973166D01*
X110197972Y-88917233D01*
X110263436Y-88892816D01*
X110272282Y-88892500D01*
X116020719Y-88892500D01*
X116087758Y-88912185D01*
G37*
%TD.AperFunction*%
%TD*%
M02*
