%TF.GenerationSoftware,KiCad,Pcbnew,9.0.7*%
%TF.CreationDate,2026-01-22T10:29:23+01:00*%
%TF.ProjectId,xt-isa-umb,78742d69-7361-42d7-956d-622e6b696361,0.1*%
%TF.SameCoordinates,Original*%
%TF.FileFunction,Legend,Top*%
%TF.FilePolarity,Positive*%
%FSLAX46Y46*%
G04 Gerber Fmt 4.6, Leading zero omitted, Abs format (unit mm)*
G04 Created by KiCad (PCBNEW 9.0.7) date 2026-01-22 10:29:23*
%MOMM*%
%LPD*%
G01*
G04 APERTURE LIST*
%ADD10C,0.125000*%
%ADD11C,0.400000*%
%ADD12C,0.150000*%
%ADD13C,0.120000*%
G04 APERTURE END LIST*
D10*
X143988950Y-125486287D02*
X143988950Y-126200572D01*
X143988950Y-126200572D02*
X143941331Y-126343429D01*
X143941331Y-126343429D02*
X143846093Y-126438668D01*
X143846093Y-126438668D02*
X143703236Y-126486287D01*
X143703236Y-126486287D02*
X143607998Y-126486287D01*
X144465141Y-126486287D02*
X144465141Y-125486287D01*
X144465141Y-125486287D02*
X144846093Y-125486287D01*
X144846093Y-125486287D02*
X144941331Y-125533906D01*
X144941331Y-125533906D02*
X144988950Y-125581525D01*
X144988950Y-125581525D02*
X145036569Y-125676763D01*
X145036569Y-125676763D02*
X145036569Y-125819620D01*
X145036569Y-125819620D02*
X144988950Y-125914858D01*
X144988950Y-125914858D02*
X144941331Y-125962477D01*
X144941331Y-125962477D02*
X144846093Y-126010096D01*
X144846093Y-126010096D02*
X144465141Y-126010096D01*
X145988950Y-126486287D02*
X145417522Y-126486287D01*
X145703236Y-126486287D02*
X145703236Y-125486287D01*
X145703236Y-125486287D02*
X145607998Y-125629144D01*
X145607998Y-125629144D02*
X145512760Y-125724382D01*
X145512760Y-125724382D02*
X145417522Y-125772001D01*
X146417522Y-126391048D02*
X146465141Y-126438668D01*
X146465141Y-126438668D02*
X146417522Y-126486287D01*
X146417522Y-126486287D02*
X146369903Y-126438668D01*
X146369903Y-126438668D02*
X146417522Y-126391048D01*
X146417522Y-126391048D02*
X146417522Y-126486287D01*
X146417522Y-125867239D02*
X146465141Y-125914858D01*
X146465141Y-125914858D02*
X146417522Y-125962477D01*
X146417522Y-125962477D02*
X146369903Y-125914858D01*
X146369903Y-125914858D02*
X146417522Y-125867239D01*
X146417522Y-125867239D02*
X146417522Y-125962477D01*
X148846093Y-125486287D02*
X148655617Y-125486287D01*
X148655617Y-125486287D02*
X148560379Y-125533906D01*
X148560379Y-125533906D02*
X148512760Y-125581525D01*
X148512760Y-125581525D02*
X148417522Y-125724382D01*
X148417522Y-125724382D02*
X148369903Y-125914858D01*
X148369903Y-125914858D02*
X148369903Y-126295810D01*
X148369903Y-126295810D02*
X148417522Y-126391048D01*
X148417522Y-126391048D02*
X148465141Y-126438668D01*
X148465141Y-126438668D02*
X148560379Y-126486287D01*
X148560379Y-126486287D02*
X148750855Y-126486287D01*
X148750855Y-126486287D02*
X148846093Y-126438668D01*
X148846093Y-126438668D02*
X148893712Y-126391048D01*
X148893712Y-126391048D02*
X148941331Y-126295810D01*
X148941331Y-126295810D02*
X148941331Y-126057715D01*
X148941331Y-126057715D02*
X148893712Y-125962477D01*
X148893712Y-125962477D02*
X148846093Y-125914858D01*
X148846093Y-125914858D02*
X148750855Y-125867239D01*
X148750855Y-125867239D02*
X148560379Y-125867239D01*
X148560379Y-125867239D02*
X148465141Y-125914858D01*
X148465141Y-125914858D02*
X148417522Y-125962477D01*
X148417522Y-125962477D02*
X148369903Y-126057715D01*
X149798474Y-125819620D02*
X149798474Y-126486287D01*
X149560379Y-125438668D02*
X149322284Y-126152953D01*
X149322284Y-126152953D02*
X149941331Y-126152953D01*
X150322284Y-126486287D02*
X150322284Y-125486287D01*
X150417522Y-126105334D02*
X150703236Y-126486287D01*
X150703236Y-125819620D02*
X150322284Y-126200572D01*
X151465141Y-125962477D02*
X151607998Y-126010096D01*
X151607998Y-126010096D02*
X151655617Y-126057715D01*
X151655617Y-126057715D02*
X151703236Y-126152953D01*
X151703236Y-126152953D02*
X151703236Y-126295810D01*
X151703236Y-126295810D02*
X151655617Y-126391048D01*
X151655617Y-126391048D02*
X151607998Y-126438668D01*
X151607998Y-126438668D02*
X151512760Y-126486287D01*
X151512760Y-126486287D02*
X151131808Y-126486287D01*
X151131808Y-126486287D02*
X151131808Y-125486287D01*
X151131808Y-125486287D02*
X151465141Y-125486287D01*
X151465141Y-125486287D02*
X151560379Y-125533906D01*
X151560379Y-125533906D02*
X151607998Y-125581525D01*
X151607998Y-125581525D02*
X151655617Y-125676763D01*
X151655617Y-125676763D02*
X151655617Y-125772001D01*
X151655617Y-125772001D02*
X151607998Y-125867239D01*
X151607998Y-125867239D02*
X151560379Y-125914858D01*
X151560379Y-125914858D02*
X151465141Y-125962477D01*
X151465141Y-125962477D02*
X151131808Y-125962477D01*
X153179427Y-126867239D02*
X153131808Y-126819620D01*
X153131808Y-126819620D02*
X153036570Y-126676763D01*
X153036570Y-126676763D02*
X152988951Y-126581525D01*
X152988951Y-126581525D02*
X152941332Y-126438668D01*
X152941332Y-126438668D02*
X152893713Y-126200572D01*
X152893713Y-126200572D02*
X152893713Y-126010096D01*
X152893713Y-126010096D02*
X152941332Y-125772001D01*
X152941332Y-125772001D02*
X152988951Y-125629144D01*
X152988951Y-125629144D02*
X153036570Y-125533906D01*
X153036570Y-125533906D02*
X153131808Y-125391048D01*
X153131808Y-125391048D02*
X153179427Y-125343429D01*
X153560380Y-126486287D02*
X153560380Y-125486287D01*
X153560380Y-125486287D02*
X153798475Y-125486287D01*
X153798475Y-125486287D02*
X153941332Y-125533906D01*
X153941332Y-125533906D02*
X154036570Y-125629144D01*
X154036570Y-125629144D02*
X154084189Y-125724382D01*
X154084189Y-125724382D02*
X154131808Y-125914858D01*
X154131808Y-125914858D02*
X154131808Y-126057715D01*
X154131808Y-126057715D02*
X154084189Y-126248191D01*
X154084189Y-126248191D02*
X154036570Y-126343429D01*
X154036570Y-126343429D02*
X153941332Y-126438668D01*
X153941332Y-126438668D02*
X153798475Y-126486287D01*
X153798475Y-126486287D02*
X153560380Y-126486287D01*
X154750856Y-125486287D02*
X154846094Y-125486287D01*
X154846094Y-125486287D02*
X154941332Y-125533906D01*
X154941332Y-125533906D02*
X154988951Y-125581525D01*
X154988951Y-125581525D02*
X155036570Y-125676763D01*
X155036570Y-125676763D02*
X155084189Y-125867239D01*
X155084189Y-125867239D02*
X155084189Y-126105334D01*
X155084189Y-126105334D02*
X155036570Y-126295810D01*
X155036570Y-126295810D02*
X154988951Y-126391048D01*
X154988951Y-126391048D02*
X154941332Y-126438668D01*
X154941332Y-126438668D02*
X154846094Y-126486287D01*
X154846094Y-126486287D02*
X154750856Y-126486287D01*
X154750856Y-126486287D02*
X154655618Y-126438668D01*
X154655618Y-126438668D02*
X154607999Y-126391048D01*
X154607999Y-126391048D02*
X154560380Y-126295810D01*
X154560380Y-126295810D02*
X154512761Y-126105334D01*
X154512761Y-126105334D02*
X154512761Y-125867239D01*
X154512761Y-125867239D02*
X154560380Y-125676763D01*
X154560380Y-125676763D02*
X154607999Y-125581525D01*
X154607999Y-125581525D02*
X154655618Y-125533906D01*
X154655618Y-125533906D02*
X154750856Y-125486287D01*
X155703237Y-125486287D02*
X155798475Y-125486287D01*
X155798475Y-125486287D02*
X155893713Y-125533906D01*
X155893713Y-125533906D02*
X155941332Y-125581525D01*
X155941332Y-125581525D02*
X155988951Y-125676763D01*
X155988951Y-125676763D02*
X156036570Y-125867239D01*
X156036570Y-125867239D02*
X156036570Y-126105334D01*
X156036570Y-126105334D02*
X155988951Y-126295810D01*
X155988951Y-126295810D02*
X155941332Y-126391048D01*
X155941332Y-126391048D02*
X155893713Y-126438668D01*
X155893713Y-126438668D02*
X155798475Y-126486287D01*
X155798475Y-126486287D02*
X155703237Y-126486287D01*
X155703237Y-126486287D02*
X155607999Y-126438668D01*
X155607999Y-126438668D02*
X155560380Y-126391048D01*
X155560380Y-126391048D02*
X155512761Y-126295810D01*
X155512761Y-126295810D02*
X155465142Y-126105334D01*
X155465142Y-126105334D02*
X155465142Y-125867239D01*
X155465142Y-125867239D02*
X155512761Y-125676763D01*
X155512761Y-125676763D02*
X155560380Y-125581525D01*
X155560380Y-125581525D02*
X155607999Y-125533906D01*
X155607999Y-125533906D02*
X155703237Y-125486287D01*
X156655618Y-125486287D02*
X156750856Y-125486287D01*
X156750856Y-125486287D02*
X156846094Y-125533906D01*
X156846094Y-125533906D02*
X156893713Y-125581525D01*
X156893713Y-125581525D02*
X156941332Y-125676763D01*
X156941332Y-125676763D02*
X156988951Y-125867239D01*
X156988951Y-125867239D02*
X156988951Y-126105334D01*
X156988951Y-126105334D02*
X156941332Y-126295810D01*
X156941332Y-126295810D02*
X156893713Y-126391048D01*
X156893713Y-126391048D02*
X156846094Y-126438668D01*
X156846094Y-126438668D02*
X156750856Y-126486287D01*
X156750856Y-126486287D02*
X156655618Y-126486287D01*
X156655618Y-126486287D02*
X156560380Y-126438668D01*
X156560380Y-126438668D02*
X156512761Y-126391048D01*
X156512761Y-126391048D02*
X156465142Y-126295810D01*
X156465142Y-126295810D02*
X156417523Y-126105334D01*
X156417523Y-126105334D02*
X156417523Y-125867239D01*
X156417523Y-125867239D02*
X156465142Y-125676763D01*
X156465142Y-125676763D02*
X156512761Y-125581525D01*
X156512761Y-125581525D02*
X156560380Y-125533906D01*
X156560380Y-125533906D02*
X156655618Y-125486287D01*
X157607999Y-125486287D02*
X157703237Y-125486287D01*
X157703237Y-125486287D02*
X157798475Y-125533906D01*
X157798475Y-125533906D02*
X157846094Y-125581525D01*
X157846094Y-125581525D02*
X157893713Y-125676763D01*
X157893713Y-125676763D02*
X157941332Y-125867239D01*
X157941332Y-125867239D02*
X157941332Y-126105334D01*
X157941332Y-126105334D02*
X157893713Y-126295810D01*
X157893713Y-126295810D02*
X157846094Y-126391048D01*
X157846094Y-126391048D02*
X157798475Y-126438668D01*
X157798475Y-126438668D02*
X157703237Y-126486287D01*
X157703237Y-126486287D02*
X157607999Y-126486287D01*
X157607999Y-126486287D02*
X157512761Y-126438668D01*
X157512761Y-126438668D02*
X157465142Y-126391048D01*
X157465142Y-126391048D02*
X157417523Y-126295810D01*
X157417523Y-126295810D02*
X157369904Y-126105334D01*
X157369904Y-126105334D02*
X157369904Y-125867239D01*
X157369904Y-125867239D02*
X157417523Y-125676763D01*
X157417523Y-125676763D02*
X157465142Y-125581525D01*
X157465142Y-125581525D02*
X157512761Y-125533906D01*
X157512761Y-125533906D02*
X157607999Y-125486287D01*
X159131809Y-126105334D02*
X159893714Y-126105334D01*
X161131809Y-126486287D02*
X161131809Y-125486287D01*
X161131809Y-125486287D02*
X161369904Y-125486287D01*
X161369904Y-125486287D02*
X161512761Y-125533906D01*
X161512761Y-125533906D02*
X161607999Y-125629144D01*
X161607999Y-125629144D02*
X161655618Y-125724382D01*
X161655618Y-125724382D02*
X161703237Y-125914858D01*
X161703237Y-125914858D02*
X161703237Y-126057715D01*
X161703237Y-126057715D02*
X161655618Y-126248191D01*
X161655618Y-126248191D02*
X161607999Y-126343429D01*
X161607999Y-126343429D02*
X161512761Y-126438668D01*
X161512761Y-126438668D02*
X161369904Y-126486287D01*
X161369904Y-126486287D02*
X161131809Y-126486287D01*
X162465142Y-125962477D02*
X162131809Y-125962477D01*
X162131809Y-126486287D02*
X162131809Y-125486287D01*
X162131809Y-125486287D02*
X162607999Y-125486287D01*
X163322285Y-125962477D02*
X162988952Y-125962477D01*
X162988952Y-126486287D02*
X162988952Y-125486287D01*
X162988952Y-125486287D02*
X163465142Y-125486287D01*
X164179428Y-125962477D02*
X163846095Y-125962477D01*
X163846095Y-126486287D02*
X163846095Y-125486287D01*
X163846095Y-125486287D02*
X164322285Y-125486287D01*
X165036571Y-125962477D02*
X164703238Y-125962477D01*
X164703238Y-126486287D02*
X164703238Y-125486287D01*
X164703238Y-125486287D02*
X165179428Y-125486287D01*
X165465143Y-126867239D02*
X165512762Y-126819620D01*
X165512762Y-126819620D02*
X165608000Y-126676763D01*
X165608000Y-126676763D02*
X165655619Y-126581525D01*
X165655619Y-126581525D02*
X165703238Y-126438668D01*
X165703238Y-126438668D02*
X165750857Y-126200572D01*
X165750857Y-126200572D02*
X165750857Y-126010096D01*
X165750857Y-126010096D02*
X165703238Y-125772001D01*
X165703238Y-125772001D02*
X165655619Y-125629144D01*
X165655619Y-125629144D02*
X165608000Y-125533906D01*
X165608000Y-125533906D02*
X165512762Y-125391048D01*
X165512762Y-125391048D02*
X165465143Y-125343429D01*
X143988950Y-127096231D02*
X143988950Y-127810516D01*
X143988950Y-127810516D02*
X143941331Y-127953373D01*
X143941331Y-127953373D02*
X143846093Y-128048612D01*
X143846093Y-128048612D02*
X143703236Y-128096231D01*
X143703236Y-128096231D02*
X143607998Y-128096231D01*
X144465141Y-128096231D02*
X144465141Y-127096231D01*
X144465141Y-127096231D02*
X144846093Y-127096231D01*
X144846093Y-127096231D02*
X144941331Y-127143850D01*
X144941331Y-127143850D02*
X144988950Y-127191469D01*
X144988950Y-127191469D02*
X145036569Y-127286707D01*
X145036569Y-127286707D02*
X145036569Y-127429564D01*
X145036569Y-127429564D02*
X144988950Y-127524802D01*
X144988950Y-127524802D02*
X144941331Y-127572421D01*
X144941331Y-127572421D02*
X144846093Y-127620040D01*
X144846093Y-127620040D02*
X144465141Y-127620040D01*
X145417522Y-127191469D02*
X145465141Y-127143850D01*
X145465141Y-127143850D02*
X145560379Y-127096231D01*
X145560379Y-127096231D02*
X145798474Y-127096231D01*
X145798474Y-127096231D02*
X145893712Y-127143850D01*
X145893712Y-127143850D02*
X145941331Y-127191469D01*
X145941331Y-127191469D02*
X145988950Y-127286707D01*
X145988950Y-127286707D02*
X145988950Y-127381945D01*
X145988950Y-127381945D02*
X145941331Y-127524802D01*
X145941331Y-127524802D02*
X145369903Y-128096231D01*
X145369903Y-128096231D02*
X145988950Y-128096231D01*
X146417522Y-128000992D02*
X146465141Y-128048612D01*
X146465141Y-128048612D02*
X146417522Y-128096231D01*
X146417522Y-128096231D02*
X146369903Y-128048612D01*
X146369903Y-128048612D02*
X146417522Y-128000992D01*
X146417522Y-128000992D02*
X146417522Y-128096231D01*
X146417522Y-127477183D02*
X146465141Y-127524802D01*
X146465141Y-127524802D02*
X146417522Y-127572421D01*
X146417522Y-127572421D02*
X146369903Y-127524802D01*
X146369903Y-127524802D02*
X146417522Y-127477183D01*
X146417522Y-127477183D02*
X146417522Y-127572421D01*
X148846093Y-127096231D02*
X148655617Y-127096231D01*
X148655617Y-127096231D02*
X148560379Y-127143850D01*
X148560379Y-127143850D02*
X148512760Y-127191469D01*
X148512760Y-127191469D02*
X148417522Y-127334326D01*
X148417522Y-127334326D02*
X148369903Y-127524802D01*
X148369903Y-127524802D02*
X148369903Y-127905754D01*
X148369903Y-127905754D02*
X148417522Y-128000992D01*
X148417522Y-128000992D02*
X148465141Y-128048612D01*
X148465141Y-128048612D02*
X148560379Y-128096231D01*
X148560379Y-128096231D02*
X148750855Y-128096231D01*
X148750855Y-128096231D02*
X148846093Y-128048612D01*
X148846093Y-128048612D02*
X148893712Y-128000992D01*
X148893712Y-128000992D02*
X148941331Y-127905754D01*
X148941331Y-127905754D02*
X148941331Y-127667659D01*
X148941331Y-127667659D02*
X148893712Y-127572421D01*
X148893712Y-127572421D02*
X148846093Y-127524802D01*
X148846093Y-127524802D02*
X148750855Y-127477183D01*
X148750855Y-127477183D02*
X148560379Y-127477183D01*
X148560379Y-127477183D02*
X148465141Y-127524802D01*
X148465141Y-127524802D02*
X148417522Y-127572421D01*
X148417522Y-127572421D02*
X148369903Y-127667659D01*
X149798474Y-127429564D02*
X149798474Y-128096231D01*
X149560379Y-127048612D02*
X149322284Y-127762897D01*
X149322284Y-127762897D02*
X149941331Y-127762897D01*
X150322284Y-128096231D02*
X150322284Y-127096231D01*
X150417522Y-127715278D02*
X150703236Y-128096231D01*
X150703236Y-127429564D02*
X150322284Y-127810516D01*
X151465141Y-127572421D02*
X151607998Y-127620040D01*
X151607998Y-127620040D02*
X151655617Y-127667659D01*
X151655617Y-127667659D02*
X151703236Y-127762897D01*
X151703236Y-127762897D02*
X151703236Y-127905754D01*
X151703236Y-127905754D02*
X151655617Y-128000992D01*
X151655617Y-128000992D02*
X151607998Y-128048612D01*
X151607998Y-128048612D02*
X151512760Y-128096231D01*
X151512760Y-128096231D02*
X151131808Y-128096231D01*
X151131808Y-128096231D02*
X151131808Y-127096231D01*
X151131808Y-127096231D02*
X151465141Y-127096231D01*
X151465141Y-127096231D02*
X151560379Y-127143850D01*
X151560379Y-127143850D02*
X151607998Y-127191469D01*
X151607998Y-127191469D02*
X151655617Y-127286707D01*
X151655617Y-127286707D02*
X151655617Y-127381945D01*
X151655617Y-127381945D02*
X151607998Y-127477183D01*
X151607998Y-127477183D02*
X151560379Y-127524802D01*
X151560379Y-127524802D02*
X151465141Y-127572421D01*
X151465141Y-127572421D02*
X151131808Y-127572421D01*
X153179427Y-128477183D02*
X153131808Y-128429564D01*
X153131808Y-128429564D02*
X153036570Y-128286707D01*
X153036570Y-128286707D02*
X152988951Y-128191469D01*
X152988951Y-128191469D02*
X152941332Y-128048612D01*
X152941332Y-128048612D02*
X152893713Y-127810516D01*
X152893713Y-127810516D02*
X152893713Y-127620040D01*
X152893713Y-127620040D02*
X152941332Y-127381945D01*
X152941332Y-127381945D02*
X152988951Y-127239088D01*
X152988951Y-127239088D02*
X153036570Y-127143850D01*
X153036570Y-127143850D02*
X153131808Y-127000992D01*
X153131808Y-127000992D02*
X153179427Y-126953373D01*
X153560380Y-127572421D02*
X153893713Y-127572421D01*
X154036570Y-128096231D02*
X153560380Y-128096231D01*
X153560380Y-128096231D02*
X153560380Y-127096231D01*
X153560380Y-127096231D02*
X154036570Y-127096231D01*
X154655618Y-127096231D02*
X154750856Y-127096231D01*
X154750856Y-127096231D02*
X154846094Y-127143850D01*
X154846094Y-127143850D02*
X154893713Y-127191469D01*
X154893713Y-127191469D02*
X154941332Y-127286707D01*
X154941332Y-127286707D02*
X154988951Y-127477183D01*
X154988951Y-127477183D02*
X154988951Y-127715278D01*
X154988951Y-127715278D02*
X154941332Y-127905754D01*
X154941332Y-127905754D02*
X154893713Y-128000992D01*
X154893713Y-128000992D02*
X154846094Y-128048612D01*
X154846094Y-128048612D02*
X154750856Y-128096231D01*
X154750856Y-128096231D02*
X154655618Y-128096231D01*
X154655618Y-128096231D02*
X154560380Y-128048612D01*
X154560380Y-128048612D02*
X154512761Y-128000992D01*
X154512761Y-128000992D02*
X154465142Y-127905754D01*
X154465142Y-127905754D02*
X154417523Y-127715278D01*
X154417523Y-127715278D02*
X154417523Y-127477183D01*
X154417523Y-127477183D02*
X154465142Y-127286707D01*
X154465142Y-127286707D02*
X154512761Y-127191469D01*
X154512761Y-127191469D02*
X154560380Y-127143850D01*
X154560380Y-127143850D02*
X154655618Y-127096231D01*
X155607999Y-127096231D02*
X155703237Y-127096231D01*
X155703237Y-127096231D02*
X155798475Y-127143850D01*
X155798475Y-127143850D02*
X155846094Y-127191469D01*
X155846094Y-127191469D02*
X155893713Y-127286707D01*
X155893713Y-127286707D02*
X155941332Y-127477183D01*
X155941332Y-127477183D02*
X155941332Y-127715278D01*
X155941332Y-127715278D02*
X155893713Y-127905754D01*
X155893713Y-127905754D02*
X155846094Y-128000992D01*
X155846094Y-128000992D02*
X155798475Y-128048612D01*
X155798475Y-128048612D02*
X155703237Y-128096231D01*
X155703237Y-128096231D02*
X155607999Y-128096231D01*
X155607999Y-128096231D02*
X155512761Y-128048612D01*
X155512761Y-128048612D02*
X155465142Y-128000992D01*
X155465142Y-128000992D02*
X155417523Y-127905754D01*
X155417523Y-127905754D02*
X155369904Y-127715278D01*
X155369904Y-127715278D02*
X155369904Y-127477183D01*
X155369904Y-127477183D02*
X155417523Y-127286707D01*
X155417523Y-127286707D02*
X155465142Y-127191469D01*
X155465142Y-127191469D02*
X155512761Y-127143850D01*
X155512761Y-127143850D02*
X155607999Y-127096231D01*
X156560380Y-127096231D02*
X156655618Y-127096231D01*
X156655618Y-127096231D02*
X156750856Y-127143850D01*
X156750856Y-127143850D02*
X156798475Y-127191469D01*
X156798475Y-127191469D02*
X156846094Y-127286707D01*
X156846094Y-127286707D02*
X156893713Y-127477183D01*
X156893713Y-127477183D02*
X156893713Y-127715278D01*
X156893713Y-127715278D02*
X156846094Y-127905754D01*
X156846094Y-127905754D02*
X156798475Y-128000992D01*
X156798475Y-128000992D02*
X156750856Y-128048612D01*
X156750856Y-128048612D02*
X156655618Y-128096231D01*
X156655618Y-128096231D02*
X156560380Y-128096231D01*
X156560380Y-128096231D02*
X156465142Y-128048612D01*
X156465142Y-128048612D02*
X156417523Y-128000992D01*
X156417523Y-128000992D02*
X156369904Y-127905754D01*
X156369904Y-127905754D02*
X156322285Y-127715278D01*
X156322285Y-127715278D02*
X156322285Y-127477183D01*
X156322285Y-127477183D02*
X156369904Y-127286707D01*
X156369904Y-127286707D02*
X156417523Y-127191469D01*
X156417523Y-127191469D02*
X156465142Y-127143850D01*
X156465142Y-127143850D02*
X156560380Y-127096231D01*
X157512761Y-127096231D02*
X157607999Y-127096231D01*
X157607999Y-127096231D02*
X157703237Y-127143850D01*
X157703237Y-127143850D02*
X157750856Y-127191469D01*
X157750856Y-127191469D02*
X157798475Y-127286707D01*
X157798475Y-127286707D02*
X157846094Y-127477183D01*
X157846094Y-127477183D02*
X157846094Y-127715278D01*
X157846094Y-127715278D02*
X157798475Y-127905754D01*
X157798475Y-127905754D02*
X157750856Y-128000992D01*
X157750856Y-128000992D02*
X157703237Y-128048612D01*
X157703237Y-128048612D02*
X157607999Y-128096231D01*
X157607999Y-128096231D02*
X157512761Y-128096231D01*
X157512761Y-128096231D02*
X157417523Y-128048612D01*
X157417523Y-128048612D02*
X157369904Y-128000992D01*
X157369904Y-128000992D02*
X157322285Y-127905754D01*
X157322285Y-127905754D02*
X157274666Y-127715278D01*
X157274666Y-127715278D02*
X157274666Y-127477183D01*
X157274666Y-127477183D02*
X157322285Y-127286707D01*
X157322285Y-127286707D02*
X157369904Y-127191469D01*
X157369904Y-127191469D02*
X157417523Y-127143850D01*
X157417523Y-127143850D02*
X157512761Y-127096231D01*
X159036571Y-127715278D02*
X159798476Y-127715278D01*
X161036571Y-127572421D02*
X161369904Y-127572421D01*
X161512761Y-128096231D02*
X161036571Y-128096231D01*
X161036571Y-128096231D02*
X161036571Y-127096231D01*
X161036571Y-127096231D02*
X161512761Y-127096231D01*
X162274666Y-127572421D02*
X161941333Y-127572421D01*
X161941333Y-128096231D02*
X161941333Y-127096231D01*
X161941333Y-127096231D02*
X162417523Y-127096231D01*
X163131809Y-127572421D02*
X162798476Y-127572421D01*
X162798476Y-128096231D02*
X162798476Y-127096231D01*
X162798476Y-127096231D02*
X163274666Y-127096231D01*
X163988952Y-127572421D02*
X163655619Y-127572421D01*
X163655619Y-128096231D02*
X163655619Y-127096231D01*
X163655619Y-127096231D02*
X164131809Y-127096231D01*
X164846095Y-127572421D02*
X164512762Y-127572421D01*
X164512762Y-128096231D02*
X164512762Y-127096231D01*
X164512762Y-127096231D02*
X164988952Y-127096231D01*
X165274667Y-128477183D02*
X165322286Y-128429564D01*
X165322286Y-128429564D02*
X165417524Y-128286707D01*
X165417524Y-128286707D02*
X165465143Y-128191469D01*
X165465143Y-128191469D02*
X165512762Y-128048612D01*
X165512762Y-128048612D02*
X165560381Y-127810516D01*
X165560381Y-127810516D02*
X165560381Y-127620040D01*
X165560381Y-127620040D02*
X165512762Y-127381945D01*
X165512762Y-127381945D02*
X165465143Y-127239088D01*
X165465143Y-127239088D02*
X165417524Y-127143850D01*
X165417524Y-127143850D02*
X165322286Y-127000992D01*
X165322286Y-127000992D02*
X165274667Y-126953373D01*
X143274664Y-129182365D02*
X143417521Y-129229984D01*
X143417521Y-129229984D02*
X143465140Y-129277603D01*
X143465140Y-129277603D02*
X143512759Y-129372841D01*
X143512759Y-129372841D02*
X143512759Y-129515698D01*
X143512759Y-129515698D02*
X143465140Y-129610936D01*
X143465140Y-129610936D02*
X143417521Y-129658556D01*
X143417521Y-129658556D02*
X143322283Y-129706175D01*
X143322283Y-129706175D02*
X142941331Y-129706175D01*
X142941331Y-129706175D02*
X142941331Y-128706175D01*
X142941331Y-128706175D02*
X143274664Y-128706175D01*
X143274664Y-128706175D02*
X143369902Y-128753794D01*
X143369902Y-128753794D02*
X143417521Y-128801413D01*
X143417521Y-128801413D02*
X143465140Y-128896651D01*
X143465140Y-128896651D02*
X143465140Y-128991889D01*
X143465140Y-128991889D02*
X143417521Y-129087127D01*
X143417521Y-129087127D02*
X143369902Y-129134746D01*
X143369902Y-129134746D02*
X143274664Y-129182365D01*
X143274664Y-129182365D02*
X142941331Y-129182365D01*
X144131807Y-128706175D02*
X144322283Y-128706175D01*
X144322283Y-128706175D02*
X144417521Y-128753794D01*
X144417521Y-128753794D02*
X144512759Y-128849032D01*
X144512759Y-128849032D02*
X144560378Y-129039508D01*
X144560378Y-129039508D02*
X144560378Y-129372841D01*
X144560378Y-129372841D02*
X144512759Y-129563317D01*
X144512759Y-129563317D02*
X144417521Y-129658556D01*
X144417521Y-129658556D02*
X144322283Y-129706175D01*
X144322283Y-129706175D02*
X144131807Y-129706175D01*
X144131807Y-129706175D02*
X144036569Y-129658556D01*
X144036569Y-129658556D02*
X143941331Y-129563317D01*
X143941331Y-129563317D02*
X143893712Y-129372841D01*
X143893712Y-129372841D02*
X143893712Y-129039508D01*
X143893712Y-129039508D02*
X143941331Y-128849032D01*
X143941331Y-128849032D02*
X144036569Y-128753794D01*
X144036569Y-128753794D02*
X144131807Y-128706175D01*
X144846093Y-128706175D02*
X145417521Y-128706175D01*
X145131807Y-129706175D02*
X145131807Y-128706175D01*
X145750855Y-129706175D02*
X145750855Y-128706175D01*
X145750855Y-129182365D02*
X146322283Y-129182365D01*
X146322283Y-129706175D02*
X146322283Y-128706175D01*
X146798474Y-129610936D02*
X146846093Y-129658556D01*
X146846093Y-129658556D02*
X146798474Y-129706175D01*
X146798474Y-129706175D02*
X146750855Y-129658556D01*
X146750855Y-129658556D02*
X146798474Y-129610936D01*
X146798474Y-129610936D02*
X146798474Y-129706175D01*
X146798474Y-129087127D02*
X146846093Y-129134746D01*
X146846093Y-129134746D02*
X146798474Y-129182365D01*
X146798474Y-129182365D02*
X146750855Y-129134746D01*
X146750855Y-129134746D02*
X146798474Y-129087127D01*
X146798474Y-129087127D02*
X146798474Y-129182365D01*
X148560378Y-129706175D02*
X147988950Y-129706175D01*
X148274664Y-129706175D02*
X148274664Y-128706175D01*
X148274664Y-128706175D02*
X148179426Y-128849032D01*
X148179426Y-128849032D02*
X148084188Y-128944270D01*
X148084188Y-128944270D02*
X147988950Y-128991889D01*
X148941331Y-128801413D02*
X148988950Y-128753794D01*
X148988950Y-128753794D02*
X149084188Y-128706175D01*
X149084188Y-128706175D02*
X149322283Y-128706175D01*
X149322283Y-128706175D02*
X149417521Y-128753794D01*
X149417521Y-128753794D02*
X149465140Y-128801413D01*
X149465140Y-128801413D02*
X149512759Y-128896651D01*
X149512759Y-128896651D02*
X149512759Y-128991889D01*
X149512759Y-128991889D02*
X149465140Y-129134746D01*
X149465140Y-129134746D02*
X148893712Y-129706175D01*
X148893712Y-129706175D02*
X149512759Y-129706175D01*
X150084188Y-129134746D02*
X149988950Y-129087127D01*
X149988950Y-129087127D02*
X149941331Y-129039508D01*
X149941331Y-129039508D02*
X149893712Y-128944270D01*
X149893712Y-128944270D02*
X149893712Y-128896651D01*
X149893712Y-128896651D02*
X149941331Y-128801413D01*
X149941331Y-128801413D02*
X149988950Y-128753794D01*
X149988950Y-128753794D02*
X150084188Y-128706175D01*
X150084188Y-128706175D02*
X150274664Y-128706175D01*
X150274664Y-128706175D02*
X150369902Y-128753794D01*
X150369902Y-128753794D02*
X150417521Y-128801413D01*
X150417521Y-128801413D02*
X150465140Y-128896651D01*
X150465140Y-128896651D02*
X150465140Y-128944270D01*
X150465140Y-128944270D02*
X150417521Y-129039508D01*
X150417521Y-129039508D02*
X150369902Y-129087127D01*
X150369902Y-129087127D02*
X150274664Y-129134746D01*
X150274664Y-129134746D02*
X150084188Y-129134746D01*
X150084188Y-129134746D02*
X149988950Y-129182365D01*
X149988950Y-129182365D02*
X149941331Y-129229984D01*
X149941331Y-129229984D02*
X149893712Y-129325222D01*
X149893712Y-129325222D02*
X149893712Y-129515698D01*
X149893712Y-129515698D02*
X149941331Y-129610936D01*
X149941331Y-129610936D02*
X149988950Y-129658556D01*
X149988950Y-129658556D02*
X150084188Y-129706175D01*
X150084188Y-129706175D02*
X150274664Y-129706175D01*
X150274664Y-129706175D02*
X150369902Y-129658556D01*
X150369902Y-129658556D02*
X150417521Y-129610936D01*
X150417521Y-129610936D02*
X150465140Y-129515698D01*
X150465140Y-129515698D02*
X150465140Y-129325222D01*
X150465140Y-129325222D02*
X150417521Y-129229984D01*
X150417521Y-129229984D02*
X150369902Y-129182365D01*
X150369902Y-129182365D02*
X150274664Y-129134746D01*
X150893712Y-129706175D02*
X150893712Y-128706175D01*
X150988950Y-129325222D02*
X151274664Y-129706175D01*
X151274664Y-129039508D02*
X150893712Y-129420460D01*
X152036569Y-129182365D02*
X152179426Y-129229984D01*
X152179426Y-129229984D02*
X152227045Y-129277603D01*
X152227045Y-129277603D02*
X152274664Y-129372841D01*
X152274664Y-129372841D02*
X152274664Y-129515698D01*
X152274664Y-129515698D02*
X152227045Y-129610936D01*
X152227045Y-129610936D02*
X152179426Y-129658556D01*
X152179426Y-129658556D02*
X152084188Y-129706175D01*
X152084188Y-129706175D02*
X151703236Y-129706175D01*
X151703236Y-129706175D02*
X151703236Y-128706175D01*
X151703236Y-128706175D02*
X152036569Y-128706175D01*
X152036569Y-128706175D02*
X152131807Y-128753794D01*
X152131807Y-128753794D02*
X152179426Y-128801413D01*
X152179426Y-128801413D02*
X152227045Y-128896651D01*
X152227045Y-128896651D02*
X152227045Y-128991889D01*
X152227045Y-128991889D02*
X152179426Y-129087127D01*
X152179426Y-129087127D02*
X152131807Y-129134746D01*
X152131807Y-129134746D02*
X152036569Y-129182365D01*
X152036569Y-129182365D02*
X151703236Y-129182365D01*
X153750855Y-130087127D02*
X153703236Y-130039508D01*
X153703236Y-130039508D02*
X153607998Y-129896651D01*
X153607998Y-129896651D02*
X153560379Y-129801413D01*
X153560379Y-129801413D02*
X153512760Y-129658556D01*
X153512760Y-129658556D02*
X153465141Y-129420460D01*
X153465141Y-129420460D02*
X153465141Y-129229984D01*
X153465141Y-129229984D02*
X153512760Y-128991889D01*
X153512760Y-128991889D02*
X153560379Y-128849032D01*
X153560379Y-128849032D02*
X153607998Y-128753794D01*
X153607998Y-128753794D02*
X153703236Y-128610936D01*
X153703236Y-128610936D02*
X153750855Y-128563317D01*
X154131808Y-129706175D02*
X154131808Y-128706175D01*
X154131808Y-128706175D02*
X154369903Y-128706175D01*
X154369903Y-128706175D02*
X154512760Y-128753794D01*
X154512760Y-128753794D02*
X154607998Y-128849032D01*
X154607998Y-128849032D02*
X154655617Y-128944270D01*
X154655617Y-128944270D02*
X154703236Y-129134746D01*
X154703236Y-129134746D02*
X154703236Y-129277603D01*
X154703236Y-129277603D02*
X154655617Y-129468079D01*
X154655617Y-129468079D02*
X154607998Y-129563317D01*
X154607998Y-129563317D02*
X154512760Y-129658556D01*
X154512760Y-129658556D02*
X154369903Y-129706175D01*
X154369903Y-129706175D02*
X154131808Y-129706175D01*
X155322284Y-128706175D02*
X155417522Y-128706175D01*
X155417522Y-128706175D02*
X155512760Y-128753794D01*
X155512760Y-128753794D02*
X155560379Y-128801413D01*
X155560379Y-128801413D02*
X155607998Y-128896651D01*
X155607998Y-128896651D02*
X155655617Y-129087127D01*
X155655617Y-129087127D02*
X155655617Y-129325222D01*
X155655617Y-129325222D02*
X155607998Y-129515698D01*
X155607998Y-129515698D02*
X155560379Y-129610936D01*
X155560379Y-129610936D02*
X155512760Y-129658556D01*
X155512760Y-129658556D02*
X155417522Y-129706175D01*
X155417522Y-129706175D02*
X155322284Y-129706175D01*
X155322284Y-129706175D02*
X155227046Y-129658556D01*
X155227046Y-129658556D02*
X155179427Y-129610936D01*
X155179427Y-129610936D02*
X155131808Y-129515698D01*
X155131808Y-129515698D02*
X155084189Y-129325222D01*
X155084189Y-129325222D02*
X155084189Y-129087127D01*
X155084189Y-129087127D02*
X155131808Y-128896651D01*
X155131808Y-128896651D02*
X155179427Y-128801413D01*
X155179427Y-128801413D02*
X155227046Y-128753794D01*
X155227046Y-128753794D02*
X155322284Y-128706175D01*
X156274665Y-128706175D02*
X156369903Y-128706175D01*
X156369903Y-128706175D02*
X156465141Y-128753794D01*
X156465141Y-128753794D02*
X156512760Y-128801413D01*
X156512760Y-128801413D02*
X156560379Y-128896651D01*
X156560379Y-128896651D02*
X156607998Y-129087127D01*
X156607998Y-129087127D02*
X156607998Y-129325222D01*
X156607998Y-129325222D02*
X156560379Y-129515698D01*
X156560379Y-129515698D02*
X156512760Y-129610936D01*
X156512760Y-129610936D02*
X156465141Y-129658556D01*
X156465141Y-129658556D02*
X156369903Y-129706175D01*
X156369903Y-129706175D02*
X156274665Y-129706175D01*
X156274665Y-129706175D02*
X156179427Y-129658556D01*
X156179427Y-129658556D02*
X156131808Y-129610936D01*
X156131808Y-129610936D02*
X156084189Y-129515698D01*
X156084189Y-129515698D02*
X156036570Y-129325222D01*
X156036570Y-129325222D02*
X156036570Y-129087127D01*
X156036570Y-129087127D02*
X156084189Y-128896651D01*
X156084189Y-128896651D02*
X156131808Y-128801413D01*
X156131808Y-128801413D02*
X156179427Y-128753794D01*
X156179427Y-128753794D02*
X156274665Y-128706175D01*
X157227046Y-128706175D02*
X157322284Y-128706175D01*
X157322284Y-128706175D02*
X157417522Y-128753794D01*
X157417522Y-128753794D02*
X157465141Y-128801413D01*
X157465141Y-128801413D02*
X157512760Y-128896651D01*
X157512760Y-128896651D02*
X157560379Y-129087127D01*
X157560379Y-129087127D02*
X157560379Y-129325222D01*
X157560379Y-129325222D02*
X157512760Y-129515698D01*
X157512760Y-129515698D02*
X157465141Y-129610936D01*
X157465141Y-129610936D02*
X157417522Y-129658556D01*
X157417522Y-129658556D02*
X157322284Y-129706175D01*
X157322284Y-129706175D02*
X157227046Y-129706175D01*
X157227046Y-129706175D02*
X157131808Y-129658556D01*
X157131808Y-129658556D02*
X157084189Y-129610936D01*
X157084189Y-129610936D02*
X157036570Y-129515698D01*
X157036570Y-129515698D02*
X156988951Y-129325222D01*
X156988951Y-129325222D02*
X156988951Y-129087127D01*
X156988951Y-129087127D02*
X157036570Y-128896651D01*
X157036570Y-128896651D02*
X157084189Y-128801413D01*
X157084189Y-128801413D02*
X157131808Y-128753794D01*
X157131808Y-128753794D02*
X157227046Y-128706175D01*
X158179427Y-128706175D02*
X158274665Y-128706175D01*
X158274665Y-128706175D02*
X158369903Y-128753794D01*
X158369903Y-128753794D02*
X158417522Y-128801413D01*
X158417522Y-128801413D02*
X158465141Y-128896651D01*
X158465141Y-128896651D02*
X158512760Y-129087127D01*
X158512760Y-129087127D02*
X158512760Y-129325222D01*
X158512760Y-129325222D02*
X158465141Y-129515698D01*
X158465141Y-129515698D02*
X158417522Y-129610936D01*
X158417522Y-129610936D02*
X158369903Y-129658556D01*
X158369903Y-129658556D02*
X158274665Y-129706175D01*
X158274665Y-129706175D02*
X158179427Y-129706175D01*
X158179427Y-129706175D02*
X158084189Y-129658556D01*
X158084189Y-129658556D02*
X158036570Y-129610936D01*
X158036570Y-129610936D02*
X157988951Y-129515698D01*
X157988951Y-129515698D02*
X157941332Y-129325222D01*
X157941332Y-129325222D02*
X157941332Y-129087127D01*
X157941332Y-129087127D02*
X157988951Y-128896651D01*
X157988951Y-128896651D02*
X158036570Y-128801413D01*
X158036570Y-128801413D02*
X158084189Y-128753794D01*
X158084189Y-128753794D02*
X158179427Y-128706175D01*
X159703237Y-129325222D02*
X160465142Y-129325222D01*
X161703237Y-129182365D02*
X162036570Y-129182365D01*
X162179427Y-129706175D02*
X161703237Y-129706175D01*
X161703237Y-129706175D02*
X161703237Y-128706175D01*
X161703237Y-128706175D02*
X162179427Y-128706175D01*
X162941332Y-129182365D02*
X162607999Y-129182365D01*
X162607999Y-129706175D02*
X162607999Y-128706175D01*
X162607999Y-128706175D02*
X163084189Y-128706175D01*
X163798475Y-129182365D02*
X163465142Y-129182365D01*
X163465142Y-129706175D02*
X163465142Y-128706175D01*
X163465142Y-128706175D02*
X163941332Y-128706175D01*
X164655618Y-129182365D02*
X164322285Y-129182365D01*
X164322285Y-129706175D02*
X164322285Y-128706175D01*
X164322285Y-128706175D02*
X164798475Y-128706175D01*
X165512761Y-129182365D02*
X165179428Y-129182365D01*
X165179428Y-129706175D02*
X165179428Y-128706175D01*
X165179428Y-128706175D02*
X165655618Y-128706175D01*
X165941333Y-130087127D02*
X165988952Y-130039508D01*
X165988952Y-130039508D02*
X166084190Y-129896651D01*
X166084190Y-129896651D02*
X166131809Y-129801413D01*
X166131809Y-129801413D02*
X166179428Y-129658556D01*
X166179428Y-129658556D02*
X166227047Y-129420460D01*
X166227047Y-129420460D02*
X166227047Y-129229984D01*
X166227047Y-129229984D02*
X166179428Y-128991889D01*
X166179428Y-128991889D02*
X166131809Y-128849032D01*
X166131809Y-128849032D02*
X166084190Y-128753794D01*
X166084190Y-128753794D02*
X165988952Y-128610936D01*
X165988952Y-128610936D02*
X165941333Y-128563317D01*
X142941331Y-131316119D02*
X142941331Y-130316119D01*
X142941331Y-130316119D02*
X143512759Y-131316119D01*
X143512759Y-131316119D02*
X143512759Y-130316119D01*
X144179426Y-130316119D02*
X144369902Y-130316119D01*
X144369902Y-130316119D02*
X144465140Y-130363738D01*
X144465140Y-130363738D02*
X144560378Y-130458976D01*
X144560378Y-130458976D02*
X144607997Y-130649452D01*
X144607997Y-130649452D02*
X144607997Y-130982785D01*
X144607997Y-130982785D02*
X144560378Y-131173261D01*
X144560378Y-131173261D02*
X144465140Y-131268500D01*
X144465140Y-131268500D02*
X144369902Y-131316119D01*
X144369902Y-131316119D02*
X144179426Y-131316119D01*
X144179426Y-131316119D02*
X144084188Y-131268500D01*
X144084188Y-131268500D02*
X143988950Y-131173261D01*
X143988950Y-131173261D02*
X143941331Y-130982785D01*
X143941331Y-130982785D02*
X143941331Y-130649452D01*
X143941331Y-130649452D02*
X143988950Y-130458976D01*
X143988950Y-130458976D02*
X144084188Y-130363738D01*
X144084188Y-130363738D02*
X144179426Y-130316119D01*
X145036569Y-131316119D02*
X145036569Y-130316119D01*
X145036569Y-130316119D02*
X145607997Y-131316119D01*
X145607997Y-131316119D02*
X145607997Y-130316119D01*
X146084188Y-130792309D02*
X146417521Y-130792309D01*
X146560378Y-131316119D02*
X146084188Y-131316119D01*
X146084188Y-131316119D02*
X146084188Y-130316119D01*
X146084188Y-130316119D02*
X146560378Y-130316119D01*
X146988950Y-131220880D02*
X147036569Y-131268500D01*
X147036569Y-131268500D02*
X146988950Y-131316119D01*
X146988950Y-131316119D02*
X146941331Y-131268500D01*
X146941331Y-131268500D02*
X146988950Y-131220880D01*
X146988950Y-131220880D02*
X146988950Y-131316119D01*
X146988950Y-130697071D02*
X147036569Y-130744690D01*
X147036569Y-130744690D02*
X146988950Y-130792309D01*
X146988950Y-130792309D02*
X146941331Y-130744690D01*
X146941331Y-130744690D02*
X146988950Y-130697071D01*
X146988950Y-130697071D02*
X146988950Y-130792309D01*
X149941331Y-130316119D02*
X150036569Y-130316119D01*
X150036569Y-130316119D02*
X150131807Y-130363738D01*
X150131807Y-130363738D02*
X150179426Y-130411357D01*
X150179426Y-130411357D02*
X150227045Y-130506595D01*
X150227045Y-130506595D02*
X150274664Y-130697071D01*
X150274664Y-130697071D02*
X150274664Y-130935166D01*
X150274664Y-130935166D02*
X150227045Y-131125642D01*
X150227045Y-131125642D02*
X150179426Y-131220880D01*
X150179426Y-131220880D02*
X150131807Y-131268500D01*
X150131807Y-131268500D02*
X150036569Y-131316119D01*
X150036569Y-131316119D02*
X149941331Y-131316119D01*
X149941331Y-131316119D02*
X149846093Y-131268500D01*
X149846093Y-131268500D02*
X149798474Y-131220880D01*
X149798474Y-131220880D02*
X149750855Y-131125642D01*
X149750855Y-131125642D02*
X149703236Y-130935166D01*
X149703236Y-130935166D02*
X149703236Y-130697071D01*
X149703236Y-130697071D02*
X149750855Y-130506595D01*
X149750855Y-130506595D02*
X149798474Y-130411357D01*
X149798474Y-130411357D02*
X149846093Y-130363738D01*
X149846093Y-130363738D02*
X149941331Y-130316119D01*
X150703236Y-131316119D02*
X150703236Y-130316119D01*
X150798474Y-130935166D02*
X151084188Y-131316119D01*
X151084188Y-130649452D02*
X150703236Y-131030404D01*
X151846093Y-130792309D02*
X151988950Y-130839928D01*
X151988950Y-130839928D02*
X152036569Y-130887547D01*
X152036569Y-130887547D02*
X152084188Y-130982785D01*
X152084188Y-130982785D02*
X152084188Y-131125642D01*
X152084188Y-131125642D02*
X152036569Y-131220880D01*
X152036569Y-131220880D02*
X151988950Y-131268500D01*
X151988950Y-131268500D02*
X151893712Y-131316119D01*
X151893712Y-131316119D02*
X151512760Y-131316119D01*
X151512760Y-131316119D02*
X151512760Y-130316119D01*
X151512760Y-130316119D02*
X151846093Y-130316119D01*
X151846093Y-130316119D02*
X151941331Y-130363738D01*
X151941331Y-130363738D02*
X151988950Y-130411357D01*
X151988950Y-130411357D02*
X152036569Y-130506595D01*
X152036569Y-130506595D02*
X152036569Y-130601833D01*
X152036569Y-130601833D02*
X151988950Y-130697071D01*
X151988950Y-130697071D02*
X151941331Y-130744690D01*
X151941331Y-130744690D02*
X151846093Y-130792309D01*
X151846093Y-130792309D02*
X151512760Y-130792309D01*
D11*
X149646871Y-104636438D02*
X150694490Y-103303104D01*
X149646871Y-103303104D02*
X150694490Y-104636438D01*
X151170681Y-103303104D02*
X151932585Y-103303104D01*
X151456395Y-102636438D02*
X151456395Y-104350723D01*
X151456395Y-104350723D02*
X151551633Y-104541200D01*
X151551633Y-104541200D02*
X151742109Y-104636438D01*
X151742109Y-104636438D02*
X151932585Y-104636438D01*
X152599252Y-103874533D02*
X154123062Y-103874533D01*
X155075442Y-104636438D02*
X155075442Y-103303104D01*
X155075442Y-102636438D02*
X154980204Y-102731676D01*
X154980204Y-102731676D02*
X155075442Y-102826914D01*
X155075442Y-102826914D02*
X155170680Y-102731676D01*
X155170680Y-102731676D02*
X155075442Y-102636438D01*
X155075442Y-102636438D02*
X155075442Y-102826914D01*
X155932585Y-104541200D02*
X156123061Y-104636438D01*
X156123061Y-104636438D02*
X156504013Y-104636438D01*
X156504013Y-104636438D02*
X156694490Y-104541200D01*
X156694490Y-104541200D02*
X156789728Y-104350723D01*
X156789728Y-104350723D02*
X156789728Y-104255485D01*
X156789728Y-104255485D02*
X156694490Y-104065009D01*
X156694490Y-104065009D02*
X156504013Y-103969771D01*
X156504013Y-103969771D02*
X156218299Y-103969771D01*
X156218299Y-103969771D02*
X156027823Y-103874533D01*
X156027823Y-103874533D02*
X155932585Y-103684057D01*
X155932585Y-103684057D02*
X155932585Y-103588819D01*
X155932585Y-103588819D02*
X156027823Y-103398342D01*
X156027823Y-103398342D02*
X156218299Y-103303104D01*
X156218299Y-103303104D02*
X156504013Y-103303104D01*
X156504013Y-103303104D02*
X156694490Y-103398342D01*
X158504014Y-104636438D02*
X158504014Y-103588819D01*
X158504014Y-103588819D02*
X158408776Y-103398342D01*
X158408776Y-103398342D02*
X158218300Y-103303104D01*
X158218300Y-103303104D02*
X157837347Y-103303104D01*
X157837347Y-103303104D02*
X157646871Y-103398342D01*
X158504014Y-104541200D02*
X158313538Y-104636438D01*
X158313538Y-104636438D02*
X157837347Y-104636438D01*
X157837347Y-104636438D02*
X157646871Y-104541200D01*
X157646871Y-104541200D02*
X157551633Y-104350723D01*
X157551633Y-104350723D02*
X157551633Y-104160247D01*
X157551633Y-104160247D02*
X157646871Y-103969771D01*
X157646871Y-103969771D02*
X157837347Y-103874533D01*
X157837347Y-103874533D02*
X158313538Y-103874533D01*
X158313538Y-103874533D02*
X158504014Y-103779295D01*
X159456395Y-103874533D02*
X160980205Y-103874533D01*
X162789728Y-103303104D02*
X162789728Y-104636438D01*
X161932585Y-103303104D02*
X161932585Y-104350723D01*
X161932585Y-104350723D02*
X162027823Y-104541200D01*
X162027823Y-104541200D02*
X162218299Y-104636438D01*
X162218299Y-104636438D02*
X162504014Y-104636438D01*
X162504014Y-104636438D02*
X162694490Y-104541200D01*
X162694490Y-104541200D02*
X162789728Y-104445961D01*
X163742109Y-104636438D02*
X163742109Y-103303104D01*
X163742109Y-103493580D02*
X163837347Y-103398342D01*
X163837347Y-103398342D02*
X164027823Y-103303104D01*
X164027823Y-103303104D02*
X164313538Y-103303104D01*
X164313538Y-103303104D02*
X164504014Y-103398342D01*
X164504014Y-103398342D02*
X164599252Y-103588819D01*
X164599252Y-103588819D02*
X164599252Y-104636438D01*
X164599252Y-103588819D02*
X164694490Y-103398342D01*
X164694490Y-103398342D02*
X164884966Y-103303104D01*
X164884966Y-103303104D02*
X165170680Y-103303104D01*
X165170680Y-103303104D02*
X165361157Y-103398342D01*
X165361157Y-103398342D02*
X165456395Y-103588819D01*
X165456395Y-103588819D02*
X165456395Y-104636438D01*
X166408776Y-104636438D02*
X166408776Y-102636438D01*
X166408776Y-103398342D02*
X166599252Y-103303104D01*
X166599252Y-103303104D02*
X166980205Y-103303104D01*
X166980205Y-103303104D02*
X167170681Y-103398342D01*
X167170681Y-103398342D02*
X167265919Y-103493580D01*
X167265919Y-103493580D02*
X167361157Y-103684057D01*
X167361157Y-103684057D02*
X167361157Y-104255485D01*
X167361157Y-104255485D02*
X167265919Y-104445961D01*
X167265919Y-104445961D02*
X167170681Y-104541200D01*
X167170681Y-104541200D02*
X166980205Y-104636438D01*
X166980205Y-104636438D02*
X166599252Y-104636438D01*
X166599252Y-104636438D02*
X166408776Y-104541200D01*
X103514109Y-114860009D02*
X104466490Y-114860009D01*
X103323633Y-115431438D02*
X103990299Y-113431438D01*
X103990299Y-113431438D02*
X104656966Y-115431438D01*
X105228395Y-115336200D02*
X105514109Y-115431438D01*
X105514109Y-115431438D02*
X105990300Y-115431438D01*
X105990300Y-115431438D02*
X106180776Y-115336200D01*
X106180776Y-115336200D02*
X106276014Y-115240961D01*
X106276014Y-115240961D02*
X106371252Y-115050485D01*
X106371252Y-115050485D02*
X106371252Y-114860009D01*
X106371252Y-114860009D02*
X106276014Y-114669533D01*
X106276014Y-114669533D02*
X106180776Y-114574295D01*
X106180776Y-114574295D02*
X105990300Y-114479057D01*
X105990300Y-114479057D02*
X105609347Y-114383819D01*
X105609347Y-114383819D02*
X105418871Y-114288580D01*
X105418871Y-114288580D02*
X105323633Y-114193342D01*
X105323633Y-114193342D02*
X105228395Y-114002866D01*
X105228395Y-114002866D02*
X105228395Y-113812390D01*
X105228395Y-113812390D02*
X105323633Y-113621914D01*
X105323633Y-113621914D02*
X105418871Y-113526676D01*
X105418871Y-113526676D02*
X105609347Y-113431438D01*
X105609347Y-113431438D02*
X106085538Y-113431438D01*
X106085538Y-113431438D02*
X106371252Y-113526676D01*
X108085538Y-113431438D02*
X107704585Y-113431438D01*
X107704585Y-113431438D02*
X107514109Y-113526676D01*
X107514109Y-113526676D02*
X107418871Y-113621914D01*
X107418871Y-113621914D02*
X107228395Y-113907628D01*
X107228395Y-113907628D02*
X107133157Y-114288580D01*
X107133157Y-114288580D02*
X107133157Y-115050485D01*
X107133157Y-115050485D02*
X107228395Y-115240961D01*
X107228395Y-115240961D02*
X107323633Y-115336200D01*
X107323633Y-115336200D02*
X107514109Y-115431438D01*
X107514109Y-115431438D02*
X107895062Y-115431438D01*
X107895062Y-115431438D02*
X108085538Y-115336200D01*
X108085538Y-115336200D02*
X108180776Y-115240961D01*
X108180776Y-115240961D02*
X108276014Y-115050485D01*
X108276014Y-115050485D02*
X108276014Y-114574295D01*
X108276014Y-114574295D02*
X108180776Y-114383819D01*
X108180776Y-114383819D02*
X108085538Y-114288580D01*
X108085538Y-114288580D02*
X107895062Y-114193342D01*
X107895062Y-114193342D02*
X107514109Y-114193342D01*
X107514109Y-114193342D02*
X107323633Y-114288580D01*
X107323633Y-114288580D02*
X107228395Y-114383819D01*
X107228395Y-114383819D02*
X107133157Y-114574295D01*
X110276014Y-115240961D02*
X110180776Y-115336200D01*
X110180776Y-115336200D02*
X109895062Y-115431438D01*
X109895062Y-115431438D02*
X109704586Y-115431438D01*
X109704586Y-115431438D02*
X109418871Y-115336200D01*
X109418871Y-115336200D02*
X109228395Y-115145723D01*
X109228395Y-115145723D02*
X109133157Y-114955247D01*
X109133157Y-114955247D02*
X109037919Y-114574295D01*
X109037919Y-114574295D02*
X109037919Y-114288580D01*
X109037919Y-114288580D02*
X109133157Y-113907628D01*
X109133157Y-113907628D02*
X109228395Y-113717152D01*
X109228395Y-113717152D02*
X109418871Y-113526676D01*
X109418871Y-113526676D02*
X109704586Y-113431438D01*
X109704586Y-113431438D02*
X109895062Y-113431438D01*
X109895062Y-113431438D02*
X110180776Y-113526676D01*
X110180776Y-113526676D02*
X110276014Y-113621914D01*
X112180776Y-115431438D02*
X111037919Y-115431438D01*
X111609347Y-115431438D02*
X111609347Y-113431438D01*
X111609347Y-113431438D02*
X111418871Y-113717152D01*
X111418871Y-113717152D02*
X111228395Y-113907628D01*
X111228395Y-113907628D02*
X111037919Y-114002866D01*
X113418871Y-113431438D02*
X113609348Y-113431438D01*
X113609348Y-113431438D02*
X113799824Y-113526676D01*
X113799824Y-113526676D02*
X113895062Y-113621914D01*
X113895062Y-113621914D02*
X113990300Y-113812390D01*
X113990300Y-113812390D02*
X114085538Y-114193342D01*
X114085538Y-114193342D02*
X114085538Y-114669533D01*
X114085538Y-114669533D02*
X113990300Y-115050485D01*
X113990300Y-115050485D02*
X113895062Y-115240961D01*
X113895062Y-115240961D02*
X113799824Y-115336200D01*
X113799824Y-115336200D02*
X113609348Y-115431438D01*
X113609348Y-115431438D02*
X113418871Y-115431438D01*
X113418871Y-115431438D02*
X113228395Y-115336200D01*
X113228395Y-115336200D02*
X113133157Y-115240961D01*
X113133157Y-115240961D02*
X113037919Y-115050485D01*
X113037919Y-115050485D02*
X112942681Y-114669533D01*
X112942681Y-114669533D02*
X112942681Y-114193342D01*
X112942681Y-114193342D02*
X113037919Y-113812390D01*
X113037919Y-113812390D02*
X113133157Y-113621914D01*
X113133157Y-113621914D02*
X113228395Y-113526676D01*
X113228395Y-113526676D02*
X113418871Y-113431438D01*
X115323633Y-113431438D02*
X115514110Y-113431438D01*
X115514110Y-113431438D02*
X115704586Y-113526676D01*
X115704586Y-113526676D02*
X115799824Y-113621914D01*
X115799824Y-113621914D02*
X115895062Y-113812390D01*
X115895062Y-113812390D02*
X115990300Y-114193342D01*
X115990300Y-114193342D02*
X115990300Y-114669533D01*
X115990300Y-114669533D02*
X115895062Y-115050485D01*
X115895062Y-115050485D02*
X115799824Y-115240961D01*
X115799824Y-115240961D02*
X115704586Y-115336200D01*
X115704586Y-115336200D02*
X115514110Y-115431438D01*
X115514110Y-115431438D02*
X115323633Y-115431438D01*
X115323633Y-115431438D02*
X115133157Y-115336200D01*
X115133157Y-115336200D02*
X115037919Y-115240961D01*
X115037919Y-115240961D02*
X114942681Y-115050485D01*
X114942681Y-115050485D02*
X114847443Y-114669533D01*
X114847443Y-114669533D02*
X114847443Y-114193342D01*
X114847443Y-114193342D02*
X114942681Y-113812390D01*
X114942681Y-113812390D02*
X115037919Y-113621914D01*
X115037919Y-113621914D02*
X115133157Y-113526676D01*
X115133157Y-113526676D02*
X115323633Y-113431438D01*
X117133157Y-114288580D02*
X116942681Y-114193342D01*
X116942681Y-114193342D02*
X116847443Y-114098104D01*
X116847443Y-114098104D02*
X116752205Y-113907628D01*
X116752205Y-113907628D02*
X116752205Y-113812390D01*
X116752205Y-113812390D02*
X116847443Y-113621914D01*
X116847443Y-113621914D02*
X116942681Y-113526676D01*
X116942681Y-113526676D02*
X117133157Y-113431438D01*
X117133157Y-113431438D02*
X117514110Y-113431438D01*
X117514110Y-113431438D02*
X117704586Y-113526676D01*
X117704586Y-113526676D02*
X117799824Y-113621914D01*
X117799824Y-113621914D02*
X117895062Y-113812390D01*
X117895062Y-113812390D02*
X117895062Y-113907628D01*
X117895062Y-113907628D02*
X117799824Y-114098104D01*
X117799824Y-114098104D02*
X117704586Y-114193342D01*
X117704586Y-114193342D02*
X117514110Y-114288580D01*
X117514110Y-114288580D02*
X117133157Y-114288580D01*
X117133157Y-114288580D02*
X116942681Y-114383819D01*
X116942681Y-114383819D02*
X116847443Y-114479057D01*
X116847443Y-114479057D02*
X116752205Y-114669533D01*
X116752205Y-114669533D02*
X116752205Y-115050485D01*
X116752205Y-115050485D02*
X116847443Y-115240961D01*
X116847443Y-115240961D02*
X116942681Y-115336200D01*
X116942681Y-115336200D02*
X117133157Y-115431438D01*
X117133157Y-115431438D02*
X117514110Y-115431438D01*
X117514110Y-115431438D02*
X117704586Y-115336200D01*
X117704586Y-115336200D02*
X117799824Y-115240961D01*
X117799824Y-115240961D02*
X117895062Y-115050485D01*
X117895062Y-115050485D02*
X117895062Y-114669533D01*
X117895062Y-114669533D02*
X117799824Y-114479057D01*
X117799824Y-114479057D02*
X117704586Y-114383819D01*
X117704586Y-114383819D02*
X117514110Y-114288580D01*
X94274871Y-94127438D02*
X95608204Y-94127438D01*
X95608204Y-94127438D02*
X94751061Y-96127438D01*
X97227252Y-94794104D02*
X97227252Y-96127438D01*
X96751061Y-94032200D02*
X96274871Y-95460771D01*
X96274871Y-95460771D02*
X97512966Y-95460771D01*
X99227252Y-96127438D02*
X98274871Y-96127438D01*
X98274871Y-96127438D02*
X98274871Y-94127438D01*
X99798681Y-96032200D02*
X100084395Y-96127438D01*
X100084395Y-96127438D02*
X100560586Y-96127438D01*
X100560586Y-96127438D02*
X100751062Y-96032200D01*
X100751062Y-96032200D02*
X100846300Y-95936961D01*
X100846300Y-95936961D02*
X100941538Y-95746485D01*
X100941538Y-95746485D02*
X100941538Y-95556009D01*
X100941538Y-95556009D02*
X100846300Y-95365533D01*
X100846300Y-95365533D02*
X100751062Y-95270295D01*
X100751062Y-95270295D02*
X100560586Y-95175057D01*
X100560586Y-95175057D02*
X100179633Y-95079819D01*
X100179633Y-95079819D02*
X99989157Y-94984580D01*
X99989157Y-94984580D02*
X99893919Y-94889342D01*
X99893919Y-94889342D02*
X99798681Y-94698866D01*
X99798681Y-94698866D02*
X99798681Y-94508390D01*
X99798681Y-94508390D02*
X99893919Y-94317914D01*
X99893919Y-94317914D02*
X99989157Y-94222676D01*
X99989157Y-94222676D02*
X100179633Y-94127438D01*
X100179633Y-94127438D02*
X100655824Y-94127438D01*
X100655824Y-94127438D02*
X100941538Y-94222676D01*
X102179633Y-94127438D02*
X102370110Y-94127438D01*
X102370110Y-94127438D02*
X102560586Y-94222676D01*
X102560586Y-94222676D02*
X102655824Y-94317914D01*
X102655824Y-94317914D02*
X102751062Y-94508390D01*
X102751062Y-94508390D02*
X102846300Y-94889342D01*
X102846300Y-94889342D02*
X102846300Y-95365533D01*
X102846300Y-95365533D02*
X102751062Y-95746485D01*
X102751062Y-95746485D02*
X102655824Y-95936961D01*
X102655824Y-95936961D02*
X102560586Y-96032200D01*
X102560586Y-96032200D02*
X102370110Y-96127438D01*
X102370110Y-96127438D02*
X102179633Y-96127438D01*
X102179633Y-96127438D02*
X101989157Y-96032200D01*
X101989157Y-96032200D02*
X101893919Y-95936961D01*
X101893919Y-95936961D02*
X101798681Y-95746485D01*
X101798681Y-95746485D02*
X101703443Y-95365533D01*
X101703443Y-95365533D02*
X101703443Y-94889342D01*
X101703443Y-94889342D02*
X101798681Y-94508390D01*
X101798681Y-94508390D02*
X101893919Y-94317914D01*
X101893919Y-94317914D02*
X101989157Y-94222676D01*
X101989157Y-94222676D02*
X102179633Y-94127438D01*
X103989157Y-94984580D02*
X103798681Y-94889342D01*
X103798681Y-94889342D02*
X103703443Y-94794104D01*
X103703443Y-94794104D02*
X103608205Y-94603628D01*
X103608205Y-94603628D02*
X103608205Y-94508390D01*
X103608205Y-94508390D02*
X103703443Y-94317914D01*
X103703443Y-94317914D02*
X103798681Y-94222676D01*
X103798681Y-94222676D02*
X103989157Y-94127438D01*
X103989157Y-94127438D02*
X104370110Y-94127438D01*
X104370110Y-94127438D02*
X104560586Y-94222676D01*
X104560586Y-94222676D02*
X104655824Y-94317914D01*
X104655824Y-94317914D02*
X104751062Y-94508390D01*
X104751062Y-94508390D02*
X104751062Y-94603628D01*
X104751062Y-94603628D02*
X104655824Y-94794104D01*
X104655824Y-94794104D02*
X104560586Y-94889342D01*
X104560586Y-94889342D02*
X104370110Y-94984580D01*
X104370110Y-94984580D02*
X103989157Y-94984580D01*
X103989157Y-94984580D02*
X103798681Y-95079819D01*
X103798681Y-95079819D02*
X103703443Y-95175057D01*
X103703443Y-95175057D02*
X103608205Y-95365533D01*
X103608205Y-95365533D02*
X103608205Y-95746485D01*
X103608205Y-95746485D02*
X103703443Y-95936961D01*
X103703443Y-95936961D02*
X103798681Y-96032200D01*
X103798681Y-96032200D02*
X103989157Y-96127438D01*
X103989157Y-96127438D02*
X104370110Y-96127438D01*
X104370110Y-96127438D02*
X104560586Y-96032200D01*
X104560586Y-96032200D02*
X104655824Y-95936961D01*
X104655824Y-95936961D02*
X104751062Y-95746485D01*
X104751062Y-95746485D02*
X104751062Y-95365533D01*
X104751062Y-95365533D02*
X104655824Y-95175057D01*
X104655824Y-95175057D02*
X104560586Y-95079819D01*
X104560586Y-95079819D02*
X104370110Y-94984580D01*
X151551871Y-94000438D02*
X152885204Y-94000438D01*
X152885204Y-94000438D02*
X152028061Y-96000438D01*
X154504252Y-94667104D02*
X154504252Y-96000438D01*
X154028061Y-93905200D02*
X153551871Y-95333771D01*
X153551871Y-95333771D02*
X154789966Y-95333771D01*
X156504252Y-96000438D02*
X155551871Y-96000438D01*
X155551871Y-96000438D02*
X155551871Y-94000438D01*
X157075681Y-95905200D02*
X157361395Y-96000438D01*
X157361395Y-96000438D02*
X157837586Y-96000438D01*
X157837586Y-96000438D02*
X158028062Y-95905200D01*
X158028062Y-95905200D02*
X158123300Y-95809961D01*
X158123300Y-95809961D02*
X158218538Y-95619485D01*
X158218538Y-95619485D02*
X158218538Y-95429009D01*
X158218538Y-95429009D02*
X158123300Y-95238533D01*
X158123300Y-95238533D02*
X158028062Y-95143295D01*
X158028062Y-95143295D02*
X157837586Y-95048057D01*
X157837586Y-95048057D02*
X157456633Y-94952819D01*
X157456633Y-94952819D02*
X157266157Y-94857580D01*
X157266157Y-94857580D02*
X157170919Y-94762342D01*
X157170919Y-94762342D02*
X157075681Y-94571866D01*
X157075681Y-94571866D02*
X157075681Y-94381390D01*
X157075681Y-94381390D02*
X157170919Y-94190914D01*
X157170919Y-94190914D02*
X157266157Y-94095676D01*
X157266157Y-94095676D02*
X157456633Y-94000438D01*
X157456633Y-94000438D02*
X157932824Y-94000438D01*
X157932824Y-94000438D02*
X158218538Y-94095676D01*
X160123300Y-96000438D02*
X158980443Y-96000438D01*
X159551871Y-96000438D02*
X159551871Y-94000438D01*
X159551871Y-94000438D02*
X159361395Y-94286152D01*
X159361395Y-94286152D02*
X159170919Y-94476628D01*
X159170919Y-94476628D02*
X158980443Y-94571866D01*
X160789967Y-94000438D02*
X162028062Y-94000438D01*
X162028062Y-94000438D02*
X161361395Y-94762342D01*
X161361395Y-94762342D02*
X161647110Y-94762342D01*
X161647110Y-94762342D02*
X161837586Y-94857580D01*
X161837586Y-94857580D02*
X161932824Y-94952819D01*
X161932824Y-94952819D02*
X162028062Y-95143295D01*
X162028062Y-95143295D02*
X162028062Y-95619485D01*
X162028062Y-95619485D02*
X161932824Y-95809961D01*
X161932824Y-95809961D02*
X161837586Y-95905200D01*
X161837586Y-95905200D02*
X161647110Y-96000438D01*
X161647110Y-96000438D02*
X161075681Y-96000438D01*
X161075681Y-96000438D02*
X160885205Y-95905200D01*
X160885205Y-95905200D02*
X160789967Y-95809961D01*
X163170919Y-94857580D02*
X162980443Y-94762342D01*
X162980443Y-94762342D02*
X162885205Y-94667104D01*
X162885205Y-94667104D02*
X162789967Y-94476628D01*
X162789967Y-94476628D02*
X162789967Y-94381390D01*
X162789967Y-94381390D02*
X162885205Y-94190914D01*
X162885205Y-94190914D02*
X162980443Y-94095676D01*
X162980443Y-94095676D02*
X163170919Y-94000438D01*
X163170919Y-94000438D02*
X163551872Y-94000438D01*
X163551872Y-94000438D02*
X163742348Y-94095676D01*
X163742348Y-94095676D02*
X163837586Y-94190914D01*
X163837586Y-94190914D02*
X163932824Y-94381390D01*
X163932824Y-94381390D02*
X163932824Y-94476628D01*
X163932824Y-94476628D02*
X163837586Y-94667104D01*
X163837586Y-94667104D02*
X163742348Y-94762342D01*
X163742348Y-94762342D02*
X163551872Y-94857580D01*
X163551872Y-94857580D02*
X163170919Y-94857580D01*
X163170919Y-94857580D02*
X162980443Y-94952819D01*
X162980443Y-94952819D02*
X162885205Y-95048057D01*
X162885205Y-95048057D02*
X162789967Y-95238533D01*
X162789967Y-95238533D02*
X162789967Y-95619485D01*
X162789967Y-95619485D02*
X162885205Y-95809961D01*
X162885205Y-95809961D02*
X162980443Y-95905200D01*
X162980443Y-95905200D02*
X163170919Y-96000438D01*
X163170919Y-96000438D02*
X163551872Y-96000438D01*
X163551872Y-96000438D02*
X163742348Y-95905200D01*
X163742348Y-95905200D02*
X163837586Y-95809961D01*
X163837586Y-95809961D02*
X163932824Y-95619485D01*
X163932824Y-95619485D02*
X163932824Y-95238533D01*
X163932824Y-95238533D02*
X163837586Y-95048057D01*
X163837586Y-95048057D02*
X163742348Y-94952819D01*
X163742348Y-94952819D02*
X163551872Y-94857580D01*
X153964871Y-112288438D02*
X155298204Y-112288438D01*
X155298204Y-112288438D02*
X154441061Y-114288438D01*
X156917252Y-112955104D02*
X156917252Y-114288438D01*
X156441061Y-112193200D02*
X155964871Y-113621771D01*
X155964871Y-113621771D02*
X157202966Y-113621771D01*
X158917252Y-114288438D02*
X157964871Y-114288438D01*
X157964871Y-114288438D02*
X157964871Y-112288438D01*
X159488681Y-114193200D02*
X159774395Y-114288438D01*
X159774395Y-114288438D02*
X160250586Y-114288438D01*
X160250586Y-114288438D02*
X160441062Y-114193200D01*
X160441062Y-114193200D02*
X160536300Y-114097961D01*
X160536300Y-114097961D02*
X160631538Y-113907485D01*
X160631538Y-113907485D02*
X160631538Y-113717009D01*
X160631538Y-113717009D02*
X160536300Y-113526533D01*
X160536300Y-113526533D02*
X160441062Y-113431295D01*
X160441062Y-113431295D02*
X160250586Y-113336057D01*
X160250586Y-113336057D02*
X159869633Y-113240819D01*
X159869633Y-113240819D02*
X159679157Y-113145580D01*
X159679157Y-113145580D02*
X159583919Y-113050342D01*
X159583919Y-113050342D02*
X159488681Y-112859866D01*
X159488681Y-112859866D02*
X159488681Y-112669390D01*
X159488681Y-112669390D02*
X159583919Y-112478914D01*
X159583919Y-112478914D02*
X159679157Y-112383676D01*
X159679157Y-112383676D02*
X159869633Y-112288438D01*
X159869633Y-112288438D02*
X160345824Y-112288438D01*
X160345824Y-112288438D02*
X160631538Y-112383676D01*
X161393443Y-112478914D02*
X161488681Y-112383676D01*
X161488681Y-112383676D02*
X161679157Y-112288438D01*
X161679157Y-112288438D02*
X162155348Y-112288438D01*
X162155348Y-112288438D02*
X162345824Y-112383676D01*
X162345824Y-112383676D02*
X162441062Y-112478914D01*
X162441062Y-112478914D02*
X162536300Y-112669390D01*
X162536300Y-112669390D02*
X162536300Y-112859866D01*
X162536300Y-112859866D02*
X162441062Y-113145580D01*
X162441062Y-113145580D02*
X161298205Y-114288438D01*
X161298205Y-114288438D02*
X162536300Y-114288438D01*
X164250586Y-112955104D02*
X164250586Y-114288438D01*
X163774395Y-112193200D02*
X163298205Y-113621771D01*
X163298205Y-113621771D02*
X164536300Y-113621771D01*
X166250586Y-112288438D02*
X165298205Y-112288438D01*
X165298205Y-112288438D02*
X165202967Y-113240819D01*
X165202967Y-113240819D02*
X165298205Y-113145580D01*
X165298205Y-113145580D02*
X165488681Y-113050342D01*
X165488681Y-113050342D02*
X165964872Y-113050342D01*
X165964872Y-113050342D02*
X166155348Y-113145580D01*
X166155348Y-113145580D02*
X166250586Y-113240819D01*
X166250586Y-113240819D02*
X166345824Y-113431295D01*
X166345824Y-113431295D02*
X166345824Y-113907485D01*
X166345824Y-113907485D02*
X166250586Y-114097961D01*
X166250586Y-114097961D02*
X166155348Y-114193200D01*
X166155348Y-114193200D02*
X165964872Y-114288438D01*
X165964872Y-114288438D02*
X165488681Y-114288438D01*
X165488681Y-114288438D02*
X165298205Y-114193200D01*
X165298205Y-114193200D02*
X165202967Y-114097961D01*
D12*
X119326819Y-95416666D02*
X118850628Y-95749999D01*
X119326819Y-95988094D02*
X118326819Y-95988094D01*
X118326819Y-95988094D02*
X118326819Y-95607142D01*
X118326819Y-95607142D02*
X118374438Y-95511904D01*
X118374438Y-95511904D02*
X118422057Y-95464285D01*
X118422057Y-95464285D02*
X118517295Y-95416666D01*
X118517295Y-95416666D02*
X118660152Y-95416666D01*
X118660152Y-95416666D02*
X118755390Y-95464285D01*
X118755390Y-95464285D02*
X118803009Y-95511904D01*
X118803009Y-95511904D02*
X118850628Y-95607142D01*
X118850628Y-95607142D02*
X118850628Y-95988094D01*
X118422057Y-95035713D02*
X118374438Y-94988094D01*
X118374438Y-94988094D02*
X118326819Y-94892856D01*
X118326819Y-94892856D02*
X118326819Y-94654761D01*
X118326819Y-94654761D02*
X118374438Y-94559523D01*
X118374438Y-94559523D02*
X118422057Y-94511904D01*
X118422057Y-94511904D02*
X118517295Y-94464285D01*
X118517295Y-94464285D02*
X118612533Y-94464285D01*
X118612533Y-94464285D02*
X118755390Y-94511904D01*
X118755390Y-94511904D02*
X119326819Y-95083332D01*
X119326819Y-95083332D02*
X119326819Y-94464285D01*
X142599580Y-93598666D02*
X142647200Y-93646285D01*
X142647200Y-93646285D02*
X142694819Y-93789142D01*
X142694819Y-93789142D02*
X142694819Y-93884380D01*
X142694819Y-93884380D02*
X142647200Y-94027237D01*
X142647200Y-94027237D02*
X142551961Y-94122475D01*
X142551961Y-94122475D02*
X142456723Y-94170094D01*
X142456723Y-94170094D02*
X142266247Y-94217713D01*
X142266247Y-94217713D02*
X142123390Y-94217713D01*
X142123390Y-94217713D02*
X141932914Y-94170094D01*
X141932914Y-94170094D02*
X141837676Y-94122475D01*
X141837676Y-94122475D02*
X141742438Y-94027237D01*
X141742438Y-94027237D02*
X141694819Y-93884380D01*
X141694819Y-93884380D02*
X141694819Y-93789142D01*
X141694819Y-93789142D02*
X141742438Y-93646285D01*
X141742438Y-93646285D02*
X141790057Y-93598666D01*
X142694819Y-92646285D02*
X142694819Y-93217713D01*
X142694819Y-92931999D02*
X141694819Y-92931999D01*
X141694819Y-92931999D02*
X141837676Y-93027237D01*
X141837676Y-93027237D02*
X141932914Y-93122475D01*
X141932914Y-93122475D02*
X141980533Y-93217713D01*
X176601333Y-125633580D02*
X176553714Y-125681200D01*
X176553714Y-125681200D02*
X176410857Y-125728819D01*
X176410857Y-125728819D02*
X176315619Y-125728819D01*
X176315619Y-125728819D02*
X176172762Y-125681200D01*
X176172762Y-125681200D02*
X176077524Y-125585961D01*
X176077524Y-125585961D02*
X176029905Y-125490723D01*
X176029905Y-125490723D02*
X175982286Y-125300247D01*
X175982286Y-125300247D02*
X175982286Y-125157390D01*
X175982286Y-125157390D02*
X176029905Y-124966914D01*
X176029905Y-124966914D02*
X176077524Y-124871676D01*
X176077524Y-124871676D02*
X176172762Y-124776438D01*
X176172762Y-124776438D02*
X176315619Y-124728819D01*
X176315619Y-124728819D02*
X176410857Y-124728819D01*
X176410857Y-124728819D02*
X176553714Y-124776438D01*
X176553714Y-124776438D02*
X176601333Y-124824057D01*
X177458476Y-124728819D02*
X177268000Y-124728819D01*
X177268000Y-124728819D02*
X177172762Y-124776438D01*
X177172762Y-124776438D02*
X177125143Y-124824057D01*
X177125143Y-124824057D02*
X177029905Y-124966914D01*
X177029905Y-124966914D02*
X176982286Y-125157390D01*
X176982286Y-125157390D02*
X176982286Y-125538342D01*
X176982286Y-125538342D02*
X177029905Y-125633580D01*
X177029905Y-125633580D02*
X177077524Y-125681200D01*
X177077524Y-125681200D02*
X177172762Y-125728819D01*
X177172762Y-125728819D02*
X177363238Y-125728819D01*
X177363238Y-125728819D02*
X177458476Y-125681200D01*
X177458476Y-125681200D02*
X177506095Y-125633580D01*
X177506095Y-125633580D02*
X177553714Y-125538342D01*
X177553714Y-125538342D02*
X177553714Y-125300247D01*
X177553714Y-125300247D02*
X177506095Y-125205009D01*
X177506095Y-125205009D02*
X177458476Y-125157390D01*
X177458476Y-125157390D02*
X177363238Y-125109771D01*
X177363238Y-125109771D02*
X177172762Y-125109771D01*
X177172762Y-125109771D02*
X177077524Y-125157390D01*
X177077524Y-125157390D02*
X177029905Y-125205009D01*
X177029905Y-125205009D02*
X176982286Y-125300247D01*
X177304883Y-114847666D02*
X177352503Y-114895285D01*
X177352503Y-114895285D02*
X177400122Y-115038142D01*
X177400122Y-115038142D02*
X177400122Y-115133380D01*
X177400122Y-115133380D02*
X177352503Y-115276237D01*
X177352503Y-115276237D02*
X177257264Y-115371475D01*
X177257264Y-115371475D02*
X177162026Y-115419094D01*
X177162026Y-115419094D02*
X176971550Y-115466713D01*
X176971550Y-115466713D02*
X176828693Y-115466713D01*
X176828693Y-115466713D02*
X176638217Y-115419094D01*
X176638217Y-115419094D02*
X176542979Y-115371475D01*
X176542979Y-115371475D02*
X176447741Y-115276237D01*
X176447741Y-115276237D02*
X176400122Y-115133380D01*
X176400122Y-115133380D02*
X176400122Y-115038142D01*
X176400122Y-115038142D02*
X176447741Y-114895285D01*
X176447741Y-114895285D02*
X176495360Y-114847666D01*
X176733455Y-113990523D02*
X177400122Y-113990523D01*
X176352503Y-114228618D02*
X177066788Y-114466713D01*
X177066788Y-114466713D02*
X177066788Y-113847666D01*
X170688095Y-106896819D02*
X170688095Y-107706342D01*
X170688095Y-107706342D02*
X170735714Y-107801580D01*
X170735714Y-107801580D02*
X170783333Y-107849200D01*
X170783333Y-107849200D02*
X170878571Y-107896819D01*
X170878571Y-107896819D02*
X171069047Y-107896819D01*
X171069047Y-107896819D02*
X171164285Y-107849200D01*
X171164285Y-107849200D02*
X171211904Y-107801580D01*
X171211904Y-107801580D02*
X171259523Y-107706342D01*
X171259523Y-107706342D02*
X171259523Y-106896819D01*
X172164285Y-107230152D02*
X172164285Y-107896819D01*
X171926190Y-106849200D02*
X171688095Y-107563485D01*
X171688095Y-107563485D02*
X172307142Y-107563485D01*
X137088666Y-88354819D02*
X137088666Y-89069104D01*
X137088666Y-89069104D02*
X137041047Y-89211961D01*
X137041047Y-89211961D02*
X136945809Y-89307200D01*
X136945809Y-89307200D02*
X136802952Y-89354819D01*
X136802952Y-89354819D02*
X136707714Y-89354819D01*
X137564857Y-89354819D02*
X137564857Y-88354819D01*
X137564857Y-88354819D02*
X137945809Y-88354819D01*
X137945809Y-88354819D02*
X138041047Y-88402438D01*
X138041047Y-88402438D02*
X138088666Y-88450057D01*
X138088666Y-88450057D02*
X138136285Y-88545295D01*
X138136285Y-88545295D02*
X138136285Y-88688152D01*
X138136285Y-88688152D02*
X138088666Y-88783390D01*
X138088666Y-88783390D02*
X138041047Y-88831009D01*
X138041047Y-88831009D02*
X137945809Y-88878628D01*
X137945809Y-88878628D02*
X137564857Y-88878628D01*
X139088666Y-89354819D02*
X138517238Y-89354819D01*
X138802952Y-89354819D02*
X138802952Y-88354819D01*
X138802952Y-88354819D02*
X138707714Y-88497676D01*
X138707714Y-88497676D02*
X138612476Y-88592914D01*
X138612476Y-88592914D02*
X138517238Y-88640533D01*
X136966666Y-93434819D02*
X136966666Y-94149104D01*
X136966666Y-94149104D02*
X136919047Y-94291961D01*
X136919047Y-94291961D02*
X136823809Y-94387200D01*
X136823809Y-94387200D02*
X136680952Y-94434819D01*
X136680952Y-94434819D02*
X136585714Y-94434819D01*
X137442857Y-94434819D02*
X137442857Y-93434819D01*
X137442857Y-93434819D02*
X137823809Y-93434819D01*
X137823809Y-93434819D02*
X137919047Y-93482438D01*
X137919047Y-93482438D02*
X137966666Y-93530057D01*
X137966666Y-93530057D02*
X138014285Y-93625295D01*
X138014285Y-93625295D02*
X138014285Y-93768152D01*
X138014285Y-93768152D02*
X137966666Y-93863390D01*
X137966666Y-93863390D02*
X137919047Y-93911009D01*
X137919047Y-93911009D02*
X137823809Y-93958628D01*
X137823809Y-93958628D02*
X137442857Y-93958628D01*
X138395238Y-93530057D02*
X138442857Y-93482438D01*
X138442857Y-93482438D02*
X138538095Y-93434819D01*
X138538095Y-93434819D02*
X138776190Y-93434819D01*
X138776190Y-93434819D02*
X138871428Y-93482438D01*
X138871428Y-93482438D02*
X138919047Y-93530057D01*
X138919047Y-93530057D02*
X138966666Y-93625295D01*
X138966666Y-93625295D02*
X138966666Y-93720533D01*
X138966666Y-93720533D02*
X138919047Y-93863390D01*
X138919047Y-93863390D02*
X138347619Y-94434819D01*
X138347619Y-94434819D02*
X138966666Y-94434819D01*
X136376580Y-119927666D02*
X136424200Y-119975285D01*
X136424200Y-119975285D02*
X136471819Y-120118142D01*
X136471819Y-120118142D02*
X136471819Y-120213380D01*
X136471819Y-120213380D02*
X136424200Y-120356237D01*
X136424200Y-120356237D02*
X136328961Y-120451475D01*
X136328961Y-120451475D02*
X136233723Y-120499094D01*
X136233723Y-120499094D02*
X136043247Y-120546713D01*
X136043247Y-120546713D02*
X135900390Y-120546713D01*
X135900390Y-120546713D02*
X135709914Y-120499094D01*
X135709914Y-120499094D02*
X135614676Y-120451475D01*
X135614676Y-120451475D02*
X135519438Y-120356237D01*
X135519438Y-120356237D02*
X135471819Y-120213380D01*
X135471819Y-120213380D02*
X135471819Y-120118142D01*
X135471819Y-120118142D02*
X135519438Y-119975285D01*
X135519438Y-119975285D02*
X135567057Y-119927666D01*
X135471819Y-119594332D02*
X135471819Y-118975285D01*
X135471819Y-118975285D02*
X135852771Y-119308618D01*
X135852771Y-119308618D02*
X135852771Y-119165761D01*
X135852771Y-119165761D02*
X135900390Y-119070523D01*
X135900390Y-119070523D02*
X135948009Y-119022904D01*
X135948009Y-119022904D02*
X136043247Y-118975285D01*
X136043247Y-118975285D02*
X136281342Y-118975285D01*
X136281342Y-118975285D02*
X136376580Y-119022904D01*
X136376580Y-119022904D02*
X136424200Y-119070523D01*
X136424200Y-119070523D02*
X136471819Y-119165761D01*
X136471819Y-119165761D02*
X136471819Y-119451475D01*
X136471819Y-119451475D02*
X136424200Y-119546713D01*
X136424200Y-119546713D02*
X136376580Y-119594332D01*
X128778095Y-104356819D02*
X128778095Y-105166342D01*
X128778095Y-105166342D02*
X128825714Y-105261580D01*
X128825714Y-105261580D02*
X128873333Y-105309200D01*
X128873333Y-105309200D02*
X128968571Y-105356819D01*
X128968571Y-105356819D02*
X129159047Y-105356819D01*
X129159047Y-105356819D02*
X129254285Y-105309200D01*
X129254285Y-105309200D02*
X129301904Y-105261580D01*
X129301904Y-105261580D02*
X129349523Y-105166342D01*
X129349523Y-105166342D02*
X129349523Y-104356819D01*
X129730476Y-104356819D02*
X130349523Y-104356819D01*
X130349523Y-104356819D02*
X130016190Y-104737771D01*
X130016190Y-104737771D02*
X130159047Y-104737771D01*
X130159047Y-104737771D02*
X130254285Y-104785390D01*
X130254285Y-104785390D02*
X130301904Y-104833009D01*
X130301904Y-104833009D02*
X130349523Y-104928247D01*
X130349523Y-104928247D02*
X130349523Y-105166342D01*
X130349523Y-105166342D02*
X130301904Y-105261580D01*
X130301904Y-105261580D02*
X130254285Y-105309200D01*
X130254285Y-105309200D02*
X130159047Y-105356819D01*
X130159047Y-105356819D02*
X129873333Y-105356819D01*
X129873333Y-105356819D02*
X129778095Y-105309200D01*
X129778095Y-105309200D02*
X129730476Y-105261580D01*
X113262580Y-96519666D02*
X113310200Y-96567285D01*
X113310200Y-96567285D02*
X113357819Y-96710142D01*
X113357819Y-96710142D02*
X113357819Y-96805380D01*
X113357819Y-96805380D02*
X113310200Y-96948237D01*
X113310200Y-96948237D02*
X113214961Y-97043475D01*
X113214961Y-97043475D02*
X113119723Y-97091094D01*
X113119723Y-97091094D02*
X112929247Y-97138713D01*
X112929247Y-97138713D02*
X112786390Y-97138713D01*
X112786390Y-97138713D02*
X112595914Y-97091094D01*
X112595914Y-97091094D02*
X112500676Y-97043475D01*
X112500676Y-97043475D02*
X112405438Y-96948237D01*
X112405438Y-96948237D02*
X112357819Y-96805380D01*
X112357819Y-96805380D02*
X112357819Y-96710142D01*
X112357819Y-96710142D02*
X112405438Y-96567285D01*
X112405438Y-96567285D02*
X112453057Y-96519666D01*
X112453057Y-96138713D02*
X112405438Y-96091094D01*
X112405438Y-96091094D02*
X112357819Y-95995856D01*
X112357819Y-95995856D02*
X112357819Y-95757761D01*
X112357819Y-95757761D02*
X112405438Y-95662523D01*
X112405438Y-95662523D02*
X112453057Y-95614904D01*
X112453057Y-95614904D02*
X112548295Y-95567285D01*
X112548295Y-95567285D02*
X112643533Y-95567285D01*
X112643533Y-95567285D02*
X112786390Y-95614904D01*
X112786390Y-95614904D02*
X113357819Y-96186332D01*
X113357819Y-96186332D02*
X113357819Y-95567285D01*
X125676819Y-95162666D02*
X125200628Y-95495999D01*
X125676819Y-95734094D02*
X124676819Y-95734094D01*
X124676819Y-95734094D02*
X124676819Y-95353142D01*
X124676819Y-95353142D02*
X124724438Y-95257904D01*
X124724438Y-95257904D02*
X124772057Y-95210285D01*
X124772057Y-95210285D02*
X124867295Y-95162666D01*
X124867295Y-95162666D02*
X125010152Y-95162666D01*
X125010152Y-95162666D02*
X125105390Y-95210285D01*
X125105390Y-95210285D02*
X125153009Y-95257904D01*
X125153009Y-95257904D02*
X125200628Y-95353142D01*
X125200628Y-95353142D02*
X125200628Y-95734094D01*
X125676819Y-94210285D02*
X125676819Y-94781713D01*
X125676819Y-94495999D02*
X124676819Y-94495999D01*
X124676819Y-94495999D02*
X124819676Y-94591237D01*
X124819676Y-94591237D02*
X124914914Y-94686475D01*
X124914914Y-94686475D02*
X124962533Y-94781713D01*
X147701095Y-88227819D02*
X147701095Y-89037342D01*
X147701095Y-89037342D02*
X147748714Y-89132580D01*
X147748714Y-89132580D02*
X147796333Y-89180200D01*
X147796333Y-89180200D02*
X147891571Y-89227819D01*
X147891571Y-89227819D02*
X148082047Y-89227819D01*
X148082047Y-89227819D02*
X148177285Y-89180200D01*
X148177285Y-89180200D02*
X148224904Y-89132580D01*
X148224904Y-89132580D02*
X148272523Y-89037342D01*
X148272523Y-89037342D02*
X148272523Y-88227819D01*
X149272523Y-89227819D02*
X148701095Y-89227819D01*
X148986809Y-89227819D02*
X148986809Y-88227819D01*
X148986809Y-88227819D02*
X148891571Y-88370676D01*
X148891571Y-88370676D02*
X148796333Y-88465914D01*
X148796333Y-88465914D02*
X148701095Y-88513533D01*
X105918095Y-88481819D02*
X105918095Y-89291342D01*
X105918095Y-89291342D02*
X105965714Y-89386580D01*
X105965714Y-89386580D02*
X106013333Y-89434200D01*
X106013333Y-89434200D02*
X106108571Y-89481819D01*
X106108571Y-89481819D02*
X106299047Y-89481819D01*
X106299047Y-89481819D02*
X106394285Y-89434200D01*
X106394285Y-89434200D02*
X106441904Y-89386580D01*
X106441904Y-89386580D02*
X106489523Y-89291342D01*
X106489523Y-89291342D02*
X106489523Y-88481819D01*
X106918095Y-88577057D02*
X106965714Y-88529438D01*
X106965714Y-88529438D02*
X107060952Y-88481819D01*
X107060952Y-88481819D02*
X107299047Y-88481819D01*
X107299047Y-88481819D02*
X107394285Y-88529438D01*
X107394285Y-88529438D02*
X107441904Y-88577057D01*
X107441904Y-88577057D02*
X107489523Y-88672295D01*
X107489523Y-88672295D02*
X107489523Y-88767533D01*
X107489523Y-88767533D02*
X107441904Y-88910390D01*
X107441904Y-88910390D02*
X106870476Y-89481819D01*
X106870476Y-89481819D02*
X107489523Y-89481819D01*
D13*
%TO.C,R2*%
X116840000Y-92380000D02*
X116840000Y-93330000D01*
X116840000Y-98120000D02*
X116840000Y-97170000D01*
X115920000Y-97170000D02*
X117760000Y-97170000D01*
X117760000Y-93330000D01*
X115920000Y-93330000D01*
X115920000Y-97170000D01*
%TO.C,C1*%
X143410000Y-90962000D02*
X143740000Y-90962000D01*
X143410000Y-95902000D02*
X143410000Y-90962000D01*
X143740000Y-95902000D02*
X143410000Y-95902000D01*
X145820000Y-90962000D02*
X146150000Y-90962000D01*
X146150000Y-90962000D02*
X146150000Y-95902000D01*
X146150000Y-95902000D02*
X145820000Y-95902000D01*
%TO.C,C6*%
X174498199Y-127329000D02*
X174898199Y-127329000D01*
X174698199Y-127129000D02*
X174698199Y-127529000D01*
X176768000Y-126444000D02*
X176768000Y-130604000D01*
X176808000Y-126444000D02*
X176808000Y-130604000D01*
X176848000Y-126446000D02*
X176848000Y-130602000D01*
X176888000Y-126447000D02*
X176888000Y-130601000D01*
X176928000Y-126450000D02*
X176928000Y-130598000D01*
X176968000Y-126453000D02*
X176968000Y-127684000D01*
X176968000Y-129364000D02*
X176968000Y-130595000D01*
X177008000Y-126458000D02*
X177008000Y-127684000D01*
X177008000Y-129364000D02*
X177008000Y-130590000D01*
X177048000Y-126463000D02*
X177048000Y-127684000D01*
X177048000Y-129364000D02*
X177048000Y-130585000D01*
X177088000Y-126468000D02*
X177088000Y-127684000D01*
X177088000Y-129364000D02*
X177088000Y-130580000D01*
X177128000Y-126475000D02*
X177128000Y-127684000D01*
X177128000Y-129364000D02*
X177128000Y-130573000D01*
X177168000Y-126482000D02*
X177168000Y-127684000D01*
X177168000Y-129364000D02*
X177168000Y-130566000D01*
X177208000Y-126490000D02*
X177208000Y-127684000D01*
X177208000Y-129364000D02*
X177208000Y-130558000D01*
X177248000Y-126499000D02*
X177248000Y-127684000D01*
X177248000Y-129364000D02*
X177248000Y-130549000D01*
X177288000Y-126509000D02*
X177288000Y-127684000D01*
X177288000Y-129364000D02*
X177288000Y-130539000D01*
X177328000Y-126519000D02*
X177328000Y-127684000D01*
X177328000Y-129364000D02*
X177328000Y-130529000D01*
X177368000Y-126531000D02*
X177368000Y-127684000D01*
X177368000Y-129364000D02*
X177368000Y-130517000D01*
X177408000Y-126543000D02*
X177408000Y-127684000D01*
X177408000Y-129364000D02*
X177408000Y-130505000D01*
X177448000Y-126556000D02*
X177448000Y-127684000D01*
X177448000Y-129364000D02*
X177448000Y-130492000D01*
X177488000Y-126570000D02*
X177488000Y-127684000D01*
X177488000Y-129364000D02*
X177488000Y-130478000D01*
X177528000Y-126585000D02*
X177528000Y-127684000D01*
X177528000Y-129364000D02*
X177528000Y-130463000D01*
X177568000Y-126601000D02*
X177568000Y-127684000D01*
X177568000Y-129364000D02*
X177568000Y-130447000D01*
X177608000Y-126618000D02*
X177608000Y-127684000D01*
X177608000Y-129364000D02*
X177608000Y-130430000D01*
X177648000Y-126635000D02*
X177648000Y-127684000D01*
X177648000Y-129364000D02*
X177648000Y-130413000D01*
X177688000Y-126654000D02*
X177688000Y-127684000D01*
X177688000Y-129364000D02*
X177688000Y-130394000D01*
X177728000Y-126674000D02*
X177728000Y-127684000D01*
X177728000Y-129364000D02*
X177728000Y-130374000D01*
X177768000Y-126695000D02*
X177768000Y-127684000D01*
X177768000Y-129364000D02*
X177768000Y-130353000D01*
X177808000Y-126717000D02*
X177808000Y-127684000D01*
X177808000Y-129364000D02*
X177808000Y-130331000D01*
X177848000Y-126740000D02*
X177848000Y-127684000D01*
X177848000Y-129364000D02*
X177848000Y-130308000D01*
X177888000Y-126764000D02*
X177888000Y-127684000D01*
X177888000Y-129364000D02*
X177888000Y-130284000D01*
X177928000Y-126790000D02*
X177928000Y-127684000D01*
X177928000Y-129364000D02*
X177928000Y-130258000D01*
X177968000Y-126816000D02*
X177968000Y-127684000D01*
X177968000Y-129364000D02*
X177968000Y-130232000D01*
X178008000Y-126844000D02*
X178008000Y-127684000D01*
X178008000Y-129364000D02*
X178008000Y-130204000D01*
X178048000Y-126874000D02*
X178048000Y-127684000D01*
X178048000Y-129364000D02*
X178048000Y-130174000D01*
X178088000Y-126905000D02*
X178088000Y-127684000D01*
X178088000Y-129364000D02*
X178088000Y-130143000D01*
X178128000Y-126938000D02*
X178128000Y-127684000D01*
X178128000Y-129364000D02*
X178128000Y-130110000D01*
X178168000Y-126972000D02*
X178168000Y-127684000D01*
X178168000Y-129364000D02*
X178168000Y-130076000D01*
X178208000Y-127008000D02*
X178208000Y-127684000D01*
X178208000Y-129364000D02*
X178208000Y-130040000D01*
X178248000Y-127046000D02*
X178248000Y-127684000D01*
X178248000Y-129364000D02*
X178248000Y-130002000D01*
X178288000Y-127086000D02*
X178288000Y-127684000D01*
X178288000Y-129364000D02*
X178288000Y-129962000D01*
X178328000Y-127128000D02*
X178328000Y-127684000D01*
X178328000Y-129364000D02*
X178328000Y-129920000D01*
X178368000Y-127173000D02*
X178368000Y-127684000D01*
X178368000Y-129364000D02*
X178368000Y-129875000D01*
X178408000Y-127221000D02*
X178408000Y-127684000D01*
X178408000Y-129364000D02*
X178408000Y-129827000D01*
X178448000Y-127271000D02*
X178448000Y-127684000D01*
X178448000Y-129364000D02*
X178448000Y-129777000D01*
X178488000Y-127325000D02*
X178488000Y-127684000D01*
X178488000Y-129364000D02*
X178488000Y-129723000D01*
X178528000Y-127382000D02*
X178528000Y-127684000D01*
X178528000Y-129364000D02*
X178528000Y-129666000D01*
X178568000Y-127444000D02*
X178568000Y-127684000D01*
X178568000Y-129364000D02*
X178568000Y-129604000D01*
X178608000Y-127511000D02*
X178608000Y-129537000D01*
X178648000Y-127584000D02*
X178648000Y-129464000D01*
X178688000Y-127665000D02*
X178688000Y-129383000D01*
X178728000Y-127756000D02*
X178728000Y-129292000D01*
X178768000Y-127861000D02*
X178768000Y-129187000D01*
X178808000Y-127987000D02*
X178808000Y-129061000D01*
X178848000Y-128154000D02*
X178848000Y-128894000D01*
X178888000Y-128524000D02*
G75*
G02*
X174648000Y-128524000I-2120000J0D01*
G01*
X174648000Y-128524000D02*
G75*
G02*
X178888000Y-128524000I2120000J0D01*
G01*
%TO.C,C4*%
X173128000Y-112338000D02*
X173458000Y-112338000D01*
X173128000Y-117278000D02*
X173128000Y-112338000D01*
X173458000Y-117278000D02*
X173128000Y-117278000D01*
X175538000Y-112338000D02*
X175868000Y-112338000D01*
X175868000Y-112338000D02*
X175868000Y-117278000D01*
X175868000Y-117278000D02*
X175538000Y-117278000D01*
%TO.C,U4*%
X147260000Y-110761000D02*
X147260000Y-116061000D01*
X147260000Y-116061000D02*
X172780000Y-116061000D01*
X172780000Y-110761000D02*
X147260000Y-110761000D01*
X172780000Y-112411000D02*
X172780000Y-110761000D01*
X172780000Y-116061000D02*
X172780000Y-114411000D01*
X172780000Y-114411000D02*
G75*
G02*
X172780000Y-112411000I0J1000000D01*
G01*
%TO.C,JP1*%
X130573000Y-87520000D02*
X130573000Y-90280000D01*
X133223000Y-87520000D02*
X130573000Y-87520000D01*
X133223000Y-87520000D02*
X133223000Y-90280000D01*
X133223000Y-90280000D02*
X130573000Y-90280000D01*
X134493000Y-87520000D02*
X135873000Y-87520000D01*
X135873000Y-87520000D02*
X135873000Y-88900000D01*
%TO.C,JP2*%
X130451000Y-92600000D02*
X130451000Y-95360000D01*
X133101000Y-92600000D02*
X130451000Y-92600000D01*
X133101000Y-92600000D02*
X133101000Y-95360000D01*
X133101000Y-95360000D02*
X130451000Y-95360000D01*
X134371000Y-92600000D02*
X135751000Y-92600000D01*
X135751000Y-92600000D02*
X135751000Y-93980000D01*
%TO.C,C3*%
X131980000Y-117545000D02*
X132310000Y-117545000D01*
X131980000Y-122485000D02*
X131980000Y-117545000D01*
X132310000Y-122485000D02*
X131980000Y-122485000D01*
X134390000Y-117545000D02*
X134720000Y-117545000D01*
X134720000Y-117545000D02*
X134720000Y-122485000D01*
X134720000Y-122485000D02*
X134390000Y-122485000D01*
%TO.C,U3*%
X90109999Y-108348001D02*
X90109999Y-121268001D01*
X90109999Y-121268001D02*
X130869999Y-121268001D01*
X130869999Y-108348001D02*
X90109999Y-108348001D01*
X130869999Y-113808001D02*
X130869999Y-108348001D01*
X130869999Y-121268001D02*
X130869999Y-115808001D01*
X130869999Y-115808001D02*
G75*
G02*
X130869999Y-113808001I0J1000000D01*
G01*
%TO.C,C2*%
X109120000Y-94050000D02*
X109450000Y-94050000D01*
X109120000Y-98990000D02*
X109120000Y-94050000D01*
X109450000Y-98990000D02*
X109120000Y-98990000D01*
X111530000Y-94050000D02*
X111860000Y-94050000D01*
X111860000Y-94050000D02*
X111860000Y-98990000D01*
X111860000Y-98990000D02*
X111530000Y-98990000D01*
%TO.C,R1*%
X123190000Y-92380000D02*
X123190000Y-93330000D01*
X123190000Y-98120000D02*
X123190000Y-97170000D01*
X122270000Y-97170000D02*
X124110000Y-97170000D01*
X124110000Y-93330000D01*
X122270000Y-93330000D01*
X122270000Y-97170000D01*
%TO.C,U1*%
X147260000Y-92092000D02*
X147260000Y-93742000D01*
X147260000Y-95742000D02*
X147260000Y-97392000D01*
X147260000Y-97392000D02*
X167700000Y-97392000D01*
X167700000Y-92092000D02*
X147260000Y-92092000D01*
X167700000Y-97392000D02*
X167700000Y-92092000D01*
X147260000Y-93742000D02*
G75*
G02*
X147260000Y-95742000I0J-1000000D01*
G01*
%TO.C,U2*%
X90110000Y-92600000D02*
X90110000Y-97900000D01*
X90110000Y-97900000D02*
X108010000Y-97900000D01*
X108010000Y-92600000D02*
X90110000Y-92600000D01*
X108010000Y-94250000D02*
X108010000Y-92600000D01*
X108010000Y-97900000D02*
X108010000Y-96250000D01*
X108010000Y-96250000D02*
G75*
G02*
X108010000Y-94250000I0J1000000D01*
G01*
%TD*%
M02*
