M48
; DRILL file {KiCad 9.0.7} date 2026-01-22T10:29:50+0100
; FORMAT={-:-/ absolute / metric / decimal}
; #@! TF.CreationDate,2026-01-22T10:29:50+01:00
; #@! TF.GenerationSoftware,Kicad,Pcbnew,9.0.7
; #@! TF.FileFunction,Plated,1,2,PTH
FMAT,2
METRIC
; #@! TA.AperFunction,Plated,PTH,ViaDrill
T1C0.500
; #@! TA.AperFunction,Plated,PTH,ComponentDrill
T2C0.600
; #@! TA.AperFunction,Plated,PTH,ComponentDrill
T3C0.700
; #@! TA.AperFunction,Plated,PTH,ComponentDrill
T4C0.800
; #@! TA.AperFunction,Plated,PTH,ComponentDrill
T5C1.000
%
G90
G05
T1
X90.17Y-125.984
X90.17Y-128.524
X90.17Y-131.064
X90.17Y-133.604
X92.71Y-125.984
X92.71Y-128.524
X92.71Y-131.064
X92.71Y-133.604
X95.25Y-125.984
X95.25Y-128.524
X95.25Y-131.064
X95.25Y-133.604
X97.79Y-125.984
X97.79Y-128.524
X97.79Y-131.064
X97.79Y-133.604
X113.157Y-101.6
X113.157Y-104.14
X115.697Y-101.6
X115.697Y-104.14
X118.237Y-101.6
X118.237Y-104.14
X120.777Y-96.52
X127.127Y-93.853
X128.524Y-117.602
X130.937Y-104.14
X131.953Y-100.457
X133.096Y-101.6
X133.35Y-106.553
X133.35Y-108.966
X134.493Y-102.997
X135.89Y-104.394
X135.89Y-106.68
X135.89Y-124.46
X136.398Y-128.524
X136.525Y-100.203
X137.922Y-102.108
X139.319Y-100.203
X145.793Y-117.632
X146.05Y-121.92
X154.94Y-133.985
X165.1Y-102.362
X165.1Y-104.902
X167.64Y-102.362
X167.64Y-104.902
X169.926Y-91.567
X169.926Y-94.107
X170.18Y-102.362
X170.18Y-104.902
X170.307Y-122.682
X170.307Y-125.222
X172.466Y-91.567
X172.466Y-94.107
X172.847Y-122.682
X172.847Y-125.222
X175.006Y-91.567
X175.006Y-94.107
T2
X175.768Y-128.524
X177.768Y-128.524
T3
X116.84Y-91.44
X116.84Y-99.06
X123.19Y-91.44
X123.19Y-99.06
T4
X91.44Y-107.188
X91.44Y-122.428
X91.44Y-91.44
X91.44Y-99.06
X93.98Y-107.188
X93.98Y-122.428
X93.98Y-91.44
X93.98Y-99.06
X96.52Y-107.188
X96.52Y-122.428
X96.52Y-91.44
X96.52Y-99.06
X99.06Y-107.188
X99.06Y-122.428
X99.06Y-91.44
X99.06Y-99.06
X101.6Y-107.188
X101.6Y-122.428
X101.6Y-91.44
X101.6Y-99.06
X104.14Y-107.188
X104.14Y-122.428
X104.14Y-91.44
X104.14Y-99.06
X106.68Y-107.188
X106.68Y-122.428
X106.68Y-91.44
X106.68Y-99.06
X109.22Y-107.188
X109.22Y-122.428
X110.49Y-94.02
X110.49Y-99.02
X111.76Y-107.188
X111.76Y-122.428
X114.3Y-107.188
X114.3Y-122.428
X116.84Y-107.188
X116.84Y-122.428
X119.38Y-107.188
X119.38Y-122.428
X121.92Y-107.188
X121.92Y-122.428
X124.46Y-107.188
X124.46Y-122.428
X127.0Y-107.188
X127.0Y-122.428
X129.54Y-107.188
X129.54Y-122.428
X133.35Y-117.515
X133.35Y-122.515
X144.78Y-90.932
X144.78Y-95.932
X148.59Y-90.932
X148.59Y-98.552
X148.59Y-109.601
X148.59Y-117.221
X151.13Y-90.932
X151.13Y-98.552
X151.13Y-109.601
X151.13Y-117.221
X153.67Y-90.932
X153.67Y-98.552
X153.67Y-109.601
X153.67Y-117.221
X156.21Y-90.932
X156.21Y-98.552
X156.21Y-109.601
X156.21Y-117.221
X158.75Y-90.932
X158.75Y-98.552
X158.75Y-109.601
X158.75Y-117.221
X161.29Y-90.932
X161.29Y-98.552
X161.29Y-109.601
X161.29Y-117.221
X163.83Y-90.932
X163.83Y-98.552
X163.83Y-109.601
X163.83Y-117.221
X166.37Y-90.932
X166.37Y-98.552
X166.37Y-109.601
X166.37Y-117.221
X168.91Y-109.601
X168.91Y-117.221
X171.45Y-109.601
X171.45Y-117.221
X174.498Y-112.308
X174.498Y-117.308
T5
X131.831Y-93.98
X131.953Y-88.9
X134.371Y-93.98
X134.493Y-88.9
M30
